<svg width="52" height="52" viewBox="0 0 52 52" fill="none" xmlns="http://www.w3.org/2000/svg">
<g clip-path="url(#clip0_5999_94706)">
<path d="M20.7315 9.05664L5.62576 20.0674C5.29656 20.3074 4.99976 20.5886 4.74268 20.9041L8.7484 24.3832L16.1108 26.6905L27.3302 18.0451L20.7315 9.05664Z" fill="#FFB69E"/>
<path d="M25.5332 15.5967C25.1638 15.8608 24.7179 16.0192 24.2645 16.0192C23.0422 16.0192 22.137 15.0243 22.0841 13.8479C22.0527 13.15 22.4271 12.5138 22.9757 12.113L20.7318 9.05664L5.62622 20.0673C5.10255 20.449 4.6629 20.9334 4.33433 21.4908C4.00576 22.0481 3.79524 22.6665 3.71572 23.3079L0.824748 46.637C0.635334 48.1594 1.82798 49.4983 3.36696 49.4983C4.63954 49.4983 5.7423 48.5534 5.90277 47.2635L8.74906 24.383L16.1114 26.6903L27.3306 18.0449L25.5332 15.5967Z" fill="#53618C"/>
<path d="M27.151 32.5915L22.7146 30.3128C22.2877 30.0936 21.9446 29.7412 21.7376 29.3095C21.5307 28.8779 21.4713 28.3906 21.5685 27.9222L23.4328 18.9357C23.6787 17.7506 24.8425 16.9884 26.0327 17.2333C27.2227 17.4781 27.9881 18.6372 27.7423 19.8224L26.2158 27.1804L29.1681 28.6968C30.248 29.2516 30.6719 30.573 30.1151 31.6485C29.5561 32.7276 28.2275 33.1445 27.151 32.5915Z" fill="#FFB69E"/>
<path d="M17.1105 47.6829L10.1077 24.505C9.70061 23.1576 10.4675 21.7366 11.8205 21.3313C13.1732 20.926 14.6005 21.6896 15.0075 23.0371L22.0102 46.215C22.4173 47.5624 21.6504 48.9834 20.2973 49.3887C18.9383 49.796 17.5155 49.0244 17.1105 47.6829Z" fill="#414B82"/>
<path d="M25.5327 15.5967C25.1633 15.8608 24.7175 16.0192 24.264 16.0192C23.0417 16.0192 22.1366 15.0243 22.0837 13.8479C22.0523 13.15 22.4266 12.5138 22.9753 12.113L20.7314 9.05664L5.62576 20.0673C5.29656 20.3073 4.99976 20.5885 4.74268 20.904L8.7484 24.3831L16.1108 26.6904L27.3302 18.045L25.5327 15.5967Z" fill="#98DBA5"/>
<path d="M29.288 14.698C31.8575 14.698 33.9405 12.6236 33.9405 10.0648C33.9405 7.50598 31.8575 5.43164 29.288 5.43164C26.7185 5.43164 24.6355 7.50598 24.6355 10.0648C24.6355 12.6236 26.7185 14.698 29.288 14.698Z" fill="#FFB69E"/>
<path d="M34.3554 39.6378L0.552814 9.63309C-0.128264 9.02847 -0.188287 7.98864 0.418752 7.31029C1.02579 6.63203 2.06995 6.57226 2.75124 7.17678L36.5539 37.1816C37.235 37.7862 37.295 38.8261 36.6879 39.5044C36.081 40.1826 35.0368 40.2424 34.3554 39.6378Z" fill="#80391B"/>
<path d="M6.89507 16.3569C5.77392 15.8903 5.24458 14.607 5.71319 13.4904L9.84902 3.6319C10.4192 2.27256 12.1538 1.84747 13.2918 2.79668L20.4331 8.75237C21.3648 9.52934 21.4876 10.9112 20.7074 11.8389C19.9272 12.7667 18.5396 12.8889 17.608 12.112L12.7573 8.06684L9.77325 15.1796C9.30728 16.2906 8.0215 16.8256 6.89507 16.3569Z" fill="#FFB69E"/>
<path d="M26.8106 24.3134L27.7423 19.8227C27.9882 18.6376 27.2227 17.4784 26.0327 17.2336C24.8427 16.9887 23.6788 17.7509 23.4328 18.936L22.3173 24.3133L26.6658 25.0119L26.8106 24.3134ZM20.4335 8.75299L17.0973 5.9707L14.5181 9.53552L14.983 9.9233L17.6083 12.1126C18.54 12.8897 19.9276 12.7673 20.7077 11.8395C21.4879 10.9118 21.3651 9.52996 20.4335 8.75299Z" fill="#98DBA5"/>
<path d="M29.7872 49.4987C27.8824 49.4987 26.8098 47.3039 27.9916 45.8115L38.1243 33.015C38.318 32.7705 38.5648 32.5728 38.8462 32.4369C39.1276 32.3011 39.4363 32.2305 39.749 32.2305C40.0617 32.2305 40.3704 32.3011 40.6518 32.4369C40.9332 32.5728 41.18 32.7705 41.3737 33.015L51.5064 45.8115C52.6857 47.3009 51.6193 49.4987 49.7109 49.4987H29.7872Z" fill="#6C9BAA"/>
</g>
<defs>
<clipPath id="clip0_5999_94706">
<rect width="52" height="51.7842" fill="white"/>
</clipPath>
</defs>
</svg>
