<svg width="59" height="59" viewBox="0 0 59 59" fill="none" xmlns="http://www.w3.org/2000/svg">
<path d="M8.55533 9.18609C8.38743 8.73973 8.82369 8.30348 9.27004 8.47138L17.3524 11.3391L17.8973 2.57617C17.9135 2.09717 18.4866 1.86063 18.836 2.18848L25.6205 8.30288L29.0542 0.32577C29.2511 -0.10859 29.868 -0.10859 30.0649 0.32577L33.4986 8.38659L40.3339 2.25759C40.684 1.93045 41.2565 2.1683 41.2718 2.6473L41.4262 11.1546L49.8143 8.55533C50.2606 8.38743 50.6969 8.82369 50.529 9.27004L47.3081 17.9104L56.4242 17.8973C56.9032 17.9135 57.1397 18.4865 56.8119 18.836L50.4818 25.8359L58.6746 29.0541C59.1089 29.2509 59.1089 29.8679 58.6746 30.0648L50.2123 34.1765L56.7428 40.3336C57.0699 40.6838 56.8321 41.2564 56.3531 41.2716C56.3531 41.2716 46.5371 41.3836 46.65 41.4258C46.7629 41.4681 50.4449 49.8139 50.4449 49.8139C50.6128 50.2603 50.1766 50.6965 49.7302 50.5286L41.2674 47.2149L41.103 56.4238C41.0867 56.9028 40.5137 57.1394 40.1642 56.8115L33.7595 50.4815L29.9462 58.6742C29.7493 59.1086 29.1323 59.1086 28.9354 58.6742L25.0536 50.1809L18.6666 56.7424C18.3164 57.0695 17.744 56.8317 17.7287 56.3527L17.5604 47.5499L9.18633 50.4445C8.73997 50.6125 8.30371 50.1762 8.47161 49.7298L11.9765 41.2671L2.57641 41.1026C2.09741 41.0863 1.86087 40.5134 2.18872 40.1638L8.38683 33.9394L0.32577 29.9459C-0.10859 29.7491 -0.10859 29.1321 0.32577 28.9352L8.99444 25.2596L2.25759 18.6664C1.93045 18.3162 2.1683 17.7436 2.6473 17.7284L11.5058 17.5858L8.55533 9.18609Z" fill="#FEE97D"/>
<path d="M52.3944 23.7193C51.8824 21.686 51.1 19.7306 50.0683 17.9052L47.3079 17.9092L48.3069 15.2292C46.9435 13.4351 45.3316 11.8443 43.5197 10.5046L41.4259 11.1534L41.3886 9.10044C39.5277 8.01265 37.5257 7.18643 35.4393 6.64509L33.4985 8.38538L32.5175 6.08213C30.5469 5.83087 28.5527 5.82684 26.5811 6.07014L25.6206 8.30154L23.7339 6.60115C21.5384 7.1529 19.4343 8.01952 17.4871 9.17406L17.3525 11.3378L15.3267 10.6189C13.5728 11.9384 12.0102 13.4947 10.6836 15.2432L11.506 17.5845L9.09472 17.6233C8.09345 19.3387 7.31393 21.1742 6.77485 23.0858L8.99462 25.2583L6.08199 26.4934C5.81519 28.5941 5.82976 30.721 6.12533 32.8178L8.3869 33.9383L6.69862 35.6337C7.22207 37.585 7.99539 39.4606 8.99937 41.2138L11.9765 41.2659L10.8533 43.9779C12.1295 45.6188 13.6157 47.0851 15.2736 48.3391L17.5603 47.5486L17.6052 49.894C19.3204 50.8973 21.156 51.6787 23.068 52.2195L25.0536 50.1796L26.2918 52.8888C27.3551 53.0336 28.427 53.1064 29.5001 53.1066C30.5625 53.1066 31.6082 53.0352 32.6334 52.8993L33.7594 50.48L35.6081 52.3071C37.5701 51.7833 39.4557 51.0069 41.2177 49.9976L41.2675 47.2134L43.8669 48.2313C45.3867 47.064 46.7595 45.717 47.9555 44.2197C47.2671 42.6902 46.6934 41.4408 46.65 41.4244C46.6056 41.4077 48.0949 41.3803 49.9192 41.3532C50.8919 39.6822 51.6545 37.8974 52.1895 36.0394L50.2121 34.175L52.8653 32.8858C53.0269 31.764 53.108 30.632 53.1082 29.4986C53.1082 28.5878 53.0548 27.6897 52.9545 26.8058L50.4817 25.8344L52.3944 23.7193Z" fill="#FEDF30"/>
<path d="M49.3389 29.4993C49.3389 40.4561 40.4566 49.3384 29.4998 49.3384C18.5429 49.3384 9.65981 40.4562 9.66064 29.4993C9.66159 18.5421 18.5472 9.65897 29.4998 9.66016C40.4567 9.66134 49.3389 18.5424 49.3389 29.4993Z" fill="#FED402"/>
<path d="M35.9084 46.1342C24.9516 46.1342 16.0693 37.2519 16.0693 26.2951C16.0693 19.8139 19.1787 14.058 23.9854 10.4375C15.7121 12.8272 9.66064 20.4575 9.66064 29.5002C9.66064 40.457 18.5429 49.3393 29.4998 49.3393C33.9755 49.3393 38.1057 47.856 41.4251 45.3558C39.6319 45.8733 37.7747 46.1353 35.9084 46.1342Z" fill="#FAC600"/>
<path d="M44.7861 29.4991C44.7861 37.9414 37.9423 44.7853 29.4999 44.7853C21.0576 44.7853 14.213 37.9414 14.2137 29.4991C14.2145 21.0565 21.0609 14.2119 29.4999 14.2129C37.9423 14.2138 44.7861 21.0567 44.7861 29.4991Z" fill="#FEDF30"/>
<path d="M14.2137 29.4998C14.213 37.6551 20.6002 44.3181 28.6446 44.7618C21.2811 41.8631 16.0693 34.6876 16.0693 26.2948C16.0693 24.4711 16.3156 22.7048 16.7764 21.0273C15.1583 23.4525 14.214 26.3659 14.2137 29.4998Z" fill="#FED402"/>
<path d="M25.2955 19.524L21.7507 28.4619C21.5758 28.903 21.9008 29.3816 22.3754 29.3816H27.56C27.9897 29.3816 28.309 29.7793 28.2161 30.1989L25.9916 40.2493C25.8355 40.955 26.751 41.376 27.1851 40.7981L37.2471 27.4009C37.5798 26.958 37.2637 26.3253 36.7098 26.3253H34.2685C33.7388 26.3253 33.4174 25.741 33.7008 25.2936L36.972 20.1314C37.2555 19.6839 36.934 19.0996 36.4043 19.0996H25.9203C25.7856 19.0997 25.6541 19.1402 25.5427 19.2158C25.4313 19.2915 25.3452 19.3988 25.2955 19.524Z" fill="#FFF9E2"/>
</svg>
