<svg width="58" height="58" viewBox="0 0 58 58" fill="none" xmlns="http://www.w3.org/2000/svg">
<path d="M15.909 47.7243C15.9241 48.7731 15.7287 49.8142 15.3343 50.786C14.94 51.7579 14.3546 52.6408 13.613 53.3824C12.8714 54.1241 11.9885 54.7094 11.0166 55.1038C10.0447 55.4981 9.00363 55.6935 7.9549 55.6784C6.90617 55.6935 5.86506 55.4981 4.89319 55.1038C3.92131 54.7094 3.03843 54.1241 2.29679 53.3824C1.55515 52.6408 0.969821 51.7579 0.57545 50.786C0.18108 49.8142 -0.0143196 48.7731 0.0008167 47.7243C0.0008167 41.7588 5.96638 40.7645 7.9549 33.8047C9.94342 40.7645 15.909 41.7588 15.909 47.7243Z" fill="#3B97D3"/>
<path d="M7.95512 52.6957C7.2145 52.7311 6.47596 52.5917 5.79922 52.2887C5.12248 51.9858 4.52654 51.5278 4.05961 50.9518C3.55832 50.2657 3.21825 49.4753 3.0647 48.6396C2.91115 47.8038 2.94807 46.9442 3.17273 46.1247C3.23832 45.8705 3.40175 45.6527 3.62735 45.5185C3.85296 45.3844 4.12245 45.3449 4.37705 45.4087C4.63164 45.4725 4.85069 45.6344 4.98642 45.859C5.12215 46.0836 5.16355 46.3528 5.10159 46.6079C4.9501 47.1345 4.91871 47.6883 5.00974 48.2287C5.10077 48.769 5.31189 49.282 5.62755 49.7299C5.90913 50.067 6.26743 50.3317 6.67242 50.5017C7.07741 50.6718 7.51727 50.7423 7.95512 50.7072C8.21881 50.7072 8.4717 50.812 8.65816 50.9984C8.84462 51.1849 8.94938 51.4378 8.94938 51.7015C8.94938 51.9652 8.84462 52.2181 8.65816 52.4045C8.4717 52.591 8.21881 52.6957 7.95512 52.6957Z" fill="white"/>
<path d="M33.8061 2.17773V12.9257C32.5076 12.5465 31.1277 12.5465 29.8291 12.9257V2.17773H33.8061Z" fill="#95A5A5"/>
<path d="M26.6274 31.5087C24.6739 30.4492 23.0866 28.8237 22.0737 26.8457H14.915C14.3881 26.8472 13.8832 27.0572 13.5106 27.4298C13.1381 27.8024 12.9281 28.3073 12.9265 28.8342V33.8055C12.9249 34.3324 12.7149 34.8373 12.3423 35.2098C11.9697 35.5824 11.4649 35.7924 10.938 35.794H4.97241C4.4455 35.7924 3.94063 35.5824 3.56805 35.2098C3.19547 34.8373 2.98546 34.3324 2.98389 33.8055V26.8457C2.98389 21.3544 7.43519 16.9031 12.9265 16.9031H22.0737C22.837 15.4101 23.9334 14.1127 25.2782 13.1111C26.6229 12.1094 28.1799 11.4304 29.8289 11.1264C31.1426 10.8745 32.4922 10.8745 33.8059 11.1264C35.2861 11.3978 36.6942 11.9725 37.9416 12.8144C39.1889 13.6562 40.2486 14.747 41.0541 16.0182C41.418 16.575 42.0394 16.908 42.7046 16.9031H54.6854L51.7026 27.8896L26.6274 31.5087Z" fill="#BDC3C7"/>
<path d="M25.6144 19.7056C25.4442 19.7055 25.2769 19.6617 25.1285 19.5785C24.9801 19.4952 24.8555 19.3753 24.7667 19.2301C24.6779 19.085 24.6279 18.9194 24.6213 18.7494C24.6148 18.5793 24.6521 18.4105 24.7295 18.2589C25.3936 16.9503 26.4077 15.8517 27.6592 15.0853C28.9106 14.3189 30.3501 13.9148 31.8176 13.918C32.0813 13.918 32.3342 14.0227 32.5206 14.2092C32.7071 14.3957 32.8118 14.6486 32.8118 14.9122C32.8118 15.1759 32.7071 15.4288 32.5206 15.6153C32.3342 15.8018 32.0813 15.9065 31.8176 15.9065C30.7166 15.9041 29.6366 16.2073 28.6978 16.7824C27.759 17.3575 26.9983 18.1818 26.5003 19.1637C26.4169 19.3269 26.29 19.4639 26.1337 19.5595C25.9774 19.6551 25.7976 19.7057 25.6144 19.7056Z" fill="white"/>
<path d="M41.7602 1.98855C41.7632 2.51551 41.5514 3.02258 41.1736 3.39046C40.8057 3.76828 40.2987 3.98005 39.7717 3.97707H23.8636C23.3366 3.9755 22.8318 3.76549 22.4592 3.39291C22.0866 3.02033 21.8766 2.51546 21.875 1.98855C21.872 1.46159 22.0838 0.954521 22.4616 0.586644C22.8295 0.208826 23.3366 -0.00295169 23.8636 3.1087e-05H39.7717C40.2986 0.00160473 40.8035 0.211614 41.1761 0.584193C41.5486 0.956773 41.7587 1.46165 41.7602 1.98855Z" fill="#BDC3C7"/>
<path d="M57.6682 11.9318V31.817C57.6682 32.0807 57.5634 32.3335 57.377 32.52C57.1905 32.7065 56.9376 32.8112 56.6739 32.8112H55.6797C54.6815 30.9311 53.3313 29.2602 51.7026 27.8896V11.9318C51.7026 11.6681 51.8074 11.4152 51.9938 11.2287C52.1803 11.0423 52.4332 10.9375 52.6969 10.9375H56.6739C56.9376 10.9375 57.1905 11.0423 57.377 11.2287C57.5634 11.4152 57.6682 11.6681 57.6682 11.9318Z" fill="#95A5A5"/>
<path d="M57.6681 40.7655C57.6729 44.6228 56.3599 48.366 53.9465 51.375C51.533 54.3841 48.1641 56.4784 44.3977 57.3109C40.6313 58.1435 36.6935 57.6645 33.2366 55.9532C29.7797 54.2418 27.0112 51.4009 25.3896 47.901C23.768 44.4011 23.3907 40.4522 24.3202 36.7086C25.2497 32.9649 27.4302 29.6511 30.5005 27.3162C33.5708 24.9812 37.3467 23.7651 41.2026 23.8695C45.0585 23.9738 48.763 25.3922 51.7026 27.8898C53.5736 29.4729 55.0767 31.4452 56.107 33.669C57.1373 35.8928 57.6701 38.3146 57.6681 40.7655Z" fill="#F3D55B"/>
<path d="M40.765 53.6906C47.9035 53.6906 53.6904 47.9037 53.6904 40.7652C53.6904 33.6267 47.9035 27.8398 40.765 27.8398C33.6265 27.8398 27.8396 33.6267 27.8396 40.7652C27.8396 47.9037 33.6265 53.6906 40.765 53.6906Z" fill="#7DBD8A"/>
<path d="M38.7773 47.7245C38.5137 47.7244 38.2608 47.6196 38.0744 47.4332L35.0916 44.4504C34.9105 44.2629 34.8103 44.0117 34.8125 43.751C34.8148 43.4903 34.9194 43.241 35.1037 43.0566C35.2881 42.8723 35.5374 42.7677 35.7981 42.7654C36.0588 42.7632 36.31 42.8634 36.4975 43.0445L38.5685 45.1146L44.8781 34.302C44.9389 34.1809 45.0239 34.0735 45.1277 33.9864C45.2315 33.8993 45.3521 33.8343 45.4819 33.7955C45.6118 33.7567 45.7482 33.7449 45.8828 33.7607C46.0174 33.7766 46.1473 33.8197 46.2646 33.8876C46.3819 33.9555 46.4841 34.0466 46.5649 34.1555C46.6457 34.2643 46.7034 34.3884 46.7344 34.5204C46.7655 34.6523 46.7692 34.7892 46.7455 34.9226C46.7217 35.056 46.6709 35.1832 46.5962 35.2962L39.6364 47.2274C39.5597 47.3589 39.4538 47.471 39.3269 47.5551C39.2001 47.6392 39.0556 47.6931 38.9046 47.7126C38.8628 47.7185 38.8201 47.7225 38.7773 47.7245Z" fill="white"/>
</svg>
