<svg width="56" height="65" viewBox="0 0 56 65" fill="none" xmlns="http://www.w3.org/2000/svg">
<path d="M41.0525 5.56925L39.1958 6.80702L36.1013 6.18814L34.2446 5.56925L31.769 6.18814L29.9123 5.56925L31.15 3.09365H33.6256L36.0517 1.88063C37.9228 2.80612 39.6158 4.05485 41.0525 5.56925ZM26.8178 3.09365L26.1989 4.95037L24.3422 5.56925L22.4855 8.66374L19.391 10.5205L15.0588 11.1393V12.9961L16.2965 14.2338V16.7094L14.4399 15.4716L12.5832 14.2338L11.5063 10.997C12.424 8.81023 13.7662 6.82711 15.4553 5.16243C17.1444 3.49775 19.1469 2.18455 21.3468 1.29883L23.1045 2.47476L26.8178 3.09365ZM28.0557 20.4227L27.4368 23.5172L24.9612 25.9928V27.8496L22.4856 29.7062V32.8007L20.6289 32.1818L19.3911 29.0873V22.8983L16.2966 22.2795L15.0588 19.8039V17.9471L16.2966 16.7094L18.1533 14.8526L19.3911 17.3283H23.7233L25.5801 20.4227H28.0557ZM43.7138 9.1774C47.0923 15.2049 46.7074 22.6372 42.7235 28.2827L41.0525 26.6117V24.1361L39.8147 21.6605L38.577 19.1849V16.7093L36.7203 15.4715L34.2446 16.0904L29.9124 14.2337L29.2935 9.90144L31.1502 8.04472H34.8636L36.1014 9.90144L39.8147 10.5203L43.5281 9.28255L43.7138 9.1774Z" fill="#386641"/>
<path d="M31.769 6.18886L34.2446 5.56997L36.1013 6.18886L39.1958 6.80774L41.0525 5.56997C42.0892 6.65485 42.9835 7.86731 43.7138 9.17812L43.5281 9.28335L39.8148 10.5211L36.1014 9.90223L34.8636 8.04551H31.1503L29.2935 9.90223L29.9124 14.2345L34.2447 16.0912L36.7203 15.4723L38.577 16.7101V19.1857L39.8148 21.6613L41.0525 24.1369V26.6125L42.7236 28.2835C37.0081 36.3824 25.8091 38.314 17.7108 32.5985C10.833 27.7438 8.25275 18.7617 11.5063 10.9977L12.5832 14.2345L14.4399 15.4723L16.2966 16.71L15.0588 17.9479V19.8046L16.2966 22.2802L19.391 22.8991V29.088L20.6288 32.1825L22.4855 32.8014V29.7069L24.9611 27.8502V25.9935L27.4367 23.5179L28.0556 20.4234H25.58L23.7233 17.3289H19.391L18.1533 14.8533L16.2966 16.71L16.2966 14.2344L15.0588 12.9967V11.14L19.391 10.5211L22.4855 8.66439L24.3423 5.5699L26.199 4.95102L26.8179 3.0943L23.1045 2.47541L21.3468 1.29948C23.6999 0.351859 26.227 -0.0862511 28.7617 0.014033C31.2964 0.114317 33.781 0.750717 36.0518 1.88128L33.6257 3.0943H31.1501L29.9124 5.5699L31.769 6.18886Z" fill="#86DAF1"/>
<path d="M12.1404 34.0956L7.73007 21.3905C7.54352 20.6464 7.08277 20.0002 6.44008 19.5814C5.79739 19.1626 5.0202 19.002 4.26414 19.1318C3.87643 19.2144 3.50955 19.375 3.18574 19.6037C2.86193 19.8323 2.58794 20.1244 2.38037 20.4622C2.17281 20.7999 2.03601 21.1763 1.97826 21.5685C1.9205 21.9607 1.943 22.3605 2.0444 22.7437L6.58125 36.7535L12.1404 34.0956ZM43.8594 34.0956L48.2697 21.3905C48.4562 20.6464 48.917 20.0002 49.5597 19.5814C50.2024 19.1626 50.9795 19.002 51.7356 19.1318C52.1233 19.2144 52.4902 19.375 52.814 19.6037C53.1378 19.8323 53.4118 20.1244 53.6194 20.4622C53.8269 20.7999 53.9637 21.1763 54.0215 21.5685C54.0792 21.9607 54.0567 22.3605 53.9553 22.7437L49.4185 36.7535L43.8594 34.0956Z" fill="#FFAC96"/>
<path d="M21.2298 39.3648L12.6234 34.3198C12.0278 33.9758 11.3298 33.8535 10.6528 33.9745C9.97581 34.0954 9.36337 34.4519 8.92379 34.9808L5.78305 25.285C5.5965 24.5409 5.13575 23.8948 4.49306 23.4759C3.85037 23.0571 3.07318 22.8965 2.31712 23.0263C1.92941 23.109 1.56253 23.2695 1.23872 23.4982C0.914907 23.7269 0.640914 24.0189 0.433353 24.3567C0.225792 24.6944 0.0889874 25.0708 0.0312343 25.463C-0.0265189 25.8552 -0.00401746 26.255 0.0973745 26.6383L4.33242 42.4394C4.52669 43.1784 4.93682 43.8427 5.51044 44.3476L12.0918 50.1988C12.5024 50.5644 12.831 51.0128 13.0558 51.5145C13.2807 52.0163 13.3968 52.5599 13.3964 53.1097V56.2252H25.0793V46.0844C25.0794 44.7259 24.7241 43.3911 24.0489 42.2123C23.3736 41.0335 22.4017 40.0519 21.2298 39.3648ZM53.6829 23.0263C52.9268 22.8965 52.1496 23.0571 51.5069 23.4759C50.8643 23.8948 50.4035 24.5409 50.217 25.285L47.0723 34.9808C46.6327 34.4519 46.0203 34.0954 45.3433 33.9745C44.6663 33.8535 43.9683 33.9758 43.3727 34.3198L34.7663 39.3648C33.5951 40.0524 32.624 41.0342 31.9495 42.2129C31.2749 43.3917 30.9202 44.7263 30.9207 46.0844V56.2252H42.6036V53.1097C42.6032 52.5599 42.7193 52.0163 42.9442 51.5145C43.169 51.0128 43.4976 50.5644 43.9082 50.1988L50.4896 44.3476C51.0632 43.8427 51.4733 43.1784 51.6676 42.4394L55.9026 26.6383C56.004 26.255 56.0265 25.8552 55.9688 25.463C55.911 25.0708 55.7742 24.6944 55.5666 24.3567C55.3591 24.0189 55.0851 23.7269 54.7613 23.4982C54.4375 23.2695 54.0706 23.109 53.6829 23.0263Z" fill="#FFBCAB"/>
<path d="M29.9467 56.2246V64.0132H43.5767V56.2246H30.9203H29.9467ZM26.0524 56.2246H12.4224V64.0132H26.0524V56.2246Z" fill="#006DF0"/>
<path d="M46.2972 37.4337L39.7898 41.0359C39.6038 41.1436 39.4659 41.3182 39.4042 41.5241C39.3425 41.7299 39.3617 41.9516 39.4578 42.1438C39.5092 42.2466 39.5811 42.3378 39.669 42.4118C39.757 42.4858 39.8591 42.541 39.9692 42.574C40.0793 42.607 40.195 42.6171 40.3091 42.6038C40.4232 42.5904 40.5334 42.5538 40.6329 42.4963L46.2972 39.3808C46.8885 39.038 47.3409 38.4986 47.5756 37.8566C47.8102 37.2145 47.8123 36.5106 47.5813 35.8672C47.3561 36.5271 46.9 37.0834 46.2972 37.4337ZM9.70248 37.4337L16.2098 41.0359C16.3958 41.1436 16.5337 41.3182 16.5954 41.5241C16.6571 41.7299 16.6379 41.9516 16.5418 42.1438C16.4905 42.2466 16.4186 42.3378 16.3306 42.4118C16.2427 42.4858 16.1405 42.541 16.0304 42.574C15.9204 42.607 15.8047 42.6171 15.6905 42.6038C15.5764 42.5904 15.4662 42.5538 15.3667 42.4963L9.70248 39.3808C9.1111 39.038 8.6587 38.4986 8.42405 37.8566C8.18941 37.2145 8.18738 36.5106 8.41833 35.8672C8.64358 36.5271 9.09961 37.0834 9.70248 37.4337Z" fill="#FFAC96"/>
</svg>
