<svg width="49" height="47" viewBox="0 0 49 47" fill="none" xmlns="http://www.w3.org/2000/svg">
<path fill-rule="evenodd" clip-rule="evenodd" d="M23.3367 46.8296C36.1895 46.8296 46.6724 36.3112 46.6724 23.4148C46.6724 10.5184 36.1895 0 23.3367 0C10.4839 0 0 10.5184 0 23.4148C0 36.3112 10.4829 46.8296 23.3367 46.8296Z" fill="#3D9AE2"/>
<path fill-rule="evenodd" clip-rule="evenodd" d="M12.4555 44.1314C7.75878 41.6413 4.00996 37.5893 1.89713 32.6647C3.08398 30.118 4.45145 27.6855 6.15815 25.4677C8.41718 22.5327 9.58206 28.8782 14.8426 29.2129C25.4068 30.1477 22.0154 36.2958 15.5221 40.4648C14.1183 41.207 13.2028 42.5656 12.4555 44.1314ZM43.7858 12.1216C45.6282 15.4699 46.6765 19.3186 46.6765 23.4148C46.6765 30.329 43.6884 36.5451 38.9371 40.8311C37.7369 37.2978 36.7784 33.6475 36.3016 29.7556C35.4349 22.6966 33.3946 29.5955 31.7912 30.1957C29.7462 30.9618 20.4033 24.3199 25.1411 21.7292C25.9161 21.3054 28.0557 21.2641 28.029 18.6254C27.9965 15.3663 32.9398 14.489 36.3666 13.6375L43.7858 12.1216ZM23.3398 0C25.1497 0 26.91 0.20615 28.6004 0.598314C24.9624 5.31963 22.2782 8.29586 16.2617 10.9049C8.61499 14.2205 9.79611 19.4797 6.10654 20.0589C4.08354 20.3772 2.16565 20.1538 0.312744 19.6025C2.12743 8.48475 11.7455 0 23.3398 0Z" fill="#7DBD8A"/>
<path fill-rule="evenodd" clip-rule="evenodd" d="M17.8315 17.0953C20.1202 19.6582 20.4728 23.7352 18.6763 26.7498C17.4302 28.8343 15.3527 31.3839 13.646 33.5825C13.3918 33.9085 13.0363 34.083 12.6245 34.083C12.2097 34.083 11.8552 33.9094 11.601 33.5825C9.89719 31.3839 7.81685 28.8343 6.57361 26.7498C4.8048 23.7841 5.08383 19.7071 7.41645 17.0953C10.1275 14.0567 15.131 14.0673 17.8315 17.0953Z" fill="#FF4155"/>
<path fill-rule="evenodd" clip-rule="evenodd" d="M12.6206 25.351C14.4869 25.351 16.0063 23.8235 16.0063 21.9538C16.0063 20.0841 14.4869 18.5566 12.6206 18.5566C10.7572 18.5566 9.23779 20.0841 9.23779 21.9538C9.23779 23.8235 10.7572 25.351 12.6206 25.351Z" fill="#E5F0FF"/>
<path fill-rule="evenodd" clip-rule="evenodd" d="M46.9394 4.75934C49.2252 7.32231 49.5807 11.3993 47.7823 14.4139C46.5362 16.4984 44.4587 19.0479 42.752 21.2465C42.4997 21.5725 42.1423 21.749 41.7305 21.749C41.3186 21.749 40.9612 21.5725 40.7089 21.2465C39.0022 19.0479 36.9248 16.4984 35.6787 14.4139C33.9098 11.4482 34.1917 7.37121 36.5215 4.75934C39.2325 1.72078 44.2389 1.73133 46.9394 4.75934Z" fill="#FF4155"/>
<path fill-rule="evenodd" clip-rule="evenodd" d="M41.7333 13.0092C43.5968 13.0092 45.1162 11.4817 45.1162 9.612C45.1162 7.74227 43.5968 6.21484 41.7333 6.21484C39.8671 6.21484 38.3477 7.74227 38.3477 9.612C38.3477 11.4817 39.8671 13.0092 41.7333 13.0092Z" fill="#E5F0FF"/>
<path fill-rule="evenodd" clip-rule="evenodd" d="M13.6594 33.5666L13.646 33.5858C13.3918 33.9118 13.0363 34.0863 12.6245 34.0863C12.2097 34.0863 11.8552 33.9128 11.601 33.5858C9.89719 31.3872 7.81685 28.8376 6.57361 26.7531C4.8048 23.7875 5.08383 19.7105 7.41645 17.0986C9.01421 15.3075 11.4089 14.5759 13.6575 14.8971C12.0941 15.1196 10.5996 15.854 9.48819 17.0986C7.15557 19.7105 6.87463 23.7875 8.64344 26.7531C9.88668 28.8319 11.9556 31.3738 13.6594 33.5666ZM42.7689 21.2274L42.7555 21.2465C42.5032 21.5725 42.1458 21.749 41.734 21.749C41.3221 21.749 40.9647 21.5725 40.7124 21.2465C39.0057 19.0479 36.9282 16.4984 35.6821 14.4139C33.9133 11.4482 34.1952 7.37121 36.525 4.75934C38.1227 2.96823 40.5175 2.23664 42.7689 2.55785C41.2036 2.7803 39.7081 3.51477 38.5977 4.75934C36.2651 7.37121 35.986 11.4482 37.7548 14.4139C38.9952 16.4926 41.065 19.0345 42.7689 21.2274Z" fill="#E63B4D"/>
<path fill-rule="evenodd" clip-rule="evenodd" d="M12.6206 18.5551C12.8347 18.5551 13.0401 18.5771 13.2437 18.6126C11.6698 18.906 10.481 20.2896 10.481 21.9532C10.481 23.6168 11.6698 25.0004 13.2437 25.2938C13.0401 25.3293 12.8347 25.3513 12.6206 25.3513C10.7515 25.3513 9.23779 23.8296 9.23779 21.9542C9.23779 20.0787 10.7515 18.5551 12.6206 18.5551ZM41.732 6.21484C41.9432 6.21484 42.1515 6.2369 42.3522 6.27237C40.7812 6.56578 39.5896 7.94938 39.5896 9.61296C39.5896 11.2765 40.7812 12.6601 42.3522 12.9535C42.1515 12.989 41.9432 13.0111 41.732 13.0111C39.8629 13.0111 38.3463 11.4894 38.3463 9.61392C38.3463 7.73844 39.8629 6.21484 41.732 6.21484Z" fill="#CED8E6"/>
</svg>
