<svg width="59" height="53" viewBox="0 0 59 53" fill="none" xmlns="http://www.w3.org/2000/svg">
<path fill-rule="evenodd" clip-rule="evenodd" d="M0 3.39003C0 2.54684 0.683561 1.86328 1.52675 1.86328C2.36993 1.86328 3.0535 2.54684 3.0535 3.39003V49.9461H57.4833C58.3265 49.9461 59.0101 50.6297 59.0101 51.4729C59.0101 52.3161 58.3265 52.9996 57.4833 52.9996H1.52675C0.683561 52.9996 0 52.3161 0 51.4729V3.39003Z" fill="#7A7785"/>
<path fill-rule="evenodd" clip-rule="evenodd" d="M8.16374 33.1016H14.27C14.6729 33.1016 15.0015 33.4302 15.0015 33.833V44.8363C15.0012 45.0302 14.924 45.2161 14.7869 45.3532C14.6498 45.4903 14.4639 45.5675 14.27 45.5678H8.16374C7.96984 45.5675 7.78399 45.4903 7.64688 45.3532C7.50978 45.2161 7.4326 45.0302 7.43225 44.8363V33.833C7.43225 33.4302 7.7608 33.1016 8.16374 33.1016Z" fill="#FF6372"/>
<path fill-rule="evenodd" clip-rule="evenodd" d="M21.5854 27.5098H27.6916C27.8855 27.5101 28.0714 27.5873 28.2085 27.7244C28.3456 27.8615 28.4228 28.0474 28.4231 28.2412V44.836C28.4228 45.0299 28.3456 45.2158 28.2085 45.3529C28.0714 45.49 27.8855 45.5672 27.6916 45.5675H21.5854C21.3915 45.5672 21.2056 45.49 21.0685 45.3529C20.9314 45.2158 20.8542 45.0299 20.8539 44.836V28.2412C20.8542 28.0474 20.9314 27.8615 21.0685 27.7244C21.2056 27.5873 21.3915 27.5101 21.5854 27.5098Z" fill="#98DBA5"/>
<path fill-rule="evenodd" clip-rule="evenodd" d="M35.0079 21.9199H41.1141C41.308 21.9203 41.4939 21.9974 41.631 22.1346C41.7681 22.2717 41.8453 22.4575 41.8456 22.6514V44.8376C41.8453 45.0315 41.7681 45.2173 41.631 45.3544C41.4939 45.4916 41.308 45.5687 41.1141 45.5691H35.0079C34.814 45.5687 34.6281 45.4916 34.491 45.3544C34.3539 45.2173 34.2767 45.0315 34.2764 44.8376V22.6514C34.2767 22.4575 34.3539 22.2717 34.491 22.1346C34.6281 21.9974 34.814 21.9203 35.0079 21.9199Z" fill="#FF8502"/>
<path fill-rule="evenodd" clip-rule="evenodd" d="M55.2679 16.3301V44.8392C55.2676 45.0331 55.1904 45.219 55.0533 45.3561C54.9162 45.4932 54.7304 45.5704 54.5365 45.5707H48.4301C48.0271 45.5707 47.6986 45.2421 47.6986 44.8392V16.3301H45.5455C44.8239 16.3301 44.4206 15.5013 44.866 14.9334L50.1242 8.22936C50.8155 7.34803 52.151 7.34803 52.8425 8.22936L58.1005 14.9334C58.5459 15.5012 58.1426 16.3301 57.421 16.3301H55.2679Z" fill="#43A2FF"/>
<path fill-rule="evenodd" clip-rule="evenodd" d="M9.38269 23.6947C25.5308 23.5852 34.414 15.7478 39.8487 8.85425L42.247 9.88472C42.7862 10.1168 43.3833 9.63736 43.2301 9.04285L41.0405 0.541719C40.9227 0.0841836 40.4053 -0.138147 39.9924 0.0913364L32.3185 4.35436C31.7818 4.65251 31.845 5.41522 32.384 5.64685L34.3787 6.50387C32.1956 10.4702 26.0869 17.7559 9.38269 23.6947Z" fill="#F2B062"/>
</svg>
