<svg width="58" height="58" viewBox="0 0 58 58" fill="none" xmlns="http://www.w3.org/2000/svg">
<path fill-rule="evenodd" clip-rule="evenodd" d="M20.2227 42.8242H37.9012V52.8939H20.2227V42.8242Z" fill="#A79BA7"/>
<path fill-rule="evenodd" clip-rule="evenodd" d="M36.5303 42.8242H37.9013V52.8939H36.5303V42.8242Z" fill="#837683"/>
<path fill-rule="evenodd" clip-rule="evenodd" d="M9.95312 57.1878H48.1714V54.2414C48.1714 52.6208 46.512 51.2949 44.4837 51.2949H13.6408C11.6125 51.2949 9.95312 52.6208 9.95312 54.2414V57.1878Z" fill="#F8FFF9"/>
<path fill-rule="evenodd" clip-rule="evenodd" d="M9.95312 57.1878H48.1714V54.2414C48.1714 53.2783 47.5852 52.4193 46.6839 51.8809C46.8865 52.245 46.9994 52.6471 46.9994 53.0695V56.0159H9.95312V57.1878Z" fill="#D1D1D6"/>
<path fill-rule="evenodd" clip-rule="evenodd" d="M5.26172 6.02734H52.8632C55.2415 6.02734 57.1875 7.97324 57.1875 10.3517V40.1007C57.1875 42.479 55.2415 44.425 52.8632 44.425H5.26172C2.8834 44.425 0.9375 42.4791 0.9375 40.1007V10.3517C0.9375 7.97324 2.8834 6.02734 5.26172 6.02734Z" fill="#F8FFF9"/>
<path fill-rule="evenodd" clip-rule="evenodd" d="M55.2753 6.76562C56.4267 7.54469 57.1875 8.86258 57.1875 10.3497V40.0987C57.1875 42.477 55.2414 44.423 52.8631 44.423H5.26168C3.77469 44.423 2.4568 43.6623 1.67773 42.5109C2.38946 42.9936 3.22979 43.2515 4.0898 43.251H51.6912C54.0696 43.251 56.0156 41.3051 56.0156 38.9267V9.1777C56.016 8.31767 55.7581 7.47735 55.2753 6.76562Z" fill="#D1D1D6"/>
<path fill-rule="evenodd" clip-rule="evenodd" d="M5.15348 9.64258H52.9718C53.3017 9.64258 53.5716 9.91269 53.5716 10.2423V37.1712H4.55371V10.2423C4.55371 9.91246 4.82359 9.64258 5.15348 9.64258Z" fill="#D8ECFE"/>
<path fill-rule="evenodd" clip-rule="evenodd" d="M50.6279 9.64258H52.9718C53.3017 9.64258 53.5716 9.91269 53.5716 10.2423V37.1712H51.2277V10.2423C51.2277 9.91258 50.9578 9.64258 50.6279 9.64258Z" fill="#C4E2FF"/>
<path fill-rule="evenodd" clip-rule="evenodd" d="M17.1109 3.13863C16.6744 2.89831 16.221 2.69029 15.7541 2.51625C14.6419 2.10164 13.4313 1.875 12.1604 1.875C9.32004 1.875 6.7486 3.02625 4.88731 4.88754C3.02602 6.74883 1.87477 9.32039 1.87477 12.1608C1.87477 13.1188 2.00285 14.0391 2.24227 14.9058C2.489 15.7982 2.85571 16.6531 3.33234 17.4469C3.39535 17.5522 3.43699 17.6689 3.45489 17.7903C3.47279 17.9117 3.4666 18.0354 3.43667 18.1545C3.40675 18.2735 3.35367 18.3854 3.28048 18.4839C3.20728 18.5824 3.1154 18.6656 3.01008 18.7286C2.90476 18.7916 2.78807 18.8332 2.66666 18.8511C2.54525 18.869 2.42151 18.8628 2.30249 18.8329C2.18348 18.803 2.07152 18.7499 1.97301 18.6767C1.87451 18.6035 1.79139 18.5116 1.7284 18.4063C1.16529 17.4683 0.732082 16.4582 0.440625 15.4037C0.148361 14.3475 0.000145149 13.2566 0 12.1607C0 8.80266 1.36113 5.76246 3.5618 3.5618C5.76234 1.36125 8.80254 0 12.1604 0C13.647 0 15.0778 0.270586 16.4059 0.765703C17.0333 0.99959 17.6403 1.28506 18.2206 1.61918C18.2719 1.41996 18.3873 1.24317 18.5491 1.1161C18.7109 0.989032 18.91 0.918754 19.1157 0.916114C19.3214 0.913474 19.5223 0.97862 19.6873 1.10149C19.8523 1.22437 19.9722 1.39814 20.0286 1.59598L20.5968 3.58711C20.6372 3.72919 20.6435 3.87881 20.615 4.02377C20.5866 4.16873 20.5243 4.30492 20.4332 4.42121C20.3421 4.5375 20.2248 4.63059 20.0909 4.6929C19.9569 4.75521 19.8102 4.78496 19.6625 4.77973L17.6597 4.85168C17.4562 4.85886 17.2559 4.79937 17.0893 4.68226C16.9227 4.56514 16.799 4.39682 16.7368 4.2029C16.6747 4.00897 16.6776 3.80006 16.7452 3.60795C16.8127 3.41584 16.9411 3.25104 17.1109 3.13863ZM6.1002 22.703C7.94353 23.7643 10.0335 24.3225 12.1606 24.3214C15.5186 24.3214 18.5588 22.9602 20.7594 20.7595C22.9601 18.5589 24.3213 15.5187 24.3213 12.1607C24.3213 11.0679 24.1759 10.0061 23.9033 8.99356C23.6254 7.9623 23.212 6.97243 22.674 6.0498C22.5487 5.83713 22.3444 5.68261 22.1057 5.61995C21.8669 5.55728 21.6131 5.59154 21.3995 5.71526C21.1859 5.83898 21.0298 6.04212 20.9654 6.28041C20.9009 6.51869 20.9333 6.77279 21.0554 6.9873C21.5102 7.76765 21.8595 8.60482 22.0943 9.47695C22.3291 10.3522 22.4475 11.2545 22.4464 12.1607C22.4464 15.0011 21.2952 17.5726 19.4339 19.4338C17.5726 21.2951 15.0011 22.4463 12.1607 22.4463C10.9229 22.4463 9.74133 22.2305 8.65125 21.835C8.15519 21.6549 7.67386 21.4365 7.2116 21.1819C7.38113 21.0693 7.50925 20.9044 7.5765 20.7123C7.64375 20.5202 7.64645 20.3114 7.58419 20.1176C7.52192 19.9239 7.39811 19.7557 7.23155 19.6388C7.06499 19.5218 6.8648 19.4624 6.66141 19.4696L4.65856 19.5416C4.51093 19.5364 4.36416 19.5661 4.23022 19.6284C4.09628 19.6907 3.97898 19.7838 3.88789 19.9001C3.79679 20.0164 3.73449 20.1526 3.70607 20.2976C3.67764 20.4425 3.6839 20.5921 3.72434 20.7342L4.29246 22.7254C4.36049 22.9643 4.52061 23.1664 4.73762 23.2872C4.95463 23.4081 5.21076 23.4378 5.44969 23.3699C5.6069 23.3252 5.74966 23.2401 5.86379 23.1231C5.97791 23.0061 6.05942 22.8612 6.1002 22.703Z" fill="#A79BA7"/>
<path fill-rule="evenodd" clip-rule="evenodd" d="M13.6509 5.91621C14.3117 6.07362 14.9431 6.33538 15.5214 6.69164L16.7368 6.15188L18.1693 7.58438L17.6297 8.79949C17.9861 9.37795 18.2479 10.0096 18.4052 10.6705L19.6453 11.1478V13.1738L18.405 13.6512C18.2476 14.3119 17.9858 14.9433 17.6296 15.5216L18.1693 16.7371L16.7368 18.1696L15.5218 17.6299C14.9434 17.9863 14.3118 18.2481 13.6508 18.4055L13.1735 19.6455H11.1476L10.6702 18.4052C10.0094 18.2478 9.37801 17.9861 8.79973 17.6298L7.58426 18.1696L6.15176 16.7371L6.69141 15.522C6.33502 14.9435 6.07321 14.3119 5.91586 13.6509L4.67578 13.1736V11.1477L5.91598 10.6703C6.07335 10.0094 6.33516 9.37795 6.69152 8.79961L6.15176 7.58426L7.58426 6.15176L8.79973 6.69152C9.37802 6.33527 10.0094 6.0735 10.6702 5.91609L11.1476 4.67578H13.1734L13.6509 5.91621Z" fill="#F2B062"/>
<path fill-rule="evenodd" clip-rule="evenodd" d="M8.80008 17.6295L7.58461 18.1692L7.39746 17.9821L8.53699 17.4759C8.62343 17.5292 8.71115 17.5804 8.80008 17.6295ZM13.6512 5.91609C14.3119 6.0735 14.9433 6.33527 15.5216 6.69152L15.1761 6.84492C14.5977 6.48879 13.7034 6.07336 13.0426 5.91609L12.5652 4.67578H13.1737L13.6512 5.91609ZM15.5221 17.6296C14.9436 17.986 14.312 18.2478 13.6511 18.4051L13.1737 19.6452H12.5652L13.0425 18.4051C13.7036 18.2479 14.5979 17.8324 15.1765 17.4761L15.5221 17.6296ZM7.39746 6.33879L7.58461 6.15164L8.80008 6.69141C8.71125 6.74039 8.62359 6.7916 8.53711 6.84481L7.39746 6.33879ZM16.3158 6.33879L16.7372 6.15164L18.1697 7.58414L17.63 8.79926C17.9864 9.37772 18.2482 10.0093 18.4056 10.6703L19.6457 11.1476V13.1735L18.4054 13.6509C18.248 14.3117 17.9862 14.9431 17.6299 15.5214L18.1697 16.7368L16.7372 18.1693L16.3158 17.9822L17.5611 16.7368L17.0214 15.5214C17.3776 14.9431 17.6394 14.3117 17.7968 13.6509L19.0371 13.1735V11.1476L17.797 10.6703C17.6397 10.0093 17.3778 9.37772 17.0215 8.79926L17.5611 7.58414L16.3158 6.33879Z" fill="#FFD064"/>
<path d="M12.1609 15.6948C14.1121 15.6948 15.6939 14.1131 15.6939 12.1619C15.6939 10.2107 14.1121 8.62891 12.1609 8.62891C10.2097 8.62891 8.62793 10.2107 8.62793 12.1619C8.62793 14.1131 10.2097 15.6948 12.1609 15.6948Z" fill="#F8FFF9"/>
<path fill-rule="evenodd" clip-rule="evenodd" d="M12.1608 8.62891C10.2095 8.62891 8.62793 10.2105 8.62793 12.1618C8.62793 14.113 10.2095 15.6946 12.1608 15.6946C12.2554 15.6946 12.3491 15.6909 12.4418 15.6835C10.6219 15.5403 9.18996 14.0184 9.18996 12.1618C9.18996 10.305 10.622 8.78313 12.4418 8.63992C12.3483 8.63264 12.2546 8.62897 12.1608 8.62891Z" fill="#D1D1D6"/>
<path fill-rule="evenodd" clip-rule="evenodd" d="M21.1209 28.6191H24.0096C24.4151 28.6191 24.7458 28.9498 24.7458 29.3553V36.4032C24.7458 36.8087 24.4151 37.1394 24.0096 37.1394H21.1209C20.7155 37.1394 20.3848 36.8087 20.3848 36.4032V29.3553C20.3848 28.9498 20.7155 28.6191 21.1209 28.6191Z" fill="#FE646F"/>
<path fill-rule="evenodd" clip-rule="evenodd" d="M23.2734 28.6191H24.0096C24.4151 28.6191 24.7458 28.9498 24.7458 29.3553V36.4032C24.7458 36.8087 24.4151 37.1394 24.0096 37.1394H23.2734C23.6789 37.1394 24.0096 36.8087 24.0096 36.4032V29.3553C24.0096 28.9498 23.6789 28.6191 23.2734 28.6191Z" fill="#DF2935"/>
<path fill-rule="evenodd" clip-rule="evenodd" d="M29.2186 23.2188H32.1073C32.5127 23.2188 32.8434 23.5495 32.8434 23.9549V36.4025C32.8434 36.8079 32.5127 37.1386 32.1073 37.1386H29.2186C28.8131 37.1386 28.4824 36.8079 28.4824 36.4025V23.9549C28.4824 23.5495 28.8131 23.2188 29.2186 23.2188Z" fill="#F2B062"/>
<path fill-rule="evenodd" clip-rule="evenodd" d="M31.3711 23.2188H32.1073C32.5127 23.2188 32.8434 23.5495 32.8434 23.9549V36.4025C32.8434 36.8079 32.5127 37.1386 32.1073 37.1386H31.3711C31.7766 37.1386 32.1073 36.8079 32.1073 36.4025V23.9549C32.1073 23.5495 31.7766 23.2188 31.3711 23.2188Z" fill="#FFD064"/>
<path fill-rule="evenodd" clip-rule="evenodd" d="M37.3172 25.0371H40.206C40.6116 25.0371 40.9423 25.3679 40.9422 25.7734V36.403C40.9423 36.8086 40.6115 37.1393 40.206 37.1393H37.3172C36.9116 37.1393 36.5809 36.8085 36.5811 36.403V25.7734C36.5811 25.3678 36.9118 25.0371 37.3172 25.0371Z" fill="#4D8357"/>
<path fill-rule="evenodd" clip-rule="evenodd" d="M39.4697 25.0371H40.2059C40.6115 25.0371 40.9422 25.3679 40.9421 25.7734V36.403C40.9422 36.8086 40.6114 37.1393 40.2059 37.1393H39.4697C39.8753 37.1393 40.206 36.8085 40.2059 36.403V25.7734C40.206 25.3678 39.8752 25.0371 39.4697 25.0371Z" fill="#386641"/>
<path fill-rule="evenodd" clip-rule="evenodd" d="M45.4149 17.5H48.3037C48.7091 17.5 49.0398 17.8307 49.0398 18.2362V36.4043C49.0398 36.8098 48.7091 37.1405 48.3037 37.1405H45.4149C45.0094 37.1405 44.6787 36.8098 44.6787 36.4043V18.2363C44.6787 17.8307 45.0094 17.5 45.4149 17.5Z" fill="#386641"/>
<path fill-rule="evenodd" clip-rule="evenodd" d="M47.5674 17.5H48.3037C48.7091 17.5 49.0398 17.8307 49.0398 18.2362V36.4043C49.0398 36.8098 48.7091 37.1405 48.3037 37.1405H47.5674C47.9729 37.1405 48.3036 36.8098 48.3036 36.4043V18.2363C48.3036 17.8307 47.9729 17.5 47.5674 17.5Z" fill="#98DBA5"/>
<path fill-rule="evenodd" clip-rule="evenodd" d="M23.1401 24.8379C22.9444 24.985 22.6989 25.0494 22.4562 25.0173C22.2136 24.9852 21.9932 24.8592 21.8425 24.6662C21.6918 24.4733 21.6229 24.229 21.6505 23.9858C21.6781 23.7426 21.8001 23.5199 21.9901 23.3657L30.0883 17.0601C30.2083 16.9662 30.3494 16.9032 30.4994 16.8765C30.6494 16.8498 30.8036 16.8602 30.9487 16.9068L30.9488 16.9062L38.5022 19.3544L44.3956 13.4106L44.3036 13.4187C44.058 13.4362 43.8154 13.3564 43.6282 13.1965C43.441 13.0366 43.3242 12.8095 43.3031 12.5643C43.2819 12.319 43.3581 12.0753 43.5151 11.8857C43.6722 11.6961 43.8975 11.5759 44.1424 11.5511L46.7786 11.3199C46.9214 11.3075 47.0653 11.3281 47.1989 11.3801C47.3326 11.4321 47.4525 11.514 47.5496 11.6196C47.6466 11.7253 47.718 11.8517 47.7585 11.9893C47.7989 12.1269 47.8073 12.2719 47.7829 12.4132L47.4953 14.9862C47.4691 15.2301 47.3482 15.454 47.1586 15.6097C46.969 15.7654 46.7258 15.8403 46.4815 15.8185C46.2371 15.7966 46.0111 15.6797 45.8522 15.4928C45.6932 15.306 45.614 15.0642 45.6315 14.8195L39.424 21.0801C39.3025 21.2022 39.1497 21.2884 38.9823 21.3291C38.8149 21.3699 38.6395 21.3635 38.4755 21.3108L30.8455 18.8379L23.1401 24.8379Z" fill="#A79BA7"/>
</svg>
