<svg width="66" height="66" viewBox="0 0 66 66" fill="none" xmlns="http://www.w3.org/2000/svg">
<path d="M63.9375 49.5C63.9375 50.594 63.5029 51.6432 62.7293 52.4168C61.9557 53.1904 60.9065 53.625 59.8125 53.625H43.3125C42.2185 53.625 41.1693 53.1904 40.3957 52.4168C39.6221 51.6432 39.1875 50.594 39.1875 49.5H63.9375Z" fill="#F2B062"/>
<path d="M33 9.28125C31.2914 9.28125 29.9062 7.89613 29.9062 6.1875C29.9062 4.47887 31.2914 3.09375 33 3.09375C34.7086 3.09375 36.0938 4.47887 36.0938 6.1875C36.0938 7.89613 34.7086 9.28125 33 9.28125Z" fill="#D7A25B"/>
<path d="M26.2189 57.7098L28.4374 56.759C29.1794 56.441 29.8118 55.9122 30.2562 55.2383C30.7006 54.5643 30.9375 53.7747 30.9375 52.9674V49.5H35.0625V52.9676C35.0625 53.7749 35.2994 54.5644 35.7438 55.2383C36.1882 55.9123 36.8206 56.441 37.5626 56.759L39.7811 57.7098C40.5231 58.0278 41.1555 58.5565 41.6 59.2305C42.0444 59.9044 42.2813 60.694 42.2812 61.5013V62.9062H23.7188V61.5012C23.7188 60.6939 23.9557 59.9044 24.4001 59.2304C24.8445 58.5565 25.4769 58.0278 26.2189 57.7098Z" fill="#D7A25B"/>
<path d="M35.0625 8.25H30.9375V49.5H35.0625V8.25Z" fill="#F2B062"/>
<path d="M62.9062 15.4688C62.9062 16.5628 62.4717 17.612 61.6981 18.3856C60.9245 19.1592 59.8753 19.5938 58.7812 19.5938H7.21875C6.12473 19.5938 5.07552 19.1592 4.30194 18.3856C3.52835 17.612 3.09375 16.5628 3.09375 15.4688H62.9062Z" fill="#F2B062"/>
<path d="M9.28125 37.1246C9.28133 36.149 9.55819 35.1934 10.0797 34.3688C10.6012 33.5443 11.3459 32.8846 12.2274 32.4664C13.1088 32.0483 14.0908 31.8887 15.0593 32.0064C16.0278 32.124 16.9431 32.5141 17.6988 33.1311C18.4544 33.7482 19.0196 34.567 19.3285 35.4924C19.6374 36.4178 19.6774 37.4119 19.4439 38.3592C19.2103 39.3064 18.7129 40.168 18.0092 40.8438C17.3056 41.5196 16.4247 41.982 15.4688 42.1771V43.3121H17.5313V45.3746H15.4688V47.4371H13.4063V45.3746H11.3438V43.3121H13.4063V42.1771C12.2425 41.9378 11.1967 41.3047 10.4453 40.3843C9.69393 39.464 9.2828 38.3127 9.28125 37.1246ZM17.5313 37.1246C17.5313 36.5127 17.3498 35.9146 17.0099 35.4058C16.6699 34.897 16.1867 34.5005 15.6214 34.2663C15.0561 34.0322 14.4341 33.9709 13.8339 34.0903C13.2338 34.2097 12.6826 34.5043 12.2499 34.937C11.8172 35.3697 11.5226 35.9209 11.4032 36.521C11.2838 37.1212 11.3451 37.7432 11.5793 38.3085C11.8134 38.8738 12.2099 39.357 12.7187 39.697C13.2275 40.0369 13.8256 40.2183 14.4375 40.2183C15.2577 40.2174 16.0441 39.8912 16.6241 39.3112C17.2041 38.7312 17.5303 37.9448 17.5313 37.1246Z" fill="#DF2935"/>
<path d="M43.3126 31.9688H49.5001V34.0312H45.8023L48.7212 36.9502C49.7885 36.2444 51.0798 35.9601 52.3447 36.1523C53.6097 36.3446 54.7582 36.9998 55.5676 37.9908C56.3769 38.9818 56.7895 40.238 56.7252 41.5159C56.6609 42.7938 56.1243 44.0023 55.2196 44.907C54.3148 45.8118 53.1063 46.3483 51.8284 46.4126C50.5506 46.4769 49.2943 46.0644 48.3033 45.255C47.3123 44.4457 46.6572 43.2972 46.4649 42.0322C46.2727 40.7672 46.557 39.4759 47.2628 38.4086L44.3438 35.4897V39.1875H42.2813V33C42.2813 32.7265 42.39 32.4642 42.5834 32.2708C42.7768 32.0774 43.0391 31.9688 43.3126 31.9688ZM51.5626 44.3438C52.1744 44.3438 52.7726 44.1623 53.2814 43.8224C53.7901 43.4824 54.1867 42.9992 54.4208 42.4339C54.655 41.8686 54.7162 41.2466 54.5969 40.6464C54.4775 40.0463 54.1828 39.4951 53.7502 39.0624C53.3175 38.6297 52.7663 38.3351 52.1661 38.2157C51.566 38.0963 50.9439 38.1576 50.3786 38.3917C49.8133 38.6259 49.3301 39.0224 48.9902 39.5312C48.6503 40.04 48.4688 40.6381 48.4688 41.25C48.4697 42.0702 48.796 42.8566 49.376 43.4366C49.956 44.0166 50.7423 44.3428 51.5626 44.3438Z" fill="#5791D6"/>
<path d="M24.75 49.5H26.8125L17.5312 15.4688H15.4688L24.75 49.5ZM4.125 49.5L13.4062 15.4688H11.3438L2.0625 49.5H4.125Z" fill="#D7A25B"/>
<path d="M35.0625 49.5H30.9375V53.625H35.0625V49.5Z" fill="#FF8502"/>
<path d="M26.8125 49.5C26.8125 50.594 26.3779 51.6432 25.6043 52.4168C24.8307 53.1904 23.7815 53.625 22.6875 53.625H6.1875C5.09348 53.625 4.04427 53.1904 3.27069 52.4168C2.4971 51.6432 2.0625 50.594 2.0625 49.5H26.8125Z" fill="#F2B062"/>
<path d="M33 21.6562C30.7218 21.6562 28.875 19.8094 28.875 17.5312C28.875 15.2531 30.7218 13.4062 33 13.4062C35.2782 13.4062 37.125 15.2531 37.125 17.5312C37.125 19.8094 35.2782 21.6562 33 21.6562Z" fill="#D7A25B"/>
<path d="M44.5313 29.9062L48.4688 15.4688H50.5312L46.5938 29.9062H44.5313ZM43.5001 41.25L41.25 49.5H39.1875L41.4376 41.25H43.5001ZM61.875 49.5H63.9375L54.6562 15.4688H52.5938L61.875 49.5Z" fill="#D7A25B"/>
</svg>
