<svg width="62" height="39" viewBox="0 0 62 39" fill="none" xmlns="http://www.w3.org/2000/svg">
<path d="M16.395 6.10742L4.44875 14.769C4.1884 14.9578 3.95368 15.1791 3.75037 15.4272L6.91827 18.164L12.7407 19.9791L21.6135 13.1782L16.395 6.10742Z" fill="#FFB69E"/>
<path d="M20.1926 11.2522C19.9005 11.4599 19.5479 11.5845 19.1893 11.5845C18.2226 11.5845 17.5068 10.8019 17.465 9.87647C17.4402 9.32749 17.7362 8.82704 18.1701 8.51173L16.3955 6.10742L4.44935 14.7689C4.03522 15.0692 3.68752 15.4503 3.42768 15.8887C3.16783 16.3272 3.00134 16.8136 2.93846 17.3182L0.652146 35.6701C0.50235 36.8676 1.44555 37.9209 2.66264 37.9209C3.66905 37.9209 4.54116 37.1776 4.66807 36.1629L6.91903 18.1639L12.7415 19.9789L21.6141 13.1781L20.1926 11.2522Z" fill="#53618C"/>
<path d="M21.4722 24.6215L17.9638 22.829C17.6262 22.6565 17.3548 22.3793 17.1911 22.0397C17.0275 21.7001 16.9805 21.3168 17.0574 20.9483L18.5317 13.8791C18.7263 12.9469 19.6466 12.3473 20.5878 12.5399C21.5289 12.7325 22.1343 13.6443 21.9399 14.5766L20.7326 20.3648L23.0675 21.5577C23.9215 21.9941 24.2568 23.0336 23.8164 23.8797C23.3743 24.7285 22.3236 25.0565 21.4722 24.6215Z" fill="#FFB69E"/>
<path d="M13.5319 36.4908L7.99378 18.2579C7.67186 17.1979 8.27836 16.0801 9.34838 15.7613C10.4182 15.4425 11.5469 16.0431 11.8687 17.1031L17.4068 35.336C17.7287 36.3959 17.1222 37.5138 16.0522 37.8326C14.9774 38.153 13.8522 37.546 13.5319 36.4908Z" fill="#414B82"/>
<path d="M20.192 11.2522C19.8999 11.4599 19.5473 11.5845 19.1887 11.5845C18.222 11.5845 17.5062 10.8019 17.4644 9.87647C17.4396 9.32748 17.7356 8.82704 18.1695 8.51173L16.3949 6.10742L4.44875 14.7689C4.1884 14.9577 3.95368 15.179 3.75037 15.4272L6.91827 18.164L12.7407 19.979L21.6135 13.1782L20.192 11.2522Z" fill="#64AFFF"/>
<path d="M23.1624 10.5452C25.1945 10.5452 26.8418 8.91346 26.8418 6.90055C26.8418 4.88764 25.1945 3.25586 23.1624 3.25586C21.1303 3.25586 19.483 4.88764 19.483 6.90055C19.483 8.91346 21.1303 10.5452 23.1624 10.5452Z" fill="#FFB69E"/>
<path d="M27.1698 30.1643L0.437189 6.56109C-0.101437 6.08546 -0.148906 5.26748 0.331167 4.73385C0.81124 4.2003 1.63701 4.15328 2.1758 4.62883L28.9084 28.2321C29.447 28.7078 29.4945 29.5258 29.0144 30.0594C28.5344 30.5929 27.7086 30.64 27.1698 30.1643Z" fill="#80391B"/>
<path d="M5.45299 11.8488C4.56633 11.4818 4.14771 10.4723 4.5183 9.59393L7.7891 1.83871C8.24001 0.769391 9.6118 0.434989 10.5118 1.18169L16.1595 5.86674C16.8963 6.47794 16.9934 7.565 16.3763 8.29475C15.7593 9.02458 14.662 9.12077 13.9252 8.50957L10.0891 5.32746L7.72918 10.9227C7.36067 11.7967 6.34382 12.2175 5.45299 11.8488Z" fill="#FFB69E"/>
<path d="M21.2023 18.1071L21.9391 14.5744C22.1336 13.6422 21.5282 12.7303 20.5871 12.5377C19.646 12.3451 18.7255 12.9446 18.531 13.8769L17.6488 18.107L21.0878 18.6565L21.2023 18.1071ZM16.159 5.86643L13.5206 3.67773L11.4808 6.482L11.8485 6.78705L13.9247 8.50926C14.6616 9.12054 15.7589 9.02427 16.3759 8.29444C16.9929 7.56469 16.8958 6.47763 16.159 5.86643Z" fill="#64AFFF"/>
<path d="M23.5573 37.92C22.051 37.92 21.2027 36.1935 22.1373 35.0194L30.1507 24.9531C30.3038 24.7607 30.499 24.6053 30.7216 24.4984C30.9441 24.3915 31.1882 24.3359 31.4356 24.3359C31.6829 24.3359 31.927 24.3915 32.1495 24.4984C32.3721 24.6053 32.5673 24.7607 32.7204 24.9531L40.7338 35.0194C41.6665 36.1911 40.8231 37.92 39.3138 37.92H23.5573Z" fill="#6C9BAA"/>
<path d="M50.4303 5.85204L50.4235 5.9216C50.3538 6.62833 50.912 7.2407 51.6259 7.2407H51.7729C52.5364 7.2407 53.1084 6.54511 52.9571 5.80078L50.4303 5.85204ZM46.4859 9.90875L45.2319 11.6906L39.6819 15.0705C38.916 15.5369 38.6752 16.5327 39.1442 17.2946C39.616 18.0613 40.6188 18.2931 41.3802 17.8296L47.219 14.2739C47.4095 14.1578 47.5739 14.004 47.7019 13.8219L50.5395 9.79012L46.4859 9.90875Z" fill="#FFB69E"/>
<path d="M59.9881 36.4392L57.752 21.0795L53.9185 21.0176L56.2386 36.9785C56.3883 38.0084 57.3489 38.7226 58.3844 38.5737C59.4199 38.4247 60.1379 37.4691 59.9881 36.4392Z" fill="#6D6F7E"/>
<path d="M48.1686 38.5888C47.1288 38.4733 46.3801 37.5413 46.4962 36.5071L47.513 27.4524C47.5224 27.3686 47.5374 27.2856 47.558 27.2038L49.7591 18.4602C50.0133 17.4507 51.0421 16.8374 52.0567 17.0901C53.0715 17.3428 53.6883 18.3661 53.4342 19.3755L51.264 27.9965L50.2614 36.9254C50.1452 37.9609 49.2065 38.7045 48.1686 38.5888Z" fill="#515157"/>
<path d="M56.8998 9.43879C56.7406 7.25868 54.1076 5.76758 54.1076 5.76758L52.9573 5.79785C52.9583 5.818 52.9605 5.8379 52.9605 5.85822C52.9605 6.52666 52.3889 7.09511 51.717 7.09511C51.0633 7.09511 50.5102 6.56283 50.4768 5.91926L50.1313 5.93612C49.7055 5.9669 49.3242 6.14902 49.0278 6.43063C48.8928 6.53221 48.7746 6.65414 48.6775 6.792L46.4861 9.90573L48.5819 11.9904L49.0248 21.3767L57.7497 21.0761L56.8998 9.43879Z" fill="#36C67E"/>
<path d="M49.4442 6.84751C51.3452 6.84751 52.8862 5.31464 52.8862 3.42375C52.8862 1.53287 51.3452 0 49.4442 0C47.5432 0 46.0022 1.53287 46.0022 3.42375C46.0022 5.31464 47.5432 6.84751 49.4442 6.84751Z" fill="#FFB69E"/>
<path d="M60.5976 9.14825L58.2518 7.8418L56.8273 8.80998L56.7082 10.6898L57.7474 11.2685L55.8857 15.7343C55.5416 16.5595 55.9354 17.5058 56.7649 17.8481C57.5983 18.1917 58.5477 17.7946 58.8899 16.9735L61.3053 11.1793C61.6211 10.4216 61.317 9.54891 60.5976 9.14825Z" fill="#FFB69E"/>
<path d="M53.2717 8.77788L56.7071 10.6912L58.2507 7.84325L54.8605 5.95512C54.0766 5.51862 53.3596 5.88101 52.921 6.66032C52.4822 7.43981 52.488 8.34147 53.2717 8.77788Z" fill="#36C67E"/>
</svg>
