<svg width="60" height="59" viewBox="0 0 60 59" fill="none" xmlns="http://www.w3.org/2000/svg">
<path fill-rule="evenodd" clip-rule="evenodd" d="M30.7643 55.1863C31.4849 55.7763 31.8436 56.0972 32.2057 56.1109C32.5643 56.0971 32.9263 55.7762 33.6471 55.1863L52.6499 35.7279C58.2704 29.7144 58.2704 19.8714 52.6499 13.8545C47.5431 8.38957 39.1572 9.6041 33.8366 14.8377L32.8367 15.8211C32.2573 16.3903 32.147 16.3903 31.5539 15.8072L30.5711 14.8377C25.2609 9.60058 16.8646 8.38957 11.7579 13.8545C6.13735 19.8714 6.13735 29.7144 11.7579 35.7279L14.0371 38.0637L30.7643 55.1863Z" fill="#FF3E4A"/>
<path fill-rule="evenodd" clip-rule="evenodd" d="M36.1783 12.9232C38.9127 16.8908 40.4989 21.6035 40.4989 26.6579C40.4989 27.2099 40.4782 27.755 40.4402 28.2933C40.1368 32.7818 38.5782 36.9564 36.0887 40.5204C34.9921 42.0902 33.7163 43.5426 32.2819 44.8537C30.751 46.2544 29.0441 47.4896 27.1924 48.528C26.5536 48.8862 25.9014 49.2199 25.2373 49.5286L30.7648 55.1867C31.4854 55.7767 31.8441 56.0975 32.2062 56.1112C32.5647 56.0974 32.9268 55.7766 33.6476 55.1867L39.4611 49.2318L52.6502 35.728C57.0915 30.9773 58.0225 23.8323 55.4467 18.0776C54.7605 16.5492 53.8295 15.1174 52.6502 13.8546C51.8743 13.0267 51.0227 12.3504 50.1192 11.8192C47.1745 10.0907 43.6677 9.89407 40.3575 10.9083C38.9058 11.3534 37.4886 12.0365 36.1783 12.9232Z" fill="#DF2935"/>
<path d="M37.8093 33.6207L37.7933 33.6206C37.6339 33.6177 37.4781 33.5728 37.3417 33.4903C37.2053 33.4079 37.093 33.2909 37.0164 33.1511L32.3411 24.627L28.8601 30.7123C28.7826 30.8478 28.6713 30.9609 28.537 31.0407C28.4028 31.1204 28.2502 31.1641 28.0941 31.1673C27.938 31.1706 27.7837 31.1334 27.6462 31.0594C27.5088 30.9853 27.3928 30.877 27.3096 30.7448L25.1474 27.3071L23.5156 30.0188C23.4352 30.1524 23.3216 30.263 23.1859 30.3398C23.0501 30.4166 22.8968 30.457 22.7408 30.4569H17.0892C16.5897 30.4569 16.1848 30.0518 16.1848 29.552C16.1848 29.0523 16.5897 28.6472 17.0892 28.6472H22.2296L24.3554 25.1143C24.4351 24.982 24.5473 24.8722 24.6813 24.7955C24.8154 24.7188 24.9669 24.6777 25.1214 24.6761L25.1303 24.676C25.2832 24.676 25.4337 24.7149 25.5675 24.7888C25.7014 24.8628 25.8143 24.9695 25.8958 25.099L28.0382 28.5052L31.5727 22.3265C31.6518 22.1881 31.7661 22.0732 31.9039 21.9932C32.0417 21.9133 32.1983 21.8711 32.3576 21.8711L32.3658 21.8712C32.5265 21.8727 32.684 21.917 32.8219 21.9995C32.9599 22.082 33.0733 22.1998 33.1506 22.3407L37.8414 30.8935L40.208 26.9188C40.2881 26.7842 40.4019 26.6727 40.5381 26.5952C40.6743 26.5178 40.8283 26.4771 40.985 26.477H48.5227C49.0222 26.477 49.4271 26.8822 49.4271 27.3819C49.4271 27.8817 49.0222 28.2868 48.5227 28.2868H41.499L38.5863 33.1789C38.5061 33.3135 38.3924 33.425 38.2562 33.5024C38.12 33.5799 37.966 33.6206 37.8093 33.6207Z" fill="#F8F2F0"/>
<path fill-rule="evenodd" clip-rule="evenodd" d="M50.119 19.6482C55.5258 19.6482 59.936 15.2355 59.936 9.82238C59.936 4.41268 55.5258 0 50.119 0C44.7088 0 40.2986 4.41268 40.2986 9.82238C40.2986 15.2355 44.7088 19.6482 50.119 19.6482Z" fill="#F8F2F0"/>
<path fill-rule="evenodd" clip-rule="evenodd" d="M46.5983 0.648644C50.0499 2.17362 52.4567 5.62369 52.4567 9.63953C52.4567 9.70157 52.4567 9.76373 52.4533 9.82238C52.4326 10.9643 52.2188 12.058 51.8396 13.0689C50.8603 15.7048 48.7775 17.8058 46.157 18.8133C47.3673 19.3515 48.7086 19.6482 50.119 19.6482C52.0809 19.6482 53.9119 19.072 55.4464 18.0783C58.1497 16.3257 59.9358 13.2828 59.9358 9.82238C59.9358 4.39886 55.5394 0 50.1189 0C48.8775 0 47.6914 0.227687 46.5983 0.648644Z" fill="#D6DCEA"/>
<path d="M53.6911 8.91596H51.0232V6.24669C51.0232 5.74695 50.6183 5.3418 50.1188 5.3418C49.6193 5.3418 49.2144 5.74695 49.2144 6.24669V8.91607H46.5465C46.047 8.91607 45.6421 9.32123 45.6421 9.82097C45.6421 10.3207 46.047 10.7259 46.5465 10.7259H49.2144V13.3952C49.2144 13.895 49.6193 14.3001 50.1188 14.3001C50.6183 14.3001 51.0232 13.895 51.0232 13.3952V10.7257H53.6911C54.1906 10.7257 54.5955 10.3206 54.5955 9.82085C54.5955 9.32111 54.1907 8.91596 53.6911 8.91596Z" fill="#FF3E4A"/>
<path fill-rule="evenodd" clip-rule="evenodd" d="M8.37553 40.2522L6.36182 46.7866L8.37553 53.7109L17.6511 56.2363L25.175 58.2822C29.5645 59.6484 31.5023 58.8687 35.5402 57.5715L50.3363 52.8243C54.5844 51.4615 53.95 45.6171 47.7329 47.6146L39.4608 49.2327L38.1091 49.4983C36.1023 49.8881 35.8264 50.0502 33.8024 49.7364L27.1922 48.5289L25.9922 48.3081C23.2819 47.4422 24.337 43.8127 26.7025 44.1715C28.3024 44.375 30.4472 44.6648 32.2816 44.8545C32.3195 44.8579 32.3575 44.8614 32.392 44.8648C35.9333 45.2236 37.3539 42.5774 36.0885 40.5212C35.6092 39.7381 34.7368 39.0377 33.4437 38.6271L28.461 37.7129C25.2301 37.1195 22.9336 37.8578 17.92 38.6824L15.096 39.1482L8.37553 40.2522Z" fill="#FED1A3"/>
<path fill-rule="evenodd" clip-rule="evenodd" d="M0 39.083V55.0051C0 55.2051 0.210362 55.3674 0.465558 55.3674H7.90677C8.16536 55.3674 8.37572 55.2052 8.37572 55.0051V39.083C8.37572 38.883 8.16536 38.7207 7.90677 38.7207H0.465558C0.210362 38.7208 0 38.883 0 39.083Z" fill="#99E6FC"/>
<path fill-rule="evenodd" clip-rule="evenodd" d="M0 52.5586V55.0047C0 55.2048 0.210362 55.367 0.465558 55.367H7.90677C8.16536 55.367 8.37572 55.2049 8.37572 55.0047V52.5586C8.37572 52.7553 8.16536 52.9209 7.90677 52.9209H0.465558C0.210362 52.9209 0 52.7553 0 52.5586Z" fill="#62DBFB"/>
<path fill-rule="evenodd" clip-rule="evenodd" d="M8.37573 52.559V53.7114L17.6513 56.2368L25.1752 58.2827C29.5647 59.6489 31.5025 58.8692 35.5404 57.572L50.3365 52.8248C52.733 52.0588 53.5743 49.8646 52.7399 48.4535C52.3296 49.2677 51.5262 49.9991 50.3365 50.3786L35.5404 55.1259C31.5025 56.4197 29.5647 57.2028 25.1752 55.8366L17.6513 53.7907L8.37573 51.2618V52.559ZM26.7027 41.7259C24.8269 41.443 23.7752 43.6615 24.7683 45.0242C25.1647 44.4342 25.8476 44.0444 26.7027 44.172C28.3026 44.3755 30.4474 44.6653 32.2818 44.855L32.3922 44.8653C35.7679 45.2069 37.2162 42.8229 36.2507 40.8184C35.9852 41.329 35.5404 41.7672 34.9266 42.0604C34.2714 42.3744 33.4198 42.5227 32.3922 42.4192L32.2818 42.4089C30.4474 42.2192 28.3027 41.9294 26.7027 41.7259Z" fill="#FFBC85"/>
</svg>
