<svg width="57" height="54" viewBox="0 0 57 54" fill="none" xmlns="http://www.w3.org/2000/svg">
<path d="M14.5617 43.3078L14.3658 52.0882L12.0591 52.0798L11.026 43.291L14.5617 43.3078Z" fill="#FFCC99"/>
<path d="M14.944 53.1443V53.287C14.944 53.5389 14.7302 53.7403 14.4631 53.7403H12.0228C11.7556 53.7403 11.5419 53.5389 11.5419 53.287V53.1443C11.5419 52.2629 12.2989 51.541 13.2429 51.541C14.187 51.541 14.944 52.2545 14.944 53.1443Z" fill="#565455"/>
<path d="M14.944 53.1445V53.2872C14.944 53.5391 14.7302 53.7405 14.4631 53.7405H12.0228C11.7556 53.7405 11.5419 53.5391 11.5419 53.2872V53.1445H14.944Z" fill="#DFE7EF"/>
<path d="M5.05762 43.3078L5.26246 52.0882L7.56022 52.0798L8.60223 43.291L5.05762 43.3078Z" fill="#FFCC99"/>
<path d="M4.67737 53.1443V53.287C4.67737 53.5389 4.89111 53.7403 5.1583 53.7403H7.60746C7.87464 53.7403 8.08839 53.5389 8.08839 53.287V53.1443C8.08839 52.2629 7.32247 51.541 6.38733 51.541C5.44329 51.541 4.67737 52.2545 4.67737 53.1443Z" fill="#565455"/>
<path d="M4.67737 53.1445V53.2872C4.67737 53.5391 4.89111 53.7405 5.1583 53.7405H7.60746C7.87464 53.7405 8.08839 53.5391 8.08839 53.2872V53.1445H4.67737Z" fill="#DFE7EF"/>
<path d="M19.6289 22.9336V25.9387H0V22.9336C0 20.9357 0.988572 19.0554 2.67182 17.8466H2.68072C3.86623 16.9967 5.31475 16.5367 6.80422 16.5371H12.8425C14.3298 16.5371 15.7815 16.9988 16.966 17.855C17.7933 18.4524 18.4637 19.2211 18.9255 20.1018C19.3872 20.9824 19.6279 21.9513 19.6289 22.9336Z" fill="#FFD767"/>
<path d="M14.2579 16.6882C11.3011 18.6357 8.33535 18.6357 5.37854 16.6882C5.84165 16.5791 6.31368 16.5371 6.7946 16.5371H12.8418C13.3138 16.5371 13.7948 16.5875 14.2579 16.6882Z" fill="#FF3366"/>
<path d="M9.09418 43.5177L9.81557 39.9585L10.5281 43.5177H15.3373V34.6953H4.28491V43.5177H9.09418Z" fill="#565455"/>
<path d="M4.28491 22.9355H15.3373V34.696H4.28491V22.9355Z" fill="#5AD1FE"/>
<path d="M4.28491 33.6211H15.3373V34.6956H4.28491V33.6211Z" fill="#FF3366"/>
<path d="M11.1233 35.0312H8.49597V33.2852H11.1233V35.0312ZM8.93237 34.6199H10.6958V33.6881H8.93237V34.6199Z" fill="white"/>
<path d="M8.20288 33.9473H9.81488V34.3502H8.20288V33.9473Z" fill="white"/>
<path d="M5.76332 26.1906H4.28491V16.747L5.76332 16.5371V26.1906ZM15.3373 26.1906H13.8678V16.5371L15.3373 16.747V26.1906Z" fill="#5AD1FE"/>
<path d="M12.3261 12.8679V16.5447C10.6518 17.3421 8.98636 17.3421 7.31203 16.5447V12.8679H12.3261ZM17.2156 9.67811C17.2156 10.5679 16.5654 11.2898 15.755 11.2898C14.9445 11.2898 14.2944 10.5679 14.2944 9.67811C14.2944 8.78832 14.9445 8.06641 15.755 8.06641C16.5654 8.06641 17.2156 8.78832 17.2156 9.67811ZM5.33488 9.67811C5.33488 10.5679 4.68474 11.2898 3.87429 11.2898C3.06384 11.2898 2.4137 10.5679 2.4137 9.67811C2.4137 8.78832 3.06384 8.06641 3.87429 8.06641C4.67583 8.06641 5.33488 8.78832 5.33488 9.67811Z" fill="#F4BC89"/>
<path d="M15.7551 3.87109V10.1584C15.1138 13.2307 13.4128 15.237 9.81473 15.3209C6.21668 15.237 4.51563 13.2307 3.87439 10.1584V3.87109H15.7551Z" fill="#FFCC99"/>
<path d="M3.86568 10.2924C3.86568 10.2924 4.30208 10.4351 4.1863 8.3701C4.15068 7.72374 4.41786 7.08577 4.93441 6.66606C5.31737 6.35547 5.88736 6.12043 6.71562 6.154C8.92432 6.25474 10.9193 6.22116 12.6292 5.44888C12.6292 5.44888 12.9142 6.24634 14.4461 6.99343C15.5148 7.51388 15.0873 10.0574 15.7285 10.2924C17.5009 6.23795 18.1154 2.28423 14.6776 1.86452C14.6776 1.86452 12.371 -1.14065 6.71562 0.479455C1.06028 2.09956 2.94836 10.3428 3.86568 10.2924Z" fill="#565455"/>
<path opacity="0.3" d="M6.12654 30.7756V35.7786C6.12654 35.9632 5.96623 36.1227 5.7703 36.1227C5.56546 36.1227 5.40515 35.9632 5.40515 35.7786V30.7756C5.40515 30.5909 5.56546 30.4398 5.7703 30.4398C5.96623 30.4314 6.12654 30.5825 6.12654 30.7756ZM6.12654 37.3735V38.6074C6.12654 38.7921 5.96623 38.9516 5.7703 38.9516C5.56546 38.9516 5.40515 38.7921 5.40515 38.6074V37.3735C5.40515 37.1888 5.56546 37.0377 5.7703 37.0377C5.96623 37.0377 6.12654 37.1888 6.12654 37.3735Z" fill="white"/>
<path d="M18.9605 25.9395L18.3638 33.4524H16.6004L16.0037 25.9395H18.9605Z" fill="#FFCC99"/>
<path d="M15.4778 34.6886C15.5469 34.7315 15.6308 34.7476 15.7121 34.7335C15.7935 34.7194 15.8659 34.6763 15.9142 34.6131L16.3239 34.0507V35.8051C16.3239 35.9646 16.4664 36.0989 16.6356 36.0989C16.8137 36.0989 16.9473 35.9646 16.9473 35.8051V36.0149C16.9473 36.1828 17.0898 36.3087 17.259 36.3087C17.4283 36.3087 17.5708 36.1744 17.5708 36.0149V35.8051C17.5708 35.9646 17.7133 36.0989 17.8825 36.0989C18.0517 36.0989 18.1942 35.9646 18.1942 35.8051C18.1942 35.9646 18.3367 36.0989 18.5059 36.0989C18.6751 36.0989 18.8176 35.9646 18.8176 35.8051V34.0255C18.8176 33.4631 18.3367 33.0098 17.74 33.0098H17.0364C16.5911 33.0098 16.1725 33.2196 15.9231 33.5638L15.3977 34.2773C15.2997 34.4116 15.3353 34.5963 15.4778 34.6886Z" fill="#FFCC99"/>
<path d="M16.9132 35.4082C16.9221 35.5425 16.9132 35.6684 16.9399 35.8027C16.9666 35.6684 16.9577 35.5425 16.9756 35.4082C16.9666 35.2739 16.9666 35.148 16.9399 35.0137C16.9132 35.148 16.9221 35.2739 16.9132 35.4082ZM17.5633 35.0137C17.5366 35.148 17.5455 35.2739 17.5366 35.4082C17.5455 35.5425 17.5366 35.6684 17.5633 35.8027C17.5901 35.6684 17.5812 35.5425 17.5901 35.4082C17.5901 35.2739 17.5901 35.148 17.5633 35.0137ZM18.1868 35.148C18.1601 35.2571 18.169 35.3662 18.1601 35.4754C18.169 35.5845 18.1601 35.6936 18.1868 35.8027C18.2135 35.6936 18.2046 35.5845 18.2135 35.4754C18.2046 35.3662 18.2135 35.2571 18.1868 35.148Z" fill="#DB976A"/>
<path d="M0.524414 25.9395V28.1723C0.524414 29.2048 1.41502 30.0443 2.51046 30.0443H10.8554V27.9541L3.92653 27.2993V25.9395H0.524414Z" fill="#FFCC99"/>
<path d="M13.0824 26.754C13.1181 26.8296 13.127 26.9135 13.1092 26.9891C13.0824 27.1066 12.9934 27.2157 12.8687 27.2745L11.987 27.6354L14.0532 28.0132C14.2759 28.0552 14.4184 28.2566 14.3827 28.4665C14.3382 28.6847 14.1245 28.819 13.9018 28.7771L13.8216 28.7603C14.0532 28.8022 14.1957 29.0037 14.1512 29.222C14.1066 29.4318 13.8929 29.5661 13.6613 29.5242L13.3674 29.4738C13.5901 29.5158 13.7326 29.7172 13.6881 29.9355C13.6435 30.1453 13.4298 30.2796 13.2071 30.2461C13.4298 30.288 13.5723 30.4895 13.5277 30.7078C13.4832 30.9176 13.2695 31.0603 13.0468 31.0183L11.3101 30.6994C10.9374 30.6295 10.6091 30.4234 10.3972 30.1261C10.1852 29.8288 10.1068 29.4645 10.1791 29.1128L10.3572 28.2398C10.473 27.6942 10.8648 27.2325 11.4081 27.0143L12.5303 26.5526C12.744 26.4686 12.9934 26.561 13.0824 26.754Z" fill="#FFCC99"/>
<path d="M54.2302 33.9562C54.2302 35.9373 52.5381 37.5406 50.4363 37.5406L32.927 37.0453C31.2348 37.0453 29.8722 35.761 29.8722 34.1661C29.8722 33.4025 30.194 32.6701 30.7669 32.1301C31.3398 31.5902 32.1168 31.2868 32.927 31.2868C33.1051 31.2868 33.2921 31.3036 33.4613 31.3372C33.6313 30.4436 34.1297 29.635 34.869 29.0533C35.6084 28.4715 36.5415 28.1537 37.5047 28.1558C38.5645 28.1558 39.5353 28.5335 40.2656 29.1547C40.889 27.3079 42.7236 25.9648 44.9145 25.9648C47.5596 25.9648 49.7238 27.9627 49.7861 30.439C49.9999 30.4054 50.2225 30.3802 50.4452 30.3802C52.5292 30.3802 54.2302 31.9752 54.2302 33.9562Z" fill="#DB976A"/>
<path d="M50.2665 30.3894C49.9993 30.5153 49.7588 30.658 49.5273 30.8343C48.9305 31.2792 48.4763 31.8752 48.1201 32.5803C48.129 31.7912 48.5832 31.0106 49.2512 30.5069C49.4026 30.3894 49.5718 30.2887 49.7499 30.2047C49.7588 30.2803 49.7677 30.3642 49.7677 30.4397C49.9369 30.4062 50.0972 30.3894 50.2665 30.3894ZM40.8528 31.8164C40.7013 30.6412 40.256 29.5667 39.5258 28.6602C39.784 28.7945 40.0334 28.9624 40.256 29.1554C40.2739 29.1134 40.2828 29.0631 40.3095 29.0211C40.3629 29.0883 40.4074 29.1638 40.452 29.2394C40.8973 30.0284 41.0843 30.9686 40.8528 31.8164ZM34.9391 33.2854C34.5829 32.8321 34.2801 32.404 33.9238 32.0011C33.7279 31.766 33.5231 31.5394 33.3093 31.3128C33.3539 31.3128 33.4073 31.3212 33.4518 31.3295C33.4696 31.2456 33.4874 31.1701 33.5142 31.0861C33.7992 31.2624 34.0485 31.489 34.2712 31.7409C34.6452 32.1858 34.9124 32.723 34.9391 33.2854Z" fill="#C67F58"/>
<path d="M29.338 34.9883L32.4997 43.7268L48.1654 44.4571L54.7559 36.4405L29.338 34.9883Z" fill="#C7D0D8"/>
<path d="M54.7539 37.1891C55.1725 37.1891 55.5198 36.8869 55.5466 36.4839C55.5532 36.3863 55.5393 36.2885 55.5057 36.1959C55.4721 36.1034 55.4195 36.018 55.3508 35.9447C55.2821 35.8714 55.1988 35.8116 55.1055 35.7687C55.0122 35.7259 54.9109 35.7008 54.8073 35.6949L29.3895 34.2427C28.9442 34.2091 28.579 34.5281 28.5523 34.9394C28.5256 35.3507 28.8551 35.7033 29.2915 35.7285L54.7094 37.1807C54.7183 37.1891 54.7361 37.1891 54.7539 37.1891Z" fill="#DFE7EF"/>
<path d="M47.5956 49.3013C47.5956 51.7525 49.6974 53.7335 52.298 53.7335C54.8985 53.7335 57.0004 51.7525 57.0004 49.3013C57.0004 46.8502 54.8985 44.8691 52.298 44.8691C49.7063 44.8691 47.5956 46.8586 47.5956 49.3013Z" fill="#565455"/>
<path d="M49.233 49.3017C49.233 50.0676 49.5558 50.802 50.1304 51.3436C50.7049 51.8851 51.4842 52.1893 52.2967 52.1893C53.1093 52.1893 53.8885 51.8851 54.4631 51.3436C55.0376 50.802 55.3604 50.0676 55.3604 49.3017C55.3604 48.5359 55.0376 47.8014 54.4631 47.2598C53.8885 46.7183 53.1093 46.4141 52.2967 46.4141C51.4842 46.4141 50.7049 46.7183 50.1304 47.2598C49.5558 47.8014 49.233 48.5359 49.233 49.3017Z" fill="#C7D0D8"/>
<path d="M50.4248 49.3005C50.4248 49.6508 50.535 49.9932 50.7415 50.2845C50.948 50.5758 51.2415 50.8028 51.5849 50.9369C51.9282 51.0709 52.3061 51.106 52.6706 51.0377C53.0351 50.9693 53.37 50.8006 53.6328 50.5529C53.8956 50.3052 54.0745 49.9896 54.147 49.646C54.2196 49.3025 54.1823 48.9463 54.0401 48.6227C53.8979 48.299 53.657 48.0224 53.348 47.8278C53.039 47.6332 52.6756 47.5293 52.304 47.5293C51.262 47.5377 50.4248 48.3268 50.4248 49.3005Z" fill="#DFE7EF"/>
<path d="M34.6166 53.7319C34.8304 53.7319 35.0263 53.6144 35.1243 53.4297L39.5417 44.4982C39.6753 44.238 39.5506 43.919 39.2745 43.8014C39.2085 43.7719 39.1369 43.755 39.0639 43.7516C38.9909 43.7483 38.9179 43.7586 38.8492 43.7821C38.7804 43.8055 38.7173 43.8415 38.6634 43.8881C38.6096 43.9346 38.566 43.9908 38.5353 44.0533L34.768 51.6585L32.6128 43.8266C32.5951 43.7597 32.5635 43.6967 32.5198 43.6414C32.4761 43.586 32.4212 43.5394 32.3582 43.5043C32.2952 43.4691 32.2255 43.4461 32.153 43.4366C32.0805 43.4271 32.0067 43.4313 31.9359 43.4489C31.8649 43.4655 31.7981 43.4953 31.7393 43.5365C31.6806 43.5777 31.6312 43.6295 31.5939 43.6888C31.5566 43.7482 31.5322 43.8139 31.5221 43.8823C31.512 43.9506 31.5165 44.0201 31.5351 44.0869L34.0823 53.3374C34.1446 53.5556 34.3406 53.7067 34.5721 53.7319H34.6166Z" fill="#565455"/>
<path d="M52.2957 50.0474C52.4738 50.0474 52.643 49.9971 52.7944 49.8795C52.9564 49.7546 53.0602 49.5749 53.0835 49.3788C53.1068 49.1827 53.0478 48.9859 52.9191 48.8302L48.7778 43.9783C48.6353 43.8104 48.4215 43.7097 48.1989 43.7013L32.3105 42.9626L27.7773 31.5044C27.7278 31.3796 27.644 31.2695 27.5345 31.1854C27.4249 31.1014 27.2935 31.0463 27.1539 31.0259L21.0621 30.1697C20.8548 30.1419 20.6441 30.1911 20.4746 30.3071C20.3051 30.423 20.19 30.5965 20.1537 30.7909C20.0825 31.2022 20.3853 31.5799 20.8128 31.6471L26.4414 32.4362L30.9924 43.9448C31.0993 44.2218 31.3753 44.4148 31.696 44.4316L47.7447 45.1787L51.6633 49.762C51.8326 49.9551 52.0641 50.0474 52.2957 50.0474Z" fill="#6B6B6B"/>
<path d="M23.876 32.554C24.5172 32.554 25.0783 32.1175 25.1763 31.5047C25.292 30.8248 24.7933 30.1868 24.0719 30.0861L21.1418 29.6915C20.4204 29.5908 19.7436 30.0525 19.6367 30.7324C19.5209 31.4124 20.0197 32.0503 20.7411 32.1511L23.6711 32.5456C23.7424 32.5456 23.8136 32.554 23.876 32.554Z" fill="#565455"/>
</svg>
