<svg width="54" height="55" viewBox="0 0 54 55" fill="none" xmlns="http://www.w3.org/2000/svg">
<path d="M36.795 15.2361C36.7951 13.4302 36.3199 11.656 35.4171 10.0919C34.5143 8.52772 33.2158 7.2287 31.652 6.32531C30.0883 5.42193 28.3143 4.94599 26.5083 4.94531C24.7023 4.94464 22.928 5.41925 21.3635 6.32147C19.7991 7.22368 18.4996 8.52173 17.5957 10.0852C16.6917 11.6487 16.2152 13.4225 16.2139 15.2284C16.2126 17.0344 16.6866 18.8089 17.5882 20.3737C18.4899 21.9385 19.7875 23.2384 21.3506 24.1429C21.5452 24.2568 21.7064 24.4198 21.8183 24.6156C21.9301 24.8113 21.9886 25.033 21.9879 25.2585V27.6135H31.0224V25.2595C31.0207 25.0355 31.0778 24.8149 31.1881 24.6199C31.2983 24.4249 31.4578 24.2622 31.6506 24.1482C33.2152 23.2453 34.5145 21.9463 35.4176 20.3818C36.3207 18.8173 36.7958 17.0426 36.795 15.2361Z" fill="#FFDE76"/>
<path d="M21.9873 27.6133H31.0219V29.9293C31.0219 30.9578 30.6133 31.9442 29.886 32.6714C29.1588 33.3987 28.1724 33.8073 27.1439 33.8073H25.8653C24.8368 33.8073 23.8504 33.3987 23.1231 32.6714C22.3959 31.9442 21.9873 30.9578 21.9873 29.9293V27.6133Z" fill="#FF8502"/>
<path d="M23.357 45.8499L22.1809 45.1708C21.9986 45.0663 21.8533 44.9078 21.765 44.7172C21.6767 44.5265 21.6497 44.3132 21.6878 44.1066C21.9172 42.8886 21.9172 41.6385 21.6878 40.4204C21.6497 40.2138 21.6767 40.0005 21.765 39.8099C21.8533 39.6193 21.9986 39.4607 22.1809 39.3562L23.357 38.6772C23.4772 38.6078 23.5825 38.5154 23.667 38.4053C23.7515 38.2952 23.8135 38.1695 23.8494 38.0355C23.8853 37.9014 23.8944 37.7616 23.8763 37.624C23.8582 37.4864 23.8131 37.3538 23.7437 37.2336L22.1993 34.5585C22.0591 34.3159 21.8284 34.1388 21.5577 34.0663C21.287 33.9938 20.9986 34.0317 20.7559 34.1718L19.5783 34.8516C19.3967 34.9572 19.1867 35.0039 18.9773 34.985C18.768 34.9662 18.5697 34.8827 18.4099 34.7463C17.4705 33.9375 16.3876 33.3123 15.2176 32.9032C15.0198 32.8328 14.8488 32.7027 14.7281 32.5309C14.6075 32.3592 14.5431 32.1542 14.544 31.9443V30.586C14.544 30.3057 14.4326 30.037 14.2345 29.8388C14.0363 29.6406 13.7675 29.5293 13.4873 29.5293H10.3984C10.1181 29.5293 9.84936 29.6406 9.65119 29.8388C9.45301 30.037 9.34168 30.3057 9.34168 30.586V31.9443C9.34253 32.1542 9.27818 32.3592 9.15753 32.5309C9.03687 32.7027 8.86586 32.8328 8.6681 32.9032C7.49796 33.3123 6.41504 33.9375 5.47563 34.7463C5.31578 34.8827 5.11748 34.9662 4.90816 34.985C4.69883 35.0039 4.48882 34.9572 4.30715 34.8516L3.12961 34.1718C2.8869 34.0317 2.59846 33.9937 2.32775 34.0663C2.05703 34.1388 1.8262 34.3159 1.68603 34.5585L0.14159 37.2336C0.0721941 37.3538 0.0271534 37.4865 0.00903946 37.624C-0.00907447 37.7616 9.31926e-05 37.9015 0.036019 38.0355C0.0719448 38.1696 0.133925 38.2952 0.21842 38.4053C0.302915 38.5154 0.40827 38.6078 0.528468 38.6772L1.70446 39.3562C1.88675 39.4607 2.03209 39.6192 2.12044 39.8098C2.20878 40.0005 2.23577 40.2138 2.19766 40.4204C1.96832 41.6385 1.96832 42.8886 2.19766 44.1066C2.23577 44.3132 2.20878 44.5266 2.12044 44.7172C2.03209 44.9078 1.88675 45.0663 1.70446 45.1708L0.528468 45.8499C0.40827 45.9192 0.302915 46.0116 0.21842 46.1217C0.133925 46.2318 0.0719448 46.3575 0.036019 46.4915C9.31926e-05 46.6256 -0.00907447 46.7654 0.00903946 46.903C0.0271534 47.0406 0.0721941 47.1733 0.14159 47.2934L1.68603 49.9685C1.8262 50.2112 2.05703 50.3883 2.32775 50.4608C2.59846 50.5333 2.8869 50.4953 3.12961 50.3552L4.30715 49.6755C4.48882 49.5698 4.69883 49.5232 4.90816 49.542C5.11748 49.5609 5.31578 49.6443 5.47563 49.7808C6.41502 50.5898 7.49793 51.2153 8.6681 51.6247C8.86586 51.6951 9.03688 51.8251 9.15754 51.9968C9.2782 52.1686 9.34255 52.3736 9.34168 52.5835V53.9417C9.34168 54.222 9.45301 54.4907 9.65119 54.6889C9.84936 54.8871 10.1181 54.9984 10.3984 54.9984H13.4873C13.7675 54.9984 14.0363 54.8871 14.2345 54.6889C14.4326 54.4907 14.544 54.222 14.544 53.9417V52.5835C14.5431 52.3736 14.6075 52.1686 14.7281 51.9968C14.8488 51.8251 15.0198 51.6951 15.2176 51.6247C16.3877 51.2152 17.4705 50.5897 18.4099 49.7808C18.5697 49.6443 18.768 49.5609 18.9773 49.542C19.1867 49.5232 19.3967 49.5698 19.5783 49.6755L20.7559 50.3552C20.9986 50.4953 21.287 50.5333 21.5577 50.4608C21.8284 50.3882 22.0591 50.2112 22.1993 49.9685L23.7437 47.2934C23.8131 47.1733 23.8582 47.0406 23.8763 46.903C23.8944 46.7654 23.8853 46.6256 23.8494 46.4916C23.8135 46.3575 23.7515 46.2318 23.667 46.1217C23.5825 46.0116 23.4772 45.9193 23.357 45.8499ZM11.9428 46.1381C11.1766 46.1381 10.4277 45.9109 9.79061 45.4852C9.15355 45.0596 8.65702 44.4545 8.36381 43.7467C8.0706 43.0388 7.99389 42.2599 8.14336 41.5084C8.29284 40.757 8.66179 40.0667 9.20357 39.5249C9.74534 38.9832 10.4356 38.6142 11.1871 38.4647C11.9385 38.3153 12.7174 38.392 13.4253 38.6852C14.1332 38.9784 14.7382 39.4749 15.1639 40.112C15.5895 40.749 15.8167 41.498 15.8167 42.2642C15.8167 42.7729 15.7165 43.2767 15.5219 43.7467C15.3272 44.2167 15.0418 44.6437 14.6821 45.0035C14.3224 45.3632 13.8953 45.6485 13.4253 45.8432C12.9553 46.0379 12.4516 46.1381 11.9428 46.1381Z" fill="#FF8080"/>
<path d="M42.7192 46.2503L44.7274 44.2422L53.0615 52.5762C53.1934 52.7081 53.298 52.8646 53.3694 53.0369C53.4407 53.2091 53.4775 53.3938 53.4775 53.5803C53.4775 53.7667 53.4407 53.9514 53.3694 54.1237C53.298 54.2959 53.1934 54.4525 53.0615 54.5843C52.9297 54.7162 52.7731 54.8208 52.6009 54.8922C52.4286 54.9636 52.2439 55.0003 52.0574 55.0003C51.8709 55.0003 51.6862 54.9636 51.5139 54.8922C51.3416 54.8208 51.1851 54.7162 51.0532 54.5843L42.7192 46.2503Z" fill="#497FCE"/>
<path d="M38.0965 50.5665C43.6264 50.5665 48.1093 46.0837 48.1093 40.5538C48.1093 35.0239 43.6264 30.541 38.0965 30.541C32.5666 30.541 28.0837 35.0239 28.0837 40.5538C28.0837 46.0837 32.5666 50.5665 38.0965 50.5665Z" fill="#BDDEFF"/>
<path d="M38.0966 47.3007C41.8224 47.3007 44.8427 44.2804 44.8427 40.5546C44.8427 36.8289 41.8224 33.8086 38.0966 33.8086C34.3709 33.8086 31.3506 36.8289 31.3506 40.5546C31.3506 44.2804 34.3709 47.3007 38.0966 47.3007Z" fill="white"/>
<path d="M29.9338 16.6613C31.1994 16.6613 32.2254 15.6353 32.2254 14.3697C32.2254 13.1041 31.1994 12.0781 29.9338 12.0781C28.6682 12.0781 27.6422 13.1041 27.6422 14.3697C27.6422 15.6353 28.6682 16.6613 29.9338 16.6613Z" fill="#FF8502"/>
<path d="M37.2795 15.2797C37.2185 15.2135 37.145 15.16 37.0632 15.1223C36.9814 15.0846 36.893 15.0635 36.803 15.0601C36.713 15.0568 36.6232 15.0713 36.5388 15.1028C36.4545 15.1343 36.3772 15.1821 36.3114 15.2436C36.2456 15.3051 36.1926 15.379 36.1555 15.4611C36.1184 15.5431 36.0979 15.6317 36.0952 15.7218C36.0925 15.8118 36.1076 15.9014 36.1397 15.9856C36.1718 16.0697 36.2202 16.1467 36.2822 16.212C40.0141 20.2054 41.0533 22.8946 40.4394 23.7038C40.0196 24.2573 38.3187 24.4122 34.9067 23.0282C31.667 21.7142 27.7786 19.3948 23.9576 16.4977C20.1366 13.6006 16.8533 10.4833 14.7129 7.71879C12.4589 4.80722 12.149 3.12813 12.5686 2.57418C13.1171 1.85059 15.4983 1.98029 19.5838 3.90018C19.6652 3.94027 19.7537 3.96374 19.8443 3.96921C19.9349 3.97468 20.0256 3.96205 20.1112 3.93206C20.1968 3.90206 20.2756 3.8553 20.3429 3.79451C20.4103 3.73371 20.4648 3.66011 20.5034 3.578C20.5419 3.49588 20.5637 3.4069 20.5675 3.31626C20.5713 3.22562 20.557 3.13514 20.5254 3.0501C20.4938 2.96506 20.4456 2.88717 20.3835 2.82099C20.3215 2.7548 20.2469 2.70164 20.164 2.66462C17.0105 1.18196 12.9434 -0.180391 11.4809 1.74922C10.4723 3.08034 11.2167 5.43284 13.6335 8.55466C15.8451 11.4113 19.2186 14.6188 23.1326 17.5861C23.3558 17.7554 23.5793 17.9226 23.8031 18.0877C18.2186 21.7928 13.9835 23.303 11.9314 23.3028C11.3073 23.3028 10.8846 23.1632 10.6877 22.9033C10.244 22.3171 10.6109 20.5257 13.1094 17.4059C13.2196 17.2644 13.2696 17.0851 13.2486 16.9069C13.2277 16.7288 13.1374 16.566 12.9974 16.4539C12.8574 16.3418 12.6788 16.2893 12.5004 16.3077C12.3219 16.3262 12.1579 16.4142 12.0439 16.5527C10.1962 18.8598 8.27236 21.9773 9.59972 23.7282C10.0902 24.3752 10.9087 24.6628 11.9608 24.6626C15.081 24.6626 20.2524 22.1312 24.9844 18.9406C28.2895 21.2764 31.5728 23.1497 34.3936 24.294C36.3256 25.0778 37.9253 25.4705 39.1533 25.4705C40.2507 25.4705 41.0514 25.157 41.5273 24.5293C43.2411 22.269 39.6015 17.764 37.2795 15.2797Z" fill="#FF8502"/>
<path d="M30.4804 14.6934C30.6555 14.6937 30.8239 14.6264 30.9507 14.5057L32.1656 13.3496C37.0244 8.98986 41.5388 3.44472 39.6458 0.948186C38.2372 -0.909411 34.3896 0.308053 31.4099 1.65709C31.3283 1.69407 31.2547 1.74677 31.1934 1.81219C31.1321 1.8776 31.0843 1.95445 31.0527 2.03834C31.0211 2.12224 31.0063 2.21153 31.0092 2.30113C31.0121 2.39073 31.0327 2.47888 31.0697 2.56055C31.1066 2.64221 31.1593 2.7158 31.2248 2.77709C31.2902 2.83839 31.367 2.88621 31.4509 2.91781C31.5348 2.9494 31.6241 2.96417 31.7137 2.96126C31.8033 2.95835 31.8915 2.93782 31.9731 2.90084C36.0619 1.04973 38.0756 1.13642 38.5579 1.77263C39.3088 2.76346 37.5374 6.69675 31.2465 12.3397L31.2318 12.3533L30.0097 13.5162C29.9107 13.6102 29.8422 13.7318 29.813 13.8652C29.7838 13.9986 29.7953 14.1377 29.846 14.2645C29.8967 14.3912 29.9842 14.4999 30.0973 14.5764C30.2104 14.653 30.3438 14.6938 30.4804 14.6937V14.6934Z" fill="#FF8502"/>
<path d="M11.9428 34.4238C10.3922 34.4238 8.8764 34.8836 7.5871 35.745C6.2978 36.6065 5.29291 37.8309 4.6995 39.2634C4.10608 40.696 3.9508 42.2724 4.25329 43.7932C4.55577 45.314 5.30244 46.711 6.39888 47.8074C7.49531 48.9039 8.89225 49.6506 10.4131 49.9531C11.9339 50.2556 13.5102 50.1004 14.9428 49.507C16.3754 48.9136 17.5998 47.9087 18.4613 46.6195C19.3228 45.3302 19.7826 43.8144 19.7826 42.2638C19.7826 41.2342 19.5798 40.2148 19.1859 39.2636C18.7919 38.3124 18.2144 37.4481 17.4864 36.7201C16.7584 35.9921 15.8942 35.4146 14.943 35.0206C13.9918 34.6266 12.9723 34.4238 11.9428 34.4238ZM11.9428 48.4134C10.7265 48.4135 9.53743 48.0528 8.52605 47.3771C7.51468 46.7014 6.72639 45.741 6.26088 44.6172C5.79537 43.4935 5.67355 42.257 5.91081 41.064C6.14808 39.871 6.73378 38.7752 7.59384 37.9151C8.45391 37.055 9.54971 36.4693 10.7427 36.232C11.9356 35.9947 13.1722 36.1165 14.2959 36.582C15.4197 37.0475 16.3801 37.8357 17.0559 38.8471C17.7316 39.8584 18.0923 41.0475 18.0922 42.2638C18.0922 43.8947 17.4444 45.4589 16.2911 46.6122C15.1379 47.7654 13.5737 48.4134 11.9428 48.4134Z" fill="#DF2935"/>
</svg>
