<svg width="62" height="51" viewBox="0 0 62 51" fill="none" xmlns="http://www.w3.org/2000/svg">
<path d="M7.64542 24.8105L0.957067 47.1836C0.577656 48.4528 1.29903 49.7894 2.56838 50.1689C2.79753 50.2374 3.02874 50.2701 3.25632 50.2701C4.289 50.2701 5.2428 49.5979 5.55375 48.5577L11.8626 27.4539L7.64542 24.8105Z" fill="#5F6E9B"/>
<path d="M19.4915 50.2674C18.1739 50.2674 17.1017 49.2037 17.0931 47.8842L17.0325 38.5571L13.9847 28.1675C13.6117 26.8963 17.6998 23.8218 18.0726 25.0929L21.7307 37.5298C21.7936 37.7441 21.8262 37.9661 21.8277 38.1894L21.8904 47.8531C21.899 49.1779 20.8321 50.2588 19.5073 50.2674H19.4915Z" fill="#414B82"/>
<path d="M16.0544 8.48132C18.3964 8.48132 20.295 6.58271 20.295 4.24066C20.295 1.89861 18.3964 0 16.0544 0C13.7123 0 11.8137 1.89861 11.8137 4.24066C11.8137 6.58271 13.7123 8.48132 16.0544 8.48132Z" fill="#FFB69E"/>
<path d="M4.15894 16.1127L5.6446 15.6012L5.80128 13.5196L4.25407 11.8517L1.34832 12.852C0.919744 12.9996 0.554041 13.2884 0.311182 13.6712C0.0683244 14.0539 -0.0372721 14.5077 0.0117112 14.9584L0.840091 22.5702C0.959331 23.6658 1.94355 24.4606 3.04361 24.3412C4.14113 24.2218 4.934 23.2353 4.81464 22.1377L4.15894 16.1127ZM16.755 9.99354L16.7474 9.94773L13.1903 9.77324L13.1555 10.0997C13.041 11.1735 13.8826 12.1096 14.9625 12.1096C16.0855 12.1096 16.9396 11.1012 16.755 9.99354ZM36.4897 8.47238C36.1988 7.40746 35.0994 6.78024 34.0345 7.07119L24.9386 9.55754L23.6174 9.6443L22.3626 11.5235L23.395 13.6655L25.402 13.5338C25.5359 13.5249 25.6686 13.5028 25.7981 13.4674L35.0888 10.9278C36.1535 10.6365 36.7808 9.5373 36.4897 8.47238Z" fill="#FFB69E"/>
<path d="M18.033 10.0091L16.7465 9.94601C16.7259 10.8631 15.8665 11.6258 14.9682 11.6258C13.9704 11.6258 13.2316 10.8103 13.1884 9.84592C13.1873 9.82083 13.1894 9.79635 13.1895 9.77151L12.3419 9.72995C11.2257 9.67517 10.1093 9.83393 9.05271 10.1977L4.25317 11.85L5.6437 15.5995L8.21888 14.7129L7.43303 25.5311C7.32239 27.0541 8.52813 28.3505 10.0551 28.3505H15.6288C17.0056 28.3505 18.1491 27.2884 18.2507 25.9155L19.136 13.9432L23.3941 13.6637L23.6165 9.64258L18.033 10.0091Z" fill="#64AFFF"/>
<path d="M33.6818 48.0769L32.7071 36.7245C32.6658 36.2449 32.7699 35.764 33.0056 35.3444L38.7227 25.1677C39.3718 24.0126 40.8342 23.6024 41.9891 24.2512C43.1441 24.9001 43.5544 26.3624 42.9056 27.5174L37.5502 37.0501L38.4617 47.6665C38.575 48.9864 37.597 50.1483 36.277 50.2616C34.9514 50.3752 33.7946 49.3917 33.6818 48.0769Z" fill="#748488"/>
<path d="M47.5097 48.7767L43.685 39.4116C43.5497 39.0805 43.4902 38.7233 43.5108 38.3663L44.1888 26.6278C44.2652 25.3052 45.3985 24.2944 46.7218 24.3713C48.0444 24.4476 49.0548 25.5818 48.9784 26.9043L48.3318 38.1005L51.9511 46.9628C52.452 48.1893 51.8638 49.5895 50.6372 50.0904C49.4056 50.5937 48.0083 49.9977 47.5097 48.7767Z" fill="#55696E"/>
<path d="M46.2502 9.42773V10.5978C46.2502 11.6094 47.0703 12.4295 48.0819 12.4295H48.1443C49.2153 12.4295 50.0578 11.5146 49.9697 10.4472L46.2502 9.42773ZM39.6425 19.0136L38.7776 17.0311L36.6543 16.3645L36.0829 17.0196L28.1346 17.9327C27.0377 18.0586 26.2508 19.0499 26.3768 20.1467C26.5029 21.2447 27.4959 22.0308 28.5907 21.9044L37.3151 20.9023C37.814 20.845 38.2729 20.602 38.6008 20.2218L39.6425 19.0136ZM61.6572 16.0149C61.0386 15.1005 59.7959 14.8604 58.8816 15.479L55.1409 18.009L52.899 18.6209L51.7187 20.9338L51.9087 21.7468C52.2286 23.1159 53.8209 23.7285 54.975 22.9477L61.1212 18.7907C62.0357 18.1721 62.2757 16.9293 61.6572 16.0149Z" fill="#80391B"/>
<path d="M55.1368 18.0111L54.1647 13.8414C53.9959 13.1173 53.6346 12.4523 53.1191 11.9165C52.6036 11.3807 51.9529 10.9941 51.2359 10.7975L49.9658 10.4494C49.7678 11.2013 49.0173 11.777 48.237 11.777C47.2392 11.777 46.5004 10.9615 46.4572 9.99714C46.4503 9.83064 46.471 9.66416 46.5185 9.50442L45.7566 9.29563C45.0461 9.10085 44.2951 9.11039 43.5898 9.32315C42.8844 9.53591 42.2534 9.94327 41.7691 10.4985L36.6501 16.3667L39.6383 19.0156L40.6002 17.8999L38.6652 25.2754C38.2753 26.7615 39.1589 28.2834 40.6428 28.6817L45.4765 29.9791C46.9712 30.3803 48.5071 29.4895 48.9013 27.9929L51.2659 19.0161L51.7145 20.9357C51.722 20.9356 51.7289 20.9346 51.7364 20.9346L55.1412 18.0079L55.1368 18.0111Z" fill="#E64937"/>
<path d="M48.1946 10.7799C50.4827 10.7799 52.3375 8.92505 52.3375 6.63701C52.3375 4.34897 50.4827 2.49414 48.1946 2.49414C45.9066 2.49414 44.0518 4.34897 44.0518 6.63701C44.0518 8.92505 45.9066 10.7799 48.1946 10.7799Z" fill="#80391B"/>
</svg>
