<svg width="38" height="42" viewBox="0 0 38 42" fill="none" xmlns="http://www.w3.org/2000/svg">
<path d="M9.69127 41.5879V31.9473H16.2593C17.9743 31.9473 19.5068 31.7073 20.8569 31.2271C22.2435 30.71 23.4112 29.9897 24.3599 29.0663C25.3086 28.1059 26.0384 26.9609 26.5493 25.6311C27.0601 24.2645 27.3155 22.7316 27.3155 21.0325C27.3155 19.2595 27.0601 17.7082 26.5493 16.3784C26.0384 15.0118 25.3086 13.8852 24.3599 12.9987C23.4112 12.0753 22.2435 11.3919 20.8569 10.9487C19.5068 10.4685 17.9743 10.2284 16.2593 10.2284H9.69127V0.587891H15.8214C19.4339 0.587891 22.5902 1.10501 25.2904 2.13924C28.0271 3.17348 30.3076 4.61402 32.1321 6.46086C33.9566 8.27077 35.3249 10.3762 36.2371 12.7771C37.1494 15.178 37.6055 17.7266 37.6055 20.423V21.6419C37.6055 24.1167 37.1494 26.5546 36.2371 28.9555C35.3249 31.3194 33.9566 33.4618 32.1321 35.3825C30.3076 37.2663 28.0271 38.7807 25.2904 39.9257C22.5902 41.0338 19.4339 41.5879 15.8214 41.5879H9.69127ZM0.605469 41.5879V0.587891H10.7859V41.5879H0.605469Z" fill="#386641"/>
</svg>
