<svg width="29" height="40" viewBox="0 0 29 40" fill="none" xmlns="http://www.w3.org/2000/svg">
<path d="M14.3658 40C11.4108 40 8.84735 39.4482 6.67557 38.3445C4.53939 37.2052 2.88385 35.5674 1.70895 33.4312C0.569648 31.2951 0 28.696 0 25.6342V23.6582H8.65154V26.1148C8.65154 27.8238 9.14998 29.2123 10.1469 30.2804C11.1794 31.3129 12.5857 31.8291 14.3658 31.8291C16.1104 31.8291 17.4811 31.3129 18.478 30.2804C19.5105 29.2123 20.0267 27.8238 20.0267 26.1148V6.56876H28.785V25.6342C28.785 28.696 28.1976 31.2951 27.0227 33.4312C25.8834 35.5674 24.2279 37.2052 22.0561 38.3445C19.9199 39.4482 17.3565 40 14.3658 40ZM4.53939 7.63685V0H28.785V7.63685H4.53939Z" fill="#386641"/>
</svg>
