<svg width="34" height="43" viewBox="0 0 34 43" fill="none" xmlns="http://www.w3.org/2000/svg">
<path d="M9.64656 42.5879V34.5502H18.7442C20.2887 34.5502 21.4377 34.1539 22.1911 33.3615C22.9445 32.569 23.3212 31.4181 23.3212 29.9086C23.3212 28.3992 22.9445 27.2671 22.1911 26.5124C21.4377 25.72 20.2887 25.3237 18.7442 25.3237H9.64656V19.0973H18.4051C21.3058 19.0973 23.9051 19.4558 26.2031 20.1728C28.501 20.852 30.3092 21.9841 31.6277 23.569C32.9462 25.1539 33.6055 27.2671 33.6055 29.9086V30.7011C33.6055 33.1917 33.0216 35.3237 31.8538 37.0973C30.6859 38.8709 28.9719 40.2294 26.7116 41.1728C24.4514 42.1162 21.6825 42.5879 18.4051 42.5879H9.64656ZM0.605469 42.5879V0.587891H10.7767V42.5879H0.605469ZM9.64656 23.7388V17.5124H17.2185C18.763 17.5124 19.8743 17.1351 20.5524 16.3803C21.2681 15.5879 21.626 14.4936 21.626 13.0973C21.626 11.6634 21.2681 10.569 20.5524 9.81431C19.8743 9.02185 18.763 8.62563 17.2185 8.62563H9.64656V0.587891H16.7664C21.5883 0.587891 25.3178 1.60676 27.9548 3.6445C30.5918 5.6445 31.9103 8.51242 31.9103 12.2483V13.0973C31.9103 15.7011 31.2322 17.7954 29.876 19.3803C28.5575 20.9275 26.7493 22.0407 24.4514 22.72C22.1911 23.3992 19.6294 23.7388 16.7664 23.7388H9.64656Z" fill="#386641"/>
</svg>
