<svg width="43" height="44" viewBox="0 0 43 44" fill="none" xmlns="http://www.w3.org/2000/svg">
<path d="M22.0028 43.5879C18.2568 43.5879 15.0406 42.9566 12.3541 41.6941C9.66763 40.3945 7.45412 38.7049 5.71358 36.6255C3.97304 34.5089 2.68655 32.2252 1.85412 29.7744C1.02168 27.3236 0.605469 24.9471 0.605469 22.6449V21.4195C0.605469 18.8573 1.02168 16.3508 1.85412 13.9001C2.72439 11.4122 4.02979 9.16561 5.77033 7.16043C7.54871 5.15525 9.76223 3.55853 12.4109 2.37027C15.0595 1.18202 18.1622 0.587891 21.719 0.587891C25.5028 0.587891 28.8514 1.29342 31.7649 2.70447C34.7163 4.07839 37.0811 6.02787 38.8595 8.55292C40.6379 11.0408 41.6784 13.9372 41.9811 17.242H31.4244C31.1595 15.831 30.592 14.6056 29.7217 13.5659C28.8514 12.5261 27.7352 11.7278 26.373 11.1708C25.0109 10.5767 23.4595 10.2796 21.719 10.2796C20.092 10.2796 18.6163 10.5581 17.292 11.1151C16.0055 11.6721 14.9082 12.4704 14.0001 13.5102C13.1298 14.5128 12.4487 15.7381 11.9568 17.1863C11.5028 18.6345 11.2757 20.2684 11.2757 22.0879C11.2757 23.9074 11.5028 25.5413 11.9568 26.9894C12.4487 28.4376 13.1487 29.6816 14.0568 30.7213C15.0028 31.761 16.1379 32.5594 17.4622 33.1164C18.7865 33.6362 20.3001 33.8962 22.0028 33.8962C24.6514 33.8962 26.8838 33.2649 28.7001 32.0024C30.5541 30.7399 31.6703 29.0503 32.0487 26.9337H42.6055C42.2649 29.9787 41.2244 32.7636 39.4838 35.2887C37.7433 37.8137 35.3974 39.8375 32.446 41.3599C29.4947 42.8452 26.0136 43.5879 22.0028 43.5879Z" fill="#386641"/>
</svg>
