<svg width="39" height="40" viewBox="0 0 39 40" fill="none" xmlns="http://www.w3.org/2000/svg">
<path d="M19.5754 40C16.2535 40 13.3553 39.4466 10.8809 38.3398C8.40639 37.1984 6.35564 35.6766 4.7286 33.7743C3.13545 31.872 1.94906 29.7622 1.16944 27.4449C0.389813 25.1275 0 22.8102 0 20.4929V19.3515C0 16.965 0.389813 14.6304 1.16944 12.3476C1.94906 10.0648 3.1185 7.98962 4.67775 6.12192C6.2709 4.25422 8.23691 2.76697 10.5758 1.66018C12.9486 0.553394 15.6772 0 18.7619 0C22.1176 0 25.0836 0.639862 27.6597 1.91958C30.2359 3.16472 32.3036 4.91137 33.8629 7.15953C35.4221 9.37311 36.3204 11.9498 36.5576 14.8898H28.219C28.0157 13.5063 27.4733 12.2957 26.592 11.2581C25.7446 10.2205 24.6429 9.4077 23.2871 8.81971C21.9651 8.23173 20.4567 7.93774 18.7619 7.93774C17.1348 7.93774 15.6772 8.23173 14.3892 8.81971C13.135 9.4077 12.0503 10.2378 11.1351 11.31C10.2538 12.3822 9.57583 13.6619 9.10128 15.1492C8.66062 16.6018 8.44029 18.2101 8.44029 19.9741C8.44029 21.8072 8.67757 23.4846 9.15212 25.0065C9.66057 26.4937 10.3894 27.7907 11.3385 28.8975C12.2876 29.9697 13.457 30.7998 14.8468 31.3878C16.2704 31.9758 17.8466 32.2698 19.5754 32.2698C21.8804 32.2698 23.8803 31.7856 25.5751 30.8171C27.2699 29.8487 28.4902 28.569 29.236 26.9779L28.219 32.7886V23.7613H35.8967V31.8547C34.3035 34.4834 32.1002 36.5067 29.2868 37.9248C26.5073 39.3083 23.2701 40 19.5754 40ZM18.5076 25.4215V19.2996H38.9474V25.4215H18.5076Z" fill="#386641"/>
</svg>
