<svg width="57" height="64" viewBox="0 0 57 64" fill="none" xmlns="http://www.w3.org/2000/svg">
<path d="M46.5 9C48.9853 9 51 6.98528 51 4.5C51 2.01472 48.9853 0 46.5 0C44.0147 0 42 2.01472 42 4.5C42 6.98528 44.0147 9 46.5 9Z" fill="#FFD15B"/>
<path d="M46.5003 1.8004e-06C45.965 -0.000477625 45.4339 0.0947957 44.9321 0.28132C46.644 0.918002 47.8639 2.56636 47.8639 4.5C47.8639 6.43364 46.644 8.082 44.9321 8.71868C45.4339 8.90521 45.965 9.00048 46.5003 9C48.9855 9 51.0003 6.98523 51.0003 4.5C51.0003 2.01477 48.9855 1.8004e-06 46.5003 1.8004e-06Z" fill="#FFC344"/>
<path d="M13.1768 30.9944L16.4629 29.7988L20.0497 39.6572L16.7635 40.8528L13.1768 30.9944Z" fill="#DE887B"/>
<path d="M20.0392 19.1857C19.8012 18.5342 19.411 17.9489 18.9012 17.4786C18.3913 17.0083 17.7765 16.6665 17.1079 16.4816C16.9499 15.4565 16.4285 14.5223 15.639 13.8496C14.8494 13.1769 13.8444 12.8104 12.8071 12.8171C12.124 12.4166 11.3638 12.1653 10.5766 12.0797C9.78938 11.9941 8.99295 12.0763 8.23975 12.3207C7.50596 12.6175 6.84334 13.0664 6.29548 13.6378C5.74762 14.2091 5.32694 14.89 5.06111 15.6356C4.26144 16.2967 3.72649 17.2235 3.55412 18.2466C3.38176 19.2697 3.58351 20.3207 4.12247 21.2072C3.72776 21.7783 3.47559 22.4356 3.38706 23.1241C3.29852 23.8126 3.3762 24.5123 3.61358 25.1647C3.85097 25.817 4.24116 26.403 4.75149 26.8736C5.26183 27.3442 5.87746 27.6857 6.54686 27.8695C6.70528 28.8943 7.22664 29.828 8.01594 30.5005C8.80523 31.173 9.80989 31.5395 10.8468 31.5332C11.5297 31.9338 12.2897 32.1852 13.0768 32.2709C13.8639 32.3566 14.6602 32.2747 15.4133 32.0305C16.1475 31.7337 16.8105 31.2848 17.3587 30.7132C17.9069 30.1417 18.3278 29.4606 18.5937 28.7146C19.3934 28.0536 19.9283 27.1268 20.1007 26.1037C20.273 25.0806 20.0713 24.0296 19.5323 23.1431C19.9261 22.5716 20.1776 21.9142 20.2657 21.2259C20.3539 20.5375 20.2763 19.838 20.0392 19.1857Z" fill="#6DBC53"/>
<path d="M17.1613 29.4097C16.4082 29.6539 15.6119 29.7358 14.8248 29.6501C14.0377 29.5644 13.2777 29.313 12.5948 28.9124C11.5579 28.9187 10.5532 28.5522 9.76392 27.8797C8.97463 27.2072 8.45326 26.2735 8.29485 25.2487C7.62544 25.0649 7.00981 24.7234 6.49947 24.2528C5.98914 23.7822 5.59895 23.1962 5.36156 22.5439C5.12418 21.8915 5.0465 21.1918 5.13504 20.5033C5.22358 19.8148 5.47575 19.1575 5.87045 18.5864C5.72688 18.3493 5.60602 18.0991 5.5095 17.8392C5.30174 17.2665 5.21768 16.6563 5.26288 16.0487C5.30807 15.4412 5.48148 14.8501 5.77169 14.3145C5.48901 14.7293 5.25029 15.1725 5.0594 15.6368C4.25973 16.2978 3.72478 17.2246 3.55241 18.2477C3.38005 19.2708 3.5818 20.3218 4.12076 21.2083C3.72606 21.7794 3.47388 22.4367 3.38535 23.1252C3.29681 23.8137 3.37449 24.5135 3.61187 25.1658C3.84926 25.8181 4.23945 26.4041 4.74978 26.8747C5.26012 27.3453 5.87575 27.6868 6.54516 27.8706C6.70357 28.8954 7.22494 29.8291 8.01423 30.5016C8.80352 31.1741 9.80818 31.5406 10.8451 31.5343C11.528 31.9349 12.288 32.1863 13.0751 32.272C13.8622 32.3577 14.6585 32.2758 15.4116 32.0316C16.1461 31.735 16.8095 31.2862 17.358 30.7147C17.9065 30.1431 18.3276 29.4619 18.5937 28.7158C19.0187 28.3526 19.3702 27.9115 19.6294 27.4162C19.0393 28.326 18.1748 29.0242 17.1613 29.4097ZM27.4305 36.9582C27.3453 36.7189 27.2404 36.487 27.1167 36.2651C26.7143 35.5768 26.1322 35.0109 25.4328 34.6282C24.7333 34.2454 23.9429 34.0602 23.1463 34.0924C22.6015 34.1102 22.0653 34.2327 21.567 34.4534C20.5798 34.9158 19.4934 35.126 18.405 35.0652C17.7954 35.0203 17.1833 35.1051 16.609 35.3143C16.0347 35.5234 15.5113 35.8519 15.0734 36.2782C14.2781 37.0247 13.3099 37.562 12.2557 37.8418C11.7325 37.9934 11.2435 38.2444 10.8154 38.5812C10.1844 39.0685 9.69793 39.7183 9.40803 40.461C9.11813 41.2037 9.03574 42.0113 9.16969 42.7972C9.21766 43.0466 9.28636 43.2916 9.37508 43.5296H9.36896L11.4612 49.2786L29.5289 42.7028L27.4366 36.9538L27.4305 36.9582Z" fill="#62A94B"/>
<path d="M37.3701 40.8352L34.084 39.6397L37.6708 29.7812L40.9569 30.9768L37.3701 40.8352Z" fill="#DE887B"/>
<path d="M34.1031 19.1857C34.3411 18.5342 34.7313 17.9489 35.2412 17.4786C35.751 17.0083 36.3658 16.6665 37.0344 16.4816C37.1925 15.4565 37.7138 14.5223 38.5033 13.8496C39.2929 13.1769 40.2979 12.8104 41.3352 12.8171C42.0183 12.4166 42.7785 12.1653 43.5657 12.0797C44.3529 11.9941 45.1494 12.0763 45.9026 12.3207C46.6365 12.6176 47.2991 13.0667 47.847 13.6382C48.3949 14.2097 48.8155 14.8907 49.0812 15.6365C49.8809 16.2975 50.4158 17.2244 50.5882 18.2475C50.7606 19.2706 50.5588 20.3215 50.0199 21.2081C50.4146 21.7791 50.6667 22.4364 50.7553 23.125C50.8438 23.8135 50.7661 24.5132 50.5287 25.1655C50.2914 25.8179 49.9012 26.4039 49.3908 26.8744C48.8805 27.345 48.2649 27.6865 47.5955 27.8704C47.437 28.8951 46.9157 29.8289 46.1264 30.5014C45.3371 31.1739 44.3324 31.5404 43.2955 31.5341C42.6232 31.9615 41.8616 32.2288 41.0696 32.3152C40.2776 32.4016 39.4763 32.3048 38.7277 32.0323C37.979 31.7599 37.303 31.319 36.7517 30.7437C36.2005 30.1685 35.7889 29.4742 35.5486 28.7146C34.7489 28.0536 34.214 27.1268 34.0416 26.1037C33.8693 25.0806 34.071 24.0296 34.61 23.1431C34.2162 22.5716 33.9648 21.9142 33.8766 21.2259C33.7884 20.5375 33.8661 19.838 34.1031 19.1857Z" fill="#6DBC53"/>
<path d="M26.7122 36.9579C26.7973 36.7186 26.9023 36.4868 27.0259 36.2649C27.4283 35.5765 28.0104 35.0107 28.7099 34.6279C29.4093 34.2452 30.1997 34.06 30.9964 34.0922C31.5411 34.1099 32.0773 34.2324 32.5757 34.4531C33.5628 34.9155 34.6493 35.1258 35.7377 35.0649C36.3472 35.02 36.9593 35.1049 37.5336 35.314C38.1079 35.5231 38.6313 35.8517 39.0693 36.278C39.8645 37.0245 40.8327 37.5617 41.887 37.8415C42.4101 37.9931 42.8992 38.2441 43.3273 38.5809C43.9582 39.0682 44.4447 39.7181 44.7346 40.4608C45.0245 41.2034 45.1069 42.011 44.973 42.7969C44.925 43.0464 44.8563 43.2913 44.7676 43.5293H44.7737L42.6814 49.2783L24.6138 42.7052L26.7061 36.9562L26.7122 36.9579ZM37.0347 16.4825C36.3653 16.6662 35.7496 17.0076 35.2393 17.4781C34.729 17.9486 34.3387 18.5345 34.1014 19.1868C33.864 19.8391 33.7863 20.5388 33.8748 21.2272C33.9634 21.9157 34.2155 22.5729 34.6103 23.1439C34.4667 23.3811 34.3458 23.6313 34.2493 23.8912C34.0319 24.4903 33.9497 25.1301 34.0086 25.7647C34.0676 26.3993 34.2662 27.013 34.5902 27.5619C35.3518 27.1075 35.954 26.4284 36.3139 25.6179C36.6739 24.8074 36.7739 23.9052 36.6003 23.0356C37.1243 22.6647 37.5595 22.1822 37.8744 21.6227C38.1893 21.0633 38.3761 20.441 38.4214 19.8006C38.4666 19.1602 38.3691 18.5178 38.136 17.9197C37.9028 17.3215 37.5398 16.7826 37.0731 16.3418C37.0635 16.3872 37.0443 16.4344 37.0347 16.4825Z" fill="#62A94B"/>
<path d="M25.3235 28.2266H28.8194V38.7142H25.3235V28.2266Z" fill="#DE887B"/>
<path d="M35.8109 19.4877C35.8101 18.7937 35.6435 18.1099 35.325 17.4933C35.0065 16.8768 34.5454 16.3452 33.9799 15.9428C34.1823 14.9255 34.0121 13.8692 33.5002 12.967C32.9884 12.0647 32.1691 11.3767 31.1919 11.0285C30.6872 10.4186 30.0591 9.92253 29.3488 9.5729C28.6385 9.22328 27.8623 9.02802 27.0712 9C26.28 9.02802 25.5038 9.22328 24.7935 9.5729C24.0833 9.92253 23.4551 10.4186 22.9504 11.0285C21.9741 11.3775 21.1558 12.0659 20.6448 12.9681C20.1337 13.8702 19.9641 14.926 20.1668 15.9428C19.6008 16.3446 19.1392 16.8761 18.8207 17.4928C18.5022 18.1095 18.3359 18.7936 18.3359 19.4877C18.3359 20.1818 18.5022 20.8658 18.8207 21.4825C19.1392 22.0992 19.6008 22.6307 20.1668 23.0325C19.9644 24.0499 20.1346 25.1061 20.6465 26.0084C21.1583 26.9106 21.9776 27.5986 22.9547 27.9468C23.459 28.5562 24.0864 29.0519 24.7959 29.4015C25.5054 29.7512 26.2808 29.9467 27.0712 29.9753C27.8623 29.9473 28.6385 29.7521 29.3488 29.4024C30.0591 29.0528 30.6872 28.5567 31.1919 27.9468C32.1691 27.5986 32.9884 26.9106 33.5002 26.0084C34.0121 25.1061 34.1823 24.0499 33.9799 23.0325C34.5454 22.6302 35.0065 22.0986 35.325 21.482C35.6435 20.8654 35.8101 20.1816 35.8109 19.4877Z" fill="#6DBC53"/>
<path d="M25.5723 27.9468C24.5952 27.5986 23.7759 26.9106 23.264 26.0084C22.7522 25.1061 22.5819 24.0499 22.7843 23.0325C22.2183 22.6307 21.7567 22.0992 21.4382 21.4825C21.1197 20.8658 20.9535 20.1818 20.9535 19.4877C20.9535 18.7936 21.1197 18.1095 21.4382 17.4928C21.7567 16.8761 22.2183 16.3446 22.7843 15.9428C22.5819 14.9255 22.7522 13.8692 23.264 12.967C23.7759 12.0647 24.5952 11.3767 25.5723 11.0285C26.3205 10.1679 27.2934 9.53243 28.3821 9.19315C27.9564 9.06743 27.515 9.00241 27.0712 9C26.28 9.02802 25.5038 9.22328 24.7935 9.5729C24.0833 9.92253 23.4551 10.4186 22.9504 11.0285C21.9741 11.3775 21.1558 12.0659 20.6448 12.9681C20.1337 13.8702 19.9641 14.926 20.1668 15.9428C19.6008 16.3446 19.1392 16.8761 18.8207 17.4928C18.5022 18.1095 18.3359 18.7936 18.3359 19.4877C18.3359 20.1818 18.5022 20.8658 18.8207 21.4825C19.1392 22.0992 19.6008 22.6307 20.1668 23.0325C19.9644 24.0499 20.1346 25.1061 20.6465 26.0084C21.1583 26.9106 21.9776 27.5986 22.9547 27.9468C23.459 28.5562 24.0864 29.0519 24.7959 29.4015C25.5054 29.7512 26.2808 29.9467 27.0712 29.9753C27.5151 29.9726 27.9564 29.9073 28.3821 29.7813C27.2935 29.4423 26.3206 28.8071 25.5723 27.9468Z" fill="#62A94B"/>
<path d="M36.6779 38.7146C36.68 38.4603 36.661 38.2063 36.6211 37.9551C36.4781 37.1707 36.1244 36.44 35.5979 35.8412C35.0713 35.2425 34.3918 34.7983 33.6321 34.5562C33.1146 34.3864 32.5692 34.3181 32.0258 34.3552C30.9397 34.453 29.8464 34.28 28.8436 33.8518C28.2865 33.6006 27.6823 33.4707 27.0712 33.4707C26.4601 33.4707 25.8559 33.6006 25.2988 33.8518C24.296 34.28 23.2027 34.453 22.1167 34.3552C21.5733 34.3181 21.0278 34.3864 20.5103 34.5562C19.7506 34.7983 19.0711 35.2425 18.5446 35.8412C18.018 36.44 17.6643 37.1707 17.5213 37.9551C17.4814 38.2063 17.4624 38.4603 17.4645 38.7146H17.4575V44.8324H36.6849V38.7146H36.6779Z" fill="#6DBC53"/>
<path d="M27.0713 36.9668C20.0384 36.9688 13.2819 39.7055 8.23004 44.5983C3.17817 49.4912 0.226867 56.1567 0 63.186H54.1426C53.9157 56.1567 50.9644 49.4912 45.9125 44.5983C40.8607 39.7055 34.1042 36.9688 27.0713 36.9668Z" fill="#98DEEA"/>
<path d="M27.0713 36.9668C20.0384 36.9688 13.2819 39.7055 8.23004 44.5983C3.17817 49.4912 0.226867 56.1567 0 63.186H17.0556C17.554 63.191 18.0471 63.0824 18.4974 62.8685C18.9477 62.6546 19.3433 62.341 19.6544 61.9514C19.9654 61.5619 20.1837 61.1066 20.2927 60.6202C20.4016 60.1337 20.3983 59.6289 20.2831 59.1438L20.2727 59.1028L19.3576 55.6698C19.2371 55.2168 19.2223 54.7422 19.3143 54.2826C19.4063 53.823 19.6027 53.3907 19.8884 53.0191C20.174 52.6475 20.5413 52.3464 20.9617 52.1393C21.3822 51.9321 21.8447 51.8244 22.3134 51.8243H23.1384C23.9497 51.8243 24.7277 51.502 25.3014 50.9284C25.875 50.3547 26.1973 49.5767 26.1973 48.7654V47.0175C26.1926 46.619 26.2667 46.2236 26.4153 45.8538C26.564 45.4841 26.7843 45.1474 27.0635 44.8631C27.3428 44.5789 27.6755 44.3526 28.0425 44.1974C28.4095 44.0421 28.8035 43.961 29.202 43.9586C29.6083 43.9658 30.0119 43.892 30.3893 43.7415C30.7667 43.591 31.1103 43.3668 31.4001 43.082C31.6899 42.7973 31.9201 42.4576 32.0772 42.0829C32.2343 41.7082 32.3152 41.306 32.3151 40.8997V37.4789C30.5879 37.139 28.8317 36.9675 27.0713 36.9668Z" fill="#6DBC53"/>
<path d="M28.3822 36.9991C27.9482 36.9776 27.5112 36.9668 27.0713 36.9668C20.0384 36.9688 13.2819 39.7055 8.23004 44.5983C3.17817 49.4912 0.226867 56.1567 0 63.186H2.62192C2.84153 56.3833 5.61351 49.9124 10.3866 45.0603C15.1596 40.2083 21.5841 37.3304 28.3822 36.9991Z" fill="#62A94B"/>
<path d="M43.2767 42.3477C41.7986 42.6629 40.4896 43.5141 39.6018 44.7372C38.7141 45.9602 38.3104 47.4686 38.4687 48.9715C38.627 50.4745 39.3359 51.8657 40.459 52.877C41.582 53.8883 43.0396 54.4482 44.5509 54.4487H52.4027C50.5705 49.6308 47.4053 45.4337 43.2767 42.3477Z" fill="#6DBC53"/>
<path d="M28.8191 56.1952C28.8191 55.2298 28.0365 54.4473 27.0712 54.4473C26.1058 54.4473 25.3232 55.2298 25.3232 56.1952V57.9432C25.3232 58.9085 26.1058 59.6911 27.0712 59.6911C28.0365 59.6911 28.8191 58.9085 28.8191 57.9432V56.1952Z" fill="#6DBC53"/>
<path d="M34.9371 49.205C34.9371 48.2396 34.1545 47.457 33.1891 47.457C32.2237 47.457 31.4412 48.2396 31.4412 49.205C31.4412 50.1703 32.2237 50.9529 33.1891 50.9529C34.1545 50.9529 34.9371 50.1703 34.9371 49.205Z" fill="#6DBC53"/>
<path d="M47.1725 57.9438C47.6361 57.9438 48.0807 58.1279 48.4085 58.4557C48.7363 58.7835 48.9204 59.2281 48.9204 59.6917V63.1876H45.4245V59.6917C45.4245 59.2281 45.6087 58.7835 45.9365 58.4557C46.2643 58.1279 46.7089 57.9438 47.1725 57.9438ZM41.9287 63.1876V61.4397C41.9287 60.9761 41.7445 60.5315 41.4167 60.2037C41.0889 59.8759 40.6443 59.6917 40.1807 59.6917C39.7171 59.6917 39.2725 59.5076 38.9447 59.1798C38.6169 58.852 38.4328 58.4074 38.4328 57.9438C38.4328 57.4802 38.2486 57.0356 37.9208 56.7078C37.593 56.38 37.1484 56.1958 36.6848 56.1958C35.7577 56.1958 34.8685 56.5641 34.2129 57.2198C33.5572 57.8754 33.1889 58.7646 33.1889 59.6917V63.1876H41.9287ZM6.96977 34.3465C6.96977 35.7947 5.22182 36.9684 5.22182 36.9684C5.22182 36.9684 3.47388 35.7947 3.47388 34.3465C3.47388 32.8984 5.22182 31.7246 5.22182 31.7246C5.22182 31.7246 6.96977 32.8984 6.96977 34.3465ZM50.6684 36.9684C50.6684 38.4166 48.9204 39.5904 48.9204 39.5904C48.9204 39.5904 47.1725 38.4166 47.1725 36.9684C47.1725 35.5203 48.9204 34.3465 48.9204 34.3465C48.9204 34.3465 50.6684 35.5203 50.6684 36.9684Z" fill="#6DBC53"/>
<path d="M30.7878 6.74088C30.6523 6.71386 30.5276 6.64923 30.4305 6.55566C30.3334 6.46209 30.2686 6.34407 30.2447 6.21743C30.1377 5.64963 29.6574 5.18679 29.0495 5.06562C28.6826 4.99247 28.4399 4.65882 28.5074 4.32024C28.5749 3.98165 28.927 3.7666 29.2939 3.83974C30.0562 3.99169 30.7133 4.42521 31.1325 5.01198C31.7446 4.63072 32.5178 4.48244 33.28 4.63439C33.6469 4.70753 33.8897 5.04118 33.8222 5.37977C33.7547 5.71836 33.4025 5.93341 33.0356 5.86027C32.4278 5.73909 31.8067 5.98236 31.4901 6.46571C31.4195 6.57352 31.3144 6.65766 31.1888 6.70684C31.0633 6.75603 30.9234 6.76791 30.7878 6.74088ZM52.8024 11.8094C52.6668 11.7824 52.5421 11.7178 52.445 11.6242C52.348 11.5306 52.2831 11.4126 52.2592 11.286C52.1522 10.7182 51.6719 10.2553 51.0641 10.1341C50.6972 10.061 50.4544 9.72735 50.5219 9.38876C50.5894 9.05018 50.9416 8.83512 51.3085 8.90827C52.0707 9.06022 52.7279 9.49374 53.147 10.0805C53.7591 9.69924 54.5323 9.55096 55.2945 9.70292C55.6614 9.77606 55.9042 10.1097 55.8367 10.4483C55.7692 10.7869 55.4171 11.0019 55.0502 10.9288C54.4423 10.8076 53.8212 11.0509 53.5047 11.5342C53.4341 11.642 53.3289 11.7262 53.2034 11.7754C53.0778 11.8246 52.9379 11.8364 52.8024 11.8094ZM42.7765 5.27626C42.6409 5.24924 42.5162 5.18461 42.4192 5.09104C42.3221 4.99748 42.2573 4.87945 42.2334 4.75281C42.1264 4.18501 41.646 3.72217 41.0382 3.601C40.6713 3.52786 40.4286 3.19421 40.4961 2.85562C40.5636 2.51703 40.9157 2.30198 41.2826 2.37512C42.0448 2.52708 42.702 2.9606 43.1212 3.54737C43.7333 3.16618 44.5065 3.01782 45.2687 3.16977C45.6356 3.24292 45.8783 3.57657 45.8108 3.91515C45.7433 4.25374 45.3912 4.46879 45.0243 4.39565C44.4165 4.27447 43.7954 4.51774 43.4788 5.00109C43.4082 5.1089 43.3031 5.19304 43.1775 5.24223C43.052 5.29141 42.912 5.30329 42.7765 5.27626Z" fill="#838383"/>
</svg>
