<svg width="59" height="59" viewBox="0 0 59 59" fill="none" xmlns="http://www.w3.org/2000/svg">
<path d="M7.8667 52.1167L3.24249e-05 56.05V44.25L7.8667 48.1833" fill="#FF8502"/>
<path d="M7.8667 50.15L3.24249e-05 54.0833V44.25L7.8667 48.1833V50.15Z" fill="#FCC563"/>
<path d="M5.8999 50.1499L8.89907 53.149C12.0156 56.2656 16.2425 58.0165 20.6499 58.0165C25.0573 58.0165 29.2842 56.2656 32.4007 53.149L35.3999 50.1499L32.4007 47.1507C29.2842 44.0341 25.0573 42.2833 20.6499 42.2832C16.2425 42.2833 12.0156 44.0341 8.89907 47.1507L5.8999 50.1499Z" fill="#F2B062"/>
<path d="M20.6498 42.2832C25.0572 42.2833 29.2841 44.0341 32.4006 47.1507L33.9248 48.6749L32.4006 50.199C29.2841 53.3155 25.0572 55.0663 20.6498 55.0663C16.2424 55.0663 12.0155 53.3155 8.89897 50.199L7.3748 48.6749L8.89897 47.1507C12.0155 44.0341 16.2424 42.2833 20.6498 42.2832Z" fill="#FF8502"/>
<path d="M27.2471 56.6501L26.3532 55.4593C25.2043 53.9274 24.5832 52.0641 24.5832 50.1493C24.5832 48.2344 25.2043 46.3712 26.3532 44.8393L27.2471 43.6484C29.1704 44.4803 30.919 45.6684 32.4007 47.1501L35.3999 50.1493L32.4007 53.1484C30.919 54.6301 29.1704 55.8182 27.2471 56.6501Z" fill="#F9D266"/>
<path d="M27.247 43.6484C29.1703 44.4803 30.9189 45.6684 32.4006 47.1501L33.9248 48.6743L32.4006 50.1984C30.5032 52.0929 28.1752 53.4999 25.6156 54.2989C24.8271 52.815 24.4776 51.1371 24.6082 49.4618C24.7389 47.7865 25.3441 46.183 26.3531 44.8393L27.247 43.6484Z" fill="#FCE797"/>
<path d="M24.6343 51.1001L21.6331 53.1012L20.3617 51.8297C20.1413 51.6093 19.9664 51.3476 19.8471 51.0596C19.7279 50.7716 19.6665 50.4629 19.6665 50.1512C19.6665 49.8394 19.7279 49.5308 19.8471 49.2428C19.9664 48.9547 20.1413 48.6931 20.3617 48.4726L21.6331 47.2012L24.6343 49.2023C24.6 49.5174 24.5829 49.8342 24.5831 50.1512C24.5829 50.4682 24.6 50.785 24.6343 51.1001Z" fill="#F2B062"/>
<path d="M14.7496 43.3646V38.3496L21.6899 42.3154C21.3445 42.2938 20.9977 42.2829 20.6496 42.2829C18.6336 42.2826 16.6344 42.6492 14.7496 43.3646ZM10.8733 54.8362C12.0872 55.7197 13.4153 56.4345 14.8214 56.9612L14.7496 57.0329C14.1262 57.6565 13.3861 58.1511 12.5715 58.4886C11.7569 58.826 10.8838 58.9997 10.002 58.9996H9.83291L10.8733 54.8362Z" fill="#F9D266"/>
<path d="M30.4832 48.1836H28.5165V50.1503H30.4832V48.1836Z" fill="#474747"/>
<path d="M31.4666 31.4663L23.5999 35.3996V23.5996L31.4666 27.5329" fill="#3279EA"/>
<path d="M31.4666 29.4996L23.5999 33.4329V23.5996L31.4666 27.5329V29.4996Z" fill="#7AADF9"/>
<path d="M29.4998 29.4995L32.4989 32.4986C35.6154 35.6152 39.8423 37.3661 44.2498 37.3661C48.6572 37.3661 52.8841 35.6152 56.0006 32.4986L58.9998 29.4995L56.0006 26.5003C52.8841 23.3838 48.6572 21.6329 44.2498 21.6328C39.8423 21.6329 35.6154 23.3838 32.4989 26.5003L29.4998 29.4995Z" fill="#2862BE"/>
<path d="M44.2499 21.6328C48.6573 21.6329 52.8842 23.3838 56.0007 26.5003L57.5249 28.0245L56.0007 29.5486C52.8842 32.6651 48.6573 34.4159 44.2499 34.4159C39.8425 34.4159 35.6156 32.6651 32.4991 29.5486L30.9749 28.0245L32.4991 26.5003C35.6156 23.3838 39.8425 21.6329 44.2499 21.6328Z" fill="#3279EA"/>
<path d="M50.8469 35.9997L49.9531 34.8089C48.8042 33.277 48.1831 31.4137 48.1831 29.4989C48.1831 27.584 48.8042 25.7208 49.9531 24.1889L50.8469 22.998C52.7702 23.8299 54.5188 25.018 56.0006 26.4997L58.9998 29.4989L56.0006 32.498C54.5188 33.9797 52.7702 35.1678 50.8469 35.9997Z" fill="#3279EA"/>
<path d="M50.8471 22.998C52.7704 23.8299 54.519 25.018 56.0007 26.4997L57.5249 28.0239L56.0007 29.548C54.1033 31.4426 51.7753 32.8495 49.2157 33.6485C48.4272 32.1646 48.0777 30.4867 48.2083 28.8114C48.339 27.1361 48.9442 25.5326 49.9532 24.1889L50.8471 22.998Z" fill="#7AADF9"/>
<path d="M48.2341 30.4501L45.233 32.4512L43.9615 31.1797C43.7411 30.9593 43.5663 30.6976 43.447 30.4096C43.3277 30.1216 43.2663 29.8129 43.2663 29.5012C43.2663 29.1894 43.3277 28.8808 43.447 28.5928C43.5663 28.3047 43.7411 28.0431 43.9615 27.8226L45.233 26.5512L48.2341 28.5523C48.1998 28.8674 48.1827 29.1842 48.183 29.5012C48.1827 29.8182 48.1998 30.135 48.2341 30.4501ZM38.3497 22.7162V17.7012L45.29 21.667C44.9446 21.6453 44.5978 21.6345 44.2497 21.6345C42.2337 21.6342 40.2344 22.0007 38.3497 22.7162Z" fill="#2458AD"/>
<path d="M34.4735 34.1855C35.6875 35.0691 37.0156 35.7839 38.4216 36.3105L38.3498 36.3823C37.7265 37.0059 36.9863 37.5005 36.1717 37.838C35.3571 38.1754 34.484 38.3491 33.6023 38.349H33.4332L34.4735 34.1855Z" fill="#3279EA"/>
<path d="M54.083 27.5332H52.1163V29.4999H54.083V27.5332Z" fill="#474747"/>
<path d="M7.8667 13.7671L3.24249e-05 17.7004V5.90039L7.8667 9.83372" fill="#FF8502"/>
<path d="M7.8667 11.8004L3.24249e-05 15.7337V5.90039L7.8667 9.83372V11.8004Z" fill="#FCC563"/>
<path d="M5.8999 11.8003L8.89907 14.7994C12.0156 17.916 16.2425 19.6669 20.6499 19.6669C25.0573 19.6669 29.2842 17.916 32.4007 14.7994L35.3999 11.8003L32.4007 8.80109C29.2842 5.68454 25.0573 3.93365 20.6499 3.93359C16.2425 3.93365 12.0156 5.68454 8.89907 8.80109L5.8999 11.8003Z" fill="#F2B062"/>
<path d="M20.65 3.93359C25.0575 3.93365 29.2844 5.68454 32.4009 8.80109L33.925 10.3253L32.4009 11.8494C29.2843 14.9659 25.0575 16.7167 20.65 16.7167C16.2426 16.7167 12.0157 14.9659 8.89921 11.8494L7.37505 10.3253L8.89921 8.80109C12.0157 5.68454 16.2426 3.93365 20.65 3.93359Z" fill="#FF8502"/>
<path d="M27.2471 18.3005L26.3532 17.1096C25.2043 15.5777 24.5832 13.7145 24.5832 11.7996C24.5832 9.88477 25.2043 8.02155 26.3532 6.48965L27.2471 5.29883C29.1704 6.13068 30.919 7.31878 32.4007 8.80048L35.3999 11.7996L32.4007 14.7988C30.919 16.2805 29.1704 17.4686 27.2471 18.3005Z" fill="#F9D266"/>
<path d="M27.2472 5.29883C29.1705 6.13068 30.9191 7.31878 32.4009 8.80048L33.925 10.3246L32.4009 11.8488C30.5034 13.7433 28.1754 15.1503 25.6159 15.9493C24.8273 14.4654 24.4779 12.7875 24.6085 11.1122C24.7391 9.43685 25.3444 7.83341 26.3534 6.48965L27.2472 5.29883Z" fill="#FCE797"/>
<path d="M24.6343 12.7485L21.6331 14.7496L20.3617 13.4782C20.1413 13.2577 19.9664 12.996 19.8471 12.708C19.7279 12.42 19.6665 12.1113 19.6665 11.7996C19.6665 11.4879 19.7279 11.1792 19.8471 10.8912C19.9664 10.6032 20.1413 10.3415 20.3617 10.1211L21.6331 8.84961L24.6343 10.8507C24.6 11.1658 24.5829 11.4826 24.5831 11.7996C24.5829 12.1166 24.6 12.4334 24.6343 12.7485Z" fill="#F2B062"/>
<path d="M14.7496 5.015V0L21.6899 3.96578C21.3445 3.94415 20.9977 3.93333 20.6496 3.93333C18.6336 3.93303 16.6344 4.29956 14.7496 5.015ZM10.8733 16.4866C12.0872 17.3701 13.4153 18.0849 14.8214 18.6115L14.7496 18.6833C14.1262 19.3069 13.3861 19.8015 12.5715 20.139C11.7569 20.4764 10.8838 20.6501 10.002 20.65H9.83291L10.8733 16.4866Z" fill="#F9D266"/>
<path d="M30.4832 9.83398H28.5165V11.8007H30.4832V9.83398Z" fill="#474747"/>
<path d="M9.34146 34.419C10.4966 34.4193 11.6258 34.0771 12.5865 33.4356L13.0781 33.1052C13.7196 32.687 14.4688 32.4643 15.2346 32.4643C16.0003 32.4643 16.7496 32.687 17.391 33.1052L19.1138 34.2538L20.2053 32.6175L18.4865 31.469C17.521 30.8402 16.3936 30.5055 15.2415 30.5055C14.0893 30.5055 12.9619 30.8402 11.9965 31.469L11.5048 31.7994C10.8633 32.2176 10.1141 32.4403 9.34834 32.4403C8.58257 32.4403 7.83333 32.2176 7.19189 31.7994L5.46909 30.6508L4.37759 32.2871L6.09646 33.4356C7.0571 34.0771 8.18635 34.4193 9.34146 34.419ZM9.34146 28.519C10.4966 28.5193 11.6258 28.1771 12.5865 27.5356L13.0781 27.2052C13.7196 26.787 14.4688 26.5643 15.2346 26.5643C16.0003 26.5643 16.7496 26.787 17.391 27.2052L19.1138 28.3538L20.2053 26.7175L18.4865 25.569C17.521 24.9402 16.3936 24.6055 15.2415 24.6055C14.0893 24.6055 12.9619 24.9402 11.9965 25.569L11.5048 25.8994C10.8633 26.3176 10.1141 26.5403 9.34834 26.5403C8.58257 26.5403 7.83333 26.3176 7.19189 25.8994L5.46909 24.7508L4.37759 26.3871L6.09646 27.5356C7.0571 28.1771 8.18635 28.5193 9.34146 28.519Z" fill="#95EBFC"/>
</svg>
