<svg width="56" height="63" viewBox="0 0 56 63" fill="none" xmlns="http://www.w3.org/2000/svg">
<path d="M12.7206 62.9994C11.4306 62.9994 10.3853 61.954 10.3853 60.6641V41.9994C10.3853 40.7096 11.4306 39.6641 12.7206 39.6641C14.0104 39.6641 15.0559 40.7094 15.0559 41.9994V60.6641C15.0559 61.954 14.0105 62.9994 12.7206 62.9994Z" fill="#55696E"/>
<path d="M7.08383 62.9994C5.79402 62.9994 4.74854 61.954 4.74854 60.6641V41.9994C4.74854 40.7096 5.79392 39.6641 7.08383 39.6641C8.37321 39.6641 9.4187 40.7094 9.4187 41.9994V60.6641C9.4187 61.954 8.37321 62.9994 7.08383 62.9994Z" fill="#748488"/>
<path d="M13.956 18.0331C13.956 20.2605 12.1502 22.0662 9.92288 22.0662C7.69549 22.0662 5.89014 20.2604 5.89014 18.0331C5.89014 15.8058 7.69559 14 9.92288 14C12.1502 14 13.956 15.8058 13.956 18.0331ZM0.0173581 31.4214L7.37945e-06 42.2343C-0.00292055 43.3089 0.865808 44.1824 1.94058 44.1854H1.946C3.01817 44.1854 3.88906 43.3175 3.89167 42.2445L3.90902 31.4214L2.04859 29.8935L0.0173581 31.4214ZM7.53423 23.3514L7.35205 26.1446H12.3675L12.1769 23.3514H7.53423ZM19.8232 31.5163V31.4214L17.9179 29.9752L15.9312 31.4214V34.9098C15.9312 36.4186 17.5714 37.3439 18.8605 36.5894L23.6988 33.7255C24.6583 33.1574 24.9412 31.8993 24.3181 30.9754C23.7445 30.1252 22.6084 29.8693 21.7261 30.3912L19.8232 31.5163Z" fill="#BA6746"/>
<path d="M15.1466 23.3516H12.1771C12.178 23.3639 12.1793 23.3765 12.1796 23.3889C12.236 24.6432 11.072 25.711 9.85744 25.711C8.55538 25.711 7.59122 24.6474 7.53483 23.3889C7.53451 23.3766 7.53483 23.3639 7.53451 23.3516H4.69972C2.13399 23.3516 0.0358509 25.4073 0.0231632 27.9434C0.0231632 27.9481 0.0209943 29.5896 0.0180664 31.4216H3.90972C3.91265 29.5947 3.91482 27.9579 3.91482 27.9532C3.91699 27.5817 4.2909 27.2437 4.69972 27.2437H4.74885V42.0002H15.0563V27.2437H15.1466C15.5557 27.2437 15.9299 27.5817 15.9315 27.9434V31.4216H19.8235V27.9337C19.8109 25.4073 17.7128 23.3516 15.1466 23.3516Z" fill="#FFDA52"/>
<path d="M24.187 58.9026C24.1742 58.9026 24.1619 58.9026 24.1488 58.9021L19.7022 58.7929C18.8461 58.7717 18.1692 58.0609 18.1899 57.2044C18.2112 56.3483 18.9254 55.6717 19.7785 55.6926L22.636 55.7624V52.1207C22.636 51.2647 23.3304 50.5703 24.1869 50.5703C25.0434 50.5703 25.7376 51.2647 25.7376 52.1207V57.3518C25.7376 58.2087 25.0426 58.9026 24.187 58.9026Z" fill="#5F6E9B"/>
<path d="M27.2959 58.7655C27.0228 58.6432 26.7909 58.4446 26.6281 58.1934C26.4654 57.9423 26.3789 57.6494 26.3789 57.3502V52.1191C26.3789 51.2626 27.0732 50.5684 27.9296 50.5684C28.7863 50.5684 29.4805 51.2626 29.4805 52.1191V53.8847L30.7458 52.7537C31.3846 52.1831 32.3648 52.2381 32.9359 52.877C33.5064 53.5153 33.4514 54.496 32.8126 55.0665L28.9629 58.5066C28.7396 58.706 28.4635 58.8366 28.1677 58.8825C27.8719 58.9284 27.5691 58.8878 27.2959 58.7655Z" fill="#414B82"/>
<path d="M28.4707 37.4155C28.4707 39.0879 27.1146 40.4443 25.4419 40.4443C23.7692 40.4443 22.4131 39.0879 22.4131 37.4155C22.4131 35.7427 23.769 34.3867 25.4419 34.3867C27.1147 34.3867 28.4707 35.7427 28.4707 37.4155Z" fill="#FCAD92"/>
<path d="M22.7095 39.886L23.2919 38.3669L22.5824 36.8967L22.8657 32.8352C22.9154 32.1231 22.3782 31.5059 21.6666 31.4564C20.9532 31.4064 20.3369 31.9435 20.2873 32.6555L19.9802 37.0589C19.9645 37.2831 20.0077 37.5076 20.1055 37.71L20.9197 39.3984L22.7095 39.886ZM29.8789 37.6904L29.4053 38.367L29.7328 40.0495L31.528 39.842L32.3206 38.7087C32.4228 38.5627 32.4938 38.397 32.5288 38.2222C32.5639 38.0474 32.5624 37.8672 32.5243 37.693L31.4869 32.9296C31.3353 32.2324 30.6469 31.7901 29.9492 31.9422C29.252 32.0939 28.8098 32.7822 28.9618 33.4799L29.8789 37.6904ZM27.3699 42.4852L27.269 40.948H24.8249L24.6694 42.4852H27.3699Z" fill="#FCA688"/>
<path d="M29.406 38.3672L27.6011 40.9481H27.2698C27.2681 41.5792 26.8602 42.2092 26.0477 42.2092C25.2339 42.2092 24.8269 41.5792 24.8255 40.9481H24.5371L23.2926 38.3672L20.9233 39.3974L22.6364 42.9348V52.121H29.4814V42.7689L31.5287 39.8422L29.406 38.3672Z" fill="#64AFFF"/>
<path d="M36.6338 30.4212L34.4145 31.4667L34.2269 31.9928L30.5309 31.3888C29.4973 31.2193 28.5213 31.9208 28.3523 32.9552C28.1833 33.9892 28.8844 34.9647 29.9188 35.1338L35.1739 35.9932C36.0827 36.1415 36.9582 35.618 37.2658 34.7627C37.2725 34.7445 38.0456 32.582 38.0456 32.582L36.6338 30.4212ZM45.0973 24.3379H41.4497L41.245 26.5672H45.3048L45.0973 24.3379ZM49.6362 30.032L48.4336 32.5922C48.4336 32.5922 51.8186 41.967 51.8428 42.0333C52.1244 42.8026 52.8508 43.2801 53.6252 43.2801C53.8417 43.2801 54.0615 43.2428 54.2763 43.1641C55.2607 42.8039 55.7669 41.7144 55.4069 40.7304C55.3827 40.6639 52.0121 31.3289 52.0121 31.3289L49.6362 30.032ZM40.4702 62.9987C39.2126 62.9987 38.1934 61.9791 38.1934 60.7218V42.5218C38.1934 41.2642 39.2126 40.2445 40.4702 40.2445C41.7278 40.2445 42.7471 41.2642 42.7471 42.5218V60.7219C42.7471 61.9792 41.7279 62.9987 40.4702 62.9987Z" fill="#FFB69E"/>
<path d="M46.0063 62.9983C44.7486 62.9983 43.7295 61.9787 43.7295 60.7215V42.5214C43.7295 41.2638 44.7491 40.2441 46.0063 40.2441C47.2641 40.2441 48.2832 41.2638 48.2832 42.5214V60.7216C48.2832 61.9788 47.2641 62.9983 46.0063 62.9983Z" fill="#FFAB8F"/>
<path d="M47.1706 19.1569C47.1706 21.3287 45.4102 23.0896 43.2384 23.0896C41.0661 23.0896 39.3057 21.3287 39.3057 19.1569C39.3057 16.9851 41.0661 15.2246 43.2384 15.2246C45.4102 15.2246 47.1706 16.9851 47.1706 19.1569Z" fill="#FFB69E"/>
<path d="M50.9126 28.1985C50.0321 25.6366 48.5562 24.3379 46.5254 24.3379H45.0967C45.0975 24.3498 45.0997 24.3616 45.1001 24.3739C45.1442 25.3596 44.2291 26.1996 43.2744 26.1996C42.2505 26.1996 41.4927 25.363 41.4487 24.3739C41.4478 24.3615 41.4491 24.3497 41.4491 24.3379H39.9511C37.92 24.3379 36.4441 25.6366 35.5638 28.1985C35.2534 29.1008 34.4138 31.4667 34.4138 31.4667L38.0445 32.582L38.4058 31.5653L35.7099 45.7022C35.6803 45.8547 35.6849 46.0119 35.7232 46.1625C35.7615 46.3131 35.8327 46.4533 35.9316 46.5732C36.0304 46.6933 36.1545 46.7901 36.2952 46.8566C36.4358 46.9231 36.5893 46.9576 36.7449 46.9578H49.7313C49.8868 46.9579 50.0404 46.9235 50.1811 46.8572C50.3218 46.7908 50.446 46.6942 50.545 46.5742C50.6439 46.4541 50.715 46.3137 50.7533 46.1629C50.7915 46.0122 50.7959 45.8548 50.7661 45.7022L48.0711 31.5717C48.0711 31.5717 48.2113 31.9615 48.438 32.59L52.0115 31.3289C52.0115 31.3289 51.1677 28.9407 50.9126 28.1985Z" fill="#DF2935"/>
<path d="M35.7766 17.0861C35.699 17.7939 35.1257 18.3468 34.4153 18.3966C34.3565 18.4007 34.2981 18.4049 34.2397 18.4087C33.8066 18.438 33.4698 18.7978 33.4698 19.2321V20.8736C33.4698 21.4259 32.8377 21.7393 32.3985 21.4048C31.5969 20.7942 30.5305 19.886 29.8762 18.9443C29.7214 18.7213 29.4656 18.5913 29.194 18.5928C27.1778 18.6033 25.1619 18.5378 23.1505 18.3966C22.5889 18.3574 22.112 18.0044 21.8996 17.508C21.842 17.3748 21.8048 17.2337 21.7892 17.0895C21.4908 14.3642 21.4908 11.6385 21.7892 8.9128C21.8668 8.20575 22.4405 7.6554 23.1497 7.60569C26.1458 7.39519 29.1513 7.35293 32.1521 7.4791C32.9062 7.51038 33.6608 7.55254 34.4149 7.60569C35.1246 7.6554 35.6986 8.20575 35.7762 8.9128C36.0746 11.6373 36.0746 14.3615 35.7766 17.0861Z" fill="#4D8357"/>
<path d="M22.5576 8.83801C22.2521 11.6285 22.2521 14.4193 22.5576 17.2092C22.5736 17.3569 22.6117 17.5015 22.6706 17.6379C22.8186 17.983 23.0901 18.2605 23.4318 18.416C23.338 18.4099 23.2442 18.4035 23.1504 18.3968C22.5887 18.3576 22.1118 18.0047 21.8995 17.5081C21.8418 17.3749 21.8046 17.2338 21.7891 17.0896C21.4905 14.3645 21.4905 11.6387 21.7891 8.91295C21.8667 8.20603 22.4402 7.65564 23.1495 7.60601C23.288 7.59643 23.4266 7.58685 23.5654 7.57812C23.0252 7.76397 22.6224 8.24784 22.5576 8.83801Z" fill="#386641"/>
<path d="M27.1292 16.0672C27.13 16.5113 27.7131 16.8709 28.1573 16.8709H31.595C31.9524 16.8709 32.2422 16.5812 32.2422 16.2235C32.2422 16.0448 32.17 15.8828 32.0529 15.7657C31.9357 15.6486 31.7737 15.5761 31.595 15.5761H31.8274C32.1848 15.5761 32.4748 15.2865 32.4748 14.9287C32.4748 14.7498 32.4026 14.5882 32.285 14.4709C32.225 14.4107 32.1537 14.3629 32.0751 14.3304C31.9966 14.2979 31.9124 14.2813 31.8274 14.2815H32.06C32.413 14.2815 32.7001 13.9986 32.7069 13.647C32.7142 13.2838 32.4086 12.9867 32.0453 12.9867H31.8273C32.1847 12.9867 32.4747 12.6969 32.4747 12.3391C32.4747 12.1601 32.4025 11.9985 32.2849 11.8812C32.2249 11.821 32.1536 11.7733 32.075 11.7408C31.9965 11.7083 31.9123 11.6917 31.8273 11.6919H30.0064L30.0005 11.6824L30.7105 10.1699C30.912 9.74103 30.7274 9.23013 30.2986 9.02869C30.1848 8.97505 30.0605 8.94725 29.9347 8.94727C29.6124 8.94727 29.3036 9.12975 29.1575 9.44081L28.8539 10.0876C28.6745 10.4695 28.3873 10.7923 28.0235 11.0056C27.7834 11.1463 27.5835 11.361 27.4613 11.6357C27.3804 11.8178 27.3404 12.0154 27.3442 12.2146L27.1292 16.0672Z" fill="#FFDDCE"/>
<path d="M30.564 9.22456C30.5349 9.22147 30.5056 9.21993 30.4763 9.21997C30.154 9.21997 29.8452 9.40245 29.6991 9.71351L29.3955 10.3603C29.2161 10.7422 28.9289 11.065 28.5652 11.2783C28.3251 11.419 27.4613 11.6376 27.4294 13.2738C27.4269 13.4016 27.3808 13.5196 27.347 13.6373L27.3443 12.2166C27.3405 12.0173 27.3804 11.8197 27.4614 11.6376C27.578 11.3738 27.7747 11.1533 28.0236 11.0076C28.3873 10.7942 28.6746 10.4714 28.854 10.0896L29.1575 9.44276C29.3037 9.13166 29.6124 8.94922 29.9348 8.94922C30.0569 8.94922 30.181 8.9753 30.2987 9.03064C30.3989 9.0775 30.489 9.14335 30.564 9.22456ZM32.2422 16.2255C32.2422 16.5831 31.9524 16.8729 31.595 16.8729H28.0675C27.8852 16.873 27.7056 16.8297 27.5432 16.7468C27.3809 16.6639 27.2406 16.5437 27.1338 16.3961H31.5949C31.8682 16.3961 32.1018 16.2268 32.1968 15.9871C32.1971 15.9873 32.1971 15.9877 32.1975 15.9879C32.1975 15.9879 32.1973 15.9881 32.1975 15.9881C32.2271 16.0638 32.2423 16.1443 32.2422 16.2255ZM32.4291 14.6922C32.4591 14.7681 32.4745 14.849 32.4745 14.9306C32.4745 15.2884 32.1848 15.5782 31.8272 15.5782H31.5792C31.5159 15.5782 31.4553 15.553 31.4106 15.5083C31.3659 15.4636 31.3407 15.403 31.3407 15.3397C31.3407 15.2765 31.3659 15.2158 31.4106 15.1711C31.4553 15.1264 31.5159 15.1013 31.5792 15.1013H31.8272C32.1006 15.1013 32.3341 14.9319 32.4291 14.6922ZM32.6616 13.3974C32.6917 13.4733 32.7071 13.5542 32.7071 13.6358C32.7071 13.9936 32.4174 14.2834 32.0598 14.2834H31.8118C31.7485 14.2834 31.6879 14.2583 31.6432 14.2135C31.5985 14.1688 31.5733 14.1082 31.5733 14.0449C31.5733 13.9817 31.5985 13.9211 31.6432 13.8763C31.6879 13.8316 31.7485 13.8065 31.8118 13.8065H32.0598C32.3331 13.8065 32.5667 13.6371 32.6616 13.3974ZM32.4294 12.1026C32.4594 12.1785 32.4748 12.2594 32.4748 12.341C32.4748 12.6988 32.1851 12.9885 31.8275 12.9885H31.5795C31.5162 12.9885 31.4556 12.9634 31.4109 12.9187C31.3662 12.874 31.341 12.8134 31.341 12.7501C31.341 12.6869 31.3662 12.6262 31.4109 12.5815C31.4556 12.5368 31.5162 12.5117 31.5795 12.5117H31.8275C32.1009 12.5117 32.3344 12.3423 32.4294 12.1026Z" fill="#FFCBBE"/>
<path d="M25.3311 12.216V16.2532C25.3311 16.5332 25.5581 16.7602 25.838 16.7602H26.8377C27.1177 16.7602 27.3447 16.5332 27.3447 16.2532V12.216C27.3447 11.936 27.1177 11.709 26.8377 11.709H25.838C25.5581 11.709 25.3311 11.9359 25.3311 12.216Z" fill="#F1F4F6"/>
<path d="M25.3308 14.9805V16.2523C25.3308 16.5322 25.5579 16.7591 25.8379 16.7591H26.8376C27.1175 16.7591 27.3444 16.5322 27.3444 16.2523V14.9805C27.3444 15.2605 27.1175 15.4876 26.8376 15.4876H25.8379C25.5579 15.4876 25.3308 15.2605 25.3308 14.9805Z" fill="#D0E2E7"/>
<path d="M14.2148 9.30599C14.2894 9.98657 14.8407 10.5183 15.5239 10.5661C15.5804 10.5701 15.6366 10.5741 15.6927 10.5777C16.1092 10.606 16.433 10.9519 16.433 11.3695V12.948C16.433 13.479 17.0408 13.7804 17.4632 13.4588C18.2339 12.8716 19.2593 11.9983 19.8885 11.0928C20.0374 10.8784 20.2833 10.7534 20.5445 10.7549C22.4816 10.7646 24.4187 10.7023 26.3558 10.5661C26.8959 10.5284 27.3544 10.1891 27.5587 9.71166C27.614 9.58358 27.6498 9.44794 27.6649 9.30925C27.9517 6.68867 27.9517 4.0677 27.6649 1.44673C27.5902 0.766875 27.0386 0.237671 26.3565 0.189846C23.4756 -0.0125131 20.5855 -0.0531395 17.7 0.0681587C16.9749 0.0982369 16.2493 0.1388 15.5242 0.189846C14.8418 0.237671 14.2898 0.766875 14.2152 1.44677C13.9283 4.06662 13.9283 6.68613 14.2148 9.30599Z" fill="#F9DA41"/>
<path d="M14.9543 1.37561C14.6605 4.05889 14.6605 6.74242 14.9543 9.42514C14.9697 9.56719 15.0063 9.70613 15.0629 9.83734C15.2052 10.1692 15.4662 10.436 15.7949 10.5855C15.7047 10.5797 15.6145 10.5735 15.5243 10.5671C14.9841 10.5294 14.5256 10.1901 14.3214 9.71251C14.266 9.58447 14.2302 9.44879 14.2153 9.31007C13.9282 6.68965 13.9282 4.06864 14.2153 1.44763C14.2899 0.767861 14.8414 0.238656 15.5234 0.190875C15.6567 0.18168 15.7899 0.172441 15.9234 0.164062C15.4039 0.342856 15.0165 0.808122 14.9543 1.37561Z" fill="#EDC932"/>
<path d="M23.2679 5.17611C23.6753 5.17611 24.0067 4.62538 24.0067 3.94841C24.0067 3.27143 23.6753 2.7207 23.2679 2.7207C22.8605 2.7207 22.5291 3.27143 22.5291 3.94841C22.5291 4.62538 22.8605 5.17611 23.2679 5.17611ZM18.6121 5.17611C19.0195 5.17611 19.3509 4.62538 19.3509 3.94841C19.3509 3.27143 19.0195 2.7207 18.6121 2.7207C18.2047 2.7207 17.8733 3.27143 17.8733 3.94841C17.8733 4.62538 18.2047 5.17611 18.6121 5.17611ZM23.4848 6.07859C23.4036 6.04439 23.3122 6.04382 23.2307 6.077C23.1491 6.11018 23.0841 6.1744 23.0498 6.25553C22.6911 7.10649 21.8629 7.65632 20.94 7.65632C20.017 7.65632 19.1888 7.10649 18.8301 6.25553C18.7589 6.08658 18.5641 6.00748 18.3951 6.07859C18.355 6.09552 18.3185 6.12021 18.2879 6.15123C18.2573 6.18225 18.233 6.219 18.2166 6.25938C18.2002 6.29977 18.1919 6.34299 18.1921 6.38659C18.1924 6.43019 18.2013 6.4733 18.2182 6.51348C18.681 7.61107 19.7493 8.32032 20.9399 8.32032C22.1305 8.32032 23.1988 7.61107 23.6616 6.51348C23.6786 6.47331 23.6874 6.4302 23.6877 6.3866C23.688 6.343 23.6797 6.29978 23.6633 6.25939C23.6469 6.21901 23.6226 6.18225 23.592 6.15123C23.5614 6.12021 23.5249 6.09552 23.4848 6.07859Z" fill="#21386B"/>
</svg>
