<svg width="32" height="40" viewBox="0 0 32 40" fill="none" xmlns="http://www.w3.org/2000/svg">
<path d="M15.3765 0C18.2299 0 20.6781 0.475562 22.7213 1.42668C24.7644 2.34258 26.4201 3.66359 27.6882 5.3897C28.9916 7.08058 29.9428 9.03567 30.5416 11.255C31.1757 13.4742 31.4927 15.852 31.4927 18.3884V20.6077C31.4927 27.0189 29.8547 31.8626 26.5786 35.1387C23.3025 38.3796 18.4764 40 12.1004 40C10.797 40 9.51123 39.9648 8.24306 39.8943C6.9749 39.8239 5.74196 39.7182 4.54425 39.5773V32.3382C5.70674 32.4439 6.95729 32.5495 8.2959 32.6552C9.63452 32.7257 11.0084 32.7609 12.4174 32.7609C15.2356 32.7609 17.4549 32.303 19.0753 31.3871C20.6957 30.4359 21.8406 29.0269 22.5099 27.1598C23.1792 25.2928 23.5139 22.9855 23.5139 20.2378V16.2219L25.4161 14.9538C25.3809 17.5958 24.8349 19.8151 23.7781 21.6116C22.7565 23.373 21.3298 24.694 19.498 25.5746C17.6662 26.4553 15.5526 26.8956 13.1572 26.8956C10.4447 26.8956 8.10216 26.3672 6.12946 25.3104C4.15676 24.2184 2.64201 22.7037 1.5852 20.7662C0.528402 18.8287 0 16.539 0 13.897C0 11.114 0.634082 8.6834 1.90225 6.60502C3.17041 4.49141 4.94936 2.87098 7.2391 1.74372C9.56407 0.581242 12.2765 0 15.3765 0ZM15.6407 7.18626C14.0907 7.18626 12.7697 7.46808 11.6777 8.0317C10.6209 8.59533 9.79304 9.37032 9.19419 10.3567C8.63056 11.3078 8.34875 12.4351 8.34875 13.7384C8.34875 15.0771 8.63056 16.2395 9.19419 17.2259C9.75782 18.177 10.5504 18.9344 11.572 19.498C12.6288 20.0264 13.9146 20.2906 15.4293 20.2906C16.8032 20.2906 18.0537 20.0616 19.181 19.6037C20.3435 19.1105 21.2594 18.3884 21.9287 17.4373C22.598 16.4509 22.9326 15.218 22.9326 13.7384C22.9326 12.4703 22.6508 11.343 22.0872 10.3567C21.5588 9.37032 20.7486 8.59533 19.6565 8.0317C18.5645 7.46808 17.2259 7.18626 15.6407 7.18626Z" fill="#386641"/>
</svg>
