<svg width="58" height="40" viewBox="0 0 58 40" fill="none" xmlns="http://www.w3.org/2000/svg">
<path d="M7.41894 39.0143V6.74449L9.70169 8.50843H0V1.14138H15.8755V39.0143H7.41894Z" fill="#386641"/>
<path d="M40.2975 40C37.2884 40 34.7117 39.5158 32.5673 38.5473C30.4229 37.5443 28.6762 36.1954 27.3273 34.5006C26.013 32.8059 25.0273 30.8517 24.3701 28.6381C23.7476 26.39 23.4363 24.0208 23.4363 21.5305V18.5733C23.4363 15.1146 24.0416 11.9844 25.2521 9.18288C26.4627 6.38132 28.3131 4.15045 30.8033 2.49027C33.2936 0.83009 36.4583 0 40.2975 0C44.1367 0 47.2841 0.83009 49.7398 2.49027C52.2301 4.15045 54.0805 6.38132 55.291 9.18288C56.5016 11.9844 57.1068 15.1146 57.1068 18.5733V21.5305C57.1068 24.0208 56.7783 26.39 56.1211 28.6381C55.4985 30.8517 54.5128 32.8059 53.1639 34.5006C51.8496 36.1954 50.1202 37.5443 47.9758 38.5473C45.866 39.5158 43.3066 40 40.2975 40ZM40.2975 32.166C43.0991 32.166 45.1743 31.1976 46.5232 29.2607C47.9067 27.2892 48.5984 24.2456 48.5984 20.1297C48.5984 15.7717 47.8894 12.6416 46.4713 10.7393C45.0878 8.80242 43.0299 7.83398 40.2975 7.83398C37.4959 7.83398 35.4034 8.80242 34.0199 10.7393C32.6365 12.6416 31.9447 15.7371 31.9447 20.0259C31.9447 24.1764 32.6192 27.2374 33.9681 29.2088C35.3515 31.1803 37.4614 32.166 40.2975 32.166Z" fill="#386641"/>
</svg>
