<svg width="31" height="40" viewBox="0 0 31 40" fill="none" xmlns="http://www.w3.org/2000/svg">
<path d="M15.1295 40C12.0898 40 9.43005 39.5509 7.15026 38.6528C4.90501 37.7547 3.14335 36.4421 1.86529 34.715C0.621762 32.9879 0 30.8808 0 28.3938C0 26.8048 0.259067 25.4059 0.777202 24.1969C1.29534 22.9534 2.02073 21.8998 2.95337 21.0363C3.92055 20.1727 5.04318 19.4991 6.32124 19.0155V18.342C5.35406 17.9275 4.47323 17.3748 3.67876 16.6839C2.88428 15.9585 2.26252 15.0777 1.81347 14.0415C1.36442 13.0052 1.1399 11.7962 1.1399 10.4145C1.1399 8.06563 1.74439 6.13126 2.95337 4.6114C4.19689 3.09154 5.87219 1.95164 7.97927 1.19171C10.1209 0.397237 12.5043 0 15.1295 0C17.8238 0 20.2245 0.397237 22.3316 1.19171C24.4387 1.95164 26.0967 3.09154 27.3057 4.6114C28.5147 6.13126 29.1192 8.06563 29.1192 10.4145C29.1192 11.7962 28.8946 13.0052 28.4456 14.0415C28.0311 15.0777 27.4266 15.9585 26.6321 16.6839C25.8377 17.3748 24.9396 17.9275 23.9378 18.342V19.0155C25.2159 19.4991 26.3385 20.1727 27.3057 21.0363C28.2729 21.8998 29.0155 22.9534 29.5337 24.1969C30.0518 25.4059 30.3109 26.8048 30.3109 28.3938C30.3109 30.8808 29.6718 32.9879 28.3938 34.715C27.1503 36.4421 25.3886 37.7547 23.1088 38.6528C20.8636 39.5509 18.2038 40 15.1295 40ZM15.1295 33.0052C16.5458 33.0052 17.772 32.7979 18.8083 32.3834C19.8446 31.9689 20.6563 31.3471 21.2435 30.5181C21.8307 29.6546 22.1244 28.6183 22.1244 27.4093C22.1244 26.2003 21.8307 25.1986 21.2435 24.4041C20.6908 23.5751 19.8791 22.9534 18.8083 22.5389C17.772 22.0898 16.5458 21.8653 15.1295 21.8653C13.7478 21.8653 12.5216 22.0898 11.4508 22.5389C10.4145 22.9534 9.62003 23.5751 9.06736 24.4041C8.51468 25.1986 8.23834 26.2003 8.23834 27.4093C8.23834 28.6183 8.51468 29.6546 9.06736 30.5181C9.62003 31.3471 10.4145 31.9689 11.4508 32.3834C12.5216 32.7979 13.7478 33.0052 15.1295 33.0052ZM15.1295 15.5959C16.9257 15.5959 18.342 15.2332 19.3782 14.5078C20.4145 13.7478 20.9326 12.6598 20.9326 11.2435C20.9326 9.82729 20.4145 8.75648 19.3782 8.03109C18.342 7.3057 16.9257 6.94301 15.1295 6.94301C13.3333 6.94301 11.9171 7.32297 10.8808 8.0829C9.84456 8.80829 9.32643 9.86183 9.32643 11.2435C9.32643 12.6598 9.84456 13.7478 10.8808 14.5078C11.9516 15.2332 13.3679 15.5959 15.1295 15.5959Z" fill="#386641"/>
</svg>
