<svg width="32" height="40" viewBox="0 0 32 40" fill="none" xmlns="http://www.w3.org/2000/svg">
<path d="M16.1162 40C13.2629 40 10.8146 39.5421 8.77147 38.6262C6.72831 37.675 5.05504 36.354 3.75165 34.6631C2.48349 32.937 1.53236 30.9643 0.898283 28.745C0.299428 26.5258 0 24.148 0 21.6116V19.3923C0 12.9811 1.63804 8.155 4.91413 4.91414C8.19022 1.63805 13.0163 0 19.3923 0C20.6957 0 21.9815 0.0352274 23.2497 0.105682C24.5178 0.176135 25.7508 0.281815 26.9485 0.422722V7.66183C25.786 7.55614 24.5354 7.46808 23.1968 7.39762C21.8582 7.29194 20.4844 7.2391 19.0753 7.2391C16.2572 7.2391 14.0379 7.71466 12.4174 8.66579C10.797 9.58168 9.65214 10.9731 8.98283 12.8402C8.31352 14.7072 7.97886 17.0145 7.97886 19.7622V23.7781L6.07662 25.0462C6.11185 22.4042 6.64025 20.2026 7.66182 18.4412C8.71863 16.6447 10.1629 15.306 11.9947 14.4254C13.8265 13.5447 15.9401 13.1044 18.3355 13.1044C21.048 13.1044 23.3906 13.6504 25.3633 14.7424C27.336 15.7992 28.8507 17.2963 29.9075 19.2338C30.9643 21.1713 31.4927 23.461 31.4927 26.103C31.4927 28.886 30.8587 31.3342 29.5905 33.4478C28.3223 35.5262 26.5258 37.1466 24.2008 38.3091C21.9111 39.4364 19.2162 40 16.1162 40ZM15.852 32.8137C17.402 32.8137 18.7054 32.5319 19.7622 31.9683C20.8542 31.4047 21.6821 30.6473 22.2457 29.6962C22.8446 28.7098 23.144 27.5649 23.144 26.2616C23.144 24.9229 22.8622 23.7781 22.2985 22.8269C21.7349 21.8406 20.9247 21.0832 19.8679 20.5548C18.8463 19.9912 17.5782 19.7094 16.0634 19.7094C14.6896 19.7094 13.4214 19.956 12.2589 20.4491C11.1317 20.9071 10.2334 21.6292 9.56407 22.6156C8.89476 23.5667 8.56011 24.782 8.56011 26.2616C8.56011 27.5297 8.82431 28.657 9.35271 29.6433C9.91634 30.6297 10.7442 31.4047 11.8362 31.9683C12.9282 32.5319 14.2668 32.8137 15.852 32.8137Z" fill="#386641"/>
</svg>
