<svg width="29" height="40" viewBox="0 0 29 40" fill="none" xmlns="http://www.w3.org/2000/svg">
<path d="M0.531915 40V32.0213C0.531915 30.3546 0.797872 28.9007 1.32979 27.6596C1.89716 26.4184 2.78369 25.3191 3.98936 24.3617C5.19503 23.3688 6.79078 22.4468 8.7766 21.5957L15.0532 18.883C16.6489 18.2092 17.8191 17.3759 18.5638 16.383C19.344 15.3901 19.734 14.1312 19.734 12.6064C19.734 11.0461 19.2553 9.7695 18.2979 8.7766C17.3404 7.78369 15.9397 7.28723 14.0957 7.28723C12.2518 7.28723 10.8511 7.80142 9.89362 8.82979C8.93617 9.85816 8.45745 11.2411 8.45745 12.9787H0C0 10.5319 0.531915 8.33333 1.59574 6.38298C2.65957 4.39716 4.23759 2.83688 6.32979 1.70213C8.42199 0.567376 11.0106 0 14.0957 0C17.1808 0 19.7518 0.549646 21.8085 1.64894C23.9007 2.74823 25.4787 4.21986 26.5426 6.06383C27.6418 7.9078 28.1915 9.98227 28.1915 12.2872V12.9255C28.1915 15.9043 27.3759 18.3688 25.7447 20.3191C24.1135 22.234 21.5957 23.9362 18.1915 25.4255L11.9681 28.1383C10.9043 28.5993 10.1418 29.078 9.68085 29.5745C9.25532 30.0709 9.04255 30.7447 9.04255 31.5957V34.2553L6.96808 32.5H28.2447V40H0.531915Z" fill="#386641"/>
</svg>
