<svg width="30" height="40" viewBox="0 0 30 40" fill="none" xmlns="http://www.w3.org/2000/svg">
<path d="M14.7397 40C11.7134 40 9.07877 39.4482 6.83578 38.3445C4.62839 37.2052 2.93725 35.6742 1.76235 33.7517C0.58745 31.8291 0 29.6573 0 27.2363H8.43792C8.43792 28.8741 8.98976 30.2092 10.0935 31.2417C11.1972 32.2385 12.7459 32.737 14.7397 32.737C16.057 32.737 17.1785 32.4878 18.1041 31.9893C19.0298 31.4909 19.7419 30.8144 20.2403 29.9599C20.7388 29.0699 20.988 28.073 20.988 26.9693C20.988 25.2603 20.4361 23.854 19.3324 22.7503C18.2644 21.6466 16.7334 21.0948 14.7397 21.0948C13.6716 21.0948 12.7281 21.255 11.9092 21.5754C11.1259 21.8959 10.4495 22.2875 9.87984 22.7503L5.9279 16.0748L17.7303 8.38451L17.2497 7.47663H1.60214V0H27.8772V8.11749L14.259 16.769L9.98665 15.5941C10.6987 15.3805 11.4464 15.2203 12.2296 15.1135C13.0485 14.9711 13.9208 14.8999 14.8465 14.8999C17.8727 14.8999 20.4717 15.3983 22.6435 16.3952C24.8153 17.3921 26.4887 18.7984 27.6636 20.6142C28.8741 22.3943 29.4793 24.4771 29.4793 26.8625V27.5033C29.4793 29.8887 28.8741 32.0249 27.6636 33.9119C26.4887 35.7988 24.7975 37.2942 22.5901 38.3979C20.4183 39.466 17.8015 40 14.7397 40Z" fill="#386641"/>
</svg>
