<svg width="31" height="40" viewBox="0 0 31 40" fill="none" xmlns="http://www.w3.org/2000/svg">
<path d="M14.9533 40C11.8558 40 9.18558 39.4126 6.94259 38.2377C4.6996 37.0271 2.97285 35.4072 1.76235 33.3778C0.58745 31.3485 0 29.1055 0 26.6489H8.43792C8.43792 27.8594 8.70494 28.9275 9.23899 29.8531C9.80863 30.7432 10.5919 31.4553 11.5888 31.9893C12.5857 32.4878 13.725 32.737 15.0067 32.737C16.4308 32.737 17.6235 32.4522 18.5848 31.8825C19.5817 31.2773 20.3471 30.4762 20.8812 29.4793C21.4152 28.4468 21.6822 27.2897 21.6822 26.008C21.6822 24.6907 21.4152 23.5336 20.8812 22.5367C20.3827 21.5042 19.6351 20.6854 18.6382 20.0801C17.6769 19.4749 16.502 19.1722 15.1135 19.1722C13.8318 19.1722 12.6747 19.4393 11.6422 19.9733C10.6097 20.5073 9.84424 21.1838 9.34579 22.0027H1.1215L3.09746 0H26.7557V7.47663H6.56876L9.93324 5.23364L8.75834 17.8905L6.72897 17.3565C7.79706 16.0748 9.07877 15.0067 10.5741 14.1522C12.105 13.2621 14.0988 12.8171 16.5554 12.8171C19.4037 12.8171 21.8247 13.4045 23.8184 14.5794C25.8478 15.7187 27.3965 17.2675 28.4646 19.2256C29.5683 21.1482 30.1202 23.3022 30.1202 25.6876V26.3818C30.1202 28.7672 29.5327 30.9924 28.3578 33.0574C27.1829 35.1224 25.4562 36.7957 23.1776 38.0774C20.9346 39.3591 18.1931 40 14.9533 40Z" fill="#386641"/>
</svg>
