<svg width="58" height="59" viewBox="0 0 58 59" fill="none" xmlns="http://www.w3.org/2000/svg">
<path d="M20.5159 10.25H50.2581L57.0073 40.0417L54.5356 40.0542L54.4767 50.5725L57.0242 50.5858L57.0078 52.3434H16.8027C12.9976 52.0481 13.3368 45.2847 13.1333 43.474L16.5207 13.1898C16.534 11.8439 17.9339 10.2504 20.5163 10.2504L20.5159 10.25Z" fill="#20D0C2"/>
<path d="M20.516 10.2504H23.3647L20.7718 52.3434H16.802C12.1392 51.815 11.9615 44.3988 13.4754 40.4131L16.52 13.1894C16.5333 11.8437 17.9336 10.25 20.5156 10.25L20.516 10.2504Z" fill="#1A91A1"/>
<path d="M17.3203 40.0371H56.2365C54.4705 43.645 54.5163 47.2029 56.2365 50.7138H17.3203C13.1455 50.7139 13.1462 40.0371 17.3203 40.0371Z" fill="#FFF8F0"/>
<path d="M14.49 42.9727H55.1945C55.1708 43.0791 55.1488 43.186 55.1285 43.2931H14.4123C14.4364 43.1849 14.4618 43.0778 14.49 42.9727ZM55.0043 44.096C54.9915 44.2026 54.9805 44.3094 54.9712 44.4164H14.2345C14.2442 44.3089 14.2571 44.202 14.2708 44.096H55.0043ZM54.9302 45.2193C54.9288 45.3261 54.9288 45.4329 54.9302 45.5397H14.1912C14.1895 45.4329 14.1895 45.3261 14.1912 45.2193H54.9302ZM54.9718 46.3418C54.9813 46.4489 54.9925 46.5558 55.005 46.6626H14.2719C14.2579 46.5562 14.2457 46.4493 14.2353 46.3418H54.9718ZM55.1293 47.4651C55.1499 47.572 55.1718 47.6787 55.1955 47.7855H14.4921C14.4638 47.6793 14.4376 47.5724 14.4136 47.4651H55.1295H55.1293ZM55.4022 48.5884C55.4336 48.6953 55.4667 48.802 55.5013 48.9089H14.9033C14.8526 48.8035 14.8051 48.6967 14.7609 48.5884H55.4022ZM55.7911 49.7116C55.8336 49.818 55.8776 49.9252 55.9233 50.032H15.6881C15.5845 49.9318 15.4877 49.8248 15.3984 49.7116H55.7911Z" fill="#ECF0F1"/>
<path d="M29.1582 45.5078H35.2396V58.9987L32.1737 54.5977L29.1586 58.9987V45.5078H29.1582Z" fill="#DF2935"/>
<path d="M10.3645 29.1265L51.5925 14.3786C56.2106 13.9957 57.5935 23.3903 54.5648 24.2769L14.2846 39.3948C11.9969 40.2566 9.76009 36.5782 9.56074 32.9717C9.45467 31.056 9.97581 31.1139 12.1577 30.2591L10.3647 29.1268L10.3645 29.1265Z" fill="#FFF3E5"/>
<path d="M55.8612 22.873C55.5987 23.5837 55.1704 24.1007 54.5652 24.2781L14.285 39.3958C13.5845 39.6597 12.8887 39.4974 12.2549 39.0423C13.3978 39.1567 14.0226 39.0049 15.1098 37.9794L55.8612 22.873Z" fill="#ECF0F1"/>
<path d="M37.4219 19.4531C40.4839 19.8943 42.6711 27.1642 41.1411 29.3166L35.5744 31.4058C36.5842 27.9962 34.3837 22.3138 31.3252 21.6359L37.4219 19.4531Z" fill="#F2B062"/>
<path d="M47.2841 34.1648L41.141 29.3164L35.5742 31.4056L40.2226 36.808L42.3701 33.5984L47.2841 34.1648Z" fill="#FF8502"/>
<path d="M11.888 30.3722L12.1571 30.2598C13.8407 30.6008 16.793 36.6339 13.5579 37.9733C11.2566 38.9257 10.1849 33.9343 10.2687 32.2795C11.2552 31.5726 12.3201 34.5536 11.9792 34.6214L11.2961 34.7565C11.2961 34.7565 11.317 36.0613 11.9792 36.1512L14.6216 35.2961C14.6216 35.2961 14.4069 31.4495 11.8884 30.3722H11.888ZM21.3912 42.2769H55.3693C55.5801 41.5356 55.867 40.7921 56.2322 40.0458C56.2332 40.0434 56.2343 40.0408 56.2356 40.0384H17.3188C13.4561 40.0384 13.1674 49.1818 16.4538 50.5459C15.341 47.397 16.2301 42.2769 19.1209 42.2769H21.3912Z" fill="#ECF0F1"/>
<path d="M34.3553 8.98438L34.69 14.8326C32.7883 18.0559 26.7181 20.4483 20.7414 20.3875C15.0458 20.3299 9.42689 17.9669 7.88199 14.9907L7.85059 9.26091L20.576 12.7739L34.3553 8.98477V8.98438Z" fill="#666666"/>
<path d="M0 6.95118L20.5758 0L41.1519 6.95118L20.5758 13.9021L0 6.95118Z" fill="#807D7D"/>
<path d="M7.31413 21.1812L6.37208 27.2138C6.35704 27.3119 6.68827 27.4452 6.8465 27.2486C7.05423 27.4975 7.32957 27.3956 7.41195 27.2235C7.51628 27.3942 7.76207 27.4885 7.9404 27.2336C8.09849 27.4302 8.45182 27.2934 8.426 27.1285L7.4898 21.1756C7.46611 21.087 7.32678 21.1021 7.31453 21.1808L7.31413 21.1812Z" fill="#DF2935"/>
<path d="M20.7163 5.19075C20.7461 5.18128 20.7774 5.17784 20.8085 5.18062C20.8396 5.18341 20.8699 5.19237 20.8975 5.20697C20.9251 5.22157 20.9495 5.24153 20.9693 5.26568C20.9892 5.28983 21.004 5.31769 21.0129 5.34762C21.0218 5.37755 21.0247 5.40897 21.0213 5.44002C21.018 5.47108 21.0085 5.50116 20.9934 5.52851C20.9783 5.55585 20.9579 5.57991 20.9334 5.59929C20.9089 5.61866 20.8808 5.63296 20.8507 5.64135L7.61705 9.62024V21.1602C7.61499 21.2212 7.58931 21.2791 7.54541 21.3215C7.50151 21.364 7.44283 21.3877 7.38177 21.3877C7.3207 21.3877 7.26202 21.364 7.21813 21.3215C7.17423 21.2791 7.14854 21.2212 7.14648 21.1602V9.44537C7.14648 9.3441 7.21249 9.25055 7.31443 9.22021L20.7159 5.19061L20.7163 5.19075Z" fill="#FFF8F0"/>
<path d="M7.39876 21.9478C7.91297 21.9478 8.33257 21.5282 8.33257 21.0137C8.33257 20.4993 7.91297 20.0801 7.39876 20.0801C6.88428 20.0801 6.46509 20.4997 6.46509 21.0137C6.46509 21.5284 6.88468 21.9478 7.39876 21.9478Z" fill="#FFF8F0"/>
<path d="M8.15602 20.7773C8.15603 20.9628 8.09883 21.1439 7.99221 21.2957C7.8856 21.4476 7.73475 21.5628 7.56023 21.6258C7.46211 21.661 7.35865 21.6789 7.25442 21.6789H7.23698C7.09071 21.6761 6.94732 21.6377 6.81918 21.5671C6.69104 21.4965 6.582 21.3958 6.50146 21.2737C6.54819 21.4352 6.63753 21.5811 6.76012 21.6962C6.8827 21.8112 7.034 21.8911 7.19813 21.9275C7.26267 21.9415 7.33001 21.9492 7.39921 21.9492C7.52185 21.9492 7.64328 21.925 7.75658 21.878C7.86988 21.8311 7.97281 21.7623 8.05951 21.6755C8.14622 21.5888 8.21498 21.4858 8.26189 21.3725C8.30879 21.2592 8.33291 21.1378 8.33288 21.0151C8.33301 20.8884 8.30734 20.763 8.25741 20.6466C8.20749 20.5302 8.13437 20.4251 8.0425 20.3379C8.11476 20.4678 8.15629 20.6175 8.15629 20.777L8.15602 20.7773Z" fill="#ECF0F1"/>
</svg>
