<svg width="54" height="54" viewBox="0 0 54 54" fill="none" xmlns="http://www.w3.org/2000/svg">
<path d="M54.0001 26.9935C54.0015 33.9052 51.365 40.8184 46.0921 46.0927C40.8221 51.3627 33.9146 53.9991 27.0072 54.0007L12.1007 34.5271L27.0073 26.9936L43.7754 20.0996L54.0001 26.9935Z" fill="#FF8502"/>
<path d="M27.0072 5.48838e-07C20.0955 -0.00138882 13.1823 2.63507 7.90799 7.90799C2.63799 13.1781 0.0015283 20.0855 0 26.993L4.70495 33.1928L27.0001 27.0001L42.6528 13.552L27.0072 5.48838e-07Z" fill="#DF2935"/>
<path d="M43.606 27.5797C44.0797 28.4071 44.3459 29.3674 44.3359 30.3908C44.3059 33.4566 41.8498 35.8884 38.7825 35.8884C35.7167 35.8884 33.2305 33.4023 33.2305 30.335C33.2305 29.3331 33.4967 28.3913 33.9604 27.5797C34.1108 27.3192 33.9246 26.993 33.6227 26.993H27.0072V20.366C27.0072 20.0655 27.3307 19.8779 27.5926 20.0267C28.4285 20.5014 29.3736 20.7505 30.3349 20.7496C33.4022 20.7496 35.8883 18.2635 35.8883 15.1976C35.8883 12.1289 33.4665 9.67846 30.3978 9.64414C29.4151 9.63174 28.4468 9.8812 27.5924 10.3669C27.3305 10.5157 27.0071 10.3283 27.0071 10.0276V0C33.9146 0.0015283 40.822 2.63785 46.092 7.90799C51.362 13.1781 53.9984 20.0855 53.9999 26.993H43.9436C43.6431 26.9929 43.4556 27.3177 43.606 27.5797Z" fill="#5DAAE1"/>
<path d="M18.1116 38.7822C18.1116 41.8495 20.5434 44.3056 23.6092 44.3356C24.6326 44.3456 25.5929 44.0794 26.4203 43.6056C26.6822 43.4553 27.0072 43.6429 27.0072 43.9434V53.9997C20.0955 54.0011 13.1823 51.3647 7.90799 46.0917C2.63507 40.8174 -0.00138882 33.9042 5.48838e-07 26.9926H10.0276C10.3281 26.9926 10.5157 26.6691 10.3669 26.4071C9.8813 25.5532 9.63183 24.5854 9.64414 23.6032C9.67846 20.533 12.1289 18.1113 15.1976 18.1113C18.2635 18.1113 20.7496 20.5975 20.7496 23.6648C20.7496 24.6623 20.4862 25.5969 20.0269 26.4071C19.8781 26.669 20.0655 26.9926 20.3661 26.9926H27.0073V33.6223C27.0073 33.9244 26.6825 34.1104 26.4204 33.9601C25.5814 33.4806 24.6316 33.229 23.6652 33.2301C20.5978 33.2301 18.1116 35.7164 18.1116 38.7822Z" fill="#98DBA5"/>
</svg>
