<svg width="61" height="61" viewBox="0 0 61 61" fill="none" xmlns="http://www.w3.org/2000/svg">
<path d="M59.4571 45.0025L56.3923 50.3072C55.6629 51.5713 54.6136 52.6211 53.3499 53.3512C52.0862 54.0813 50.6526 54.4658 49.1932 54.4663H37.4825V59.7265L27.2446 48.528L37.4832 37.3296V42.5575H48.0036C50.7489 42.4937 61.0896 41.649 57.9926 36.0625L59.4578 38.6035C60.0205 39.5759 60.3168 40.6795 60.3168 41.803C60.3168 42.9265 60.0198 44.0301 59.4571 45.0025Z" fill="#64A070"/>
<path d="M37.4831 60.4115C37.3878 60.4116 37.2935 60.3918 37.2063 60.3535C37.1191 60.3151 37.0408 60.259 36.9764 60.1886L26.7379 48.9902C26.6225 48.8636 26.5586 48.6986 26.5586 48.5274C26.5586 48.3561 26.6225 48.1911 26.7379 48.0646L36.9764 36.8668C37.0707 36.7672 37.1926 36.698 37.3264 36.6679C37.4602 36.6378 37.5999 36.6483 37.7277 36.6979C37.8555 36.7476 37.9657 36.8342 38.0441 36.9467C38.1226 37.0592 38.1657 37.1925 38.1681 37.3296V41.8719H48.0028C50.7741 41.8075 56.3758 41.1074 57.6291 38.9223C58.0268 38.2278 57.9493 37.4002 57.3919 36.3944C57.3093 36.2367 57.2913 36.053 57.3416 35.8823C57.392 35.7115 57.5068 35.5671 57.6618 35.4795C57.8167 35.3918 57.9997 35.3679 58.172 35.4127C58.3442 35.4576 58.4923 35.5677 58.5849 35.7197L60.0515 38.26C60.673 39.3372 61.0002 40.5591 61.0001 41.8028C60.9999 43.0465 60.6726 44.2682 60.0508 45.3453L56.986 50.6501C56.1945 52.0168 55.0581 53.1519 53.6905 53.9418C52.3228 54.7317 50.7718 55.1487 49.1924 55.1513H38.1688V59.7258C38.1679 59.9074 38.0953 60.0813 37.9669 60.2097C37.8386 60.338 37.6647 60.4106 37.4831 60.4115ZM28.1729 48.5274L36.7968 57.9596V54.4656C36.7968 54.2838 36.869 54.1094 36.9976 53.9808C37.1262 53.8522 37.3006 53.78 37.4824 53.78H49.1931C50.5317 53.7775 51.8461 53.4237 53.0051 52.754C54.1642 52.0844 55.1271 51.1222 55.7978 49.9638L58.8633 44.6583C59.3387 43.8349 59.6017 42.9057 59.6272 41.9552C59.6527 41.0047 59.4406 40.0629 59.01 39.2151C56.2503 44.7646 42.164 42.9209 37.4824 43.2432C37.3006 43.2432 37.1262 43.1709 36.9976 43.0424C36.869 42.9138 36.7968 42.7394 36.7968 42.5575V39.0951L28.1729 48.5274Z" fill="#F2B062"/>
<path d="M48.0024 42.5574L42.0127 32.1837L52.315 26.2324C52.3473 26.2928 57.966 36.0096 57.9914 36.061C61.0884 41.6489 50.7477 42.4929 48.0017 42.5567L48.0024 42.5574Z" fill="#386641"/>
<path d="M48.0027 43.2433C47.8823 43.2433 47.7641 43.2116 47.6598 43.1515C47.5556 43.0913 47.4691 43.0047 47.4089 42.9005L41.4192 32.5269C41.3285 32.3694 41.304 32.1825 41.351 32.007C41.3981 31.8315 41.5129 31.6819 41.6701 31.591L51.9725 25.6397C52.1302 25.5496 52.3171 25.5253 52.4925 25.5722C52.668 25.619 52.8179 25.7332 52.9097 25.8899C52.9406 25.9482 58.5635 35.6725 58.5868 35.724C62.2357 42.2334 50.3606 43.2961 48.0027 43.2433ZM42.9495 32.4357L48.3914 41.8583C51.7304 41.6376 59.8737 40.8559 57.3917 36.3938L52.0644 27.17L42.9495 32.4357Z" fill="#F2B062"/>
<path d="M27.0146 0.689457L33.1414 0.691513C34.6008 0.691185 36.0346 1.07497 37.2986 1.80431C38.5627 2.53365 39.6125 3.58284 40.3427 4.84646L46.198 14.987L50.7533 12.3576L46.1747 26.8238L31.3574 23.556L35.8847 20.9417L30.6252 11.831C29.197 9.48614 23.295 0.95274 20.0054 6.42822L21.4726 3.88931C22.0333 2.91564 22.841 2.10709 23.814 1.54528C24.787 0.983466 25.891 0.688261 27.0146 0.689457Z" fill="#64A070"/>
<path d="M46.1754 27.508C45.9697 27.5162 31.4034 24.2465 31.2094 24.2238C31.0743 24.1941 30.9514 24.1242 30.8569 24.0233C30.7623 23.9225 30.7004 23.7954 30.6793 23.6587C30.6583 23.522 30.679 23.3822 30.7389 23.2575C30.7987 23.1329 30.8948 23.0292 31.0146 22.9602L34.9481 20.6894L30.0307 12.1724C28.5882 9.80494 25.1861 5.30512 22.6643 5.31061C21.8635 5.31335 21.1868 5.7933 20.5937 6.77992C20.4999 6.93345 20.3495 7.04394 20.1749 7.08758C20.0004 7.13121 19.8157 7.10448 19.6606 7.01316C19.5056 6.92184 19.3927 6.77324 19.3462 6.59942C19.2998 6.4256 19.3235 6.24048 19.4123 6.084L20.8796 3.54442C21.5009 2.46903 22.3938 1.57578 23.469 0.954147C24.5441 0.33251 25.7638 0.00431112 27.0057 0.00242873C27.0174 -0.00579889 33.1312 0.00997072 33.1428 0.00448564C34.722 0.00656525 36.273 0.423056 37.6407 1.21234C39.0085 2.00162 40.1452 3.13604 40.9371 4.50225L46.4496 14.049L50.4112 11.7617C50.5311 11.695 50.6682 11.6655 50.805 11.6771C50.9418 11.6887 51.072 11.7408 51.1789 11.8268C51.2859 11.9128 51.3648 12.0287 51.4055 12.1598C51.4462 12.2909 51.4469 12.4311 51.4075 12.5626L46.8288 27.0288C46.7848 27.1675 46.6979 27.2886 46.5806 27.3746C46.4632 27.4607 46.3216 27.5071 46.1761 27.5073L46.1754 27.508ZM33.2299 23.2646L45.7105 26.0168L49.5672 13.8324L46.5415 15.5794C46.384 15.6703 46.1969 15.6949 46.0213 15.6478C45.8456 15.6008 45.6959 15.4859 45.6049 15.3284L39.7496 5.18719C39.0782 4.02911 38.1146 3.06753 36.9551 2.39857C35.7956 1.7296 34.4808 1.37668 33.1422 1.37507L27.0153 1.37301C26.0644 1.373 25.1286 1.61026 24.2925 2.06329C23.4565 2.51633 22.7467 3.17082 22.2275 3.96745C28.4085 3.57801 33.8634 16.7065 36.4798 20.5968C36.5696 20.7547 36.5936 20.9417 36.5465 21.1171C36.4994 21.2926 36.385 21.4424 36.2282 21.5341L33.2299 23.2646Z" fill="#F2B062"/>
<path d="M30.6247 11.8312L24.6364 22.2048L14.3313 16.2583C14.3676 16.2007 19.9734 6.47636 20.0056 6.42837C23.2953 0.95289 29.1965 9.48629 30.6247 11.8312Z" fill="#386641"/>
<path d="M24.6355 22.8904C24.5154 22.8904 24.3973 22.8587 24.2934 22.7985L13.9883 16.852C13.8318 16.7602 13.7177 16.6104 13.6707 16.4352C13.6238 16.2599 13.6477 16.0732 13.7373 15.9154L19.3781 6.14238C20.2152 4.71009 21.3444 3.9319 22.6698 3.94149C26.4332 3.94149 30.4449 10.2157 31.2107 11.4746C31.2746 11.5797 31.309 11.7001 31.3105 11.8231C31.3119 11.9461 31.2803 12.0673 31.219 12.1739L25.2306 22.5476C25.1703 22.652 25.0836 22.7387 24.9791 22.7989C24.8746 22.859 24.7561 22.8906 24.6355 22.8904ZM15.2677 16.0066L24.3852 21.2682L29.8257 11.8441C27.9882 9.07484 23.1799 2.3947 20.5937 6.78139L15.2677 16.0066Z" fill="#F2B062"/>
<path d="M4.85798 50.9391L1.79663 45.6323C1.06647 44.3687 0.681755 42.9352 0.681153 41.4758C0.680551 40.0164 1.06408 38.5826 1.7932 37.3183L7.64851 27.1771L3.09316 24.547L17.9104 21.2793L22.4898 35.7455L17.9618 33.1312L12.7016 42.2419C11.3845 44.6512 6.94574 54.0293 13.3324 54.1397L10.3993 54.139C9.27571 54.1401 8.17173 53.8449 7.19871 53.2831C6.22569 52.7213 5.41874 51.9128 4.85798 50.9391Z" fill="#64A070"/>
<path d="M13.3329 54.8264L10.4004 54.8251H10.3915C9.14916 54.8234 7.92912 54.4951 6.85366 53.8732C5.77821 53.2513 4.88513 52.3576 4.26397 51.2817L1.2033 45.9749C0.415404 44.6063 0.000481688 43.055 4.19145e-07 41.4758C-0.000480849 39.8966 0.413496 38.345 1.20056 36.976L6.71306 27.4285L2.75146 25.1412C2.63166 25.0722 2.53552 24.9685 2.47568 24.8439C2.41584 24.7192 2.39509 24.5794 2.41615 24.4427C2.4372 24.3061 2.49909 24.179 2.59368 24.0781C2.68828 23.9773 2.81115 23.9074 2.94618 23.8776L17.7641 20.6099C17.9314 20.5729 18.1064 20.6 18.2547 20.6856C18.4031 20.7713 18.514 20.9094 18.5656 21.0727L23.1436 35.5382C23.1853 35.6699 23.1862 35.8112 23.1462 35.9435C23.1062 36.0758 23.0272 36.1929 22.9195 36.2795C22.8118 36.366 22.6804 36.418 22.5426 36.4287C22.4049 36.4393 22.2671 36.408 22.1474 36.339L18.2146 34.0689L13.2965 42.5844C11.8471 45.4031 8.08364 53.3811 13.3452 53.4545C13.527 53.456 13.7008 53.5298 13.8283 53.6594C13.9558 53.7891 14.0266 53.9641 14.025 54.146C14.0235 54.3278 13.9497 54.5016 13.8201 54.6291C13.6904 54.7565 13.5154 54.8273 13.3335 54.8258L13.3329 54.8264ZM4.96675 24.8368L7.99245 26.5831C8.14992 26.674 8.26483 26.8238 8.31189 26.9994C8.35895 27.1751 8.33431 27.3622 8.24339 27.5197L2.38808 37.6616C1.72062 38.8222 1.36963 40.1377 1.37023 41.4766C1.37083 42.8154 1.723 44.1306 2.39151 45.2906L5.45355 50.5974C5.92878 51.4209 6.602 52.1127 7.41219 52.6101C8.22237 53.1076 9.1439 53.395 10.0932 53.4463C6.66781 48.2807 15.3061 37.0048 17.3685 32.7888C17.4135 32.7107 17.4735 32.6423 17.545 32.5874C17.6165 32.5326 17.6981 32.4923 17.7851 32.469C17.8722 32.4457 17.9629 32.4398 18.0523 32.4516C18.1416 32.4634 18.2278 32.4927 18.3058 32.5378L21.304 34.2691L17.4467 22.084L4.96675 24.8368Z" fill="#F2B062"/>
<path d="M12.7028 42.2422H24.6808L24.6836 54.14C24.615 54.1373 13.3912 54.1455 13.3336 54.1414C6.94688 54.0303 11.3857 44.6515 12.7028 42.2422Z" fill="#386641"/>
<path d="M13.3985 54.8278C5.83596 54.7654 10.863 43.9879 12.1006 41.9145C12.1598 41.8066 12.2468 41.7165 12.3528 41.6538C12.4587 41.5911 12.5795 41.558 12.7026 41.558L24.6799 41.5566C24.8618 41.5566 25.0362 41.6289 25.1648 41.7575C25.2933 41.886 25.3656 42.0604 25.3656 42.2423L25.3683 54.1394C25.3683 54.3212 25.2961 54.4956 25.1675 54.6242C25.0389 54.7528 24.8645 54.825 24.6827 54.825L13.3985 54.8278ZM13.1133 42.9286C11.6357 45.9317 8.2398 53.3749 13.345 53.4551L23.9977 53.4544L23.9943 42.9279L13.1133 42.9286Z" fill="#F2B062"/>
</svg>
