<svg width="61" height="61" viewBox="0 0 61 61" fill="none" xmlns="http://www.w3.org/2000/svg">
<path d="M10.5171 0H37.8619V61H10.5171V0Z" fill="#4DCCFF"/>
<path d="M8.41379 51.5341C13.0606 51.5341 16.8276 44.4711 16.8276 35.7583C16.8276 27.0455 13.0606 19.9824 8.41379 19.9824C3.76698 19.9824 0 27.0455 0 35.7583C0 44.4711 3.76698 51.5341 8.41379 51.5341Z" fill="#98DBA5"/>
<path d="M33.6553 61.0011H48.3794V53.6391L50.4829 50.4839L48.3794 47.3287V14.7253L33.6553 5.25977V61.0011Z" fill="#F2B062"/>
<path d="M33.6551 61.001H12.6206V39.9665L22.0861 31.5527L33.6551 39.9665V61.001Z" fill="#FF8502"/>
<path d="M28.3965 61.0003H22.0862V38.9141L28.3965 43.121V61.0003Z" fill="#FFFAF6"/>
<path d="M52.5862 51.5341C57.233 51.5341 60.9999 44.4711 60.9999 35.7583C60.9999 27.0455 57.233 19.9824 52.5862 19.9824C47.9393 19.9824 44.1724 27.0455 44.1724 35.7583C44.1724 44.4711 47.9393 51.5341 52.5862 51.5341Z" fill="#98DBA5"/>
<path d="M57.8447 54.6903C57.0079 54.6903 56.2054 55.0227 55.6137 55.6144C55.022 56.2061 54.6895 57.0087 54.6895 57.8455V54.4274C54.6911 53.4325 54.3152 52.4741 53.6378 51.7455V38.3886L57.424 35.5489L56.162 33.8662L52.6848 36.474L49.1229 32.9121L47.6355 34.3995L51.5344 38.2984V49.5106C51.2747 49.458 51.0105 49.4316 50.7456 49.4317H48.3792V61.0006H60.9999V57.8455C60.9999 57.0087 60.6675 56.2061 60.0758 55.6144C59.4841 55.0227 58.6815 54.6903 57.8447 54.6903Z" fill="#386641"/>
<path d="M14.7241 4.20703H16.8276V7.3622H14.7241V4.20703ZM18.931 7.3622H21.0345V10.5174H18.931V7.3622ZM14.7241 10.5174H16.8276V13.6725H14.7241V10.5174ZM18.931 13.6725H21.0345V16.8277H18.931V13.6725ZM14.7241 17.8794H16.8276V21.0346H14.7241V17.8794ZM18.931 21.0346H21.0345V24.1898H18.931V21.0346ZM18.931 27.345H21.0345V30.5001H18.931V27.345ZM23.1379 4.20703H25.2414V7.3622H23.1379V4.20703ZM27.3448 7.3622H29.4483V10.5174H27.3448V7.3622ZM23.1379 10.5174H25.2414V13.6725H23.1379V10.5174ZM27.3448 13.6725H29.4483V16.8277H27.3448V13.6725ZM23.1379 17.8794H25.2414V21.0346H23.1379V17.8794ZM23.1379 24.1898H25.2414V27.345H23.1379V24.1898ZM27.3448 21.0346H29.4483V24.1898H27.3448V21.0346ZM27.3448 27.345H29.4483V30.5001H27.3448V27.345Z" fill="#F8FDFF"/>
<path d="M37.8621 13.6719H39.9655V16.827H37.8621V13.6719ZM37.8621 19.9822H39.9655V23.1374H37.8621V19.9822ZM37.8621 26.2926H39.9655V29.4477H37.8621V26.2926ZM37.8621 32.6029H39.9655V35.7581H37.8621V32.6029ZM37.8621 38.9133H39.9655V42.0684H37.8621V38.9133ZM37.8621 45.2236H39.9655V48.3788H37.8621V45.2236ZM37.8621 51.5339H39.9655V54.6891H37.8621V51.5339ZM42.069 16.827H44.1724V19.9822H42.069V16.827ZM42.069 48.3788H44.1724V51.5339H42.069V48.3788ZM42.069 54.6891H44.1724V57.8443H42.069V54.6891Z" fill="#FFFDF8"/>
<path d="M16.8276 51.5352H18.9311V54.6903H16.8276V51.5352Z" fill="#FFFAF6"/>
<path d="M9.46552 50.5623V38.2984L13.3644 34.3995L11.877 32.9121L8.31506 36.474L4.83793 33.8662L3.57586 35.5489L7.36207 38.3886V51.7455C6.68467 52.4741 6.30882 53.4325 6.31034 54.4274V57.8455C6.31034 57.0087 5.97793 56.2061 5.38622 55.6144C4.79451 55.0227 3.99198 54.6903 3.15517 54.6903C2.31837 54.6903 1.51584 55.0227 0.924129 55.6144C0.332419 56.2061 0 57.0087 0 57.8455V61.0006H12.6207V50.4834H10.2543C9.9894 50.4833 9.72515 50.5097 9.46552 50.5623Z" fill="#386641"/>
</svg>
