<svg width="60" height="60" viewBox="0 0 60 60" fill="none" xmlns="http://www.w3.org/2000/svg">
<path d="M41.6948 24.5748L52.3372 43.0084L59.9852 38.5928V14.0156L41.6948 24.5748Z" fill="#6A7F91"/>
<path d="M41.6948 24.5748L52.3372 43.0084L59.9852 38.5928V14.0156L41.6948 24.5748Z" fill="#788D9E"/>
<path d="M42.6616 26.251L52.3356 43.0089L59.9836 38.5932V16.25L42.6616 26.251Z" fill="#6A7F91"/>
<path d="M33.0764 55.2428L41.0902 50.6162C43.8097 49.0457 45.9465 46.6353 47.1795 43.747L51.3688 41.3283L42.6614 26.2461L38.4721 28.6648L35.0317 28.1414C33.2957 27.8776 31.5217 28.212 30.0008 29.0896L22.2976 33.54" fill="#F5C0A6"/>
<path d="M30.4447 51.935L33.8629 56.011C34.0672 56.2543 34.2216 56.5355 34.3172 56.8385C34.4128 57.1416 34.4478 57.4604 34.4201 57.777C34.3924 58.0935 34.3026 58.4015 34.1559 58.6833C34.0092 58.9651 33.8084 59.2153 33.5649 59.4195C33.0737 59.8316 32.4389 60.0318 31.8002 59.9761C31.1614 59.9204 30.5708 59.6134 30.1584 59.1224L26.9086 55.2447L27.907 56.4057L18.8948 50.6201C16.1753 49.0496 14.0385 46.6392 12.8054 43.7509L8.61621 41.3322L17.3236 26.25L21.5129 28.6687L24.9533 28.1453C26.6893 27.8815 28.4633 28.2159 29.9842 29.0935L37.6874 33.5439" fill="#FCD4C5"/>
<path d="M35.3427 35.1934L46.225 48.1635C46.6374 48.6549 46.8376 49.29 46.7817 49.929C46.7259 50.568 46.4184 51.1587 45.9271 51.5711C45.436 51.9837 44.8012 52.1845 44.1622 52.1291C43.5232 52.0738 42.9323 51.7669 42.5196 51.276L31.6372 38.3029" fill="#FCD4C5"/>
<path d="M31.6373 38.3027L43.549 52.4997C43.9614 52.9911 44.1616 53.6261 44.1057 54.2652C44.0499 54.9042 43.7424 55.4948 43.2511 55.9072C42.7596 56.3194 42.1244 56.5195 41.4854 56.4634C40.8464 56.4074 40.2558 56.0998 39.8436 55.6083L27.9308 41.4123M27.9308 41.4123L38.8141 54.3824C39.2265 54.8738 39.4267 55.5089 39.3708 56.1479C39.315 56.7869 39.0075 57.3776 38.5162 57.7899C38.0248 58.2023 37.3897 58.4025 36.7507 58.3466C36.1117 58.2908 35.521 57.9833 35.1087 57.492L24.2253 44.5218" fill="#FCD4C5"/>
<path d="M36.7434 46.6493C36.6822 46.5763 36.6359 46.4919 36.6072 46.4009C36.5786 46.31 36.5682 46.2143 36.5765 46.1193C36.5849 46.0244 36.6119 45.932 36.656 45.8474C36.7 45.7629 36.7603 45.6879 36.8334 45.6267C36.9808 45.5031 37.1711 45.4431 37.3627 45.4598C37.5542 45.4765 37.7313 45.5685 37.8551 45.7157L43.5488 52.5017C43.9611 52.9931 44.1614 53.6281 44.1055 54.2671C44.0496 54.9062 43.7422 55.4968 43.2508 55.9092C43.0594 56.0651 42.8449 56.1904 42.6152 56.2807C42.8924 55.8491 43.0246 55.3403 42.9926 54.8283C42.9606 54.3164 42.766 53.828 42.4371 53.4343L36.7434 46.6493Z" fill="#F9C9B2"/>
<path d="M15.4613 46.1557L13.7641 48.177C12.9051 49.2 13.038 50.7257 14.0611 51.5847C15.0841 52.4437 16.6097 52.3107 17.4687 51.2877L19.166 49.2665C20.025 48.2435 19.892 46.7178 18.869 45.8588C17.846 44.9998 16.3204 45.1327 15.4613 46.1557Z" fill="#F5C0A6"/>
<path d="M19.1687 49.2655L16.4418 52.5129C15.5828 53.5359 15.7158 55.0616 16.7388 55.9206C17.7618 56.7796 19.2875 56.6467 20.1465 55.6237L22.8734 52.3762C23.7324 51.3532 23.5994 49.8275 22.5764 48.9685C21.5534 48.1095 20.0277 48.2425 19.1687 49.2655Z" fill="#F5C0A6"/>
<path d="M22.8732 52.3764L21.176 54.3977C20.317 55.4207 20.4499 56.9464 21.4729 57.8054C22.4959 58.6644 24.0216 58.5314 24.8806 57.5084L26.5778 55.4872C27.4368 54.4642 27.3039 52.9385 26.2809 52.0795C25.2579 51.2205 23.7322 51.3534 22.8732 52.3764Z" fill="#F5C0A6"/>
<path d="M26.1305 56.0257L26.5833 55.4868C26.9958 54.9956 27.5865 54.6883 28.2255 54.6326C28.8645 54.5769 29.4995 54.7773 29.9908 55.1898C30.4821 55.6021 30.7896 56.1928 30.8455 56.8318C30.9013 57.4708 30.7011 58.1059 30.2888 58.5973L29.834 59.1381C29.4215 59.6293 28.8308 59.9366 28.1918 59.9923C27.5528 60.048 26.9178 59.8476 26.4265 59.4351C26.1831 59.2308 25.9823 58.9805 25.8357 58.6985C25.689 58.4165 25.5994 58.1084 25.5719 57.7918C25.5444 57.4751 25.5796 57.1562 25.6754 56.8531C25.7713 56.5501 25.9259 56.2689 26.1305 56.0257ZM38.4766 28.6718L35.0362 28.1484C33.3003 27.8846 31.5262 28.219 30.0053 29.0965L21.9171 33.7676C21.3615 34.0883 20.9562 34.6166 20.7902 35.2362C20.6242 35.8558 20.7111 36.516 21.0318 37.0716C21.3526 37.6271 21.8808 38.0324 22.5005 38.1984C23.1201 38.3645 23.7803 38.2775 24.3358 37.9568L30.6196 34.3287C31.1278 35.2091 31.8044 35.9808 32.6108 36.5997C33.4172 37.2186 34.3377 37.6726 35.3195 37.9358C36.3014 38.1989 37.3255 38.2661 38.3334 38.1334C39.3412 38.0007 40.313 37.6708 41.1934 37.1625" fill="#F5C0A6"/>
<path d="M41.6919 24.5724L46.719 21.6699L57.3614 40.1026L52.3343 43.005L41.6919 24.5724Z" fill="#F5FDFF"/>
<path d="M18.2904 24.5748L7.64802 43.0084L0 38.5928V14.0156L18.2904 24.5748Z" fill="#788D9E"/>
<path d="M0 38.5932L7.64802 43.0089L17.322 26.251L0 16.25V38.5932Z" fill="#6A7F91"/>
<path d="M2.61914 40.1065L13.2615 21.6738L18.2886 24.5763L7.64623 43.0089L2.61914 40.1065Z" fill="#F5FDFF"/>
<path d="M34.1518 48.8235C34.0906 48.7505 34.0156 48.6903 33.9311 48.6463C33.8466 48.6023 33.7543 48.5755 33.6594 48.5672C33.5645 48.5589 33.4689 48.5694 33.3781 48.5982C33.2873 48.6269 33.203 48.6732 33.1301 48.7345C33.057 48.7957 32.9967 48.8707 32.9526 48.9553C32.9086 49.0398 32.8816 49.1322 32.8732 49.2272C32.8649 49.3221 32.8753 49.4178 32.9039 49.5088C32.9326 49.5997 32.9789 49.6841 33.0401 49.7571L37.7044 55.3154C38.0331 55.7091 38.2277 56.1974 38.2599 56.7092C38.2921 57.2211 38.1602 57.7299 37.8834 58.1617C38.1129 58.0714 38.327 57.9461 38.5181 57.7902C38.7615 57.586 38.9623 57.3359 39.1091 57.054C39.2558 56.7722 39.3456 56.4642 39.3732 56.1477C39.4009 55.8312 39.3659 55.5123 39.2703 55.2093C39.1747 54.9063 39.0204 54.6251 38.8161 54.3817L34.1518 48.8235ZM29.3317 52.8666C29.2704 52.7937 29.2241 52.7093 29.1953 52.6184C29.1666 52.5275 29.1561 52.4319 29.1644 52.3369C29.1726 52.2419 29.1995 52.1495 29.2435 52.0649C29.2875 51.9804 29.3477 51.9053 29.4207 51.844C29.5682 51.7204 29.7588 51.6603 29.9505 51.677C30.1422 51.6937 30.3195 51.7858 30.4434 51.933L33.8615 56.01C34.2739 56.5014 34.4741 57.1365 34.4182 57.7755C34.3623 58.4145 34.0549 59.0052 33.5635 59.4175C33.3721 59.5734 33.1577 59.6987 32.9279 59.789C33.2051 59.3575 33.3374 58.8486 33.3053 58.3367C33.2733 57.8247 33.0787 57.3364 32.7499 56.9427L29.3317 52.8666Z" fill="#F9C9B2"/>
<path d="M18.0499 48.318L16.351 50.3391C16.0204 50.7313 15.5734 51.0078 15.0748 51.1283C14.5763 51.2489 14.0523 51.2073 13.5791 51.0096C13.708 51.2203 13.8689 51.4096 14.0561 51.5707C14.2993 51.7754 14.5804 51.9301 14.8834 52.026C15.1864 52.1219 15.5053 52.1572 15.8219 52.1298C16.1386 52.1024 16.4467 52.0128 16.7287 51.8663C17.0107 51.7197 17.2611 51.519 17.4655 51.2757L19.1615 49.2536C19.4109 48.9648 19.5875 48.6204 19.6764 48.2493C19.7653 47.8783 19.764 47.4913 19.6726 47.1208C19.5811 46.7503 19.4023 46.4072 19.1509 46.1201C18.8995 45.833 18.583 45.6103 18.2279 45.4707C18.5049 45.9025 18.637 46.4115 18.605 46.9235C18.573 47.4356 18.3785 47.9241 18.0499 48.318ZM21.7554 51.4275L19.0299 54.6754C18.6991 55.0675 18.2519 55.344 17.7533 55.4645C17.2546 55.5851 16.7305 55.5435 16.2571 55.3459C16.4563 55.6709 16.7304 55.9436 17.0565 56.141C17.3826 56.3384 17.7513 56.4548 18.1316 56.4804C18.512 56.5061 18.8929 56.4403 19.2426 56.2885C19.5923 56.1368 19.9006 55.9034 20.1416 55.6081L22.867 52.3602C23.1156 52.0714 23.2915 51.7273 23.38 51.3567C23.4685 50.986 23.4671 50.5996 23.3758 50.2296C23.2845 49.8596 23.106 49.5169 22.8553 49.23C22.6045 48.943 22.2888 48.7202 21.9344 48.5802C22.2112 49.0122 22.3432 49.5211 22.311 50.0332C22.2788 50.5452 22.0842 51.0337 21.7554 51.4275ZM25.4609 54.5371L23.7648 56.5582C23.4341 56.9504 22.9869 57.2269 22.4882 57.3475C21.9896 57.4681 21.4654 57.4264 20.992 57.2286C21.1911 57.5537 21.4651 57.8265 21.7912 58.0239C22.1173 58.2214 22.4859 58.3379 22.8663 58.3637C23.2466 58.3895 23.6276 58.3237 23.9774 58.172C24.3271 58.0203 24.6354 57.7871 24.8765 57.4918L26.5725 55.4697C26.8211 55.1809 26.997 54.8368 27.0855 54.4662C27.174 54.0955 27.1726 53.7091 27.0813 53.3391C26.99 52.9692 26.8115 52.6264 26.5608 52.3395C26.31 52.0525 25.9943 51.8298 25.6398 51.6897C25.9167 52.1217 26.0487 52.6307 26.0165 53.1427C25.9843 53.6548 25.7897 54.1432 25.4609 54.5371ZM29.1693 57.6456L28.7165 58.1855C28.3856 58.5778 27.9381 58.8542 27.4393 58.9746C26.9404 59.095 26.4161 59.0531 25.9427 58.855C26.1421 59.1798 26.4164 59.4521 26.7425 59.6493C27.0687 59.8465 27.4373 59.9629 27.8175 59.9886C28.1978 60.0144 28.5787 59.9488 28.9285 59.7974C29.2782 59.6459 29.5867 59.413 29.8281 59.1181L30.2809 58.5792C30.6932 58.0879 30.8935 57.4528 30.8376 56.8138C30.7817 56.1748 30.4743 55.5841 29.9829 55.1717C29.7923 55.0157 29.5785 54.8903 29.3492 54.8002C29.6257 55.232 29.7572 55.7407 29.7249 56.2524C29.6925 56.764 29.4979 57.2521 29.1693 57.6456Z" fill="#EBB69D"/>
<path d="M2.61914 40.1066L12.2941 23.3496L17.3211 26.2521L7.64623 43.009L2.61914 40.1066Z" fill="#E6F5FA"/>
<path d="M41.6919 24.5724L46.719 21.6699L57.3614 40.1026L52.3343 43.005L41.6919 24.5724Z" fill="#F5FDFF"/>
<path d="M42.6616 26.2482L47.6887 23.3457L57.3636 40.1027L52.3365 43.0051L42.6616 26.2482Z" fill="#E6F5FA"/>
<path d="M29.9934 23.2198C36.4054 23.2198 41.6033 18.0219 41.6033 11.6099C41.6033 5.19793 36.4054 0 29.9934 0C23.5815 0 18.3835 5.19793 18.3835 11.6099C18.3835 18.0219 23.5815 23.2198 29.9934 23.2198Z" fill="#4D8357"/>
<path d="M31.927 1.9336C29.7474 1.93142 27.6112 2.54348 25.7635 3.6996C23.9157 4.85572 22.4311 6.50911 21.4799 8.47023C20.5287 10.4314 20.1493 12.6208 20.3853 14.7876C20.6213 16.9545 21.4631 19.0109 22.8142 20.7213C25.0443 22.4829 27.8436 23.3644 30.6806 23.1984C33.5177 23.0325 36.1951 21.8307 38.2047 19.8212C40.2142 17.8116 41.416 15.1342 41.582 12.2971C41.7479 9.46006 40.8664 6.6608 39.1048 4.43069C37.0627 2.81192 34.5329 1.93183 31.927 1.9336Z" fill="#386641"/>
<path d="M27.5973 13.6593L25.2028 11.2647C24.9306 10.9927 24.5616 10.8398 24.1768 10.8398C23.7919 10.8398 23.4229 10.9927 23.1507 11.2647C23.0159 11.3995 22.9089 11.5595 22.8359 11.7357C22.7629 11.9118 22.7253 12.1006 22.7253 12.2913C22.7253 12.4819 22.7629 12.6707 22.8359 12.8468C22.9089 13.023 23.0159 13.183 23.1507 13.3178L26.5708 16.7349C26.7056 16.8698 26.8656 16.9768 27.0417 17.0498C27.2179 17.1228 27.4067 17.1603 27.5973 17.1603C27.788 17.1603 27.9768 17.1228 28.1529 17.0498C28.329 16.9768 28.4891 16.8698 28.6238 16.7349L36.833 8.52578C37.1051 8.25363 37.2579 7.88457 37.2579 7.49976C37.2579 7.11494 37.1051 6.74588 36.833 6.47373C36.5608 6.20167 36.1918 6.04883 35.807 6.04883C35.4222 6.04883 35.0531 6.20167 34.7809 6.47373L27.5973 13.6593Z" fill="white"/>
</svg>
