<svg width="52" height="46" viewBox="0 0 52 46" fill="none" xmlns="http://www.w3.org/2000/svg">
<path d="M28.8534 1.85895C28.1812 0.696019 26.9781 0 25.6337 0C24.2892 0 23.0862 0.696019 22.4127 1.86026L22.4139 1.85905L0.504291 39.8098C-0.167897 40.9727 -0.167897 42.3622 0.503089 43.5265C1.17528 44.6907 2.37837 45.3867 3.72284 45.3867H47.5447C48.8892 45.3867 50.0922 44.6907 50.7644 43.5265C51.4354 42.3622 51.4354 40.9727 50.7644 39.8098L28.8534 1.85895ZM25.6337 38.076C24.2178 38.076 23.0699 36.9281 23.0699 35.5122C23.0699 34.0963 24.2178 32.9484 25.6337 32.9484C27.0495 32.9484 28.1974 34.0963 28.1974 35.5122C28.1974 36.9281 27.0495 38.076 25.6337 38.076ZM28.1974 25.704C28.1974 27.1198 27.0495 28.2678 25.6337 28.2678C24.2178 28.2678 23.0699 27.1199 23.0699 25.704V13.1418C23.0699 11.726 24.2178 10.5781 25.6337 10.5781C27.0495 10.5781 28.1974 11.726 28.1974 13.1418V25.704Z" fill="#DF2935"/>
</svg>
