<svg width="50" height="50" viewBox="0 0 50 50" fill="none" xmlns="http://www.w3.org/2000/svg">
<path d="M14.7402 7.14258L7.15103 17.2612L7.14478 17.2532V49.9993H37.6025L35.5606 48.7743C33.9776 47.8185 32.6675 46.4711 31.7564 44.8619C30.8454 43.2528 30.364 41.4361 30.3589 39.5869V24.9996H35.8151C36.6427 24.9996 37.4704 24.804 38.2106 24.4344L41.073 23.0031L42.8587 23.896V7.14258H14.7402Z" fill="#F0F0F0"/>
<path d="M28.5716 3.5714C28.5716 2.6242 28.1953 1.7158 27.5256 1.04604C26.8558 0.376271 25.9474 0 25.0002 0C24.053 0 23.1446 0.376271 22.4749 1.04604C21.8051 1.7158 21.4288 2.6242 21.4288 3.5714H17.8574V7.14279H32.143V3.5714H28.5716ZM25.0002 5.35709C24.7624 5.36247 24.5259 5.32029 24.3047 5.23301C24.0834 5.14574 23.8818 5.01514 23.7117 4.84888C23.5416 4.68262 23.4064 4.48405 23.3141 4.26483C23.2218 4.04561 23.1742 3.81016 23.1741 3.5723C23.1741 3.33444 23.2215 3.09896 23.3137 2.8797C23.4059 2.66043 23.541 2.46179 23.711 2.29545C23.8811 2.1291 24.0826 1.9984 24.3038 1.91102C24.5251 1.82364 24.7615 1.78133 24.9993 1.78659C25.4659 1.79691 25.9099 1.98947 26.2362 2.32305C26.5626 2.65663 26.7454 3.10472 26.7455 3.57141C26.7457 4.03809 26.5631 4.48627 26.2369 4.82002C25.9107 5.15376 25.4668 5.34654 25.0002 5.35709Z" fill="#505050"/>
<path d="M17.8574 3.5714H19.6431V7.14279H17.8574V3.5714ZM25.8931 0.125892C25.602 0.0461573 25.302 0.00385257 25.0002 0C24.053 0 23.1446 0.376271 22.4749 1.04604C21.8051 1.7158 21.4288 2.6242 21.4288 3.5714H23.2145C23.2159 2.78142 23.4798 2.0143 23.9646 1.39062C24.4495 0.766934 25.1278 0.322049 25.8931 0.125892Z" fill="#3C3C3C"/>
<path d="M32.1426 26.7857H35.8131C36.9221 26.7858 38.0159 26.5275 39.0077 26.0312L41.0711 25L43.1344 26.0312C44.1262 26.5275 45.22 26.7858 46.3291 26.7857H49.9996V39.5874C49.9996 41.1292 49.6003 42.6448 48.8407 43.9865C48.081 45.3282 46.9869 46.4503 45.6648 47.2435L41.0711 49.9998L36.4774 47.2435C35.1553 46.4503 34.0611 45.3282 33.3015 43.9865C32.5418 42.6448 32.1426 41.1292 32.1426 39.5874V26.7857Z" fill="#3CC8B4"/>
<path d="M38.2631 47.243C36.941 46.4497 35.8468 45.3276 35.0872 43.9859C34.3275 42.6442 33.9283 41.1287 33.9283 39.5868V26.7852H32.1426V39.5868C32.1426 41.1287 32.5418 42.6442 33.3015 43.9859C34.0611 45.3276 35.1553 46.4497 36.4774 47.243L41.0711 49.9992L41.9639 49.4635L38.2631 47.243Z" fill="#1EAA96"/>
<path d="M21.4304 21.4293H35.7159V23.215H21.4304V21.4293ZM21.4304 30.3578H30.3589V32.1435H21.4304V30.3578ZM21.4304 39.2863V41.072H30.4696C30.3977 40.5806 30.3607 40.0847 30.3589 39.5881V39.2863H21.4304ZM7.15103 17.2624L7.14478 17.2544V50.0005H10.7162V12.5098L7.15103 17.2624Z" fill="#D2D2D2"/>
<path d="M7.14897 1.7857L7.88825 1.04642C8.21992 0.714655 8.61369 0.451482 9.04709 0.271935C9.48048 0.0923874 9.94501 -1.70983e-05 10.4141 2.3731e-09H10.7204C13.6632 2.3731e-09 15.3435 3.35979 13.5775 5.71423L7.14897 14.2856L0.72046 5.71423C-1.0447 3.35979 0.634746 2.3731e-09 3.57758 2.3731e-09H3.88382C4.83114 2.3731e-09 5.73916 0.375889 6.4088 1.04642L7.14897 1.7857Z" fill="#FA6450"/>
<path d="M2.49405 5.71423C0.880669 3.56336 2.14762 0.581245 4.62171 0.0803566C4.37934 0.0280166 4.13217 0.00108542 3.88421 0H3.57797C0.635135 0 -1.04521 3.35979 0.720849 5.71423L7.14936 14.2856L8.03596 13.1035L2.49405 5.71423Z" fill="#DC4632"/>
<path d="M44.6428 36.6063H41.9642V33.9277H40.1785V36.6063H37.5V38.392H40.1785V41.0705H41.9642V38.392H44.6428V36.6063Z" fill="#F0F0F0"/>
<path d="M19.6428 20.356V18.9274H18.8348C18.7681 18.6695 18.6656 18.4221 18.5303 18.1926L19.1017 17.6212L18.0919 16.6114L17.5205 17.1828C17.291 17.0475 17.0436 16.945 16.7857 16.8783V16.0703H15.3571V16.8783C15.0991 16.945 14.8518 17.0475 14.6223 17.1828L14.0509 16.6114L13.0411 17.6212L13.6125 18.1926C13.4786 18.4194 13.3759 18.6658 13.308 18.9274H12.5V20.356H13.308C13.3759 20.6176 13.4786 20.864 13.6125 21.0908L13.0411 21.6622L14.0509 22.672L14.6223 22.1006C14.8491 22.2345 15.0955 22.3372 15.3571 22.4051V23.2131H16.7857V22.4051C17.0473 22.3372 17.2937 22.2345 17.5205 22.1006L18.0919 22.672L19.1017 21.6622L18.5303 21.0908C18.6642 20.864 18.7669 20.6176 18.8348 20.356H19.6428ZM16.0714 21.0703C15.2839 21.0703 14.6428 20.4292 14.6428 19.6417C14.6428 18.8542 15.2839 18.2132 16.0714 18.2132C16.8589 18.2132 17.5 18.8542 17.5 19.6417C17.5 20.4292 16.8589 21.0703 16.0714 21.0703ZM19.6428 29.2845V27.8559H18.8348C18.7681 27.598 18.6656 27.3506 18.5303 27.1211L19.1017 26.5497L18.0919 25.5399L17.5205 26.1113C17.291 25.9759 17.0436 25.8735 16.7857 25.8068V24.9988H15.3571V25.8068C15.0991 25.8735 14.8518 25.9759 14.6223 26.1113L14.0509 25.5399L13.0411 26.5497L13.6125 27.1211C13.4786 27.3479 13.3759 27.5943 13.308 27.8559H12.5V29.2845H13.308C13.3759 29.5461 13.4786 29.7925 13.6125 30.0193L13.0411 30.5907L14.0509 31.6005L14.6223 31.0291C14.8491 31.163 15.0955 31.2657 15.3571 31.3336V32.1416H16.7857V31.3336C17.0473 31.2657 17.2937 31.163 17.5205 31.0291L18.0919 31.6005L19.1017 30.5907L18.5303 30.0193C18.6642 29.7925 18.7669 29.5461 18.8348 29.2845H19.6428ZM16.0714 29.9988C15.2839 29.9988 14.6428 29.3577 14.6428 28.5702C14.6428 27.7827 15.2839 27.1416 16.0714 27.1416C16.8589 27.1416 17.5 27.7827 17.5 28.5702C17.5 29.3577 16.8589 29.9988 16.0714 29.9988ZM19.6428 38.213V36.7844H18.8348C18.7681 36.5264 18.6656 36.2791 18.5303 36.0496L19.1017 35.4782L18.0919 34.4684L17.5205 35.0398C17.291 34.9044 17.0436 34.802 16.7857 34.7353V33.9273H15.3571V34.7353C15.0991 34.802 14.8518 34.9044 14.6223 35.0398L14.0509 34.4684L13.0411 35.4782L13.6125 36.0496C13.4786 36.2764 13.3759 36.5228 13.308 36.7844H12.5V38.213H13.308C13.3759 38.4746 13.4786 38.721 13.6125 38.9478L13.0411 39.5192L14.0509 40.529L14.6223 39.9576C14.8491 40.0915 15.0955 40.1942 15.3571 40.2621V41.0701H16.7857V40.2621C17.0473 40.1942 17.2937 40.0915 17.5205 39.9576L18.0919 40.529L19.1017 39.5192L18.5303 38.9478C18.6642 38.721 18.7669 38.4746 18.8348 38.213H19.6428ZM16.0714 38.9272C15.2839 38.9272 14.6428 38.2862 14.6428 37.4987C14.6428 36.7112 15.2839 36.0701 16.0714 36.0701C16.8589 36.0701 17.5 36.7112 17.5 37.4987C17.5 38.2862 16.8589 38.9272 16.0714 38.9272Z" fill="#FAB400"/>
</svg>
