<svg width="75" height="76" viewBox="0 0 75 76" fill="none" xmlns="http://www.w3.org/2000/svg">
<path d="M37.51 64.7671C52.4793 64.7671 64.6143 52.6321 64.6143 37.6629C64.6143 22.6936 52.4793 10.5586 37.51 10.5586C22.5408 10.5586 10.4058 22.6936 10.4058 37.6629C10.4058 52.6321 22.5408 64.7671 37.51 64.7671Z" fill="#D8EEF5"/>
<path d="M58.6015 53.65C67.6581 41.7312 65.5525 24.8904 53.8985 16.0349C42.2445 7.17936 25.4552 9.6626 16.3985 21.5813C7.34187 33.5001 9.44745 50.3409 21.1015 59.1964C32.7555 68.0519 49.5448 65.5687 58.6015 53.65Z" fill="#F1F7F8"/>
<path d="M38.1802 36.992H59.9033C59.732 31.2848 57.3884 25.8583 53.3511 21.8207C49.3138 17.7832 43.8874 15.4392 38.1802 15.2676V36.992Z" fill="#FF8502"/>
<path d="M36.8377 43.4011V15.2676C33.4649 15.3702 30.1588 16.233 27.1659 17.7915C24.1731 19.35 21.5706 21.5641 19.5527 24.2686C17.5348 26.9731 16.1535 30.0982 15.5117 33.411C14.8699 36.7238 14.9843 40.1387 15.8463 43.4011H36.8377Z" fill="#8BC782"/>
<path d="M36.8382 44.7383H16.2451C17.6964 49.0929 20.4494 52.8971 24.1323 55.6368C27.8151 58.3764 32.2502 59.9195 36.8382 60.0575V44.7383Z" fill="#F8CAD6"/>
<path d="M38.1802 38.332V60.0564C43.8874 59.8848 49.3138 57.5409 53.3511 53.5033C57.3884 49.4658 59.732 44.0392 59.9033 38.332H38.1802Z" fill="#F2B062"/>
<path d="M22.779 30.3564C22.9725 30.1361 23.1219 29.8806 23.219 29.6039C23.6423 29.983 24.1911 30.1918 24.7594 30.1896C25.3277 30.1875 25.8749 29.9747 26.2954 29.5924L26.3158 29.5758C26.5138 29.3908 26.677 29.1718 26.7979 28.9292C26.889 28.9777 26.9832 29.0203 27.0798 29.0567C27.3927 29.1819 27.7293 29.2367 28.0658 29.2172C28.4023 29.1977 28.7303 29.1043 29.0267 28.9437C29.323 28.7831 29.5803 28.5592 29.7804 28.2879C29.9804 28.0167 30.1183 27.7047 30.1842 27.3742C30.2501 27.0436 30.2424 26.7026 30.1617 26.3754C30.0809 26.0481 29.9291 25.7427 29.7171 25.4807C29.505 25.2188 29.2378 25.0067 28.9346 24.8596C28.6313 24.7126 28.2994 24.6341 27.9623 24.6297C27.9203 24.5774 27.8769 24.5238 27.8348 24.4741C27.5652 24.1864 27.2261 23.9729 26.8501 23.8544C26.474 23.7358 26.0738 23.716 25.6879 23.797C25.3021 23.878 24.9435 24.057 24.6469 24.3168C24.3503 24.5766 24.1256 24.9083 23.9945 25.2802C23.6817 24.9824 23.291 24.7792 22.8676 24.6941C22.4442 24.609 22.0054 24.6455 21.6019 24.7993C21.1983 24.9531 20.8465 25.218 20.5872 25.5633C20.3279 25.9087 20.1715 26.3203 20.1363 26.7507C19.8258 26.8817 19.5479 27.0793 19.3224 27.3297C19.0969 27.58 18.9292 27.877 18.8314 28.1994C18.7335 28.5219 18.7078 28.8619 18.7561 29.1954C18.8045 29.5288 18.9256 29.8476 19.1109 30.129C19.2963 30.4104 19.5413 30.6476 19.8286 30.8236C20.1159 30.9997 20.4385 31.1104 20.7733 31.1478C21.1082 31.1852 21.4472 31.1484 21.7663 31.0401C22.0854 30.9317 22.3767 30.7545 22.6196 30.5209C22.6719 30.4712 22.728 30.4151 22.779 30.3564Z" fill="#386641"/>
<path d="M27.0796 29.0566L26.3411 30.2045L26.2952 29.5936C26.063 29.8062 25.7894 29.9685 25.4916 30.0703C25.1938 30.1721 24.8781 30.2113 24.5644 30.1854L24.6741 30.7785L23.8923 30.0234C23.645 29.9245 23.4171 29.7829 23.2188 29.6051C23.1217 29.8818 22.9724 30.1373 22.7788 30.3576L24.9254 32.3881L25.0975 33.314C25.1289 33.4846 25.2173 33.6395 25.3482 33.7533C25.4792 33.8671 25.6449 33.933 25.8182 33.9403C26.0885 33.9465 26.3535 33.8645 26.5732 33.7069C26.6868 33.6275 26.7767 33.5188 26.8333 33.3923C26.8899 33.2658 26.9111 33.1264 26.8946 32.9888L26.6842 31.2032L27.9456 29.211C27.6497 29.2158 27.3556 29.1634 27.0796 29.0566Z" fill="white"/>
<path opacity="0.2" d="M23.3637 27.0085C23.4254 26.9505 23.4686 26.8756 23.4878 26.7931C23.5069 26.7106 23.5012 26.6243 23.4714 26.5451C23.4415 26.4658 23.3889 26.3972 23.3201 26.3479C23.2512 26.2985 23.1694 26.2707 23.0847 26.2678C23.0001 26.265 22.9165 26.2873 22.8446 26.3319C22.7726 26.3765 22.7155 26.4414 22.6803 26.5185C22.6452 26.5955 22.6338 26.6813 22.6473 26.7648C22.6609 26.8484 22.6989 26.9261 22.7566 26.9881C22.795 27.0295 22.8412 27.063 22.8926 27.0865C22.9439 27.11 22.9995 27.1231 23.0559 27.125C23.1124 27.1269 23.1687 27.1175 23.2215 27.0975C23.2743 27.0776 23.3227 27.0473 23.3637 27.0085ZM20.267 28.7239C20.2053 28.7819 20.1621 28.8569 20.1429 28.9393C20.1238 29.0218 20.1295 29.1081 20.1593 29.1874C20.1892 29.2666 20.2418 29.3352 20.3107 29.3846C20.3795 29.4339 20.4614 29.4618 20.546 29.4646C20.6306 29.4674 20.7142 29.4452 20.7862 29.4005C20.8581 29.3559 20.9153 29.291 20.9504 29.214C20.9855 29.1369 20.997 29.0512 20.9834 28.9676C20.9698 28.884 20.9318 28.8063 20.8741 28.7443C20.7962 28.6612 20.6886 28.6124 20.5748 28.6085C20.4609 28.6047 20.3502 28.6462 20.267 28.7239Z" fill="white"/>
<path d="M46.4324 40.043C45.8218 40.0552 45.2153 40.1457 44.6276 40.3121C44.2512 40.4208 43.9017 40.6073 43.602 40.8597C43.3023 41.1121 43.0589 41.4246 42.8876 41.7771C42.7164 42.1295 42.6211 42.514 42.608 42.9056C42.5949 43.2972 42.6642 43.6873 42.8114 44.0504C43.3114 45.2659 44.2144 46.6165 45.8623 47.4175C48.2856 48.5998 51.6871 48.2746 53.5773 47.9557C53.6596 48.6943 53.8757 49.4118 54.2151 50.073C54.2754 50.1896 54.3737 50.2821 54.4937 50.3354C54.6137 50.3887 54.7482 50.3996 54.8752 50.3661C55.0022 50.3327 55.114 50.2571 55.1922 50.1516C55.2704 50.0461 55.3104 49.9172 55.3055 49.786L55.2188 47.7657L56.785 46.7454C57.3258 46.3933 56.9674 45.563 56.3361 45.7021C55.6552 45.8689 54.9997 46.1263 54.3872 46.4673C53.4944 44.7952 51.631 41.8464 49.1656 40.645C48.315 40.2316 47.3778 40.0283 46.4324 40.0519" fill="#FF3E4A"/>
<path d="M44.4644 45.4559C44.4644 45.4559 45.5804 48.1802 51.2242 47.6484C51.2229 47.6484 46.9285 47.9698 44.4644 45.4559ZM44.6085 41.9459C44.6358 41.8899 44.6459 41.827 44.6374 41.7653C44.629 41.7035 44.6024 41.6457 44.5611 41.599C44.5197 41.5524 44.4655 41.519 44.4052 41.5032C44.3449 41.4874 44.2813 41.4898 44.2224 41.5102C44.1635 41.5305 44.112 41.5679 44.0743 41.6176C44.0366 41.6672 44.0145 41.7269 44.0108 41.7891C44.0071 41.8513 44.0219 41.9132 44.0534 41.967C44.0848 42.0208 44.1316 42.0641 44.1876 42.0913C44.2627 42.1278 44.3492 42.133 44.4282 42.1057C44.5071 42.0785 44.5719 42.021 44.6085 41.9459ZM45.5459 44.2634C45.5459 44.2634 47.8685 42.8056 46.4324 40.043C46.6994 40.7582 46.7578 41.5345 46.6009 42.2817C46.444 43.0288 46.0781 43.716 45.5459 44.2634Z" fill="white"/>
<path d="M46.8205 22.1538L40.8706 23.3017C40.6343 23.3474 40.4092 23.4392 40.2084 23.5719C40.0075 23.7046 39.8348 23.8755 39.7 24.0749C39.5652 24.2744 39.471 24.4984 39.4228 24.7343C39.3746 24.9702 39.3734 25.2132 39.4192 25.4495L39.7622 27.2032C39.7806 27.3021 39.8183 27.3963 39.8732 27.4806C39.928 27.5648 39.9989 27.6375 40.0818 27.6943C40.1647 27.7512 40.258 27.7911 40.3564 27.8119C40.4547 27.8327 40.5562 27.8339 40.655 27.8154L41.456 31.9631C41.5196 32.2923 41.7114 32.5827 41.989 32.7704C42.2667 32.9582 42.6077 33.0279 42.9368 32.9644L48.4977 31.8892C48.8266 31.8253 49.1166 31.6334 49.3041 31.3558C49.4916 31.0781 49.5612 30.7373 49.4976 30.4084L48.6954 26.2607C48.7946 26.2419 48.8892 26.2036 48.9736 26.1481C49.058 26.0926 49.1306 26.0209 49.1871 25.9372C49.2437 25.8535 49.2831 25.7594 49.3031 25.6604C49.3231 25.5614 49.3234 25.4593 49.3037 25.3602L48.9645 23.6052C48.8721 23.1287 48.5946 22.7083 48.1926 22.4362C47.7907 22.1641 47.2972 22.0625 46.8205 22.1538ZM48.9135 25.2148C48.9312 25.3065 48.9307 25.4009 48.912 25.4924C48.8933 25.5839 48.8567 25.6708 48.8043 25.7482C48.752 25.8255 48.6849 25.8918 48.6069 25.9432C48.5288 25.9946 48.4415 26.0301 48.3497 26.0477L49.1622 30.2451C49.1914 30.3961 49.1906 30.5513 49.1599 30.7019C49.1291 30.8525 49.0689 30.9956 48.9828 31.1229C48.8967 31.2503 48.7863 31.3594 48.658 31.444C48.5296 31.5287 48.3859 31.5872 48.2349 31.6162L43.086 32.6123C42.9351 32.6416 42.7799 32.6408 42.6293 32.61C42.4787 32.5793 42.3356 32.5191 42.2082 32.433C42.0809 32.3468 41.9718 32.2365 41.8871 32.1081C41.8025 31.9798 41.744 31.8361 41.7149 31.6851L40.9025 27.4877C40.8109 27.5054 40.7166 27.505 40.6252 27.4863C40.5337 27.4677 40.4469 27.4312 40.3695 27.379C40.2922 27.3268 40.2259 27.2598 40.1744 27.1819C40.123 27.1041 40.0874 27.0168 40.0696 26.9252L39.8069 25.5656C39.7645 25.3467 39.7656 25.1217 39.8102 24.9033C39.8549 24.6849 39.9421 24.4774 40.0669 24.2928C40.1918 24.1081 40.3518 23.9499 40.5378 23.8271C40.7239 23.7043 40.9323 23.6194 41.1512 23.5772L46.6623 22.5109C47.1042 22.426 47.5618 22.5198 47.9345 22.7718C48.3073 23.0239 48.5649 23.4135 48.6507 23.8552L48.9135 25.2148Z" fill="#7F4F21"/>
<path d="M41.2071 26.2795C41.3339 26.2795 41.4367 26.1767 41.4367 26.0499C41.4367 25.9231 41.3339 25.8203 41.2071 25.8203C41.0803 25.8203 40.9775 25.9231 40.9775 26.0499C40.9775 26.1767 41.0803 26.2795 41.2071 26.2795Z" fill="#7F4F21"/>
<path d="M44.3692 25.6662C44.496 25.6662 44.5988 25.5634 44.5988 25.4366C44.5988 25.3098 44.496 25.207 44.3692 25.207C44.2424 25.207 44.1396 25.3098 44.1396 25.4366C44.1396 25.5634 44.2424 25.6662 44.3692 25.6662Z" fill="#7F4F21"/>
<path d="M45.7867 24.5158C45.9135 24.5158 46.0163 24.413 46.0163 24.2862C46.0163 24.1594 45.9135 24.0566 45.7867 24.0566C45.6599 24.0566 45.5571 24.1594 45.5571 24.2862C45.5571 24.413 45.6599 24.5158 45.7867 24.5158Z" fill="#7F4F21"/>
<path d="M47.5299 25.0549C47.6567 25.0549 47.7594 24.9521 47.7594 24.8253C47.7594 24.6985 47.6567 24.5957 47.5299 24.5957C47.4031 24.5957 47.3003 24.6985 47.3003 24.8253C47.3003 24.9521 47.4031 25.0549 47.5299 25.0549Z" fill="#7F4F21"/>
<path d="M42.6222 25.1154C42.7489 25.1154 42.8517 25.0126 42.8517 24.8858C42.8517 24.759 42.7489 24.6562 42.6222 24.6562C42.4954 24.6562 42.3926 24.759 42.3926 24.8858C42.3926 25.0126 42.4954 25.1154 42.6222 25.1154Z" fill="#7F4F21"/>
<path d="M46.6623 22.513L41.1512 23.5792C40.9323 23.6214 40.7239 23.7063 40.5378 23.8291C40.3518 23.9519 40.1918 24.1102 40.0669 24.2948C39.9421 24.4795 39.8548 24.6869 39.8102 24.9053C39.7656 25.1237 39.7645 25.3488 39.8069 25.5676L40.0696 26.9272C40.0873 27.0189 40.1229 27.1061 40.1744 27.184C40.2258 27.2618 40.2921 27.3288 40.3695 27.381C40.4468 27.4333 40.5337 27.4698 40.6252 27.4884C40.7166 27.507 40.8108 27.5075 40.9025 27.4897L41.7149 31.6872C41.7439 31.8381 41.8025 31.9819 41.8871 32.1102C41.9718 32.2385 42.0809 32.3489 42.2082 32.435C42.3356 32.5211 42.4786 32.5813 42.6293 32.6121C42.7799 32.6429 42.9351 32.6436 43.086 32.6144L48.2349 31.6183C48.3859 31.5892 48.5296 31.5307 48.658 31.4461C48.7863 31.3614 48.8967 31.2523 48.9828 31.125C49.0689 30.9976 49.1291 30.8545 49.1598 30.7039C49.1906 30.5533 49.1914 30.3981 49.1622 30.2472L48.3497 26.0497C48.4414 26.0322 48.5288 25.9967 48.6068 25.9453C48.6848 25.8939 48.7519 25.8276 48.8043 25.7502C48.8567 25.6729 48.8933 25.586 48.912 25.4944C48.9307 25.4029 48.9312 25.3086 48.9134 25.2169L48.6507 23.8573C48.5649 23.4156 48.3073 23.0259 47.9345 22.7739C47.5617 22.5219 47.1042 22.428 46.6623 22.513ZM41.2507 26.2755C41.2061 26.284 41.16 26.2791 41.1182 26.2614C41.0764 26.2437 41.0408 26.2141 41.0158 26.1761C40.9909 26.1382 40.9778 26.0938 40.9781 26.0484C40.9784 26.003 40.9921 25.9588 41.0176 25.9212C41.0431 25.8836 41.0791 25.8544 41.1211 25.8373C41.1631 25.8202 41.2093 25.816 41.2538 25.8251C41.2982 25.8342 41.339 25.8563 41.3709 25.8886C41.4028 25.9208 41.4244 25.9618 41.433 26.0064C41.4388 26.036 41.4386 26.0665 41.4325 26.0961C41.4265 26.1257 41.4146 26.1538 41.3977 26.1788C41.3807 26.2038 41.359 26.2252 41.3338 26.2418C41.3086 26.2584 41.2803 26.2698 41.2507 26.2755ZM42.6664 25.1136C42.6218 25.1223 42.5756 25.1177 42.5337 25.1002C42.4918 25.0827 42.456 25.0531 42.4309 25.0153C42.4058 24.9775 42.3924 24.933 42.3926 24.8876C42.3927 24.8422 42.4063 24.7978 42.4317 24.7601C42.457 24.7224 42.493 24.6931 42.535 24.6759C42.5771 24.6587 42.6233 24.6543 42.6678 24.6633C42.7123 24.6723 42.7531 24.6944 42.7851 24.7266C42.8171 24.7589 42.8388 24.7999 42.8475 24.8445C42.8591 24.9042 42.8466 24.966 42.8126 25.0165C42.7786 25.0669 42.7261 25.1019 42.6664 25.1136ZM44.4124 25.6646C44.3679 25.6731 44.3218 25.6682 44.28 25.6505C44.2382 25.6328 44.2026 25.6031 44.1776 25.5652C44.1527 25.5273 44.1395 25.4828 44.1399 25.4375C44.1402 25.3921 44.1539 25.3478 44.1794 25.3103C44.2048 25.2727 44.2409 25.2435 44.2829 25.2264C44.3249 25.2093 44.3711 25.205 44.4156 25.2142C44.46 25.2233 44.5008 25.2454 44.5327 25.2776C44.5646 25.3099 44.5862 25.3509 44.5948 25.3954C44.6006 25.4251 44.6004 25.4556 44.5943 25.4852C44.5883 25.5148 44.5764 25.5429 44.5595 25.5679C44.5425 25.5929 44.5208 25.6143 44.4956 25.6309C44.4704 25.6475 44.4421 25.6589 44.4124 25.6646ZM45.8307 24.5167C45.7861 24.5254 45.74 24.5208 45.6981 24.5033C45.6561 24.4858 45.6204 24.4562 45.5952 24.4184C45.5701 24.3806 45.5568 24.3361 45.5569 24.2907C45.557 24.2453 45.5707 24.2009 45.596 24.1632C45.6214 24.1255 45.6573 24.0962 45.6994 24.079C45.7414 24.0618 45.7876 24.0574 45.8321 24.0664C45.8766 24.0754 45.9175 24.0975 45.9495 24.1297C45.9815 24.162 46.0032 24.203 46.0118 24.2476C46.0227 24.3069 46.0098 24.3681 45.9759 24.418C45.942 24.4678 45.8899 24.5024 45.8307 24.5141V24.5167ZM47.5742 25.0562C47.5297 25.0647 47.4836 25.0598 47.4418 25.0421C47.4 25.0244 47.3644 24.9947 47.3394 24.9568C47.3145 24.9189 47.3013 24.8745 47.3017 24.8291C47.302 24.7837 47.3157 24.7394 47.3412 24.7019C47.3666 24.6643 47.4027 24.6351 47.4447 24.618C47.4867 24.6009 47.5329 24.5967 47.5773 24.6058C47.6218 24.6149 47.6626 24.637 47.6945 24.6692C47.7264 24.7015 47.748 24.7425 47.7566 24.7871C47.7675 24.8466 47.7544 24.9079 47.7202 24.9578C47.6861 25.0078 47.6336 25.0422 47.5742 25.0536V25.0562Z" fill="white"/>
<path d="M55.5297 29.326C55.5379 29.2553 55.5306 29.1837 55.5084 29.1161C55.4862 29.0485 55.4496 28.9866 55.4011 28.9345C55.3525 28.8825 55.2933 28.8416 55.2274 28.8147C55.1615 28.7878 55.0906 28.7756 55.0195 28.7789C55.1942 26.4397 54.9391 24.7817 53.7645 24.4207C52.5898 24.0598 51.461 25.2689 50.2698 27.381C50.2176 27.32 50.1513 27.2727 50.0766 27.2433C50.0019 27.214 49.9211 27.2034 49.8413 27.2126C49.7616 27.2218 49.6853 27.2505 49.6193 27.2961C49.5532 27.3417 49.4993 27.4028 49.4624 27.4741C45.8594 34.4673 49.7265 35.7172 50.2277 35.846C50.706 36.0169 54.6126 37.1393 55.5297 29.326ZM52.0057 27.3963C52.5255 27.6294 53.0708 27.8006 53.6306 27.9065C53.5549 28.437 53.4673 28.9655 53.3678 29.4918C52.6378 29.3658 51.9285 29.1405 51.2595 28.8222C51.4687 28.3299 51.6902 27.8435 51.924 27.3631L52.0057 27.3963ZM52.0477 27.256L51.9878 27.2279C52.2004 26.7951 52.4227 26.3674 52.6549 25.9448C53.0284 26.1102 53.4183 26.2359 53.818 26.3198C53.7913 26.5877 53.7632 26.8555 53.7313 27.1221C53.7071 27.3338 53.679 27.5455 53.6497 27.7598C53.0979 27.6551 52.5602 27.486 52.0477 27.256ZM50.6448 34.4635C50.7669 33.9304 50.8614 33.3915 50.9279 32.8488C51.0555 32.8934 51.183 32.9342 51.3105 32.9763C51.0637 33.4605 50.8415 33.9568 50.6448 34.4635ZM51.3756 32.8449C51.2302 32.8016 51.0873 32.7544 50.9432 32.7034C51.016 32.0569 51.0369 31.4056 51.0057 30.7558C51.4582 30.9399 51.9232 31.0916 52.3972 31.2098C52.0144 31.7273 51.6728 32.274 51.3756 32.8449ZM53.401 30.0505C53.429 29.9229 53.4571 29.7852 53.4839 29.6525C53.5834 29.6666 53.6828 29.6755 53.7836 29.6857C53.6637 29.7979 53.5362 29.9191 53.401 30.0505ZM53.2097 30.2469C52.9562 30.5127 52.7174 30.792 52.4941 31.0836C51.983 30.9618 51.4823 30.7997 50.9968 30.5989C50.9751 30.28 50.9419 29.9841 50.8999 29.7061C50.9317 29.6257 50.9598 29.5428 50.9917 29.4625C51.0606 29.2903 51.132 29.1194 51.2034 28.9523C51.8323 29.2515 52.4959 29.4713 53.1791 29.6066C53.2326 29.6168 53.2862 29.6232 53.3398 29.6321C53.2989 29.8349 53.2543 30.0403 53.2097 30.2469ZM50.8578 29.4242C50.8093 29.1606 50.7562 28.9158 50.6983 28.6896C50.7494 28.7176 50.8004 28.747 50.8514 28.7738L51.0759 28.886C50.9968 29.0646 50.9254 29.2457 50.8578 29.4242ZM54.6394 28.9689C54.4303 29.1373 54.1917 29.3286 53.9341 29.5556C53.7938 29.5428 53.6535 29.5301 53.5145 29.5084C53.6148 28.9838 53.7028 28.457 53.7785 27.9281C54.0877 27.9783 54.4002 28.0056 54.7134 28.0098C54.6943 28.3133 54.6688 28.6347 54.6356 28.9689H54.6394ZM54.7198 27.8631C54.4113 27.8587 54.1035 27.8318 53.7989 27.7827C53.8652 27.3049 53.9205 26.8257 53.9647 26.3453C54.1972 26.3882 54.4325 26.4147 54.6688 26.4244C54.7249 26.9018 54.7407 27.3831 54.7159 27.8631H54.7198ZM54.6458 26.2777C54.4221 26.2653 54.1993 26.2393 53.9787 26.1999C54.0017 25.9448 54.0234 25.6808 54.04 25.4206C54.0489 25.2829 54.0578 25.1452 54.0655 25.0074C54.3614 25.2689 54.5463 25.7038 54.642 26.2777H54.6458ZM53.6548 24.7817C53.7495 24.8118 53.8396 24.8547 53.9226 24.9092C53.9048 25.3326 53.8729 25.7561 53.8321 26.1783C53.4522 26.0966 53.0813 25.9774 52.725 25.8224C52.8449 25.603 52.9686 25.3849 53.0936 25.1681C53.1778 25.024 53.2632 24.8799 53.3487 24.737C53.4523 24.7382 53.5552 24.7532 53.6548 24.7817ZM53.1714 24.7408C52.969 25.075 52.7747 25.4151 52.5885 25.7612C52.389 25.6709 52.1944 25.57 52.0057 25.4589C52.3972 25.0367 52.7824 24.7906 53.1714 24.7396V24.7408ZM51.9049 25.566C52.1039 25.6838 52.3091 25.7907 52.5197 25.8862C52.3921 26.1323 52.2556 26.3798 52.1281 26.6285C52.0363 26.8083 51.947 26.9882 51.8577 27.1705C51.5834 27.0431 51.3179 26.8973 51.0631 26.7343C51.3103 26.3215 51.5919 25.9302 51.9049 25.5648V25.566ZM50.9853 26.8581C51.2428 27.0236 51.5118 27.1706 51.7901 27.2981C51.5571 27.7776 51.3352 28.2632 51.1243 28.7546C50.9598 28.673 50.7991 28.585 50.6409 28.4995C50.5746 28.2534 50.507 28.0289 50.4445 27.8261C50.6295 27.4754 50.8093 27.1527 50.9853 26.8581Z" fill="#7F4F21"/>
<path d="M53.2098 30.2434C53.2545 30.0368 53.2991 29.8314 53.3374 29.6248C53.2838 29.6159 53.2303 29.6095 53.1767 29.5993C52.4936 29.464 51.8299 29.2442 51.201 28.945C51.1296 29.1172 51.0582 29.2881 50.9893 29.4552C50.9574 29.5355 50.9294 29.6184 50.8975 29.6988C50.9396 29.9756 50.9727 30.2715 50.9944 30.5916C51.48 30.7924 51.9806 30.9545 52.4918 31.0763C52.716 30.7859 52.9557 30.5079 53.2098 30.2434ZM53.4841 29.649C53.4573 29.7766 53.4292 29.9143 53.4012 30.047C53.5287 29.9194 53.6562 29.7919 53.7838 29.6822C53.683 29.672 53.5835 29.6631 53.4841 29.649ZM52.0058 27.3928L51.9242 27.3558C51.6904 27.8362 51.4689 28.3226 51.2597 28.8149C51.9287 29.1332 52.638 29.3585 53.368 29.4845C53.4692 28.9582 53.5568 28.4297 53.6307 27.8992C53.0712 27.7945 52.5258 27.6246 52.0058 27.3928ZM52.3974 31.2063C51.9234 31.0882 51.4584 30.9364 51.0059 30.7523C51.0371 31.4021 51.0162 32.0534 50.9434 32.6999C51.0875 32.7509 51.2304 32.7981 51.3758 32.8415C51.6729 32.2705 52.0145 31.7238 52.3974 31.2063ZM54.7098 28.0063C54.3965 28.0021 54.0841 27.9748 53.7749 27.9247C53.6992 28.4535 53.6112 28.9803 53.5108 29.5049C53.6499 29.5266 53.7902 29.5394 53.9305 29.5521C54.1856 29.3251 54.4266 29.1338 54.6358 28.9654C54.6689 28.6313 54.6945 28.3098 54.7098 28.0063ZM51.7928 27.2946C51.5145 27.1671 51.2456 27.0201 50.988 26.8546C50.8095 27.1492 50.6297 27.4719 50.4473 27.8175C50.5098 28.0203 50.5748 28.2448 50.6437 28.491C50.8018 28.5815 50.9625 28.6695 51.1271 28.746C51.3379 28.2588 51.5599 27.775 51.7928 27.2946ZM50.8478 28.7703C50.7967 28.7435 50.7457 28.7142 50.6947 28.6861C50.7517 28.9123 50.8048 29.1572 50.8541 29.4207C50.9256 29.2409 50.997 29.0611 51.0722 28.8825L50.8478 28.7703ZM53.7914 27.7793C54.096 27.8283 54.4038 27.8552 54.7123 27.8596C54.7358 27.3795 54.7187 26.8982 54.6613 26.4209C54.425 26.4112 54.1898 26.3848 53.9572 26.3419C53.9156 26.8231 53.8603 27.3023 53.7914 27.7793ZM52.1334 26.6237C52.2609 26.375 52.3885 26.1276 52.5249 25.8814C52.3144 25.7859 52.1092 25.679 51.9102 25.5613C51.5972 25.9263 51.3156 26.3172 51.0684 26.7296C51.3232 26.8926 51.5887 27.0383 51.863 27.1658C51.9475 26.9823 52.0377 26.8016 52.1334 26.6237ZM52.7252 25.8138C53.0815 25.9688 53.4524 26.088 53.8323 26.1697C53.8731 25.7475 53.905 25.3241 53.9228 24.9006C53.8398 24.8461 53.7496 24.8032 53.655 24.7731C53.5556 24.7433 53.4526 24.727 53.3489 24.7246C53.2634 24.8675 53.178 25.0116 53.0938 25.1557C52.9688 25.3764 52.8451 25.5945 52.7252 25.8138ZM53.9751 26.1965C54.1957 26.2358 54.4184 26.2618 54.6422 26.2743C54.5465 25.7003 54.3616 25.2654 54.0618 24.9988C54.0542 25.1366 54.0453 25.2743 54.0363 25.4121C54.0197 25.6774 53.9981 25.9363 53.9751 26.1965ZM53.6499 27.7538C53.6792 27.542 53.7073 27.3303 53.7315 27.116C53.7634 26.8495 53.7914 26.5816 53.8182 26.3138C53.4184 26.2298 53.0286 26.1042 52.655 25.9388C52.4229 26.364 52.2006 26.7917 51.988 27.2219L52.0479 27.25C52.5604 27.4799 53.098 27.649 53.6499 27.7538ZM53.1716 24.7361C52.7826 24.7871 52.3974 25.0371 52.0058 25.4516C52.1946 25.5627 52.3892 25.6636 52.5887 25.7539C52.7749 25.4095 52.9692 25.0703 53.1716 24.7361ZM51.3082 32.9703C51.1806 32.9307 51.0531 32.8899 50.9256 32.8427C50.859 33.3855 50.7645 33.9244 50.6424 34.4574C50.8391 33.9508 51.0613 33.4544 51.3082 32.9703Z" fill="white"/>
<path d="M35.5172 53.1563C35.359 52.9959 35.2341 52.8059 35.1496 52.597C35.0651 52.3882 35.0227 52.1648 35.0248 51.9396V51.7865C35.0248 49.9805 34.0849 48.5176 32.9255 48.5176C32.8687 48.5176 32.8121 48.5214 32.7559 48.5291C31.6768 48.663 30.8274 50.0698 30.8274 51.7865V51.9255C30.8292 52.152 30.7859 52.3765 30.7001 52.5861C30.6143 52.7956 30.4876 52.986 30.3274 53.1461C30.1741 53.3063 30.0545 53.4956 29.9756 53.7029C29.8967 53.9101 29.8602 54.1311 29.8683 54.3527C29.8853 54.6901 30.0041 55.0144 30.209 55.2831C30.4139 55.5517 30.6953 55.752 31.0162 55.8577C31.2828 55.944 31.5661 55.9654 31.8426 55.9202L32.5237 55.8232C32.7814 55.7875 33.0428 55.7875 33.3005 55.8232L33.9828 55.9202C34.2584 55.9653 34.5408 55.9443 34.8067 55.859C35.1261 55.7535 35.4064 55.5545 35.6111 55.2877C35.8158 55.0209 35.9355 54.6986 35.9546 54.3629C35.9656 54.1428 35.9325 53.9227 35.8574 53.7156C35.7823 53.5084 35.6666 53.3183 35.5172 53.1563Z" fill="#DF2935"/>
<path opacity="0.3" d="M35.0723 53.0272C34.966 52.8273 34.8911 52.6122 34.8504 52.3895C34.8122 51.7211 34.7752 49.9891 33.7676 49.1562C33.7676 49.1562 34.6604 50.4062 34.4729 52.4265C34.4563 52.6101 35.3466 54.045 35.1336 54.9862C35.1336 54.9824 35.7113 54.2146 35.0723 53.0272Z" fill="white"/>
<path d="M26.2496 54.6887C26.2281 54.8767 26.2543 55.0672 26.3257 55.2425C26.397 55.4178 26.5113 55.5724 26.658 55.6921C26.8046 55.8118 26.979 55.8927 27.1651 55.9274C27.3512 55.9621 27.543 55.9495 27.7229 55.8908C27.9029 55.832 28.0652 55.729 28.195 55.5912C28.3248 55.4534 28.4178 55.2852 28.4657 55.1021C28.5135 54.919 28.5146 54.7267 28.4688 54.5431C28.423 54.3594 28.3318 54.1902 28.2035 54.0509C28.4876 53.9571 28.7227 53.7543 28.8574 53.4872C28.992 53.2201 29.0151 52.9104 28.9216 52.6263C28.8785 52.4949 28.811 52.3729 28.7226 52.2666C29.0026 52.1709 29.2339 51.969 29.3665 51.7044C29.4991 51.4399 29.5226 51.1338 29.4318 50.8522C29.389 50.727 29.3251 50.6101 29.243 50.5065C29.492 50.393 29.691 50.1926 29.8028 49.9428C29.9145 49.693 29.9312 49.411 29.8498 49.1498C29.7684 48.8885 29.5945 48.666 29.3607 48.5238C29.1268 48.3817 28.8492 48.3298 28.5798 48.3778C28.5757 48.2808 28.559 48.1848 28.53 48.0921C28.4502 47.8469 28.2889 47.6365 28.0728 47.4957C27.8568 47.355 27.599 47.2924 27.3425 47.3185C27.086 47.3446 26.8461 47.4577 26.6628 47.6391C26.4795 47.8204 26.3638 48.0591 26.335 48.3153C26.1383 48.1026 25.8678 47.973 25.5787 47.9531L25.2968 47.0909L25.8733 46.9021C25.9748 46.8692 26.059 46.7972 26.1074 46.7021C26.1559 46.6071 26.1646 46.4966 26.1316 46.3952C26.0986 46.2937 26.0267 46.2095 25.9316 46.161C25.8365 46.1126 25.7261 46.1039 25.6246 46.1369L23.6732 46.7746C23.6229 46.7914 23.5765 46.8178 23.5365 46.8525C23.4965 46.8872 23.4637 46.9295 23.44 46.9769C23.4163 47.0242 23.4022 47.0758 23.3984 47.1286C23.3947 47.1815 23.4014 47.2345 23.4181 47.2848C23.4349 47.335 23.4613 47.3815 23.496 47.4215C23.5307 47.4615 23.573 47.4943 23.6204 47.518C23.6677 47.5417 23.7193 47.5558 23.7721 47.5595C23.825 47.5633 23.878 47.5566 23.9283 47.5399L24.5048 47.3511L24.7854 48.2133C24.5637 48.4003 24.4218 48.6649 24.3887 48.953C24.2143 48.7634 23.9803 48.6391 23.7255 48.6008C23.4707 48.5625 23.2104 48.6125 22.988 48.7426C22.7656 48.8727 22.5944 49.0749 22.5028 49.3157C22.4112 49.5566 22.4047 49.8215 22.4845 50.0665C22.5143 50.1539 22.5546 50.2374 22.6044 50.3152L22.5687 50.3241C22.4276 50.3702 22.2969 50.4436 22.1841 50.5401C22.0714 50.6367 21.9788 50.7545 21.9116 50.8869C21.8444 51.0192 21.8039 51.1635 21.7924 51.3115C21.781 51.4595 21.7988 51.6083 21.8449 51.7494C21.8909 51.8905 21.9643 52.0212 22.0609 52.1339C22.1574 52.2467 22.2752 52.3393 22.4076 52.4065C22.5399 52.4737 22.6842 52.5142 22.8322 52.5257C22.9802 52.5371 23.129 52.5193 23.2702 52.4732C23.2931 52.4656 23.3122 52.4528 23.3352 52.4439C23.3297 52.5734 23.3469 52.703 23.3862 52.8265C23.4779 53.1077 23.6762 53.3416 23.9386 53.478C24.201 53.6145 24.5064 53.6425 24.7892 53.5561C24.7805 53.6941 24.7978 53.8326 24.8402 53.9642C24.9332 54.2457 25.133 54.4793 25.3966 54.6149C25.6603 54.7504 25.9666 54.7769 26.2496 54.6887Z" fill="#DF2935"/>
<path opacity="0.3" d="M27.6285 47.6082C27.5592 47.6308 27.4981 47.6734 27.4529 47.7307C27.4078 47.788 27.3807 47.8573 27.375 47.9301C27.3693 48.0028 27.3853 48.0755 27.421 48.1391C27.4567 48.2027 27.5104 48.2543 27.5755 48.2874C27.6405 48.3204 27.7138 48.3334 27.7862 48.3248C27.8587 48.3161 27.9269 48.2862 27.9823 48.2387C28.0377 48.1913 28.0777 48.1284 28.0974 48.0582C28.1171 47.988 28.1155 47.9135 28.0928 47.8442C28.0779 47.7981 28.0541 47.7555 28.0227 47.7187C27.9912 47.6819 27.9529 47.6516 27.9097 47.6297C27.8666 47.6078 27.8195 47.5946 27.7713 47.5909C27.723 47.5872 27.6745 47.5931 27.6285 47.6082ZM28.8734 48.64C28.804 48.6626 28.7429 48.7052 28.6977 48.7625C28.6526 48.8198 28.6255 48.8892 28.6198 48.9619C28.6141 49.0346 28.6301 49.1074 28.6658 49.171C28.7015 49.2346 28.7553 49.2862 28.8203 49.3192C28.8853 49.3522 28.9587 49.3653 29.0311 49.3566C29.1035 49.3479 29.1717 49.318 29.2271 49.2705C29.2825 49.2231 29.3225 49.1603 29.3422 49.09C29.3619 49.0198 29.3603 48.9453 29.3376 48.876C29.307 48.7834 29.241 48.7067 29.1541 48.6625C29.0671 48.6183 28.9662 48.6102 28.8734 48.64ZM26.7702 49.3262H26.7574C26.69 49.3515 26.6316 49.3961 26.5893 49.4544C26.547 49.5126 26.5228 49.582 26.5196 49.6539C26.5165 49.7258 26.5345 49.7971 26.5715 49.8588C26.6085 49.9206 26.6628 49.9701 26.7277 50.0012C26.7925 50.0324 26.8652 50.0438 26.9365 50.034C27.0078 50.0242 27.0746 49.9937 27.1288 49.9463C27.1829 49.8988 27.2219 49.8365 27.2409 49.7671C27.2599 49.6977 27.2581 49.6242 27.2357 49.5558L27.2268 49.5367C27.1914 49.4503 27.1247 49.3806 27.0399 49.3415C26.9552 49.3025 26.8588 49.297 26.7702 49.3262ZM25.6708 48.2459C25.6008 48.268 25.5391 48.3105 25.4936 48.3681C25.4481 48.4256 25.421 48.4955 25.4157 48.5686C25.4117 48.6164 25.4173 48.6646 25.4322 48.7102C25.4548 48.7796 25.4974 48.8407 25.5547 48.8858C25.612 48.9309 25.6814 48.9581 25.7541 48.9638C25.8268 48.9694 25.8996 48.9534 25.9632 48.9177C26.0268 48.882 26.0784 48.8283 26.1114 48.7633C26.1444 48.6983 26.1575 48.6249 26.1488 48.5525C26.1401 48.4801 26.1102 48.4119 26.0627 48.3565C26.0153 48.3011 25.9525 48.261 25.8822 48.2413C25.812 48.2217 25.7375 48.2233 25.6682 48.2459H25.6708ZM23.5714 48.9308C23.5022 48.9536 23.4412 48.9963 23.3963 49.0537C23.3514 49.1111 23.3244 49.1805 23.3189 49.2531C23.3134 49.3258 23.3296 49.3984 23.3653 49.4619C23.4011 49.5254 23.4548 49.5769 23.5198 49.6098C23.5848 49.6427 23.6581 49.6557 23.7305 49.647C23.8028 49.6383 23.8709 49.6083 23.9263 49.5609C23.9816 49.5135 24.0217 49.4508 24.0414 49.3806C24.061 49.3105 24.0595 49.2361 24.0369 49.1668C24.0063 49.0739 23.9401 48.9969 23.8529 48.9527C23.7656 48.9085 23.6644 48.9006 23.5714 48.9308Z" fill="white"/>
<path d="M32.0947 36.538C29.4953 40.1602 25.7902 42.7391 24.0722 40.8808C23.1411 39.8745 23.562 38.8223 23.9995 38.1807C24.817 36.9869 26.8577 36.3479 28.5464 33.9935C31.1445 30.3713 32.4275 26.8434 34.4478 28.2923C36.4681 29.7412 34.6927 32.9157 32.0947 36.538Z" fill="#386641"/>
<path d="M35.3988 28.9186C35.38 28.5853 35.2445 28.2693 35.0162 28.0258L35.0289 28.0169C35.27 27.735 35.4613 27.207 35.5276 26.9901C35.5467 26.9324 35.5427 26.8696 35.5166 26.8147C35.4905 26.7598 35.4442 26.7171 35.3873 26.6955C35.3589 26.6859 35.3289 26.6821 35.299 26.6841C35.2692 26.6862 35.24 26.6942 35.2132 26.7076C35.1864 26.721 35.1625 26.7395 35.1429 26.7622C35.1233 26.7849 35.1084 26.8112 35.0991 26.8396C34.9715 27.1707 34.8104 27.4878 34.6182 27.786C34.182 27.6406 33.5214 27.6967 32.5316 28.1508C32.4158 28.1904 32.2967 28.2199 32.1758 28.2388L32.4577 28.4492C32.9551 28.6954 33.6757 28.5296 33.6757 28.5296C33.4448 28.8382 33.5392 29.5359 33.5392 29.5359C34.1106 29.5359 34.7636 29.0461 34.7636 29.0461C34.705 30.0665 35.5799 30.0665 35.5799 30.0665C35.409 29.5448 35.4332 29.2732 35.3988 28.9186Z" fill="white"/>
<path opacity="0.2" d="M27.0813 36.2509C27.3721 35.9958 27.6157 35.682 27.8912 35.4053C29.159 34.1298 30.3273 32.644 30.8923 31.357C30.8923 31.357 31.0199 30.8622 31.2367 30.9208C31.4114 30.9693 31.4407 31.2014 31.4114 31.38C31.3706 31.6274 31.0148 32.4003 30.5186 33.0317C30.5186 33.0317 28.4499 36.2343 27.2459 36.7942C27.2182 36.8082 27.1879 36.8162 27.1569 36.8177C27.1259 36.8193 27.095 36.8143 27.066 36.8031C27.0276 36.7855 26.9938 36.7594 26.9671 36.7267C26.9404 36.694 26.9215 36.6556 26.9119 36.6145C26.9023 36.5734 26.9022 36.5306 26.9117 36.4895C26.9212 36.4484 26.9399 36.4099 26.9665 36.3771C27.0011 36.3319 27.0395 36.2896 27.0813 36.2509ZM24.9947 37.8719C25.2179 37.6462 25.9526 36.9332 26.4283 36.8758C26.4656 36.8716 26.5034 36.875 26.5393 36.886C26.5796 36.8932 26.6178 36.9093 26.6511 36.9332C26.6844 36.957 26.712 36.988 26.7319 37.0238C26.7739 37.1322 26.6732 37.2789 26.5699 37.3694C26.2548 37.6487 25.5687 38.2227 25.1899 38.2826C25.1899 38.2826 24.9246 38.3107 24.9067 38.099C24.9044 38.057 24.911 38.0151 24.9262 37.9759C24.9413 37.9368 24.9647 37.9013 24.9947 37.8719Z" fill="white"/>
<path d="M42.4678 51.1266C42.4678 52.2031 43.5111 53.0755 44.7993 53.0755C46.0874 53.0755 47.1307 52.2031 47.1307 51.1266C47.1307 50.0501 46.0874 49.1777 44.7993 49.1777C43.5111 49.1777 42.4678 50.0501 42.4678 51.1266ZM43.8019 50.0973C43.4626 50.48 43.1642 51.0743 43.5098 51.8179C43.5812 51.9722 43.4473 52.2681 43.2483 52.013C42.8861 51.5475 42.7586 50.4825 43.6004 49.8741C43.7853 49.7428 44.0761 49.7874 43.8019 50.0973Z" fill="#FF3E4A"/>
<path d="M41.4288 49.3967C39.6253 49.6518 39.3281 51.3481 39.3281 52.6822C39.3281 54.9869 41.9593 55.3938 44.9808 55.3938C48.0023 55.3938 50.2713 54.9869 50.2713 52.6822C50.2713 50.3775 47.8212 48.5039 44.7997 48.5039C43.5281 48.5039 42.458 49.2437 41.4288 49.3967ZM47.1312 51.1338C47.1312 52.2103 46.0879 53.0827 44.7997 53.0827C43.5115 53.0827 42.4682 52.2103 42.4682 51.1338C42.4682 50.0574 43.5115 49.185 44.7997 49.185C46.0879 49.185 47.1312 50.0523 47.1312 51.1287V51.1338Z" fill="white"/>
<path d="M43.6012 49.8761C42.7595 50.4781 42.887 51.5495 43.2492 52.015C43.4482 52.2701 43.5821 51.9742 43.5107 51.8199C43.1625 51.0763 43.4635 50.4819 43.8028 50.0993C44.077 49.7894 43.7862 49.7447 43.6012 49.8761Z" fill="white"/>
<path d="M15.0893 27.4396C15.4617 30.5313 11.4964 33.5515 11.4964 33.5515C11.4964 33.5515 6.92652 31.5606 6.5541 28.4689C6.18167 25.3773 7.08468 22.7295 10.147 22.357C13.2093 21.9846 14.7169 24.348 15.0893 27.4396Z" fill="#7F4F21"/>
<path d="M10.0527 31.3631L12.3943 31.0801L15.4552 56.409C15.474 56.5628 15.4622 56.7187 15.4207 56.8679C15.3791 57.0172 15.3086 57.1567 15.213 57.2787C15.1175 57.4006 14.9989 57.5025 14.8639 57.5785C14.729 57.6546 14.5804 57.7033 14.4266 57.7219C14.1163 57.7594 13.8038 57.6721 13.5578 57.4792C13.3118 57.2863 13.1526 57.0035 13.115 56.6932L10.0541 31.3642L10.0527 31.3631Z" fill="#7F4F21"/>
<path opacity="0.3" d="M7.62256 25.6211C7.62256 25.6211 7.25396 31.0455 10.7984 31.6513C10.7946 31.6513 6.62262 32.0097 7.62256 25.6211Z" fill="white"/>
<path d="M61.7151 22.3588L60.8159 30.5075C60.7634 30.9835 60.8053 31.4652 60.939 31.925C61.0727 32.3849 61.2957 32.8139 61.5952 33.1876C61.8947 33.5612 62.2649 33.8723 62.6847 34.1028C63.1044 34.3334 63.5654 34.4791 64.0415 34.5315C65.0026 34.6374 65.9665 34.3573 66.7211 33.7526C67.4758 33.148 67.9593 32.2683 68.0654 31.3072L68.9684 23.1521C68.9878 22.9764 68.9366 22.8002 68.8261 22.6622C68.7156 22.5242 68.5549 22.4357 68.3792 22.4162L68.2517 22.4021C68.1647 22.3924 68.0767 22.3999 67.9926 22.4243C67.9086 22.4487 67.8302 22.4894 67.7619 22.5441C67.6937 22.5989 67.6369 22.6666 67.5949 22.7433C67.5528 22.8201 67.5264 22.9044 67.517 22.9914L66.8589 28.954C66.839 29.1296 66.7504 29.2901 66.6125 29.4005C66.4746 29.5109 66.2986 29.5623 66.123 29.5433C66.036 29.5336 65.9518 29.5069 65.8752 29.4646C65.7986 29.4224 65.7311 29.3655 65.6765 29.2972C65.6219 29.2288 65.5813 29.1504 65.557 29.0663C65.5327 28.9823 65.5252 28.8943 65.535 28.8073L66.3002 21.8677C66.3192 21.6921 66.2679 21.5161 66.1575 21.3782C66.0471 21.2403 65.8865 21.1517 65.711 21.1318L65.4457 21.1037C65.3587 21.094 65.2707 21.1015 65.1867 21.1259C65.1026 21.1503 65.0242 21.191 64.956 21.2457C64.8877 21.3005 64.8309 21.3682 64.7889 21.4449C64.7469 21.5217 64.7204 21.606 64.7111 21.693L63.9458 28.6326C63.9363 28.7195 63.9097 28.8038 63.8676 28.8804C63.8255 28.9571 63.7688 29.0247 63.7005 29.0794C63.6323 29.1342 63.554 29.1749 63.47 29.1993C63.386 29.2238 63.2981 29.2314 63.2111 29.2219L63.1142 29.2104C63.0269 29.2021 62.942 29.1766 62.8645 29.1354C62.7871 29.0942 62.7185 29.0381 62.6628 28.9703C62.6071 28.9025 62.5653 28.8243 62.5399 28.7403C62.5145 28.6563 62.506 28.5681 62.5148 28.4808L63.1716 22.5182C63.1909 22.3425 63.1398 22.1663 63.0293 22.0283C62.9188 21.8903 62.758 21.8018 62.5824 21.7823L62.4548 21.7682C62.3674 21.758 62.2788 21.7651 62.1942 21.7893C62.1095 21.8135 62.0305 21.8542 61.9617 21.9091C61.8929 21.9641 61.8357 22.0321 61.7934 22.1092C61.751 22.1864 61.7244 22.2712 61.7151 22.3588Z" fill="#7F4F21"/>
<path d="M63.096 32.7891L65.3285 33.0362L62.6565 57.1812C62.6403 57.3278 62.5954 57.4696 62.5244 57.5988C62.4533 57.728 62.3575 57.8419 62.2425 57.934C62.1274 58.0261 61.9953 58.0947 61.8537 58.1357C61.7122 58.1768 61.5639 58.1896 61.4174 58.1734C61.2709 58.1572 61.129 58.1123 60.9999 58.0412C60.8707 57.9702 60.7568 57.8744 60.6647 57.7593C60.5726 57.6443 60.504 57.5122 60.4629 57.3706C60.4219 57.2291 60.4091 57.0808 60.4253 56.9343L63.0972 32.7893L63.0959 32.7891H63.096Z" fill="#7F4F21"/>
<path opacity="0.3" d="M64.2757 33.6728C64.2757 33.6728 60.091 33.5708 61.7809 27.3301C61.7809 27.3301 60.8192 32.6805 64.2757 33.6728Z" fill="white"/>
</svg>
