<svg width="40" height="40" viewBox="0 0 40 40" fill="none" xmlns="http://www.w3.org/2000/svg">
<rect x="0.5" y="0.5" width="39" height="39" rx="19.5" fill="white" fill-opacity="0.3"/>
<path d="M27.4475 25.777L22.9475 16.777C22.8695 16.621 22.7155 16.5165 22.5415 16.502C22.3665 16.491 22.1985 16.565 22.096 16.7065L18.404 21.783L16.3125 20.1095C16.197 20.017 16.046 19.982 15.9015 20.01C15.7565 20.0395 15.632 20.131 15.561 20.261L12.561 25.761C12.4765 25.916 12.48 26.104 12.57 26.2555C12.66 26.407 12.8235 26.5005 13 26.5005H27C27.1735 26.5005 27.334 26.4105 27.4255 26.263C27.517 26.1155 27.5245 25.9315 27.4475 25.777Z" fill="#B8BBCD"/>
<path d="M17 17.5C18.1046 17.5 19 16.6046 19 15.5C19 14.3954 18.1046 13.5 17 13.5C15.8954 13.5 15 14.3954 15 15.5C15 16.6046 15.8954 17.5 17 17.5Z" fill="#B8BBCD"/>
<rect x="0.5" y="0.5" width="39" height="39" rx="19.5" stroke="#2431AB"/>
</svg>
