<svg width="45" height="44" viewBox="0 0 45 44" fill="none" xmlns="http://www.w3.org/2000/svg">
<path fill-rule="evenodd" clip-rule="evenodd" d="M25.0418 15.6197C25.0418 19.9893 28.5323 23.5285 32.8418 23.5285C37.1513 23.5285 40.6418 19.9893 40.6418 15.6197C40.6418 11.2501 37.1513 7.71094 32.8418 7.71094C28.5323 7.71094 25.0418 11.2501 25.0418 15.6197ZM32.5688 10.6767H32.6273C33.0173 10.6767 33.3293 10.9931 33.3293 11.3885V15.8768L37.1025 18.1505C37.4438 18.3483 37.551 18.7931 37.3463 19.1293C37.1513 19.4654 36.7223 19.5642 36.3908 19.3665L32.3445 16.9049C32.0423 16.727 31.8668 16.4007 31.8668 16.0547V11.3885C31.8668 10.9931 32.1788 10.6767 32.5688 10.6767Z" fill="#6E916B"/>
<path fill-rule="evenodd" clip-rule="evenodd" d="M25.6845 26.797C27.5942 28.1115 28.9323 29.8923 28.9323 32.2668V36.507H33.1142C33.8808 36.507 34.5081 35.8709 34.5081 35.0936V32.2668C34.5081 29.1857 29.5317 27.3624 25.6845 26.797Z" fill="#91B18E"/>
<path d="M14.9934 25.2001C18.0728 25.2001 20.5692 22.6689 20.5692 19.5466C20.5692 16.4242 18.0728 13.893 14.9934 13.893C11.914 13.893 9.41766 16.4242 9.41766 19.5466C9.41766 22.6689 11.914 25.2001 14.9934 25.2001Z" fill="#F4DFC2"/>
<path fill-rule="evenodd" clip-rule="evenodd" d="M23.3567 25.2001C26.4373 25.2001 28.9325 22.6701 28.9325 19.5466C28.9325 16.423 26.4373 13.893 23.3567 13.893C22.7016 13.893 22.0882 14.0344 21.5028 14.2323C22.6598 15.688 23.3567 17.5396 23.3567 19.5466C23.3567 21.5536 22.6598 23.4051 21.5028 24.8609C22.0882 25.0588 22.7016 25.2001 23.3567 25.2001Z" fill="#F4DFC2"/>
<path fill-rule="evenodd" clip-rule="evenodd" d="M14.9933 26.6135C11.2715 26.6135 3.8418 28.5074 3.8418 32.267V35.0938C3.8418 35.8711 4.46907 36.5072 5.23574 36.5072H24.7509C25.5176 36.5072 26.1448 35.8711 26.1448 35.0938V32.267C26.1448 28.5074 18.7151 26.6135 14.9933 26.6135Z" fill="#91B18E"/>
</svg>
