<svg width="66" height="57" viewBox="0 0 66 57" fill="none" xmlns="http://www.w3.org/2000/svg">
<path d="M51.1583 55.4184C49.9233 56.6534 47.9283 56.6534 46.6933 55.4184L39.98 48.7051C38.745 47.4701 38.745 45.4751 39.98 44.2401C41.215 43.0051 43.21 43.0051 44.445 44.2401L48.91 48.7051L60.12 37.4951C61.355 36.2601 63.35 36.2601 64.585 37.4951C65.82 38.7301 65.82 40.7251 64.585 41.9601L51.1583 55.4184ZM32.2533 51.3334H6.66667C3.18334 51.3334 0.333336 48.4834 0.333336 45.0001V7.00008C0.333336 3.51675 3.18334 0.666748 6.66667 0.666748H57.3333C60.8167 0.666748 63.6667 3.51675 63.6667 7.00008V28.1534C60.785 26.7917 57.5867 26.0001 54.1667 26.0001C41.9117 26.0001 32 35.9117 32 48.1667C32 49.2434 32.095 50.2884 32.2533 51.3334ZM30.3217 28.1217C31.335 28.7551 32.665 28.7551 33.6783 28.1217L56.0667 14.1251C56.8583 13.6184 57.3333 12.7634 57.3333 11.8451C57.3333 9.72341 55.0217 8.45675 53.2167 9.56508L32 22.8334L10.7833 9.56508C8.97834 8.45675 6.66667 9.72341 6.66667 11.8451C6.66667 12.7634 7.14167 13.6184 7.93334 14.1251L30.3217 28.1217Z" fill="#91B18E"/>
</svg>
