<svg width="222" height="156" viewBox="0 0 222 156" fill="none" xmlns="http://www.w3.org/2000/svg">
<path d="M179.926 0H46.5213C40.3816 0 35.4043 4.97727 35.4043 11.117V144.522C35.4043 150.661 40.3816 155.639 46.5213 155.639H179.926C186.066 155.639 191.043 150.661 191.043 144.522V11.117C191.043 4.97727 186.066 0 179.926 0Z" fill="#F5F5F5"/>
<g filter="url(#filter0_d_11799_168755)">
<path d="M162.139 11.1172H12.0585C8.98864 11.1172 6.5 13.6058 6.5 16.6757V44.4683C6.5 47.5382 8.98864 50.0269 12.0585 50.0269H162.139C165.209 50.0269 167.697 47.5382 167.697 44.4683V16.6757C167.697 13.6058 165.209 11.1172 162.139 11.1172Z" fill="white"/>
</g>
<path d="M83.2075 20.0117H54.3031C52.4612 20.0117 50.968 21.5049 50.968 23.3468C50.968 25.1888 52.4612 26.6819 54.3031 26.6819H83.2075C85.0494 26.6819 86.5426 25.1888 86.5426 23.3468C86.5426 21.5049 85.0494 20.0117 83.2075 20.0117Z" fill="#D8E6D6"/>
<path d="M103.218 34.4648H54.3031C52.4612 34.4648 50.968 35.958 50.968 37.8C50.968 39.6419 52.4612 41.1351 54.3031 41.1351H103.218C105.06 41.1351 106.553 39.6419 106.553 37.8C106.553 35.958 105.06 34.4648 103.218 34.4648Z" fill="#CBCCD6"/>
<path d="M36.5161 14.4492H15.3937C12.3238 14.4492 9.83521 16.9379 9.83521 20.0077V41.1301C9.83521 44.2 12.3238 46.6887 15.3937 46.6887H36.5161C39.586 46.6887 42.0746 44.2 42.0746 41.1301V20.0077C42.0746 16.9379 39.586 14.4492 36.5161 14.4492Z" fill="#91B18E"/>
<path d="M23.4227 34.2165H25.6461L25.6706 33.3604C25.6706 32.2354 26.3799 31.9419 27.3826 31.624C28.3885 31.3378 29.2739 30.732 29.9049 29.898C30.5359 29.064 30.8782 28.0473 30.8801 27.0015C30.9021 26.363 30.7913 25.7269 30.5548 25.1334C30.3182 24.5399 29.961 24.002 29.5058 23.5537C29.0507 23.1054 28.5074 22.7565 27.9103 22.529C27.3133 22.3015 26.6756 22.2005 26.0375 22.2323C25.3631 22.2176 24.6928 22.34 24.0672 22.5921C23.4416 22.8443 22.8737 23.2209 22.398 23.699C21.9223 24.1772 21.5487 24.7471 21.2999 25.374C21.051 26.0009 20.9321 26.6719 20.9503 27.3461H23.2493C23.2406 26.9738 23.3062 26.6035 23.4425 26.257C23.5787 25.9104 23.7827 25.5945 24.0426 25.3278C24.3025 25.061 24.613 24.8489 24.9559 24.7037C25.2988 24.5586 25.6673 24.4833 26.0397 24.4824C26.3755 24.4629 26.7116 24.516 27.0251 24.6379C27.3386 24.7599 27.6221 24.9479 27.8565 25.1892C28.0908 25.4306 28.2705 25.7195 28.3832 26.0364C28.496 26.3534 28.5392 26.6908 28.5099 27.0259C28.4951 27.5683 28.3065 28.0916 27.9718 28.5187C27.6372 28.9458 27.1742 29.2542 26.6511 29.3983L25.844 29.7185C25.0538 29.9089 24.364 30.3891 23.911 31.064C23.4581 31.7389 23.2751 32.5593 23.3983 33.3627L23.4227 34.2165ZM24.5233 39.5015C24.741 39.5092 24.9581 39.4732 25.1617 39.3956C25.3652 39.318 25.5512 39.2004 25.7085 39.0497C25.8658 38.899 25.9914 38.7183 26.0777 38.5183C26.1639 38.3182 26.2092 38.1029 26.2109 37.8851C26.209 37.6674 26.1634 37.4523 26.077 37.2526C25.9906 37.0528 25.865 36.8723 25.7077 36.7219C25.5504 36.5714 25.3646 36.454 25.1612 36.3765C24.9577 36.2991 24.7409 36.2632 24.5233 36.2709C24.3058 36.2632 24.0889 36.2991 23.8855 36.3765C23.6821 36.454 23.4962 36.5714 23.3389 36.7219C23.1816 36.8723 23.0561 37.0528 22.9696 37.2526C22.8832 37.4523 22.8377 37.6674 22.8358 37.8851C22.8374 38.1029 22.8827 38.3182 22.969 38.5183C23.0553 38.7183 23.1808 38.899 23.3381 39.0497C23.4955 39.2004 23.6814 39.318 23.885 39.3956C24.0885 39.4732 24.3056 39.5092 24.5233 39.5015Z" fill="white"/>
<g filter="url(#filter1_d_11799_168755)">
<path d="M59.8615 58.9141H209.942C211.416 58.9141 212.83 59.4997 213.872 60.5421C214.915 61.5845 215.5 62.9984 215.5 64.4726V92.2652C215.5 93.7394 214.915 95.1533 213.872 96.1957C212.83 97.2381 211.416 97.8237 209.942 97.8237H59.8615C58.3873 97.8237 56.9735 97.2381 55.931 96.1957C54.8886 95.1533 54.303 93.7394 54.303 92.2652V64.4726C54.303 62.9984 54.8886 61.5845 55.931 60.5421C56.9735 59.4997 58.3873 58.9141 59.8615 58.9141V58.9141Z" fill="white"/>
</g>
<path d="M131.011 67.8164H102.106C100.264 67.8164 98.7712 69.3096 98.7712 71.1515C98.7712 72.9935 100.264 74.4866 102.106 74.4866H131.011C132.853 74.4866 134.346 72.9935 134.346 71.1515C134.346 69.3096 132.853 67.8164 131.011 67.8164Z" fill="#D8E6D6"/>
<path d="M151.021 82.2695H102.106C100.264 82.2695 98.7712 83.7627 98.7712 85.6046C98.7712 87.4466 100.264 88.9398 102.106 88.9398H151.021C152.863 88.9398 154.356 87.4466 154.356 85.6046C154.356 83.7627 152.863 82.2695 151.021 82.2695Z" fill="#CBCCD6"/>
<path d="M84.3191 62.25H63.1967C60.1268 62.25 57.6382 64.7386 57.6382 67.8085V88.9309C57.6382 92.0008 60.1268 94.4894 63.1967 94.4894H84.3191C87.389 94.4894 89.8776 92.0008 89.8776 88.9309V67.8085C89.8776 64.7386 87.389 62.25 84.3191 62.25Z" fill="#91B18E"/>
<path d="M71.2257 82.0172H73.4491L73.4736 81.1612C73.4736 80.0362 74.1828 79.7427 75.1856 79.4247C76.1915 79.1386 77.0769 78.5327 77.7079 77.6988C78.3389 76.8648 78.6812 75.8481 78.683 74.8023C78.7051 74.1638 78.5943 73.5276 78.3577 72.9342C78.1212 72.3407 77.764 71.8028 77.3088 71.3545C76.8536 70.9062 76.3103 70.5572 75.7133 70.3298C75.1163 70.1023 74.4785 70.0013 73.8404 70.0331C73.1661 70.0184 72.4958 70.1408 71.8702 70.3929C71.2446 70.6451 70.6767 71.0216 70.201 71.4998C69.7253 71.978 69.3517 72.5479 69.1028 73.1748C68.854 73.8017 68.7351 74.4726 68.7533 75.1469H71.0523C71.0436 74.7746 71.1092 74.4043 71.2454 74.0577C71.3817 73.7112 71.5857 73.3953 71.8456 73.1285C72.1055 72.8618 72.416 72.6497 72.7589 72.5045C73.1018 72.3593 73.4703 72.2841 73.8427 72.2831C74.1785 72.2637 74.5146 72.3167 74.8281 72.4387C75.1415 72.5607 75.4251 72.7487 75.6595 72.99C75.8938 73.2313 76.0735 73.5203 76.1862 73.8372C76.299 74.1541 76.3422 74.4916 76.3129 74.8267C76.2981 75.3691 76.1095 75.8924 75.7748 76.3195C75.4402 76.7466 74.9772 77.055 74.4541 77.1991L73.647 77.5193C72.8568 77.7097 72.1669 78.1899 71.714 78.8648C71.261 79.5396 71.0781 80.36 71.2013 81.1634L71.2257 82.0172ZM72.3263 87.3023C72.544 87.31 72.7611 87.274 72.9647 87.1964C73.1682 87.1188 73.3542 87.0012 73.5115 86.8505C73.6688 86.6998 73.7943 86.5191 73.8806 86.3191C73.9669 86.119 74.0122 85.9037 74.0139 85.6859C74.0119 85.4682 73.9664 85.2531 73.88 85.0533C73.7936 84.8536 73.668 84.6731 73.5107 84.5227C73.3534 84.3722 73.1676 84.2548 72.9641 84.1773C72.7607 84.0999 72.5438 84.0639 72.3263 84.0717C72.1088 84.0639 71.8919 84.0999 71.6885 84.1773C71.485 84.2548 71.2992 84.3722 71.1419 84.5227C70.9846 84.6731 70.859 84.8536 70.7726 85.0533C70.6862 85.2531 70.6407 85.4682 70.6387 85.6859C70.6404 85.9037 70.6857 86.119 70.772 86.3191C70.8583 86.5191 70.9838 86.6998 71.1411 86.8505C71.2984 87.0012 71.4844 87.1188 71.688 87.1964C71.8915 87.274 72.1086 87.31 72.3263 87.3023Z" fill="white"/>
<g filter="url(#filter2_d_11799_168755)">
<path d="M12.0585 106.723H162.139C163.613 106.723 165.027 107.308 166.069 108.351C167.112 109.393 167.697 110.807 167.697 112.281V140.074C167.697 141.548 167.112 142.962 166.069 144.004C165.027 145.047 163.613 145.632 162.139 145.632H12.0585C10.5843 145.632 9.17048 145.047 8.12805 144.004C7.08563 142.962 6.5 141.548 6.5 140.074V112.281C6.5 110.807 7.08563 109.393 8.12805 108.351C9.17048 107.308 10.5843 106.723 12.0585 106.723V106.723Z" fill="white"/>
</g>
<path d="M83.2072 115.617H54.3029C52.461 115.617 50.9678 117.11 50.9678 118.952C50.9678 120.794 52.461 122.287 54.3029 122.287H83.2072C85.0491 122.287 86.5423 120.794 86.5423 118.952C86.5423 117.11 85.0491 115.617 83.2072 115.617Z" fill="#D8E6D6"/>
<path d="M103.218 130.07H54.3029C52.461 130.07 50.9678 131.563 50.9678 133.405C50.9678 135.247 52.461 136.741 54.3029 136.741H103.218C105.06 136.741 106.553 135.247 106.553 133.405C106.553 131.563 105.06 130.07 103.218 130.07Z" fill="#CBCCD6"/>
<path d="M36.5159 110.059H15.3935C12.3236 110.059 9.83496 112.547 9.83496 115.617V136.74C9.83496 139.809 12.3236 142.298 15.3935 142.298H36.5159C39.5858 142.298 42.0744 139.809 42.0744 136.74V115.617C42.0744 112.547 39.5858 110.059 36.5159 110.059Z" fill="#91B18E"/>
<path d="M23.4225 129.826H25.6459L25.6704 128.97C25.6704 127.845 26.3796 127.551 27.3824 127.233C28.3883 126.947 29.2736 126.341 29.9046 125.507C30.5356 124.673 30.8779 123.657 30.8798 122.611C30.9018 121.972 30.7911 121.336 30.5545 120.743C30.318 120.149 29.9608 119.611 29.5056 119.163C29.0504 118.715 28.5071 118.366 27.9101 118.138C27.3131 117.911 26.6753 117.81 26.0372 117.842C25.3629 117.827 24.6926 117.949 24.067 118.202C23.4414 118.454 22.8735 118.83 22.3978 119.308C21.9221 119.787 21.5485 120.356 21.2996 120.983C21.0508 121.61 20.9318 122.281 20.9501 122.955H23.2491C23.2403 122.583 23.306 122.213 23.4422 121.866C23.5784 121.52 23.7825 121.204 24.0424 120.937C24.3022 120.67 24.6127 120.458 24.9557 120.313C25.2986 120.168 25.6671 120.093 26.0394 120.092C26.3753 120.072 26.7113 120.125 27.0248 120.247C27.3383 120.369 27.6219 120.557 27.8562 120.799C28.0906 121.04 28.2702 121.329 28.383 121.646C28.4957 121.963 28.5389 122.3 28.5097 122.635C28.4948 123.178 28.3062 123.701 27.9716 124.128C27.637 124.555 27.174 124.864 26.6509 125.008L25.8438 125.328C25.0536 125.518 24.3637 125.998 23.9108 126.673C23.4578 127.348 23.2748 128.169 23.398 128.972L23.4225 129.826ZM24.5231 135.111C24.7408 135.119 24.9579 135.083 25.1614 135.005C25.365 134.927 25.5509 134.81 25.7083 134.659C25.8656 134.508 25.9911 134.328 26.0774 134.128C26.1637 133.928 26.209 133.712 26.2106 133.494C26.2087 133.277 26.1632 133.062 26.0768 132.862C25.9903 132.662 25.8648 132.482 25.7075 132.331C25.5502 132.181 25.3643 132.063 25.1609 131.986C24.9575 131.908 24.7406 131.873 24.5231 131.88C24.3055 131.873 24.0887 131.908 23.8852 131.986C23.6818 132.063 23.496 132.181 23.3387 132.331C23.1814 132.482 23.0558 132.662 22.9694 132.862C22.883 133.062 22.8375 133.277 22.8355 133.494C22.8372 133.712 22.8825 133.928 22.9688 134.128C23.055 134.328 23.1806 134.508 23.3379 134.659C23.4952 134.81 23.6812 134.927 23.8847 135.005C24.0883 135.083 24.3054 135.119 24.5231 135.111Z" fill="white"/>
<defs>
<filter id="filter0_d_11799_168755" x="0.5" y="8.11719" width="173.197" height="50.9102" filterUnits="userSpaceOnUse" color-interpolation-filters="sRGB">
<feFlood flood-opacity="0" result="BackgroundImageFix"/>
<feColorMatrix in="SourceAlpha" type="matrix" values="0 0 0 0 0 0 0 0 0 0 0 0 0 0 0 0 0 0 127 0" result="hardAlpha"/>
<feOffset dy="3"/>
<feGaussianBlur stdDeviation="3"/>
<feColorMatrix type="matrix" values="0 0 0 0 0 0 0 0 0 0 0 0 0 0 0 0 0 0 0.161 0"/>
<feBlend mode="normal" in2="BackgroundImageFix" result="effect1_dropShadow_11799_168755"/>
<feBlend mode="normal" in="SourceGraphic" in2="effect1_dropShadow_11799_168755" result="shape"/>
</filter>
<filter id="filter1_d_11799_168755" x="48.303" y="55.9141" width="173.197" height="50.9102" filterUnits="userSpaceOnUse" color-interpolation-filters="sRGB">
<feFlood flood-opacity="0" result="BackgroundImageFix"/>
<feColorMatrix in="SourceAlpha" type="matrix" values="0 0 0 0 0 0 0 0 0 0 0 0 0 0 0 0 0 0 127 0" result="hardAlpha"/>
<feOffset dy="3"/>
<feGaussianBlur stdDeviation="3"/>
<feColorMatrix type="matrix" values="0 0 0 0 0 0 0 0 0 0 0 0 0 0 0 0 0 0 0.161 0"/>
<feBlend mode="normal" in2="BackgroundImageFix" result="effect1_dropShadow_11799_168755"/>
<feBlend mode="normal" in="SourceGraphic" in2="effect1_dropShadow_11799_168755" result="shape"/>
</filter>
<filter id="filter2_d_11799_168755" x="0.5" y="103.723" width="173.197" height="50.9102" filterUnits="userSpaceOnUse" color-interpolation-filters="sRGB">
<feFlood flood-opacity="0" result="BackgroundImageFix"/>
<feColorMatrix in="SourceAlpha" type="matrix" values="0 0 0 0 0 0 0 0 0 0 0 0 0 0 0 0 0 0 127 0" result="hardAlpha"/>
<feOffset dy="3"/>
<feGaussianBlur stdDeviation="3"/>
<feColorMatrix type="matrix" values="0 0 0 0 0 0 0 0 0 0 0 0 0 0 0 0 0 0 0.161 0"/>
<feBlend mode="normal" in2="BackgroundImageFix" result="effect1_dropShadow_11799_168755"/>
<feBlend mode="normal" in="SourceGraphic" in2="effect1_dropShadow_11799_168755" result="shape"/>
</filter>
</defs>
</svg>
