<svg width="290" height="261" viewBox="0 0 290 261" fill="none" xmlns="http://www.w3.org/2000/svg">
<path d="M263.53 65.7132C244.424 65.7132 233.751 84.6391 238.099 98.7021L191.323 145.491C187.37 144.308 181.572 144.308 177.619 145.491L144.019 111.977C148.499 97.9136 137.826 78.8562 118.588 78.8562C99.4825 78.8562 88.6778 97.7821 93.1578 111.977L33.073 171.777C18.9741 167.44 0 178.086 0 197.143C0 211.601 11.8588 223.429 26.353 223.429C45.4589 223.429 56.1318 204.503 51.7836 190.44L111.737 130.508C115.69 131.691 121.487 131.691 125.44 130.508L159.04 164.023C154.56 178.086 165.233 197.143 184.471 197.143C203.577 197.143 214.381 178.217 209.901 164.023L256.81 117.365C270.909 121.702 289.883 111.057 289.883 91.9992C289.883 77.5419 278.024 65.7132 263.53 65.7132Z" fill="#F5F5F5"/>
<path d="M184.471 78.8581L196.857 51.6521L224 39.4291L196.857 27.2061L184.471 0L172.348 27.2061L144.941 39.4291L172.348 51.6521L184.471 78.8581Z" fill="#F5F5F5"/>
<path d="M32.9412 105.143L39.5295 78.857L65.8824 72.2854L39.5295 65.7139L32.9412 39.4279L26.353 65.7139L0 72.2854L26.353 78.857L32.9412 105.143Z" fill="#F5F5F5"/>
<path d="M237.416 208.435H230.563L228.134 206.1C238.544 193.992 243.923 177.474 240.973 159.918C236.896 135.876 216.769 116.676 192.478 113.736C155.781 109.239 124.896 140.027 129.407 176.609C132.357 200.824 151.616 220.888 175.734 224.953C193.345 227.894 209.915 222.532 222.061 212.154L224.403 214.575V221.407L261.274 258.163C264.83 261.708 270.643 261.708 274.2 258.163C277.757 254.617 277.757 248.822 274.2 245.277L237.416 208.435ZM185.364 208.435C163.762 208.435 146.324 191.052 146.324 169.518C146.324 147.983 163.762 130.6 185.364 130.6C206.966 130.6 224.403 147.983 224.403 169.518C224.403 191.052 206.966 208.435 185.364 208.435Z" fill="#D8E6D6"/>
</svg>
