<svg width="24" height="25" viewBox="0 0 24 25" fill="none" xmlns="http://www.w3.org/2000/svg">
<path d="M7.15631 18.9688C9.03253 18.9688 10.69 19.4168 12.0368 20.0027C13.2799 20.5541 14.0626 21.7947 14.0626 23.1388V23.8511C14.0626 24.4829 13.5447 24.9998 12.9116 24.9998H1.40105C0.767973 24.9998 0.25 24.4829 0.25 23.8511V23.1503C0.25 21.7947 1.03272 20.5541 2.27585 20.0141C3.62258 19.4168 5.2801 18.9688 7.15631 18.9688ZM16.3647 19.2559C17.6309 19.2559 18.6668 18.222 18.6668 16.9584C18.6668 15.6947 17.6309 14.6608 16.3647 14.6608C15.0986 14.6608 14.0626 15.6947 14.0626 16.9584C14.0626 18.222 15.0986 19.2559 16.3647 19.2559ZM20.9689 23.1963C20.9689 22.2657 20.4164 21.4386 19.5647 21.071C18.5863 20.646 17.5043 20.4047 16.3647 20.4047C15.9158 20.4047 15.4899 20.4507 15.064 20.5196C15.5245 21.3008 15.7892 22.1968 15.7892 23.1503V24.9998H19.8179C20.451 24.9998 20.9689 24.4829 20.9689 23.8511V23.1963ZM7.15631 11.2145C9.06706 11.2145 10.6095 12.7539 10.6095 14.6608C10.6095 16.5678 9.06706 18.1072 7.15631 18.1072C5.24557 18.1072 3.70316 16.5678 3.70316 14.6608C3.70316 12.7539 5.24557 11.2145 7.15631 11.2145Z" fill="#91B18E"/>
<path fill-rule="evenodd" clip-rule="evenodd" d="M17.9973 12.3633C21.1759 12.3633 23.7526 9.79165 23.7526 6.61938C23.7526 3.44712 21.1759 0.875488 17.9973 0.875488C14.8188 0.875488 12.2421 3.44712 12.2421 6.61938C12.2421 8.49604 13.1438 10.1625 14.5385 11.2107L11.7605 12.7886L17.9015 12.3625C17.9334 12.363 17.9653 12.3633 17.9973 12.3633Z" fill="#F4DFC2"/>
<path d="M19.4338 8.02601H19.1671L19.0725 7.93509C19.4776 7.46368 19.6869 6.82053 19.5722 6.13698C19.4135 5.20089 18.6303 4.45336 17.685 4.33887C16.257 4.16377 15.0552 5.36251 15.2308 6.78686C15.3455 7.72969 16.095 8.51089 17.0335 8.66915C17.7188 8.78364 18.3636 8.57487 18.8362 8.1708L18.9274 8.26508V8.5311L20.3621 9.96217C20.5005 10.1002 20.7267 10.1002 20.8651 9.96217C21.0035 9.82412 21.0035 9.59851 20.8651 9.46045L19.4338 8.02601ZM17.4082 8.02601C16.5676 8.02601 15.8891 7.34919 15.8891 6.51075C15.8891 5.6723 16.5676 4.99548 17.4082 4.99548C18.2488 4.99548 18.9274 5.6723 18.9274 6.51075C18.9274 7.34919 18.2488 8.02601 17.4082 8.02601Z" fill="#6E916B"/>
</svg>
