<svg width="346" height="350" viewBox="0 0 346 350" fill="none" xmlns="http://www.w3.org/2000/svg">
<g clip-path="url(#clip0_10011_121745)">
<rect width="346" height="350" rx="8" fill="#FCFCFC"/>
<path d="M304.5 196.859C305.484 196.859 306.281 196.062 306.281 195.078C306.281 194.094 305.484 193.297 304.5 193.297C303.516 193.297 302.719 194.094 302.719 195.078C302.719 196.062 303.516 196.859 304.5 196.859Z" fill="#49536E"/>
<path d="M107.677 217.085C38.7157 216.889 -66 177.762 -66 177.762V350H365V129C365 129 211.976 217.383 107.677 217.085Z" fill="#D8E6D6"/>
<path fill-rule="evenodd" clip-rule="evenodd" d="M139.143 179.731C139.143 177.543 140.902 175.769 143.071 175.769H205.929C208.098 175.769 209.857 177.543 209.857 179.731C209.857 181.919 208.098 183.692 205.929 183.692H143.071C140.902 183.692 139.143 181.919 139.143 179.731Z" fill="#6E916B"/>
<path fill-rule="evenodd" clip-rule="evenodd" d="M139.143 148.038C139.143 145.851 140.902 144.077 143.071 144.077H205.929C208.098 144.077 209.857 145.851 209.857 148.038C209.857 150.226 208.098 152 205.929 152H143.071C140.902 152 139.143 150.226 139.143 148.038Z" fill="#6E916B"/>
<path fill-rule="evenodd" clip-rule="evenodd" d="M103.786 72.7692C102.744 72.7692 101.745 73.1866 101.008 73.9295C100.271 74.6725 99.8571 75.6801 99.8571 76.7308V243.115C99.8571 244.166 100.271 245.174 101.008 245.917C101.745 246.66 102.744 247.077 103.786 247.077H245.214C246.256 247.077 247.255 246.66 247.992 245.917C248.729 245.174 249.143 244.166 249.143 243.115V76.7308C249.143 75.6801 248.729 74.6725 247.992 73.9295C247.255 73.1866 246.256 72.7692 245.214 72.7692H205.929C203.759 72.7692 202 70.9956 202 68.8077C202 66.6198 203.759 64.8462 205.929 64.8462H245.214C248.34 64.8462 251.338 66.0983 253.548 68.3271C255.758 70.5559 257 73.5788 257 76.7308V243.115C257 246.267 255.758 249.29 253.548 251.519C251.338 253.748 248.34 255 245.214 255H103.786C100.66 255 97.6622 253.748 95.452 251.519C93.2417 249.29 92 246.267 92 243.115V76.7308C92 73.5788 93.2417 70.5559 95.452 68.3271C97.6622 66.0983 100.66 64.8462 103.786 64.8462H143.071C145.241 64.8462 147 66.6198 147 68.8077C147 70.9956 145.241 72.7692 143.071 72.7692H103.786Z" fill="#6E916B"/>
<path fill-rule="evenodd" clip-rule="evenodd" d="M174.5 56.9231C165.123 56.9231 156.129 60.6795 149.499 67.3658C142.868 74.0522 139.143 83.1209 139.143 92.5769V96.5385H209.857V92.5769C209.857 83.1209 206.132 74.0522 199.501 67.3658C192.871 60.6795 183.877 56.9231 174.5 56.9231ZM143.943 61.7634C152.047 53.5911 163.039 49 174.5 49C185.961 49 196.953 53.5911 205.057 61.7634C213.161 69.9356 217.714 81.0196 217.714 92.5769V100.5C217.714 102.688 215.955 104.462 213.786 104.462H135.214C133.045 104.462 131.286 102.688 131.286 100.5V92.5769C131.286 81.0196 135.839 69.9356 143.943 61.7634Z" fill="#6E916B"/>
<circle cx="241" cy="246" r="39" fill="white"/>
<path fill-rule="evenodd" clip-rule="evenodd" d="M241.111 222.778C228.225 222.778 217.778 233.224 217.778 246.111C217.778 258.998 228.225 269.444 241.111 269.444C253.998 269.444 264.445 258.998 264.445 246.111C264.445 233.224 253.998 222.778 241.111 222.778ZM210 246.111C210 228.929 223.929 215 241.111 215C258.294 215 272.223 228.929 272.223 246.111C272.223 263.293 258.294 277.222 241.111 277.222C223.929 277.222 210 263.293 210 246.111Z" fill="#91B18E"/>
<path fill-rule="evenodd" clip-rule="evenodd" d="M257.611 262.611C259.13 261.093 261.592 261.093 263.111 262.611L278.861 278.361C280.38 279.88 280.38 282.342 278.861 283.861C277.342 285.38 274.88 285.38 273.361 283.861L257.611 268.111C256.092 266.592 256.092 264.13 257.611 262.611Z" fill="#91B18E"/>
</g>
<defs>
<clipPath id="clip0_10011_121745">
<rect width="346" height="350" rx="8" fill="white"/>
</clipPath>
</defs>
</svg>
