<svg width="804" height="657" viewBox="0 0 804 657" fill="none" xmlns="http://www.w3.org/2000/svg">
<g id="No Results">
<g id="circle">
<path id="Stroke 1" d="M28.7051 301.77V308.564" stroke="#91B18E" stroke-width="2.921" stroke-linecap="round"/>
<g id="Group 8">
<path id="Stroke 2" d="M13.4443 305.438L18.9962 311.153" stroke="#91B18E" stroke-width="2.921" stroke-linecap="round"/>
<path id="Stroke 4" d="M6.95215 320.648H14.8023" stroke="#91B18E" stroke-width="2.921" stroke-linecap="round"/>
<path id="Stroke 6" d="M12.8086 336.137L18.3604 330.422" stroke="#91B18E" stroke-width="2.921" stroke-linecap="round"/>
</g>
<path id="Stroke 9" d="M28.7051 338.001V331.207" stroke="#91B18E" stroke-width="2.921" stroke-linecap="round"/>
<path id="Stroke 10" d="M40.0285 333.475L35.499 328.945" stroke="#91B18E" stroke-width="2.921" stroke-linecap="round"/>
<path id="Stroke 11" d="M49.0872 322.148H42.293" stroke="#91B18E" stroke-width="2.921" stroke-linecap="round"/>
<path id="Stroke 12" d="M44.5578 306.293L40.0283 310.822" stroke="#91B18E" stroke-width="2.921" stroke-linecap="round"/>
<path id="Stroke 13" d="M393.328 5.08594V9.6154" stroke="#91B18E" stroke-width="2.921" stroke-linecap="round"/>
<path id="Stroke 15" d="M379.74 18.6797H384.27" stroke="#91B18E" stroke-width="2.921" stroke-linecap="round"/>
<path id="Stroke 16" d="M393.328 32.2677V27.7383" stroke="#91B18E" stroke-width="2.921" stroke-linecap="round"/>
<path id="Stroke 17" d="M404.652 18.6797H400.122" stroke="#91B18E" stroke-width="2.921" stroke-linecap="round"/>
<path id="Stroke 18" d="M130.62 195.328V202.122" stroke="#91B18E" stroke-width="2.921" stroke-linecap="round"/>
<path id="Stroke 19" d="M110.235 215.707H117.03" stroke="#91B18E" stroke-width="2.921" stroke-linecap="round"/>
<path id="Stroke 20" d="M130.62 233.822V227.027" stroke="#91B18E" stroke-width="2.921" stroke-linecap="round"/>
<path id="Stroke 21" d="M148.738 215.707H141.943" stroke="#91B18E" stroke-width="2.921" stroke-linecap="round"/>
<g id="Group 42">
<path id="Stroke 22" d="M618.107 442.266C623.52 442.266 627.909 446.656 627.909 452.07C627.909 457.486 623.52 461.874 618.107 461.874C612.695 461.874 608.306 457.486 608.306 452.07" stroke="#91B18E" stroke-width="2.921" stroke-linecap="round"/>
<path id="Fill 26" fill-rule="evenodd" clip-rule="evenodd" d="M662.965 353.318C668.785 351.502 677.706 344.385 679.771 336.727C681.643 343.496 689.494 351.502 696.577 352.108C688.604 354.931 680.98 363.318 679.771 369.907C678.948 363.191 668.404 354.297 662.965 353.318Z" fill="#EBECEE"/>
<path id="Fill 28" fill-rule="evenodd" clip-rule="evenodd" d="M65.5547 439.24C68.4656 438.332 72.9242 434.774 73.9567 430.945C74.893 434.328 78.8172 438.332 82.3587 438.636C78.3731 440.046 74.5624 444.24 73.9567 447.535C73.5453 444.177 68.2733 439.728 65.5547 439.24Z" fill="#EBECEE"/>
<path id="Fill 30" fill-rule="evenodd" clip-rule="evenodd" d="M119.574 124.204C119.574 128.404 116.17 131.806 111.973 131.806C107.774 131.806 104.373 128.404 104.373 124.204C104.373 120.006 107.774 116.602 111.973 116.602C116.17 116.602 119.574 120.006 119.574 124.204Z" fill="#D8E6D6"/>
<path id="Fill 32" fill-rule="evenodd" clip-rule="evenodd" d="M627.09 144.613C627.09 151.63 621.4 157.319 614.387 157.319C607.369 157.319 601.682 151.63 601.682 144.613C601.682 137.595 607.369 131.906 614.387 131.906C621.4 131.906 627.09 137.595 627.09 144.613Z" fill="#EBECEE"/>
<path id="Fill 34" fill-rule="evenodd" clip-rule="evenodd" d="M803.046 110.193C803.046 115.76 798.535 120.272 792.971 120.272C787.405 120.272 782.895 115.76 782.895 110.193C782.895 104.625 787.405 100.113 792.971 100.113C798.535 100.113 803.046 104.625 803.046 110.193Z" fill="#EBECEE"/>
<path id="Stroke 36" fill-rule="evenodd" clip-rule="evenodd" d="M261.618 580.924C261.618 584.434 258.774 587.279 255.266 587.279C251.759 587.279 248.915 584.434 248.915 580.924C248.915 577.415 251.759 574.57 255.266 574.57C258.774 574.57 261.618 577.415 261.618 580.924Z" stroke="#91B18E" stroke-width="2.921" stroke-linecap="round"/>
<path id="Stroke 38" fill-rule="evenodd" clip-rule="evenodd" d="M257.837 75.3601C257.837 79.5603 254.434 82.9623 250.237 82.9623C246.04 82.9623 242.637 79.5603 242.637 75.3601C242.637 71.1618 246.04 67.7578 250.237 67.7578C254.434 67.7578 257.837 71.1618 257.837 75.3601Z" stroke="#91B18E" stroke-width="2.921" stroke-linecap="round"/>
<path id="Stroke 40" fill-rule="evenodd" clip-rule="evenodd" d="M451.704 651.291C446.847 653.139 441.412 650.699 439.564 645.843C437.716 640.985 440.154 635.546 445.013 633.7C449.867 631.852 455.303 634.29 457.15 639.148C459 644.006 456.56 649.443 451.704 651.291Z" stroke="#91B18E" stroke-width="2.921" stroke-linecap="round"/>
</g>
</g>
<g id="search">
<g id="documents">
<path id="Fill 1" fill-rule="evenodd" clip-rule="evenodd" d="M448.81 471.626H263.092C250.02 471.626 239.32 460.895 239.32 447.779V182.936C239.32 169.82 250.02 159.094 263.092 159.094H448.81C461.887 159.094 472.587 169.82 472.587 182.936V447.779C472.587 460.895 461.887 471.626 448.81 471.626Z" fill="#D8E6D6"/>
<path id="Fill 3" fill-rule="evenodd" clip-rule="evenodd" d="M432.958 482.947H247.239C234.168 482.947 223.468 472.215 223.468 459.099V194.256C223.468 181.14 234.168 170.414 247.239 170.414H432.958C446.035 170.414 456.735 181.14 456.735 194.256V459.099C456.735 472.215 446.035 482.947 432.958 482.947Z" fill="#E8EBF2"/>
<path id="Fill 5" fill-rule="evenodd" clip-rule="evenodd" d="M417.538 491.895H231.436C218.337 491.895 207.615 481.208 207.615 468.146V204.399C207.615 191.338 218.337 180.656 231.436 180.656H417.538C430.642 180.656 441.364 191.338 441.364 204.399V468.146C441.364 481.208 430.642 491.895 417.538 491.895Z" fill="#D8DBEA"/>
<path id="Fill 8" fill-rule="evenodd" clip-rule="evenodd" d="M417.538 491.895H231.436C218.337 491.895 207.615 481.208 207.615 468.146V204.399C207.615 191.338 218.337 180.656 231.436 180.656H417.538C430.642 180.656 441.364 191.338 441.364 204.399V468.146C441.364 481.208 430.642 491.895 417.538 491.895Z" fill="#F1F2F7"/>
<path id="Fill 11" fill-rule="evenodd" clip-rule="evenodd" d="M390.712 261.006H253.253C249.328 261.006 246.114 257.949 246.114 254.215C246.114 250.475 249.328 247.418 253.253 247.418H390.712C394.638 247.418 397.851 250.475 397.851 254.215C397.851 257.949 394.638 261.006 390.712 261.006Z" fill="#E0E2EE"/>
<path id="Fill 13" fill-rule="evenodd" clip-rule="evenodd" d="M390.712 301.776H253.253C249.328 301.776 246.114 298.719 246.114 294.984C246.114 291.245 249.328 288.188 253.253 288.188H390.712C394.638 288.188 397.851 291.245 397.851 294.984C397.851 298.719 394.638 301.776 390.712 301.776Z" fill="#E0E2EE"/>
<path id="Fill 15" fill-rule="evenodd" clip-rule="evenodd" d="M390.712 342.534H253.253C249.328 342.534 246.114 339.477 246.114 335.742C246.114 332.007 249.328 328.945 253.253 328.945H390.712C394.638 328.945 397.851 332.007 397.851 335.742C397.851 339.477 394.638 342.534 390.712 342.534Z" fill="#E0E2EE"/>
<path id="Fill 17" fill-rule="evenodd" clip-rule="evenodd" d="M390.712 383.303H253.253C249.328 383.303 246.114 380.246 246.114 376.512C246.114 372.772 249.328 369.715 253.253 369.715H390.712C394.638 369.715 397.851 372.772 397.851 376.512C397.851 380.246 394.638 383.303 390.712 383.303Z" fill="#E0E2EE"/>
<path id="Fill 19" fill-rule="evenodd" clip-rule="evenodd" d="M325.005 424.073H253.284C249.341 424.073 246.114 421.016 246.114 417.281C246.114 413.541 249.341 410.484 253.284 410.484H325.005C328.947 410.484 332.174 413.541 332.174 417.281C332.174 421.016 328.947 424.073 325.005 424.073Z" fill="#E0E2EE"/>
</g>
<g id="search_2">
<path id="Fill 21" fill-rule="evenodd" clip-rule="evenodd" d="M469.77 371.374C442.284 398.855 399.732 401.955 368.839 380.738C364.891 377.977 361.133 374.877 357.629 371.374C355.825 369.576 354.125 367.72 352.522 365.767C349.318 361.865 346.511 357.705 344.211 353.406C340.16 346.145 337.405 338.44 335.9 330.477C331.047 305.502 338.304 278.619 357.629 259.303C377 239.93 403.887 232.721 428.866 237.527C436.826 239.077 444.537 241.831 451.799 245.836C456.105 248.187 460.208 250.994 464.116 254.198C466.064 255.794 467.92 257.5 469.718 259.303C473.228 262.807 476.375 266.558 479.084 270.511C500.311 301.393 497.205 343.944 469.77 371.374Z" fill="white" fill-opacity="0.1"/>
<path id="Fill 23" fill-rule="evenodd" clip-rule="evenodd" d="M462.08 365.97C433.484 394.571 387.142 394.566 358.541 365.97C329.977 337.406 329.977 291.059 358.578 262.463C387.142 233.9 433.484 233.9 462.048 262.463C490.643 291.059 490.643 337.406 462.08 365.97ZM476.755 247.771C440.05 211.066 380.57 211.066 343.865 247.771C307.165 284.471 307.133 343.988 343.833 380.693C377.239 414.089 429.599 417.101 466.427 389.681C470.024 386.999 473.488 383.992 476.792 380.693C480.092 377.389 483.098 373.925 485.775 370.328C513.194 333.495 510.156 281.172 476.755 247.771Z" fill="#E0E2EE"/>
<path id="Fill 25" fill-rule="evenodd" clip-rule="evenodd" d="M621.207 519.054L619.665 520.595C609.471 530.795 592.776 530.795 582.576 520.595L488.443 426.462L527.074 387.832L621.207 481.965C631.407 492.165 631.407 508.854 621.207 519.054Z" fill="#D8E6D6"/>
<path id="Fill 27" fill-rule="evenodd" clip-rule="evenodd" d="M487.804 367.441L515.621 395.258L495.873 415.001L468.062 387.184C471.732 384.447 475.261 381.38 478.639 378.013C482.005 374.647 485.073 371.112 487.804 367.441Z" fill="#E0E2EE"/>
<path id="Fill 29" fill-rule="evenodd" clip-rule="evenodd" d="M619.798 480.798L581.413 519.177L574.503 512.262L612.882 473.883L619.798 480.798Z" fill="#6E916B"/>
<path id="Fill 31" fill-rule="evenodd" clip-rule="evenodd" d="M529.209 389.155L489.773 428.591L483.914 422.733L523.35 383.297L529.209 389.155Z" fill="#91B18E"/>
<path id="Fill 33" fill-rule="evenodd" clip-rule="evenodd" d="M443.148 252.615L346.436 349.322C342.794 342.794 340.318 335.868 338.971 328.708L422.533 245.145C429.688 246.543 436.62 249.014 443.148 252.615Z" fill="white" fill-opacity="0.5"/>
<path id="Fill 35" fill-rule="evenodd" clip-rule="evenodd" d="M474.854 275.604L370.298 374.236C366.554 371.772 362.99 368.997 359.666 365.862C357.955 364.248 356.337 362.593 354.823 360.844L460.653 261C462.506 262.434 464.266 263.96 465.971 265.574C469.295 268.709 472.285 272.066 474.854 275.604Z" fill="white" fill-opacity="0.5"/>
</g>
</g>
</g>
</svg>
