<svg width="191" height="162" viewBox="0 0 191 162" fill="none" xmlns="http://www.w3.org/2000/svg">
<g filter="url(#filter0_dd_10_5027)">
<path d="M164.766 4.89537L33.6573 4.1491C27.6232 4.11476 22.7038 8.96505 22.6696 14.9825L21.9253 145.73C21.8911 151.747 26.755 156.653 32.7891 156.688L163.898 157.434C169.932 157.468 174.852 152.618 174.886 146.601L175.63 15.8532C175.664 9.83569 170.801 4.92971 164.766 4.89537Z" fill="#FCFCFC"/>
</g>
<g filter="url(#filter1_d_10_5027)">
<path d="M114.98 14.425L11.2225 13.8344C9.10014 13.8223 7.36576 16.2516 7.34863 19.2603L7.19359 46.4994C7.17646 49.5081 8.88308 51.957 11.0054 51.969L114.762 52.5596C116.885 52.5717 118.619 50.1424 118.636 47.1337L118.791 19.8946C118.808 16.8859 117.102 14.437 114.98 14.425Z" fill="white"/>
</g>
<path d="M82.7178 22.9538L54.3108 22.7921C52.5006 22.7818 51.0248 24.2369 51.0145 26.0421C51.0042 27.8474 52.4634 29.3192 54.2736 29.3295L82.6806 29.4912C84.4908 29.5015 85.9666 28.0464 85.9769 26.2411C85.9872 24.4359 84.528 22.9641 82.7178 22.9538Z" fill="#D8E6D6"/>
<path d="M102.304 37.2288L54.2302 36.9552C52.42 36.9449 50.9442 38.4 50.9339 40.2052C50.9236 42.0105 52.3828 43.4822 54.193 43.4926L102.266 43.7662C104.077 43.7765 105.552 42.3214 105.563 40.5162C105.573 38.7109 104.114 37.2391 102.304 37.2288Z" fill="#F5F5F5"/>
<g filter="url(#filter2_d_10_5027)">
<path d="M180.286 58.3761L76.529 57.7855C74.4067 57.7735 72.6723 60.2027 72.6551 63.2115L72.5001 90.4505C72.483 93.4593 74.1896 95.9081 76.312 95.9202L180.069 96.5108C182.191 96.5229 183.926 94.0936 183.943 91.0849L184.098 63.8458C184.115 60.8371 182.408 58.3882 180.286 58.3761Z" fill="white"/>
</g>
<path d="M148.024 66.9079L119.617 66.7462C117.807 66.7359 116.331 68.191 116.321 69.9962C116.311 71.8015 117.77 73.2733 119.58 73.2836L147.987 73.4453C149.797 73.4556 151.273 72.0005 151.284 70.1952C151.294 68.39 149.835 66.9182 148.024 66.9079Z" fill="#D8E6D6"/>
<path d="M167.61 81.1829L119.537 80.9093C117.727 80.899 116.251 82.3541 116.241 84.1593C116.23 85.9646 117.689 87.4363 119.5 87.4467L167.573 87.7203C169.383 87.7306 170.859 86.2755 170.869 84.4703C170.88 82.665 169.42 81.1932 167.61 81.1829Z" fill="#F5F5F5"/>
<path d="M36.8607 17.243L16.1018 17.1248C13.0847 17.1077 10.625 19.5328 10.6079 22.5416L10.4901 43.2432C10.4729 46.252 12.9049 48.705 15.9219 48.7221L36.6809 48.8403C39.6979 48.8575 42.1576 46.4323 42.1748 43.4236L42.2926 22.7219C42.3097 19.7132 39.8778 17.2602 36.8607 17.243Z" fill="#6E916B"/>
<path d="M23.882 36.5442L26.0672 36.5566L26.096 35.7178C26.1022 34.6152 26.8009 34.3315 27.7882 34.0255C28.7784 33.7507 29.6519 33.1619 30.2767 32.348C30.9015 31.5342 31.2436 30.5396 31.2512 29.5147C31.2765 28.889 31.1711 28.2649 30.942 27.6819C30.7128 27.099 30.3648 26.5698 29.9199 26.1278C29.4751 25.6859 28.9431 25.3409 28.3576 25.1147C27.7721 24.8884 27.1459 24.7858 26.5186 24.8134C25.8559 24.7952 25.1965 24.9114 24.5802 25.155C23.964 25.3986 23.4038 25.7646 22.9336 26.2306C22.4634 26.6966 22.0931 27.253 21.845 27.866C21.5969 28.479 21.4763 29.136 21.4904 29.7969L23.7499 29.8097C23.7434 29.4448 23.81 29.0823 23.9458 28.7434C24.0816 28.4045 24.2839 28.096 24.5408 27.836C24.7977 27.5761 25.104 27.3699 25.4419 27.2295C25.7797 27.0892 26.1422 27.0175 26.5082 27.0186C26.8384 27.0014 27.1684 27.0553 27.4758 27.1766C27.7832 27.2979 28.0608 27.4838 28.2898 27.7216C28.5188 27.9594 28.6937 28.2436 28.8028 28.5549C28.9118 28.8661 28.9524 29.1971 28.9217 29.5254C28.9042 30.0569 28.7159 30.5687 28.3846 30.9854C28.0533 31.4022 27.5966 31.7018 27.0817 31.8401L26.2867 32.1494C25.5091 32.3316 24.8284 32.7983 24.3795 33.4573C23.9305 34.1162 23.7461 34.9192 23.8627 35.7073L23.882 36.5442ZM24.9342 41.7301C25.1481 41.7389 25.3616 41.7049 25.5621 41.63C25.7626 41.5551 25.946 41.4408 26.1015 41.294C26.2569 41.1472 26.3813 40.9708 26.4672 40.7752C26.5532 40.5796 26.5989 40.3689 26.6017 40.1554C26.601 39.942 26.5575 39.731 26.4737 39.5347C26.3898 39.3384 26.2674 39.1609 26.1137 39.0125C25.9599 38.8642 25.778 38.7481 25.5785 38.671C25.379 38.5939 25.166 38.5575 24.9522 38.5639C24.7384 38.5551 24.5251 38.5891 24.3247 38.6639C24.1244 38.7386 23.9411 38.8527 23.7857 38.9993C23.6302 39.1458 23.5058 39.322 23.4198 39.5173C23.3337 39.7126 23.2878 39.9232 23.2847 40.1365C23.2851 40.35 23.3284 40.5613 23.4121 40.7578C23.4958 40.9544 23.6181 41.1322 23.7719 41.2807C23.9257 41.4293 24.1078 41.5456 24.3074 41.6228C24.507 41.7 24.7202 41.7365 24.9342 41.7301Z" fill="white"/>
<path d="M102.167 61.1942L81.4083 61.076C78.3912 61.0588 75.9316 63.484 75.9144 66.4927L75.7966 87.1944C75.7795 90.2031 78.2114 92.6561 81.2285 92.6733L101.987 92.7915C105.004 92.8086 107.464 90.3835 107.481 87.3748L107.599 66.6731C107.616 63.6643 105.184 61.2113 102.167 61.1942Z" fill="#6E916B"/>
<path d="M89.1885 80.4954L91.3737 80.5078L91.4025 79.669C91.4088 78.5664 92.1075 78.2827 93.0947 77.9767C94.0849 77.7019 94.9584 77.113 95.5832 76.2992C96.208 75.4854 96.5501 74.4908 96.5578 73.4658C96.583 72.8402 96.4777 72.2161 96.2485 71.6331C96.0193 71.0501 95.6713 70.5209 95.2264 70.079C94.7816 69.6371 94.2496 69.2921 93.6641 69.0658C93.0786 68.8396 92.4524 68.737 91.8251 68.7645C91.1625 68.7464 90.503 68.8626 89.8867 69.1062C89.2705 69.3498 88.7103 69.7157 88.2401 70.1817C87.7699 70.6477 87.3996 71.2041 87.1515 71.8172C86.9034 72.4302 86.7828 73.0871 86.797 73.7481L89.0564 73.7609C89.0499 73.396 89.1165 73.0335 89.2523 72.6945C89.3881 72.3556 89.5904 72.0471 89.8473 71.7872C90.1042 71.5273 90.4105 71.3211 90.7484 71.1807C91.0862 71.0403 91.4488 70.9686 91.8147 70.9698C92.1449 70.9526 92.4749 71.0065 92.7823 71.1278C93.0897 71.2491 93.3674 71.435 93.5963 71.6728C93.8253 71.9106 94.0003 72.1948 94.1093 72.506C94.2183 72.8173 94.2589 73.1483 94.2283 73.4766C94.2107 74.0081 94.0224 74.5199 93.6911 74.9366C93.3599 75.3533 92.9031 75.6529 92.3882 75.7913L91.5932 76.1006C90.8156 76.2827 90.1349 76.7495 89.686 77.4084C89.2371 78.0673 89.0526 78.8704 89.1692 79.6585L89.1885 80.4954ZM90.2407 85.6813C90.4546 85.6901 90.6681 85.656 90.8686 85.5811C91.0691 85.5062 91.2525 85.392 91.408 85.2452C91.5635 85.0984 91.6878 84.9219 91.7738 84.7264C91.8597 84.5308 91.9054 84.32 91.9082 84.1065C91.9075 83.8932 91.864 83.6822 91.7802 83.4859C91.6964 83.2896 91.574 83.112 91.4202 82.9637C91.2665 82.8153 91.0845 82.6992 90.885 82.6222C90.6855 82.5451 90.4725 82.5087 90.2587 82.515C90.045 82.5063 89.8316 82.5403 89.6313 82.615C89.4309 82.6898 89.2476 82.8039 89.0922 82.9504C88.9367 83.097 88.8123 83.2732 88.7263 83.4685C88.6402 83.6638 88.5943 83.8743 88.5912 84.0877C88.5916 84.3012 88.6349 84.5124 88.7186 84.709C88.8023 84.9055 88.9246 85.0833 89.0784 85.2319C89.2322 85.3805 89.4143 85.4968 89.6139 85.574C89.8135 85.6512 90.0267 85.6877 90.2407 85.6813Z" fill="white"/>
<g filter="url(#filter3_d_10_5027)">
<path d="M12.3279 104.271L159.826 105.111C161.274 105.119 162.661 105.701 163.679 106.728C164.698 107.756 165.266 109.145 165.257 110.59L165.102 137.829C165.094 139.274 164.511 140.656 163.48 141.672C162.45 142.688 161.057 143.254 159.609 143.246L12.1108 142.406C10.662 142.398 9.27573 141.816 8.25705 140.788C7.23838 139.761 6.67072 138.372 6.67894 136.927L6.83398 109.688C6.84221 108.243 7.42564 106.861 8.45595 105.845C9.48625 104.829 10.879 104.263 12.3279 104.271V104.271Z" fill="white"/>
</g>
<path d="M82.2031 113.384L53.7962 113.223C51.9859 113.212 50.5101 114.668 50.4998 116.473C50.4896 118.278 51.9487 119.75 53.7589 119.76L82.1659 119.922C83.9762 119.932 85.452 118.477 85.4623 116.672C85.4725 114.867 84.0134 113.395 82.2031 113.384Z" fill="#D8E6D6"/>
<path d="M101.789 127.659L53.7156 127.386C51.9054 127.376 50.4295 128.831 50.4193 130.636C50.409 132.441 51.8681 133.913 53.6784 133.923L101.752 134.197C103.562 134.207 105.038 132.752 105.048 130.947C105.058 129.142 103.599 127.67 101.789 127.659Z" fill="#F5F5F5"/>
<path d="M36.346 107.681L15.587 107.562C12.57 107.545 10.1103 109.97 10.0931 112.979L9.9753 133.681C9.95818 136.689 12.3901 139.142 15.4072 139.16L36.1661 139.278C39.1832 139.295 41.6429 136.87 41.66 133.861L41.7778 113.159C41.795 110.151 39.363 107.698 36.346 107.681Z" fill="#6E916B"/>
<path d="M23.3672 126.982L25.5524 126.994L25.5812 126.155C25.5875 125.053 26.2862 124.769 27.2734 124.463C28.2636 124.188 29.1371 123.599 29.7619 122.786C30.3867 121.972 30.7288 120.977 30.7365 119.952C30.7617 119.327 30.6564 118.702 30.4272 118.119C30.198 117.536 29.85 117.007 29.4052 116.565C28.9603 116.123 28.4283 115.778 27.8428 115.552C27.2573 115.326 26.6311 115.223 26.0038 115.251C25.3412 115.233 24.6817 115.349 24.0655 115.593C23.4492 115.836 22.889 116.202 22.4188 116.668C21.9486 117.134 21.5783 117.69 21.3302 118.304C21.0821 118.917 20.9615 119.573 20.9757 120.234L23.2351 120.247C23.2286 119.882 23.2952 119.52 23.431 119.181C23.5668 118.842 23.7691 118.533 24.026 118.274C24.2829 118.014 24.5893 117.807 24.9271 117.667C25.2649 117.527 25.6275 117.455 25.9935 117.456C26.3236 117.439 26.6536 117.493 26.961 117.614C27.2684 117.735 27.5461 117.921 27.775 118.159C28.004 118.397 28.179 118.681 28.288 118.992C28.3971 119.304 28.4376 119.635 28.407 119.963C28.3894 120.494 28.2011 121.006 27.8698 121.423C27.5386 121.84 27.0818 122.139 26.5669 122.278L25.772 122.587C24.9943 122.769 24.3136 123.236 23.8647 123.895C23.4158 124.554 23.2314 125.357 23.348 126.145L23.3672 126.982ZM24.4194 132.168C24.6333 132.176 24.8469 132.142 25.0474 132.067C25.2479 131.993 25.4313 131.878 25.5867 131.731C25.7422 131.585 25.8665 131.408 25.9525 131.213C26.0384 131.017 26.0841 130.806 26.0869 130.593C26.0863 130.38 26.0427 130.168 25.9589 129.972C25.8751 129.776 25.7527 129.598 25.5989 129.45C25.4452 129.302 25.2632 129.186 25.0637 129.108C24.8642 129.031 24.6513 128.995 24.4374 129.001C24.2237 128.993 24.0103 129.027 23.81 129.101C23.6096 129.176 23.4263 129.29 23.2709 129.437C23.1155 129.583 22.991 129.759 22.905 129.955C22.8189 130.15 22.773 130.361 22.7699 130.574C22.7703 130.787 22.8136 130.999 22.8973 131.195C22.981 131.392 23.1033 131.57 23.2571 131.718C23.4109 131.867 23.593 131.983 23.7926 132.06C23.9923 132.138 24.2054 132.174 24.4194 132.168Z" fill="white"/>
<path fill-rule="evenodd" clip-rule="evenodd" d="M113.054 29.7725C111.445 29.7633 110.133 31.0603 110.124 32.6694C110.114 34.2785 111.411 35.5904 113.02 35.5995C114.63 35.6087 115.941 34.3117 115.951 32.7026C115.96 31.0935 114.663 29.7816 113.054 29.7725ZM107.793 32.6562C107.809 29.7598 110.171 27.4252 113.067 27.4417C115.963 27.4581 118.298 29.8195 118.281 32.7159C118.265 35.6122 115.904 37.9469 113.007 37.9304C110.111 37.9139 107.776 35.5525 107.793 32.6562Z" fill="#91B18E"/>
<path fill-rule="evenodd" clip-rule="evenodd" d="M135.056 12.1746C135.514 11.722 136.252 11.7262 136.704 12.1839L142.498 18.0442C142.951 18.5019 142.946 19.2398 142.489 19.6923L136.628 25.4862C136.171 25.9388 135.433 25.9346 134.98 25.4768C134.528 25.0191 134.532 24.2812 134.99 23.8287L140.021 18.8542L135.047 13.8227C134.594 13.365 134.598 12.6271 135.056 12.1746Z" fill="#91B18E"/>
<path fill-rule="evenodd" clip-rule="evenodd" d="M132.339 19.9759C130.794 19.9671 129.308 20.5726 128.209 21.6592C127.11 22.7457 126.488 24.2244 126.479 25.7698C126.467 27.9334 125.596 30.0035 124.057 31.5247C122.518 33.0459 120.438 33.8936 118.275 33.8813L117.109 33.8746C116.466 33.871 115.947 33.3462 115.951 32.7026C115.954 32.059 116.479 31.5402 117.123 31.5438L118.288 31.5504C119.834 31.5592 121.319 30.9538 122.418 29.8672C123.517 28.7806 124.14 27.302 124.148 25.7565C124.161 23.5929 125.032 21.5228 126.571 20.0016C128.109 18.4804 130.189 17.6328 132.353 17.6451L141.676 17.6982C142.32 17.7018 142.838 18.2266 142.835 18.8702C142.831 19.5138 142.306 20.0326 141.663 20.029L132.339 19.9759Z" fill="#91B18E"/>
<defs>
<filter id="filter0_dd_10_5027" x="17.9252" y="0.148438" width="161.705" height="161.286" filterUnits="userSpaceOnUse" color-interpolation-filters="sRGB">
<feFlood flood-opacity="0" result="BackgroundImageFix"/>
<feColorMatrix in="SourceAlpha" type="matrix" values="0 0 0 0 0 0 0 0 0 0 0 0 0 0 0 0 0 0 127 0" result="hardAlpha"/>
<feOffset dy="0.5"/>
<feGaussianBlur stdDeviation="1"/>
<feColorMatrix type="matrix" values="0 0 0 0 0.376471 0 0 0 0 0.380392 0 0 0 0 0.439216 0 0 0 0.16 0"/>
<feBlend mode="normal" in2="BackgroundImageFix" result="effect1_dropShadow_10_5027"/>
<feColorMatrix in="SourceAlpha" type="matrix" values="0 0 0 0 0 0 0 0 0 0 0 0 0 0 0 0 0 0 127 0" result="hardAlpha"/>
<feOffset/>
<feGaussianBlur stdDeviation="2"/>
<feColorMatrix type="matrix" values="0 0 0 0 0.156863 0 0 0 0 0.160784 0 0 0 0 0.239216 0 0 0 0.1 0"/>
<feBlend mode="normal" in2="effect1_dropShadow_10_5027" result="effect2_dropShadow_10_5027"/>
<feBlend mode="normal" in="SourceGraphic" in2="effect2_dropShadow_10_5027" result="shape"/>
</filter>
<filter id="filter1_d_10_5027" x="1.19348" y="10.834" width="123.598" height="50.7256" filterUnits="userSpaceOnUse" color-interpolation-filters="sRGB">
<feFlood flood-opacity="0" result="BackgroundImageFix"/>
<feColorMatrix in="SourceAlpha" type="matrix" values="0 0 0 0 0 0 0 0 0 0 0 0 0 0 0 0 0 0 127 0" result="hardAlpha"/>
<feOffset dy="3"/>
<feGaussianBlur stdDeviation="3"/>
<feColorMatrix type="matrix" values="0 0 0 0 0 0 0 0 0 0 0 0 0 0 0 0 0 0 0.161 0"/>
<feBlend mode="normal" in2="BackgroundImageFix" result="effect1_dropShadow_10_5027"/>
<feBlend mode="normal" in="SourceGraphic" in2="effect1_dropShadow_10_5027" result="shape"/>
</filter>
<filter id="filter2_d_10_5027" x="66.5" y="54.7852" width="123.598" height="50.7256" filterUnits="userSpaceOnUse" color-interpolation-filters="sRGB">
<feFlood flood-opacity="0" result="BackgroundImageFix"/>
<feColorMatrix in="SourceAlpha" type="matrix" values="0 0 0 0 0 0 0 0 0 0 0 0 0 0 0 0 0 0 127 0" result="hardAlpha"/>
<feOffset dy="3"/>
<feGaussianBlur stdDeviation="3"/>
<feColorMatrix type="matrix" values="0 0 0 0 0 0 0 0 0 0 0 0 0 0 0 0 0 0 0.161 0"/>
<feBlend mode="normal" in2="BackgroundImageFix" result="effect1_dropShadow_10_5027"/>
<feBlend mode="normal" in="SourceGraphic" in2="effect1_dropShadow_10_5027" result="shape"/>
</filter>
<filter id="filter3_d_10_5027" x="0.678833" y="101.271" width="170.579" height="50.9746" filterUnits="userSpaceOnUse" color-interpolation-filters="sRGB">
<feFlood flood-opacity="0" result="BackgroundImageFix"/>
<feColorMatrix in="SourceAlpha" type="matrix" values="0 0 0 0 0 0 0 0 0 0 0 0 0 0 0 0 0 0 127 0" result="hardAlpha"/>
<feOffset dy="3"/>
<feGaussianBlur stdDeviation="3"/>
<feColorMatrix type="matrix" values="0 0 0 0 0 0 0 0 0 0 0 0 0 0 0 0 0 0 0.161 0"/>
<feBlend mode="normal" in2="BackgroundImageFix" result="effect1_dropShadow_10_5027"/>
<feBlend mode="normal" in="SourceGraphic" in2="effect1_dropShadow_10_5027" result="shape"/>
</filter>
</defs>
</svg>
