<svg xmlns="http://www.w3.org/2000/svg" width="227" height="186" viewBox="0 0 227 186" fill="none">
  <path d="M8.45801 85.2461L8.44713 87.1578" stroke="#91B18E" stroke-width="2.921" stroke-linecap="round"/>
  <path d="M4.15723 86.2539L5.71019 87.8709" stroke="#91B18E" stroke-width="2.921" stroke-linecap="round"/>
  <path d="M2.30566 90.5234L4.51447 90.536" stroke="#91B18E" stroke-width="2.921" stroke-linecap="round"/>
  <path d="M3.92835 94.8893L5.49961 93.2901" stroke="#91B18E" stroke-width="2.921" stroke-linecap="round"/>
  <path d="M8.40025 95.439L8.41113 93.5273" stroke="#91B18E" stroke-width="2.921" stroke-linecap="round"/>
  <path d="M11.5934 94.184L10.3262 92.9023" stroke="#91B18E" stroke-width="2.921" stroke-linecap="round"/>
  <path d="M14.1597 91.0148L12.248 91.0039" stroke="#91B18E" stroke-width="2.921" stroke-linecap="round"/>
  <path d="M12.9112 86.5463L11.6295 87.8135" stroke="#91B18E" stroke-width="2.921" stroke-linecap="round"/>
  <path d="M111.526 2.35156L111.519 3.62601" stroke="#91B18E" stroke-width="2.921" stroke-linecap="round"/>
  <path d="M107.681 6.15625L108.955 6.1635" stroke="#91B18E" stroke-width="2.921" stroke-linecap="round"/>
  <path d="M111.483 9.99711L111.49 8.72266" stroke="#91B18E" stroke-width="2.921" stroke-linecap="round"/>
  <path d="M114.69 6.19085L113.416 6.18359" stroke="#91B18E" stroke-width="2.921" stroke-linecap="round"/>
  <path d="M37.3037 55.457L37.2928 57.3687" stroke="#91B18E" stroke-width="2.921" stroke-linecap="round"/>
  <path d="M31.5361 61.1602L33.4478 61.171" stroke="#91B18E" stroke-width="2.921" stroke-linecap="round"/>
  <path d="M37.242 66.2906L37.2529 64.3789" stroke="#91B18E" stroke-width="2.921" stroke-linecap="round"/>
  <path d="M42.3687 61.2218L40.457 61.2109" stroke="#91B18E" stroke-width="2.921" stroke-linecap="round"/>
  <path d="M174.072 125.719C175.595 125.727 176.823 126.97 176.815 128.493C176.806 130.017 175.564 131.245 174.041 131.236C172.518 131.227 171.29 129.986 171.299 128.462" stroke="#91B18E" stroke-width="2.921" stroke-linecap="round"/>
  <path fill-rule="evenodd" clip-rule="evenodd" d="M186.836 100.762C188.476 100.26 190.998 98.2721 191.591 96.1207C192.107 98.0284 194.303 100.294 196.295 100.475C194.047 101.257 191.889 103.605 191.538 105.457C191.317 103.566 188.365 101.046 186.836 100.762Z" fill="#EBECEE"/>
  <path fill-rule="evenodd" clip-rule="evenodd" d="M18.6049 123.986C19.4254 123.735 20.6856 122.742 20.9822 121.666C21.2403 122.619 22.338 123.752 23.334 123.843C22.2103 124.233 21.1314 125.408 20.9557 126.333C20.8453 125.388 19.369 124.128 18.6049 123.986Z" fill="#EBECEE"/>
  <path fill-rule="evenodd" clip-rule="evenodd" d="M34.3097 35.429C34.303 36.6108 33.34 37.5626 32.1591 37.5559C30.9776 37.5492 30.026 36.5865 30.0327 35.4047C30.0395 34.2234 31.0019 33.2711 32.1834 33.2778C33.3644 33.2845 34.3164 34.2477 34.3097 35.429Z" fill="#D8E6D6"/>
  <path fill-rule="evenodd" clip-rule="evenodd" d="M177.076 41.9831C177.065 43.9576 175.455 45.5491 173.481 45.5379C171.507 45.5266 169.916 43.9169 169.927 41.9424C169.938 39.9678 171.547 38.3763 173.522 38.3875C175.496 38.3988 177.087 40.0085 177.076 41.9831Z" fill="#EBECEE"/>
  <path fill-rule="evenodd" clip-rule="evenodd" d="M226.64 32.5792C226.631 34.1458 225.355 35.408 223.789 35.3991C222.223 35.3902 220.961 34.1135 220.97 32.5469C220.979 30.9804 222.255 29.7182 223.822 29.7271C225.387 29.736 226.649 31.0127 226.64 32.5792Z" fill="#EBECEE"/>
  <path fill-rule="evenodd" clip-rule="evenodd" d="M73.5445 164.164C73.5389 165.151 72.7342 165.947 71.747 165.941C70.7602 165.936 69.9647 165.131 69.9703 164.143C69.9759 163.156 70.7806 162.36 71.7673 162.366C72.7546 162.371 73.5502 163.176 73.5445 164.164Z" stroke="#91B18E" stroke-width="2.921" stroke-linecap="round"/>
  <path fill-rule="evenodd" clip-rule="evenodd" d="M73.2912 21.9095C73.2844 23.0913 72.3215 24.0431 71.1405 24.0364C69.9595 24.0296 69.0075 23.0669 69.0142 21.8851C69.0209 20.7039 69.9839 19.7515 71.1649 19.7583C72.3458 19.765 73.2979 20.7282 73.2912 21.9095Z" stroke="#91B18E" stroke-width="2.921" stroke-linecap="round"/>
  <path fill-rule="evenodd" clip-rule="evenodd" d="M126.917 184.269C125.547 184.781 124.022 184.086 123.51 182.716C122.998 181.347 123.692 179.82 125.062 179.309C126.431 178.796 127.957 179.491 128.469 180.861C128.981 182.231 128.286 183.757 126.917 184.269Z" stroke="#91B18E" stroke-width="2.921" stroke-linecap="round"/>
  <path fill-rule="evenodd" clip-rule="evenodd" d="M126.391 133.714L74.1354 133.417C70.4574 133.396 67.4639 130.359 67.4849 126.669L67.9091 52.1498C67.9301 48.4594 70.9579 45.4585 74.6359 45.4795L126.891 45.7769C130.571 45.7979 133.564 48.833 133.543 52.5234L133.119 127.042C133.098 130.733 130.07 133.735 126.391 133.714Z" fill="#D8E6D6"/>
  <path fill-rule="evenodd" clip-rule="evenodd" d="M121.912 136.878L69.6568 136.581C65.9789 136.56 62.9854 133.523 63.0064 129.833L63.4306 55.3138C63.4516 51.6235 66.4794 48.6226 70.1574 48.6435L122.413 48.941C126.092 48.9619 129.086 51.9971 129.065 55.6874L128.641 130.206C128.62 133.897 125.592 136.899 121.912 136.878Z" fill="#E8EBF2"/>
  <path fill-rule="evenodd" clip-rule="evenodd" d="M117.56 139.37L65.1962 139.072C61.5106 139.051 58.5108 136.027 58.5318 132.352L58.9542 58.1415C58.9751 54.4665 62.009 51.4781 65.6946 51.4991L118.058 51.7971C121.745 51.8181 124.745 54.8408 124.724 58.5159L124.302 132.726C124.281 136.401 121.247 139.391 117.56 139.37Z" fill="#D8DBEA"/>
  <path fill-rule="evenodd" clip-rule="evenodd" d="M117.56 139.37L65.1962 139.072C61.5106 139.051 58.5108 136.027 58.5318 132.352L58.9542 58.1415C58.9751 54.4665 62.009 51.4781 65.6946 51.4991L118.058 51.7971C121.745 51.8181 124.745 54.8408 124.724 58.5159L124.302 132.726C124.281 136.401 121.247 139.391 117.56 139.37Z" fill="#F1F2F7"/>
  <path fill-rule="evenodd" clip-rule="evenodd" d="M110.381 74.3635L71.7047 74.1434C70.6001 74.1371 69.7009 73.2718 69.7069 72.221C69.7129 71.1687 70.6219 70.3137 71.7264 70.32L110.403 70.5402C111.508 70.5465 112.407 71.4118 112.401 72.464C112.395 73.5148 111.486 74.3698 110.381 74.3635Z" fill="#E0E2EE"/>
  <path fill-rule="evenodd" clip-rule="evenodd" d="M110.316 85.8284L71.6392 85.6082C70.5347 85.6019 69.6355 84.7366 69.6415 83.6858C69.6474 82.6336 70.5565 81.7786 71.661 81.7849L110.338 82.005C111.442 82.0113 112.342 82.8766 112.336 83.9288C112.33 84.9797 111.421 85.8347 110.316 85.8284Z" fill="#E0E2EE"/>
  <path fill-rule="evenodd" clip-rule="evenodd" d="M110.251 97.301L71.5738 97.0809C70.4693 97.0746 69.57 96.2093 69.576 95.1585C69.582 94.1077 70.491 93.2512 71.5956 93.2575L110.272 93.4777C111.377 93.484 112.276 94.3507 112.27 95.4015C112.264 96.4523 111.355 97.3073 110.251 97.301Z" fill="#E0E2EE"/>
  <path fill-rule="evenodd" clip-rule="evenodd" d="M110.185 108.77L71.5084 108.55C70.4038 108.543 69.5046 107.678 69.5106 106.627C69.5166 105.575 70.4256 104.72 71.5301 104.726L110.207 104.946C111.311 104.953 112.211 105.818 112.205 106.87C112.199 107.921 111.29 108.776 110.185 108.77Z" fill="#E0E2EE"/>
  <path fill-rule="evenodd" clip-rule="evenodd" d="M91.6326 120.137L71.4525 120.022C70.3433 120.016 69.4402 119.151 69.4461 118.1C69.4521 117.048 70.365 116.193 71.4743 116.199L91.6543 116.314C92.7636 116.32 93.6667 117.185 93.6607 118.238C93.6547 119.289 92.7418 120.144 91.6326 120.137Z" fill="#E0E2EE"/>
  <path fill-rule="evenodd" clip-rule="evenodd" d="M132.448 105.54C124.67 113.229 112.692 114.033 104.034 108.013C102.927 107.23 101.875 106.352 100.895 105.361C100.39 104.852 99.9144 104.327 99.4667 103.775C98.5713 102.672 97.7882 101.497 97.148 100.284C96.0196 98.2342 95.2568 96.062 94.8463 93.8188C93.5208 86.7838 95.6055 79.2316 101.074 73.8276C106.555 68.4074 114.132 66.4221 121.153 67.8144C123.39 68.2633 125.555 69.0507 127.592 70.1892C128.8 70.8576 129.95 71.6538 131.044 72.5616C131.59 73.0138 132.109 73.4967 132.612 74.0071C133.594 74.9985 134.474 76.0591 135.23 77.1757C141.153 85.8989 140.211 97.8663 132.448 105.54Z" fill="white" fill-opacity="0.1"/>
  <path fill-rule="evenodd" clip-rule="evenodd" d="M130.293 104.007C122.201 112.009 109.162 111.933 101.16 103.841C93.1688 95.7583 93.243 82.7176 101.336 74.7174C109.419 66.7262 122.458 66.8004 130.449 74.8831C138.45 82.9749 138.375 96.0156 130.293 104.007ZM134.611 70.7723C124.342 60.3858 107.606 60.2905 97.2197 70.5594C86.8347 80.8269 86.7304 97.5731 96.9979 107.96C106.344 117.41 121.071 118.341 131.478 110.685C132.494 109.936 133.473 109.096 134.409 108.173C135.342 107.248 136.194 106.278 136.952 105.27C144.726 94.9506 143.955 80.2237 134.611 70.7723Z" fill="#E0E2EE"/>
  <path fill-rule="evenodd" clip-rule="evenodd" d="M174.82 147.334L174.384 147.765C171.499 150.618 166.802 150.592 163.948 147.705L137.613 121.069L148.544 110.261L174.88 136.898C177.733 139.784 177.706 144.48 174.82 147.334Z" fill="#D8E6D6"/>
  <path fill-rule="evenodd" clip-rule="evenodd" d="M137.528 104.465L145.31 112.337L139.722 117.86L131.941 109.989C132.978 109.224 133.976 108.367 134.932 107.425C135.884 106.483 136.753 105.494 137.528 104.465Z" fill="#E0E2EE"/>
  <path fill-rule="evenodd" clip-rule="evenodd" d="M174.485 136.569L163.624 147.306L161.69 145.349L172.551 134.612L174.485 136.569Z" fill="#6E916B"/>
  <path fill-rule="evenodd" clip-rule="evenodd" d="M149.143 110.639L137.984 121.672L136.345 120.014L147.504 108.981L149.143 110.639Z" fill="#91B18E"/>
  <path fill-rule="evenodd" clip-rule="evenodd" d="M125.147 72.0852L97.7804 99.1407C96.7661 97.2982 96.0804 95.3453 95.7128 93.3287L119.359 69.9502C121.37 70.3553 123.316 71.0617 125.147 72.0852Z" fill="white" fill-opacity="0.5"/>
  <path fill-rule="evenodd" clip-rule="evenodd" d="M134.032 78.6021L104.455 106.187C103.405 105.487 102.407 104.701 101.477 103.813C100.998 103.357 100.546 102.888 100.122 102.394L130.059 74.4703C130.579 74.8766 131.071 75.3089 131.549 75.7658C132.479 76.6533 133.315 77.6026 134.032 78.6021Z" fill="white" fill-opacity="0.5"/>
</svg>