<svg width="254" height="271" viewBox="0 0 254 271" fill="none" xmlns="http://www.w3.org/2000/svg">
<path d="M196.292 24.6364H145.011C139.858 10.3473 126.363 0 110.414 0C94.4655 0 80.9704 10.3473 75.8177 24.6364H24.5365C11.0414 24.6364 0 35.7227 0 49.2727V246.364C0 259.914 11.0414 271 24.5365 271H196.292C209.787 271 220.828 259.914 220.828 246.364V49.2727C220.828 35.7227 209.787 24.6364 196.292 24.6364ZM110.414 24.6364C117.162 24.6364 122.682 30.1795 122.682 36.9545C122.682 43.7295 117.162 49.2727 110.414 49.2727C103.667 49.2727 98.1459 43.7295 98.1459 36.9545C98.1459 30.1795 103.667 24.6364 110.414 24.6364ZM184.024 246.364H36.8047C30.0572 246.364 24.5365 240.82 24.5365 234.045V61.5909C24.5365 54.8159 30.0572 49.2727 36.8047 49.2727H49.073V61.5909C49.073 75.1409 60.1144 86.2273 73.6095 86.2273H147.219C160.714 86.2273 171.755 75.1409 171.755 61.5909V49.2727H184.024C190.771 49.2727 196.292 54.8159 196.292 61.5909V234.045C196.292 240.82 190.771 246.364 184.024 246.364Z" fill="#F5F5F5"/>
<path d="M203.691 188.879H194.951L191.853 185.894C205.129 170.418 211.988 149.305 208.227 126.865C203.027 96.1345 177.361 71.5943 146.384 67.8358C99.5873 62.0877 60.2028 101.44 65.9556 148.199C69.717 179.151 94.277 204.797 125.032 209.992C147.49 213.751 168.621 206.897 184.109 193.632L187.096 196.727V205.46L234.114 252.44C238.65 256.972 246.062 256.972 250.598 252.44C255.134 247.908 255.134 240.502 250.598 235.969L203.691 188.879ZM137.312 188.879C109.765 188.879 87.5286 166.66 87.5286 139.135C87.5286 111.61 109.765 89.3914 137.312 89.3914C164.859 89.3914 187.096 111.61 187.096 139.135C187.096 166.66 164.859 188.879 137.312 188.879Z" fill="#D8E6D6"/>
</svg>
