<svg width="264" height="264" viewBox="0 0 264 264" fill="none" xmlns="http://www.w3.org/2000/svg">
<path d="M22.0551 10.2145C17.0287 5.29639 8.90913 5.29639 3.88273 10.2145C-1.27256 15.1325 -1.27256 23.0771 3.75384 27.9952L109.308 131.275L70.6436 169.232C65.875 174.024 63.1685 180.455 63.1685 187.139V226.988C63.1685 240.859 74.7679 252.209 88.9449 252.209H192.051C203.134 252.209 212.414 245.399 216.152 235.815L240.768 259.901C245.794 264.819 253.914 264.819 258.94 259.901C263.967 254.983 263.967 247.039 258.94 242.12L22.0551 10.2145ZM192.051 214.378C192.051 221.313 186.251 226.988 179.162 226.988H101.833C94.7446 226.988 88.9449 221.313 88.9449 214.378V182.851L125.547 147.038L192.051 212.234V214.378Z" fill="#F5F5F5"/>
<path d="M88.9449 37.8313C88.9449 30.8956 94.7446 25.2209 101.833 25.2209H179.162C186.251 25.2209 192.051 30.8956 192.051 37.8313V69.3574L155.448 105.171L171.558 120.934L210.223 83.2289C215.12 78.437 217.827 72.0056 217.827 65.3221V25.2209C217.827 11.2233 206.228 0 192.051 0H88.9449C77.861 0 68.5815 6.80964 64.8439 16.3936L88.9449 39.9751V37.8313Z" fill="#D8E6D6"/>
<path d="M230.209 124.278L224.049 130.305L217.889 124.278C216.618 123.034 214.565 123.034 213.294 124.278C212.023 125.522 212.023 127.531 213.294 128.774L219.454 134.801L213.294 140.828C212.023 142.072 212.023 144.081 213.294 145.324C214.565 146.568 216.618 146.568 217.889 145.324L224.049 139.298L230.209 145.324C231.48 146.568 233.533 146.568 234.804 145.324C236.075 144.081 236.075 142.072 234.804 140.828L228.644 134.801L234.804 128.774C236.075 127.531 236.075 125.522 234.804 124.278C233.533 123.066 231.447 123.066 230.209 124.278ZM224.049 102.913C206.026 102.913 191.458 117.167 191.458 134.801C191.458 152.436 206.026 166.69 224.049 166.69C242.072 166.69 256.64 152.436 256.64 134.801C256.64 117.167 242.072 102.913 224.049 102.913ZM224.049 160.312C209.676 160.312 197.976 148.864 197.976 134.801C197.976 120.738 209.676 109.29 224.049 109.29C238.421 109.29 250.122 120.738 250.122 134.801C250.122 148.864 238.421 160.312 224.049 160.312Z" fill="#CBCCD6"/>
</svg>
