<svg width="49" height="49" viewBox="0 0 49 49" fill="none" xmlns="http://www.w3.org/2000/svg">
<g id="Icon/Regular/FileJs">
<path id="Vector" d="M13.6786 31.6963L13.7128 37.6962C13.7173 38.4919 13.4056 39.2567 12.8462 39.8225C12.2868 40.3883 11.5255 40.7087 10.7299 40.7132C9.93425 40.7178 9.1694 40.4061 8.6036 39.8467C8.0378 39.2873 7.71739 38.526 7.71286 37.7304" stroke="#49536E" stroke-width="3" stroke-linecap="round" stroke-linejoin="round"/>
<path id="Vector_2" d="M33.2387 42.0855L37.7386 42.0599C38.1364 42.0576 38.5171 41.8974 38.7968 41.6145C39.0765 41.3316 39.2323 40.9492 39.2301 40.5513L39.0935 16.5517L28.5339 6.11167L10.5342 6.21412C10.1363 6.21638 9.75571 6.37659 9.47601 6.65949C9.19631 6.94239 9.04045 7.32481 9.04272 7.72263L9.13663 24.2224" stroke="#49536E" stroke-width="3" stroke-linecap="round" stroke-linejoin="round"/>
<path id="Vector_3" d="M19.7258 39.91C20.5418 40.5115 21.5298 40.8346 22.5435 40.8315C24.231 40.8219 25.7278 40.2509 25.7171 38.3759C25.7 35.3759 19.7076 36.7226 19.6916 33.9101C19.6831 32.4101 20.8027 31.4663 22.4902 31.4566C23.504 31.4536 24.4919 31.7766 25.308 32.3781" stroke="#49536E" stroke-width="3" stroke-linecap="round" stroke-linejoin="round"/>
<path id="Vector_4" d="M28.5332 6.10938L28.593 16.6092L39.0928 16.5494" stroke="#49536E" stroke-width="3" stroke-linecap="round" stroke-linejoin="round"/>
</g>
</svg>
