<svg width="49" height="48" viewBox="0 0 49 48" fill="none" xmlns="http://www.w3.org/2000/svg">
<g id="Icon/Light/FileXls">
<path id="Vector" d="M23.1143 31.2969V40.1094H28.3643" stroke="#49536E" stroke-width="2" stroke-linecap="round" stroke-linejoin="round"/>
<path id="Vector_2" d="M10.3643 31.2969L17.1143 40.1094" stroke="#49536E" stroke-width="2" stroke-linecap="round" stroke-linejoin="round"/>
<path id="Vector_3" d="M17.1143 31.2969L10.3643 40.1094" stroke="#49536E" stroke-width="2" stroke-linecap="round" stroke-linejoin="round"/>
<path id="Vector_4" d="M33.6143 39.375C34.4269 39.9685 35.413 40.2903 36.4268 40.293C38.1143 40.293 39.6143 39.7422 39.6143 37.9062C39.6143 34.9688 33.6143 36.2539 33.6143 33.5C33.6143 32.0312 34.7393 31.1133 36.4268 31.1133C37.4406 31.1159 38.4266 31.4377 39.2393 32.0312" stroke="#49536E" stroke-width="2" stroke-linecap="round" stroke-linejoin="round"/>
<path id="Vector_5" d="M9.61426 23.9531V7.79688C9.61426 7.40734 9.77229 7.03376 10.0536 6.75831C10.3349 6.48287 10.7164 6.32812 11.1143 6.32812H29.1143L39.6143 16.6094V23.9531" stroke="#49536E" stroke-width="2" stroke-linecap="round" stroke-linejoin="round"/>
<path id="Vector_6" d="M29.1143 6.32812V16.6094H39.6143" stroke="#49536E" stroke-width="2" stroke-linecap="round" stroke-linejoin="round"/>
</g>
</svg>
