<svg width="117" height="32" viewBox="0 0 117 32" fill="none" xmlns="http://www.w3.org/2000/svg">
<path d="M12.1604 22.759C13.1452 21.8484 13.4242 20.7721 13.2108 19.9112C12.9974 19.0005 14.1299 17.9077 15.0161 18.3548C16.8707 19.3151 19.2997 18.9343 20.9409 17.3117C24.2726 13.5863 21.0722 11.914 22.2375 10.3576C22.5329 9.99331 22.9925 9.51315 23.4684 9.76151C25.0112 10.7715 26.7837 10.7715 27.6699 9.74495C29.623 7.0461 25.5528 2.87366 22.8776 3.25447C21.0394 3.56906 20.5635 6.01955 21.8272 8.07266C22.1226 8.55282 22.0734 9.16544 21.6795 9.54626C20.5306 10.6059 19.152 8.71839 17.6913 9.04954C15.8039 9.08266 14.0806 10.3245 13.26 12.0133C11.7994 14.9605 13.4734 15.8049 13.2272 17.7587C12.6856 18.5534 11.8322 18.3216 11.0444 18.1561C8.87799 18.0071 7.23677 19.9939 7.6799 21.6993C7.90967 22.8749 6.43257 23.769 5.41502 23.4047C2.21465 23.5372 4.49594 27.9746 6.72799 26.4182C7.20395 26.0042 7.33524 25.4579 7.23677 24.9611C7.02341 24.0008 8.28715 22.9908 9.17341 23.3385C10.1089 23.7028 11.2742 23.5206 12.1604 22.759Z" fill="white"/>
<path d="M30.6077 18.868C28.7039 19.1661 29.5081 23.1233 28.2608 23.6862C26.7508 23.0239 24.5516 25.3254 24.7157 26.9149C24.765 27.3288 24.5516 27.7262 24.2398 27.9911C23.3043 28.5706 21.7615 28.4382 21.302 29.6469C20.8917 30.4085 19.9234 30.839 19.1028 30.9549C17.9867 30.8059 16.1322 31.4351 16.5753 31.8159C17.3631 32.2298 19.1356 31.8821 19.71 31.4019C19.7757 31.3192 19.7921 31.2364 19.907 31.1867C20.3173 31.0211 20.7112 30.839 21.1051 30.6237C21.1871 30.5906 21.2035 30.5575 21.302 30.6237C21.9585 31.1701 24.4696 30.1105 24.289 28.819H24.3054C24.2398 28.107 25.1917 27.9911 25.7169 28.0574C27.3745 28.1567 28.868 25.6565 28.7531 24.5306C28.7531 24.2161 28.9337 23.1729 29.3604 23.4047C30.6241 24.1498 31.8714 18.5866 30.6077 18.868Z" fill="white"/>
<path d="M3.70815 17.8912C4.74212 15.5235 4.34823 15.7884 6.56387 14.6625C8.71387 12.3941 6.30128 11.9802 9.17341 9.39725C9.50165 9.04954 9.99402 8.91708 10.47 8.98331C12.423 9.4138 15.1803 7.5925 15.0326 5.50627C15.2787 2.06235 18.9879 6.25135 21.4989 3.56906C22.9925 1.48284 18.7909 -0.404696 16.3619 0.075467C14.6058 0.390056 14.2284 1.48284 14.852 2.50939C15.2787 3.17169 14.4581 3.99955 13.8181 3.56906C11.028 1.68153 6.48181 4.66185 8.17226 7.49315C8.46768 8.02299 8.38562 8.68528 7.99173 9.13233C7.43372 9.74495 6.94135 10.6556 5.97303 10.5066C4.05281 10.4072 2.73984 13.1558 3.98716 14.6625C3.98716 14.8943 3.97075 14.8777 3.88869 15.0764C3.29785 15.9043 3.19938 17.1957 2.32953 17.7587C0.950909 18.0898 1.37763 21.7821 3.16655 20.7059C4.11846 19.9277 3.44556 18.8349 3.70815 17.8912Z" fill="white"/>
<path d="M28.9501 9.97675C27.5879 10.0927 27.2104 12.212 27.555 14.1658C27.6535 14.6956 27.5715 15.242 27.3089 15.7056C26.636 16.7984 25.9466 18.272 24.4203 18.0236C22.5822 17.8746 21.2199 20.0436 21.2692 21.8815C21.3512 23.3716 19.8741 24.1002 18.8894 24.928C18.7745 25.0108 18.7253 24.9943 18.5283 24.9446C15.607 24.6631 16.0501 26.5672 14.6879 27.5938C13.7688 27.9746 12.8005 28.7197 11.7994 28.7031C8.56616 28.4382 10.4536 31.5178 12.4558 30.1933C13.1452 29.3157 15.5906 27.9911 16.6902 28.2064C17.8062 28.5706 19.5787 27.5772 19.6444 26.352C19.6936 25.8718 19.9562 25.4413 20.3337 25.1267C21.0722 24.6797 21.6959 23.6366 22.2047 23.8849L22.1883 23.8518C24.289 25.3916 26.7344 22.0139 26.2092 20.1098C26.0615 18.6031 27.555 17.5931 28.1131 16.3182C28.1787 16.2189 28.2115 16.1361 28.3756 16.2354C32.7577 21.0371 32.3802 10.2748 28.9501 9.97675Z" fill="white"/>
<path d="M1.08221 10.5894C1.54175 9.31446 3.46197 9.16544 3.06808 7.27791H3.08449C3.13373 6.63217 3.98716 6.11889 4.59441 6.06922C6.23563 5.90365 8.38562 3.76775 7.94249 2.57562C8.43486 2.22792 8.96005 1.92989 9.58371 1.94645C11.1429 1.91333 13.3749 1.23448 13.3585 0.522515C13.178 -0.586826 7.64708 0.770875 8.31997 1.69809H8.30356C8.4841 1.97956 7.4173 2.17825 7.17112 2.16169C6.10433 2.14513 4.28258 3.18825 3.47838 4.5625C3.06808 5.32414 3.4948 6.03611 2.85472 6.64873C2.75625 6.76463 2.75625 6.76463 2.67419 6.71496C1.64022 6.21824 0.721138 8.08922 0.950909 8.93364C1.09862 9.56282 0.770375 10.1258 0.589841 10.7053V10.6887C0.557017 10.7715 0.573429 10.8212 0.458544 10.8708C-0.263592 11.2351 -0.0174094 13.4703 0.409307 13.7518C0.836023 14.0499 1.18068 12.4769 0.88526 11.4835C0.836023 11.1689 1.00015 10.8874 1.08221 10.5894Z" fill="white"/>
<path d="M35.5938 17.8482V14.2718C35.5938 11.7882 37.1201 10.2484 39.943 10.2484C42.2735 10.2484 43.5701 11.1921 44.1281 12.9141C44.243 13.2121 44.1609 13.3446 43.8819 13.4439L43.2254 13.6592C42.9464 13.7751 42.8151 13.7088 42.7166 13.4108C42.3227 12.2352 41.5185 11.6557 39.943 11.6557C38.072 11.6557 37.0873 12.5995 37.0873 14.2552V17.8482C37.0873 19.5205 38.1048 20.4642 39.9594 20.4642C41.7975 20.4642 42.8315 19.5205 42.8315 18.1462V17.1197H40.1235C39.8281 17.1197 39.7132 17.0038 39.7132 16.7057V16.1262C39.7132 15.8116 39.8281 15.6957 40.1235 15.6957H43.8983C44.2101 15.6957 44.325 15.8116 44.325 16.1262V18.1297C44.325 20.3318 42.7823 21.8716 39.9758 21.8716C37.1365 21.8716 35.5938 20.3318 35.5938 17.8482Z" fill="white"/>
<path d="M46.3601 21.259V10.3808C46.3601 10.0993 46.4586 10 46.7376 10H47.3941C47.6567 10 47.7552 10.0993 47.7552 10.3808V21.259C47.7552 21.5405 47.6567 21.6398 47.3941 21.6398H46.7376C46.4586 21.6398 46.3601 21.5405 46.3601 21.259Z" fill="white"/>
<path d="M55.4197 18.8747V16.2918C55.4197 15.199 54.6483 14.5698 53.3025 14.5698C52.0059 14.5698 51.2017 15.199 51.2017 16.2918V18.8747C51.2017 19.951 52.0059 20.5967 53.3025 20.5967C54.6483 20.5967 55.4197 19.951 55.4197 18.8747ZM49.8231 18.8747V16.2918C49.8231 14.4374 51.1197 13.2949 53.3189 13.2949C55.5674 13.2949 56.8311 14.4374 56.8311 16.2918V18.8747C56.8311 20.7292 55.5674 21.8716 53.3189 21.8716C51.1033 21.8716 49.8231 20.7292 49.8231 18.8747Z" fill="white"/>
<path d="M64.1509 18.5601V16.4574C64.1509 15.2487 63.5109 14.5698 62.1979 14.5698C61.3116 14.5698 60.5567 14.8347 60.1956 14.9838V20.0503C60.1956 20.1993 60.212 20.2655 60.4089 20.3483C60.8028 20.4973 61.3609 20.5967 62.0173 20.5967C63.478 20.5801 64.1509 19.9344 64.1509 18.5601ZM59.3914 21.3914C58.899 21.1596 58.8006 21.0272 58.8006 20.5305V10.3808C58.8006 10.0993 58.899 10 59.178 10H59.8181C60.0971 10 60.1956 10.0993 60.1956 10.3808V13.6757C60.6387 13.5267 61.4265 13.2784 62.3948 13.2784C64.5776 13.2784 65.546 14.4374 65.546 16.3911V18.5933C65.546 20.696 64.4464 21.8551 62.1158 21.8551C60.9013 21.8716 59.9494 21.6232 59.3914 21.3914Z" fill="white"/>
<path d="M72.1437 20.5139C72.3406 20.4477 72.3898 20.3814 72.3898 20.1662V18.1462C72.078 18.1131 71.2246 18.0303 70.4368 18.0303C68.9761 18.0303 68.5166 18.4774 68.5166 19.3549C68.5166 20.1828 68.8448 20.7126 70.404 20.7126C71.2574 20.7126 71.7826 20.6298 72.1437 20.5139ZM67.1215 19.3715C67.1215 17.5336 68.1391 16.921 70.6009 16.921C71.3723 16.921 72.1108 17.0203 72.3898 17.0369V16.4242C72.3898 15.3149 71.9959 14.5367 70.5353 14.5367C69.5834 14.5367 68.9597 14.8679 68.5822 15.5136C68.4345 15.7454 68.3524 15.7951 68.0898 15.6792L67.5975 15.4805C67.3349 15.3646 67.2528 15.2321 67.4005 14.9506C67.9421 13.9075 68.9761 13.2949 70.5845 13.2949C73.0956 13.2949 73.8013 14.6857 73.8013 16.4739V20.5801C73.8013 21.1265 73.67 21.2921 73.2433 21.4742C72.6688 21.7226 71.7826 21.8882 70.5681 21.8882C67.8108 21.8716 67.1215 20.9775 67.1215 19.3715Z" fill="white"/>
<path d="M75.9513 21.259V10.3808C75.9513 10.0993 76.0498 10 76.3288 10H76.9852C77.2478 10 77.3463 10.0993 77.3463 10.3808V21.259C77.3463 21.5405 77.2478 21.6398 76.9852 21.6398H76.3288C76.0498 21.6398 75.9513 21.5405 75.9513 21.259Z" fill="white"/>
<path d="M82.1058 21.11V12.318H79.3978C79.0039 12.318 78.8726 12.169 78.8726 11.7882V11.0266C78.8726 10.6292 79.0204 10.4967 79.3978 10.4967H86.7669C87.1772 10.4967 87.2921 10.6457 87.2921 11.0266V11.7882C87.2921 12.1856 87.1608 12.318 86.7669 12.318H84.0589V21.11C84.0589 21.5073 83.9276 21.6398 83.5337 21.6398H82.6474C82.2536 21.6398 82.1058 21.4908 82.1058 21.11Z" fill="white"/>
<path d="M87.1608 21.1596V14.8513C87.1608 14.3711 87.2757 14.1559 87.7516 13.9738C88.3261 13.7585 89.2616 13.5102 90.6566 13.5102H91.1654C91.5264 13.5102 91.6249 13.6261 91.6249 13.9738V14.6857C91.6249 15.05 91.51 15.1493 91.1654 15.1493H90.6073C89.9837 15.1493 89.5241 15.2321 89.1138 15.3315C88.9825 15.3811 88.9661 15.4474 88.9661 15.5301V21.1431C88.9661 21.5073 88.8348 21.6232 88.4902 21.6232H87.6367C87.2593 21.6398 87.1608 21.5073 87.1608 21.1596Z" fill="white"/>
<path d="M97.1886 20.249C97.3199 20.1993 97.3528 20.1662 97.3528 20.0337V18.3449C97.0409 18.3283 96.2695 18.2621 95.6623 18.2621C94.4806 18.2621 94.1688 18.6595 94.1688 19.3218C94.1688 19.951 94.415 20.3814 95.6295 20.3814C96.4173 20.3649 96.926 20.2987 97.1886 20.249ZM92.347 19.3218C92.347 17.4342 93.381 16.8216 95.8757 16.8216C96.4829 16.8216 97.1066 16.8713 97.3692 16.9044V16.4408C97.3692 15.4474 96.9917 14.8679 95.81 14.8679C95.0386 14.8679 94.5134 15.1162 94.1688 15.6295C93.9554 15.9606 93.857 16.0103 93.5123 15.8613L92.8722 15.6129C92.5276 15.4639 92.4127 15.2652 92.6096 14.901C93.1512 13.8744 94.218 13.2618 95.8428 13.2618C98.4031 13.2618 99.1581 14.6526 99.1581 16.507V20.5801C99.1581 21.1265 99.0268 21.2921 98.6001 21.4742C98.0256 21.7226 97.0738 21.8882 95.7936 21.8882C93.0364 21.8716 92.347 20.961 92.347 19.3218Z" fill="white"/>
<path d="M100.799 18.6595V16.4905C100.799 14.487 101.932 13.2618 104.377 13.2618C106.232 13.2618 107.299 14.1393 107.692 15.3149C107.84 15.7123 107.725 15.8944 107.364 16.0269L106.675 16.2421C106.281 16.3911 106.133 16.2918 105.986 15.911C105.739 15.2487 105.214 14.8513 104.295 14.8513C103.163 14.8513 102.588 15.3977 102.588 16.3911V18.7092C102.588 19.686 103.163 20.249 104.295 20.249C105.198 20.249 105.723 19.8351 105.986 19.1562C106.133 18.7754 106.297 18.7092 106.691 18.8416L107.381 19.0403C107.742 19.1893 107.873 19.3549 107.725 19.7523C107.216 21.0934 106.117 21.8385 104.246 21.8385C101.883 21.8716 100.799 20.6464 100.799 18.6595Z" fill="white"/>
<path d="M114.487 16.7554V16.4077C114.487 15.3811 113.863 14.8016 112.682 14.8016C111.516 14.8016 110.876 15.3811 110.876 16.4077V16.7554H114.487ZM109.071 18.5105V16.656C109.071 14.4705 110.335 13.2618 112.682 13.2618C115.16 13.2618 116.292 14.7023 116.292 16.507V17.4674C116.292 17.8813 116.128 18.1462 115.587 18.1462H110.86V18.7257C110.86 19.7523 111.5 20.2987 112.649 20.2987C113.552 20.2987 114.142 19.9841 114.487 19.4708C114.717 19.1231 114.897 19.0734 115.258 19.2887L115.8 19.5867C116.161 19.7523 116.21 20.0337 115.981 20.3649C115.423 21.2921 114.389 21.8716 112.616 21.8716C110.105 21.8716 109.071 20.4477 109.071 18.5105Z" fill="white"/>
</svg>
