<svg width="117" height="32" viewBox="0 0 117 32" fill="none" xmlns="http://www.w3.org/2000/svg">
<path d="M12.1604 22.759C13.1452 21.8484 13.4242 20.7721 13.2108 19.9112C12.9974 19.0005 14.1299 17.9077 15.0161 18.3548C16.8707 19.3151 19.2997 18.9343 20.9409 17.3117C24.2726 13.5863 21.0722 11.914 22.2375 10.3576C22.5329 9.99331 22.9925 9.51315 23.4684 9.76151C25.0112 10.7715 26.7837 10.7715 27.6699 9.74495C29.623 7.0461 25.5528 2.87366 22.8776 3.25447C21.0394 3.56906 20.5635 6.01955 21.8272 8.07266C22.1226 8.55282 22.0734 9.16544 21.6795 9.54626C20.5306 10.6059 19.152 8.71839 17.6913 9.04954C15.8039 9.08266 14.0806 10.3245 13.26 12.0133C11.7994 14.9605 13.4734 15.8049 13.2272 17.7587C12.6856 18.5534 11.8322 18.3216 11.0444 18.1561C8.87799 18.0071 7.23677 19.9939 7.6799 21.6993C7.90967 22.8749 6.43257 23.769 5.41502 23.4047C2.21465 23.5372 4.49594 27.9746 6.72799 26.4182C7.20395 26.0042 7.33524 25.4579 7.23677 24.9611C7.02341 24.0008 8.28715 22.9908 9.17341 23.3385C10.1089 23.7028 11.2742 23.5206 12.1604 22.759Z" fill="url(#paint0_linear_5140_60677)"/>
<path d="M30.6077 18.868C28.7039 19.1661 29.5081 23.1233 28.2608 23.6862C26.7508 23.0239 24.5516 25.3254 24.7157 26.9149C24.765 27.3288 24.5516 27.7262 24.2398 27.9911C23.3043 28.5706 21.7615 28.4382 21.302 29.6469C20.8917 30.4085 19.9234 30.839 19.1028 30.9549C17.9867 30.8059 16.1322 31.4351 16.5753 31.8159C17.3631 32.2298 19.1356 31.8821 19.71 31.4019C19.7757 31.3192 19.7921 31.2364 19.907 31.1867C20.3173 31.0211 20.7112 30.839 21.1051 30.6237C21.1871 30.5906 21.2035 30.5575 21.302 30.6237C21.9585 31.1701 24.4695 30.1105 24.289 28.819H24.3054C24.2398 28.107 25.1917 27.9911 25.7169 28.0574C27.3745 28.1567 28.868 25.6565 28.7531 24.5306C28.7531 24.2161 28.9337 23.1729 29.3604 23.4047C30.6241 24.1498 31.8714 18.5866 30.6077 18.868Z" fill="url(#paint1_linear_5140_60677)"/>
<path d="M3.70815 17.8912C4.74212 15.5235 4.34823 15.7884 6.56387 14.6625C8.71387 12.3941 6.30128 11.9802 9.17341 9.39725C9.50165 9.04954 9.99401 8.91708 10.47 8.98331C12.423 9.4138 15.1803 7.5925 15.0326 5.50627C15.2787 2.06235 18.9879 6.25135 21.4989 3.56906C22.9925 1.48284 18.7909 -0.404696 16.3619 0.075467C14.6058 0.390056 14.2284 1.48284 14.852 2.50939C15.2787 3.17169 14.4581 3.99956 13.818 3.56906C11.028 1.68153 6.48181 4.66185 8.17226 7.49315C8.46768 8.02299 8.38562 8.68528 7.99173 9.13233C7.43372 9.74495 6.94135 10.6556 5.97303 10.5066C4.05281 10.4072 2.73983 13.1558 3.98716 14.6625C3.98716 14.8943 3.97075 14.8777 3.88869 15.0764C3.29785 15.9043 3.19938 17.1957 2.32953 17.7587C0.950909 18.0898 1.37763 21.7821 3.16655 20.7059C4.11846 19.9277 3.44556 18.8349 3.70815 17.8912Z" fill="url(#paint2_linear_5140_60677)"/>
<path d="M28.9501 9.97675C27.5879 10.0927 27.2104 12.212 27.555 14.1658C27.6535 14.6956 27.5714 15.242 27.3089 15.7056C26.636 16.7984 25.9466 18.272 24.4203 18.0236C22.5821 17.8746 21.2199 20.0436 21.2692 21.8815C21.3512 23.3716 19.8741 24.1002 18.8894 24.928C18.7745 25.0108 18.7253 24.9943 18.5283 24.9446C15.607 24.6631 16.0501 26.5672 14.6879 27.5938C13.7688 27.9746 12.8005 28.7197 11.7994 28.7031C8.56616 28.4382 10.4536 31.5178 12.4558 30.1933C13.1452 29.3157 15.5906 27.9911 16.6902 28.2064C17.8062 28.5706 19.5787 27.5772 19.6444 26.352C19.6936 25.8718 19.9562 25.4413 20.3337 25.1267C21.0722 24.6797 21.6959 23.6366 22.2047 23.8849L22.1883 23.8518C24.289 25.3916 26.7344 22.0139 26.2092 20.1098C26.0615 18.6031 27.555 17.5931 28.1131 16.3182C28.1787 16.2189 28.2115 16.1361 28.3756 16.2354C32.7577 21.0371 32.3802 10.2748 28.9501 9.97675Z" fill="url(#paint3_linear_5140_60677)"/>
<path d="M1.08221 10.5894C1.54175 9.31446 3.46197 9.16544 3.06808 7.27791H3.08449C3.13373 6.63217 3.98716 6.11889 4.59441 6.06922C6.23563 5.90365 8.38562 3.76775 7.94249 2.57562C8.43486 2.22792 8.96005 1.92989 9.58371 1.94645C11.1429 1.91333 13.3749 1.23448 13.3585 0.522515C13.178 -0.586826 7.64707 0.770875 8.31997 1.69809H8.30356C8.48409 1.97956 7.4173 2.17825 7.17112 2.16169C6.10433 2.14513 4.28258 3.18825 3.47838 4.5625C3.06808 5.32414 3.49479 6.03611 2.85472 6.64873C2.75625 6.76463 2.75625 6.76463 2.67419 6.71496C1.64022 6.21824 0.721138 8.08922 0.950909 8.93364C1.09862 9.56282 0.770375 10.1258 0.589841 10.7053V10.6887C0.557017 10.7715 0.573429 10.8212 0.458543 10.8708C-0.263592 11.2351 -0.0174094 13.4703 0.409307 13.7518C0.836023 14.0499 1.18068 12.4769 0.88526 11.4835C0.836023 11.1689 1.00015 10.8874 1.08221 10.5894Z" fill="url(#paint4_linear_5140_60677)"/>
<path d="M36 17.8482V14.2718C36 11.7882 37.5263 10.2484 40.3492 10.2484C42.6798 10.2484 43.9763 11.1921 44.5343 12.9141C44.6492 13.2121 44.5672 13.3446 44.2881 13.4439L43.6317 13.6592C43.3527 13.7751 43.2214 13.7088 43.1229 13.4108C42.729 12.2352 41.9248 11.6557 40.3492 11.6557C38.4782 11.6557 37.4935 12.5995 37.4935 14.2552V17.8482C37.4935 19.5205 38.5111 20.4642 40.3656 20.4642C42.2038 20.4642 43.2378 19.5205 43.2378 18.1462V17.1197H40.5298C40.2343 17.1197 40.1195 17.0038 40.1195 16.7057V16.1262C40.1195 15.8116 40.2343 15.6957 40.5298 15.6957H44.3046C44.6164 15.6957 44.7313 15.8116 44.7313 16.1262V18.1297C44.7313 20.3318 43.1885 21.8716 40.382 21.8716C37.5427 21.8716 36 20.3318 36 17.8482Z" fill="#231F20"/>
<path d="M46.7664 21.259V10.3808C46.7664 10.0993 46.8649 10 47.1439 10H47.8004C48.0629 10 48.1614 10.0993 48.1614 10.3808V21.259C48.1614 21.5405 48.0629 21.6398 47.8004 21.6398H47.1439C46.8649 21.6398 46.7664 21.5405 46.7664 21.259Z" fill="#231F20"/>
<path d="M55.8259 18.8747V16.2918C55.8259 15.199 55.0545 14.5698 53.7087 14.5698C52.4122 14.5698 51.608 15.199 51.608 16.2918V18.8747C51.608 19.951 52.4122 20.5967 53.7087 20.5967C55.0545 20.5967 55.8259 19.951 55.8259 18.8747ZM50.2294 18.8747V16.2918C50.2294 14.4374 51.5259 13.2949 53.7251 13.2949C55.9736 13.2949 57.2373 14.4374 57.2373 16.2918V18.8747C57.2373 20.7292 55.9736 21.8716 53.7251 21.8716C51.5095 21.8716 50.2294 20.7292 50.2294 18.8747Z" fill="#231F20"/>
<path d="M64.5572 18.5601V16.4574C64.5572 15.2487 63.9171 14.5698 62.6041 14.5698C61.7179 14.5698 60.9629 14.8347 60.6018 14.9838V20.0503C60.6018 20.1993 60.6183 20.2655 60.8152 20.3483C61.2091 20.4973 61.7671 20.5967 62.4236 20.5967C63.8843 20.5801 64.5572 19.9344 64.5572 18.5601ZM59.7976 21.3914C59.3053 21.1596 59.2068 21.0272 59.2068 20.5305V10.3808C59.2068 10.0993 59.3053 10 59.5843 10H60.2244C60.5034 10 60.6018 10.0993 60.6018 10.3808V13.6757C61.045 13.5267 61.8328 13.2784 62.8011 13.2784C64.9839 13.2784 65.9522 14.4374 65.9522 16.3911V18.5933C65.9522 20.696 64.8526 21.8551 62.5221 21.8551C61.3076 21.8716 60.3557 21.6232 59.7976 21.3914Z" fill="#231F20"/>
<path d="M72.5499 20.5139C72.7468 20.4477 72.7961 20.3814 72.7961 20.1662V18.1462C72.4843 18.1131 71.6308 18.0303 70.843 18.0303C69.3824 18.0303 68.9228 18.4774 68.9228 19.3549C68.9228 20.1828 69.2511 20.7126 70.8102 20.7126C71.6636 20.7126 72.1888 20.6298 72.5499 20.5139ZM67.5278 19.3715C67.5278 17.5336 68.5453 16.921 71.0072 16.921C71.7785 16.921 72.5171 17.0203 72.7961 17.0369V16.4242C72.7961 15.3149 72.4022 14.5367 70.9415 14.5367C69.9896 14.5367 69.3659 14.8679 68.9885 15.5136C68.8408 15.7454 68.7587 15.7951 68.4961 15.6792L68.0037 15.4805C67.7411 15.3646 67.6591 15.2321 67.8068 14.9506C68.3484 13.9075 69.3824 13.2949 70.9907 13.2949C73.5018 13.2949 74.2075 14.6857 74.2075 16.4739V20.5801C74.2075 21.1265 74.0762 21.2921 73.6495 21.4742C73.0751 21.7226 72.1888 21.8882 70.9743 21.8882C68.2171 21.8716 67.5278 20.9775 67.5278 19.3715Z" fill="#231F20"/>
<path d="M76.3575 21.259V10.3808C76.3575 10.0993 76.456 10 76.735 10H77.3915C77.6541 10 77.7526 10.0993 77.7526 10.3808V21.259C77.7526 21.5405 77.6541 21.6398 77.3915 21.6398H76.735C76.456 21.6398 76.3575 21.5405 76.3575 21.259Z" fill="#231F20"/>
<path d="M82.5121 21.11V12.318H79.8041C79.4102 12.318 79.2789 12.169 79.2789 11.7882V11.0266C79.2789 10.6292 79.4266 10.4967 79.8041 10.4967H87.1732C87.5835 10.4967 87.6983 10.6457 87.6983 11.0266V11.7882C87.6983 12.1856 87.567 12.318 87.1732 12.318H84.4651V21.11C84.4651 21.5073 84.3338 21.6398 83.94 21.6398H83.0537C82.6598 21.6398 82.5121 21.4908 82.5121 21.11Z" fill="#231F20"/>
<path d="M87.567 21.1596V14.8513C87.567 14.3711 87.6819 14.1559 88.1579 13.9738C88.7323 13.7585 89.6678 13.5102 91.0628 13.5102H91.5716C91.9327 13.5102 92.0312 13.6261 92.0312 13.9738V14.6857C92.0312 15.05 91.9163 15.1493 91.5716 15.1493H91.0136C90.3899 15.1493 89.9304 15.2321 89.5201 15.3315C89.3888 15.3811 89.3724 15.4474 89.3724 15.5301V21.1431C89.3724 21.5073 89.2411 21.6232 88.8964 21.6232H88.043C87.6655 21.6398 87.567 21.5073 87.567 21.1596Z" fill="#231F20"/>
<path d="M97.5949 20.249C97.7262 20.1993 97.759 20.1662 97.759 20.0337V18.3449C97.4472 18.3283 96.6758 18.2621 96.0685 18.2621C94.8869 18.2621 94.575 18.6595 94.575 19.3218C94.575 19.951 94.8212 20.3814 96.0357 20.3814C96.8235 20.3649 97.3323 20.2987 97.5949 20.249ZM92.7533 19.3218C92.7533 17.4342 93.7873 16.8216 96.2819 16.8216C96.8892 16.8216 97.5128 16.8713 97.7754 16.9044V16.4408C97.7754 15.4474 97.3979 14.8679 96.2163 14.8679C95.4449 14.8679 94.9197 15.1162 94.575 15.6295C94.3617 15.9606 94.2632 16.0103 93.9185 15.8613L93.2785 15.6129C92.9338 15.4639 92.8189 15.2652 93.0159 14.901C93.5575 13.8744 94.6243 13.2618 96.2491 13.2618C98.8094 13.2618 99.5643 14.6526 99.5643 16.507V20.5801C99.5643 21.1265 99.433 21.2921 99.0063 21.4742C98.4319 21.7226 97.48 21.8882 96.1999 21.8882C93.4426 21.8716 92.7533 20.961 92.7533 19.3218Z" fill="#231F20"/>
<path d="M101.206 18.6595V16.4905C101.206 14.487 102.338 13.2618 104.783 13.2618C106.638 13.2618 107.705 14.1393 108.099 15.3149C108.246 15.7123 108.131 15.8944 107.77 16.0269L107.081 16.2421C106.687 16.3911 106.54 16.2918 106.392 15.911C106.146 15.2487 105.62 14.8513 104.701 14.8513C103.569 14.8513 102.994 15.3977 102.994 16.3911V18.7092C102.994 19.686 103.569 20.249 104.701 20.249C105.604 20.249 106.129 19.8351 106.392 19.1562C106.54 18.7754 106.704 18.7092 107.098 18.8416L107.787 19.0403C108.148 19.1893 108.279 19.3549 108.131 19.7523C107.623 21.0934 106.523 21.8385 104.652 21.8385C102.289 21.8716 101.206 20.6464 101.206 18.6595Z" fill="#231F20"/>
<path d="M114.893 16.7554V16.4077C114.893 15.3811 114.27 14.8016 113.088 14.8016C111.923 14.8016 111.283 15.3811 111.283 16.4077V16.7554H114.893ZM109.477 18.5105V16.656C109.477 14.4705 110.741 13.2618 113.088 13.2618C115.566 13.2618 116.699 14.7023 116.699 16.507V17.4674C116.699 17.8813 116.535 18.1462 115.993 18.1462H111.266V18.7257C111.266 19.7523 111.906 20.2987 113.055 20.2987C113.958 20.2987 114.549 19.9841 114.893 19.4708C115.123 19.1231 115.304 19.0734 115.665 19.2887L116.206 19.5867C116.567 19.7523 116.617 20.0337 116.387 20.3649C115.829 21.2921 114.795 21.8716 113.022 21.8716C110.511 21.8716 109.477 20.4477 109.477 18.5105Z" fill="#231F20"/>
<defs>
<linearGradient id="paint0_linear_5140_60677" x1="-6.68462" y1="40.5639" x2="36.7016" y2="-0.44387" gradientUnits="userSpaceOnUse">
<stop stop-color="#B0E8FC"/>
<stop offset="0.1046" stop-color="#A9E4FC"/>
<stop offset="0.2516" stop-color="#97DAFB"/>
<stop offset="0.4237" stop-color="#79C9FB"/>
<stop offset="0.6135" stop-color="#50B2FA"/>
<stop offset="0.6159" stop-color="#4FB2FA"/>
<stop offset="0.9986" stop-color="#2969F5"/>
<stop offset="1" stop-color="#2969F5"/>
</linearGradient>
<linearGradient id="paint1_linear_5140_60677" x1="-17.2749" y1="58.8914" x2="60.0519" y2="-9.104" gradientUnits="userSpaceOnUse">
<stop stop-color="#B0E8FC"/>
<stop offset="0.1046" stop-color="#A9E4FC"/>
<stop offset="0.2516" stop-color="#97DAFB"/>
<stop offset="0.4237" stop-color="#79C9FB"/>
<stop offset="0.6135" stop-color="#50B2FA"/>
<stop offset="0.6159" stop-color="#4FB2FA"/>
<stop offset="0.9986" stop-color="#2969F5"/>
<stop offset="1" stop-color="#2969F5"/>
</linearGradient>
<linearGradient id="paint2_linear_5140_60677" x1="-14.1512" y1="41.0189" x2="34.7748" y2="-8.28361" gradientUnits="userSpaceOnUse">
<stop stop-color="#B0E8FC"/>
<stop offset="0.1046" stop-color="#A9E4FC"/>
<stop offset="0.2516" stop-color="#97DAFB"/>
<stop offset="0.4237" stop-color="#79C9FB"/>
<stop offset="0.6135" stop-color="#50B2FA"/>
<stop offset="0.6159" stop-color="#4FB2FA"/>
<stop offset="0.9986" stop-color="#2969F5"/>
<stop offset="1" stop-color="#2969F5"/>
</linearGradient>
<linearGradient id="paint3_linear_5140_60677" x1="-7.96504" y1="45.2537" x2="41.6908" y2="-1.11167" gradientUnits="userSpaceOnUse">
<stop stop-color="#B0E8FC"/>
<stop offset="0.1046" stop-color="#A9E4FC"/>
<stop offset="0.2516" stop-color="#97DAFB"/>
<stop offset="0.4237" stop-color="#79C9FB"/>
<stop offset="0.6135" stop-color="#50B2FA"/>
<stop offset="0.6159" stop-color="#4FB2FA"/>
<stop offset="0.9986" stop-color="#2969F5"/>
<stop offset="1" stop-color="#2969F5"/>
</linearGradient>
<linearGradient id="paint4_linear_5140_60677" x1="-11.532" y1="22.766" x2="20.3878" y2="-8.87397" gradientUnits="userSpaceOnUse">
<stop stop-color="#94E3FF"/>
<stop offset="0.1046" stop-color="#A9E4FC"/>
<stop offset="0.2516" stop-color="#97DAFB"/>
<stop offset="0.4237" stop-color="#79C9FB"/>
<stop offset="0.6135" stop-color="#50B2FA"/>
<stop offset="0.6159" stop-color="#4FB2FA"/>
<stop offset="0.9986" stop-color="#2969F5"/>
<stop offset="1" stop-color="#2969F5"/>
</linearGradient>
</defs>
</svg>
