<svg width="921" height="261" viewBox="0 0 921 261" fill="none" xmlns="http://www.w3.org/2000/svg">
<path d="M446.19 81.1628L389.413 24.6802C409.304 11.5301 433.097 3.89059 458.779 3.89059C528.27 3.89059 584.669 59.9975 584.669 129.129C584.669 154.678 576.99 178.348 563.771 198.136L545.391 179.851C554.329 165.073 559.491 147.665 559.491 129.129C559.491 87.1743 533.431 51.2308 496.546 36.3274V41.4622C496.546 55.2384 485.216 66.5099 471.368 66.5099H446.19V81.1628ZM565.659 253.115C560.75 258 552.819 258 547.909 253.115L528.27 233.578C502.211 250.736 469.353 258.626 434.482 252.114C384.755 242.721 344.722 203.02 335.28 153.426C328.734 118.734 336.539 86.0471 353.912 60.1227L334.147 40.5855C329.238 35.7012 329.238 27.8112 334.147 22.9269C339.057 18.0426 346.988 18.0426 351.898 22.9269L565.533 235.457C570.569 240.341 570.569 248.231 565.659 253.115ZM446.19 204.272C432.342 204.272 421.012 193.001 421.012 179.225V166.701L360.71 106.712C359.074 113.975 358.066 121.364 358.066 129.129C358.066 180.227 396.463 222.307 446.19 228.443V204.272Z" fill="url(#paint0_linear_5456_101165)"/>
<path fill-rule="evenodd" clip-rule="evenodd" d="M891.696 260.815H814.744V211.412H698.646L694.172 167.571L824.363 0H891.696V167.794H921V211.412H891.696V260.815ZM790.723 160.249C795.645 151.795 804.817 146.073 815.336 146.073C825.855 146.073 835.027 151.795 839.95 160.249C840.017 160.364 840.08 160.471 840.14 160.571C840.959 161.951 841.004 162.026 837.67 164.115C837.67 164.115 829.131 150.667 815.336 150.667C801.818 150.667 793.003 164.115 793.003 164.115C790.802 162.047 790.074 161.704 790.068 161.35C790.065 161.129 790.344 160.903 790.723 160.249ZM799.169 132.876L796.423 135.608C794.92 137.103 792.432 137.103 790.93 135.608C789.427 134.113 789.427 131.639 790.93 130.144L793.676 127.412L790.93 124.679C789.427 123.184 789.427 120.71 790.93 119.215C792.432 117.72 794.92 117.72 796.423 119.215L799.169 121.947L801.915 119.215C803.418 117.72 805.905 117.72 807.408 119.215C808.911 120.71 808.911 123.184 807.408 124.679L804.662 127.412L807.408 130.144C808.911 131.639 808.911 134.113 807.408 135.608C805.905 137.103 803.418 137.103 801.915 135.608L799.169 132.876ZM763.518 138.34C763.518 109.833 786.681 86.79 815.284 86.79C843.94 86.79 867.155 109.833 867.155 138.34C867.155 166.848 843.888 189.891 815.284 189.891C786.681 189.891 763.518 166.848 763.518 138.34ZM773.881 138.34C773.881 161.125 792.432 179.58 815.336 179.58C838.24 179.58 856.791 161.125 856.791 138.34C856.791 115.555 838.24 97.1 815.336 97.1C792.432 97.1 773.881 115.555 773.881 138.34ZM831.504 121.947L834.25 119.215C835.753 117.72 838.24 117.72 839.743 119.215C841.246 120.71 841.246 123.184 839.743 124.679L836.996 127.412L839.743 130.144C841.246 131.639 841.246 134.113 839.743 135.608C838.24 137.103 835.753 137.103 834.25 135.608L831.504 132.876L828.757 135.608C827.255 137.103 824.767 137.103 823.265 135.608C821.762 134.113 821.762 131.639 823.265 130.144L826.011 127.412L823.265 124.679C821.762 123.184 821.762 120.71 823.265 119.215C824.767 117.72 827.255 117.72 828.757 119.215L831.504 121.947Z" fill="url(#paint1_linear_5456_101165)"/>
<path fill-rule="evenodd" clip-rule="evenodd" d="M228.783 130.335C228.783 124.963 233.161 120.608 238.561 120.608H297.223C302.623 120.608 307 124.963 307 130.335C307 135.706 302.623 140.061 297.223 140.061H238.561C233.161 140.061 228.783 135.706 228.783 130.335Z" fill="url(#paint2_linear_5456_101165)"/>
<path fill-rule="evenodd" clip-rule="evenodd" d="M608.134 130.335C608.134 124.963 612.511 120.608 617.911 120.608H676.573C681.973 120.608 686.35 124.963 686.35 130.335C686.35 135.706 681.973 140.061 676.573 140.061H617.911C612.511 140.061 608.134 135.706 608.134 130.335Z" fill="url(#paint3_linear_5456_101165)"/>
<path fill-rule="evenodd" clip-rule="evenodd" d="M197.524 261H120.572V211.561H4.47393L0 167.69L130.191 0H197.524V167.913H226.828V211.561H197.524V261ZM72.3503 135.198C72.3503 106.742 95.5132 83.6476 124.117 83.6476C152.773 83.6476 175.987 106.742 175.987 135.198C175.987 163.654 152.773 186.748 124.117 186.748C95.5132 186.748 72.3503 163.654 72.3503 135.198ZM82.714 135.198C82.714 157.983 101.265 176.438 124.169 176.438C147.073 176.438 165.624 157.983 165.624 135.198C165.624 112.413 147.073 93.9577 124.169 93.9577C101.265 93.9577 82.714 112.413 82.714 135.198ZM105.962 131.018C110.603 131.018 114.365 127.275 114.365 122.659C114.365 118.042 110.603 114.299 105.962 114.299C101.321 114.299 97.5593 118.042 97.5593 122.659C97.5593 127.275 101.321 131.018 105.962 131.018ZM150.778 122.659C150.778 127.275 147.016 131.018 142.375 131.018C137.734 131.018 133.972 127.275 133.972 122.659C133.972 118.042 137.734 114.299 142.375 114.299C147.016 114.299 150.778 118.042 150.778 122.659ZM139.574 149.13C139.574 151.415 137.828 153.31 135.723 153.31H112.615C110.509 153.31 108.763 151.415 108.763 149.13C108.763 146.845 110.509 144.951 112.615 144.951H135.723C137.828 144.951 139.574 146.845 139.574 149.13Z" fill="url(#paint4_linear_5456_101165)"/>
<defs>
<linearGradient id="paint0_linear_5456_101165" x1="460.5" y1="0" x2="460.5" y2="261" gradientUnits="userSpaceOnUse">
<stop stop-color="#D8E5D6"/>
<stop offset="0.609375" stop-color="#E0EADF"/>
<stop offset="1" stop-color="#F5F5F5"/>
</linearGradient>
<linearGradient id="paint1_linear_5456_101165" x1="460.5" y1="0" x2="460.5" y2="261" gradientUnits="userSpaceOnUse">
<stop stop-color="#D8E5D6"/>
<stop offset="0.609375" stop-color="#E0EADF"/>
<stop offset="1" stop-color="#F5F5F5"/>
</linearGradient>
<linearGradient id="paint2_linear_5456_101165" x1="460.5" y1="0" x2="460.5" y2="261" gradientUnits="userSpaceOnUse">
<stop stop-color="#D8E5D6"/>
<stop offset="0.609375" stop-color="#E0EADF"/>
<stop offset="1" stop-color="#F5F5F5"/>
</linearGradient>
<linearGradient id="paint3_linear_5456_101165" x1="460.5" y1="0" x2="460.5" y2="261" gradientUnits="userSpaceOnUse">
<stop stop-color="#D8E5D6"/>
<stop offset="0.609375" stop-color="#E0EADF"/>
<stop offset="1" stop-color="#F5F5F5"/>
</linearGradient>
<linearGradient id="paint4_linear_5456_101165" x1="460.5" y1="0" x2="460.5" y2="261" gradientUnits="userSpaceOnUse">
<stop stop-color="#D8E5D6"/>
<stop offset="0.609375" stop-color="#E0EADF"/>
<stop offset="1" stop-color="#F5F5F5"/>
</linearGradient>
</defs>
</svg>
