<svg width="252" height="208" viewBox="0 0 252 208" fill="none" xmlns="http://www.w3.org/2000/svg">
<path fill-rule="evenodd" clip-rule="evenodd" d="M53.4664 163.881H159.237C159.835 163.881 160.419 163.817 160.98 163.694C161.542 163.817 162.125 163.881 162.724 163.881H223.164C227.657 163.881 231.3 160.239 231.3 155.745C231.3 151.252 227.657 147.609 223.164 147.609H216.19C211.697 147.609 208.054 143.966 208.054 139.473C208.054 134.979 211.697 131.337 216.19 131.337H238.274C242.768 131.337 246.41 127.694 246.41 123.2C246.41 118.707 242.768 115.064 238.274 115.064H212.703C217.197 115.064 220.839 111.422 220.839 106.928C220.839 102.435 217.197 98.7919 212.703 98.7919H138.315C142.809 98.7919 146.451 95.1492 146.451 90.6557C146.451 86.1622 142.809 82.5195 138.315 82.5195H72.0634C67.5699 82.5195 63.9272 86.1622 63.9272 90.6557C63.9272 95.1492 67.5699 98.7919 72.0634 98.7919H25.5709C21.0774 98.7919 17.4347 102.435 17.4347 106.928C17.4347 111.422 21.0774 115.064 25.5709 115.064H54.6287C59.1222 115.064 62.7649 118.707 62.7649 123.2C62.7649 127.694 59.1222 131.337 54.6287 131.337H8.13619C3.64269 131.337 0 134.979 0 139.473C0 143.966 3.64269 147.609 8.13619 147.609H53.4664C48.9729 147.609 45.3302 151.252 45.3302 155.745C45.3302 160.239 48.9729 163.881 53.4664 163.881ZM242.923 163.881C247.417 163.881 251.059 160.239 251.059 155.745C251.059 151.252 247.417 147.609 242.923 147.609C238.43 147.609 234.787 151.252 234.787 155.745C234.787 160.239 238.43 163.881 242.923 163.881Z" fill="#F5F5F5"/>
<path d="M168.5 141.996C182.583 141.996 194 130.579 194 116.496C194 102.413 182.583 90.9961 168.5 90.9961C154.417 90.9961 143 102.413 143 116.496C143 130.579 154.417 141.996 168.5 141.996Z" fill="#D8E6D6"/>
<path opacity="0.5" d="M86.4893 174.126C86.4893 174.126 115.807 187.912 127.438 193.203C136.65 197.394 184.087 210.799 189.739 206.989C195.39 203.178 207.867 192.72 203.748 185.554C199.629 178.389 177.965 165.523 167.604 163.644C157.244 161.764 127.618 170.309 127.618 170.309L102.349 174.649L86.4893 174.126Z" fill="url(#paint0_linear_13086_158546)"/>
<path d="M108.219 112.49L75.5488 136.512L84.2598 116.075L116.978 95.3035L108.219 112.49Z" fill="#E2E7EC"/>
<path d="M83.7178 116.498L116.979 95.6758V152.463L86.4895 173.84L83.7178 116.498Z" fill="#FCFCFC"/>
<path d="M116.978 95.6758L167.978 107.607V164.416L116.978 152.484V95.6758Z" fill="#E9EFF1"/>
<path d="M83.7178 116.496L135.827 128.674V185.482L86.4895 174.153L83.7178 116.496Z" fill="#E8EAEB"/>
<path d="M134.717 128.693L167.978 107.871V164.659L134.717 185.481V128.693Z" fill="#D8E6D6"/>
<mask id="mask0_13086_158546" style="mask-type:luminance" maskUnits="userSpaceOnUse" x="134" y="107" width="34" height="79">
<path d="M134.717 128.693L167.978 107.871V164.659L134.717 185.481V128.693Z" fill="white"/>
</mask>
<g mask="url(#mask0_13086_158546)">
<rect x="147.071" y="103.141" width="10.4535" height="87.0742" fill="#6E916B"/>
</g>
<path d="M149.673 145.567L182.391 124.796L167.435 107.871L134.717 128.642L149.673 145.567Z" fill="#E2E7EC"/>
<path fill-rule="evenodd" clip-rule="evenodd" d="M180.089 0.0243934C178.676 0.456377 149.419 17.9611 149.419 17.9611L157.957 18.5978L164.024 25.3029C164.024 25.3029 181.501 -0.40759 180.089 0.0243934Z" fill="#D8E6D6"/>
<mask id="mask1_13086_158546" style="mask-type:luminance" maskUnits="userSpaceOnUse" x="149" y="0" width="32" height="26">
<path fill-rule="evenodd" clip-rule="evenodd" d="M180.089 0.0243934C178.676 0.456377 149.419 17.9611 149.419 17.9611L157.957 18.5978L164.024 25.3029C164.024 25.3029 181.501 -0.40759 180.089 0.0243934Z" fill="white"/>
</mask>
<g mask="url(#mask1_13086_158546)">
<path fill-rule="evenodd" clip-rule="evenodd" d="M157.956 18.5984L180.088 0.0250744L164.023 25.3036L157.956 18.5984Z" fill="#91B18E"/>
</g>
<path fill-rule="evenodd" clip-rule="evenodd" d="M175.695 20.31L165.436 19.2377L180.1 0.206788L175.695 20.31Z" fill="#D8E6D6"/>
<path fill-rule="evenodd" clip-rule="evenodd" d="M156.806 32.9858C157.447 31.6292 158.092 30.2251 158.742 28.7734L159.803 29.2483C159.15 30.7072 158.501 32.1185 157.857 33.4823L156.806 32.9858ZM152.631 41.2615C153.34 39.9545 154.054 38.5856 154.774 37.1548L155.812 37.6772C155.087 39.1184 154.367 40.4978 153.653 41.8153L152.631 41.2615ZM150.353 45.2864C149.527 46.6787 148.71 47.9835 147.9 49.2008L148.868 49.8443C149.689 48.61 150.517 47.2884 151.353 45.8795L150.353 45.2864ZM142.229 56.4454C143.21 55.4285 144.205 54.2681 145.214 52.9641L146.133 53.6755C145.099 55.0116 144.077 56.2037 143.066 57.252L142.229 56.4454ZM138.815 59.4476C137.457 60.4213 136.134 61.0946 134.847 61.471L135.173 62.5866C136.593 62.1713 138.032 61.4387 139.492 60.3923L138.815 59.4476ZM126.65 59.5702C127.929 60.6009 129.228 61.2759 130.55 61.6015L130.273 62.7301C128.777 62.3619 127.326 61.6081 125.921 60.475L126.65 59.5702ZM123.518 56.2665C123.446 56.1723 123.374 56.0768 123.302 55.9801C122.366 54.7207 121.687 53.5255 121.253 52.3965L120.168 52.8131C120.642 54.0464 121.373 55.3329 122.369 56.6733C122.444 56.7741 122.519 56.8737 122.594 56.9721L123.518 56.2665ZM123.239 44.5753C121.984 45.6123 121.176 46.8027 120.847 48.1306L119.719 47.8508C120.112 46.2663 121.061 44.8669 122.499 43.6792L123.239 44.5753ZM127.122 42.3926C128.43 41.8819 129.901 41.4654 131.495 41.151L131.271 40.0106C129.611 40.3378 128.074 40.773 126.699 41.3099L127.122 42.3926ZM140.595 40.4838C139.049 40.4288 137.508 40.4543 136.007 40.56L135.925 39.4005C137.467 39.2919 139.049 39.2658 140.636 39.3222L140.595 40.4838ZM145.222 40.8935C146.779 41.1153 148.287 41.4191 149.71 41.8L150.011 40.6772C148.541 40.284 146.988 39.971 145.385 39.7428L145.222 40.8935ZM157.886 45.6293C156.823 44.7644 155.527 43.9879 154.03 43.3132L154.507 42.2535C156.092 42.9677 157.474 43.7955 158.62 44.7277L157.886 45.6293ZM160.656 49.1194C160.937 49.7709 161.116 50.4496 161.192 51.1555C161.272 51.9023 161.299 52.6529 161.275 53.4076L162.436 53.4454C162.463 52.6369 162.433 51.8323 162.347 51.0317C162.259 50.2094 162.05 49.4176 161.724 48.6599L160.656 49.1194ZM158.795 62.0699C159.543 60.6588 160.122 59.2626 160.532 57.8812L161.646 58.2124C161.213 59.6695 160.605 61.1368 159.822 62.6142L158.795 62.0699ZM156.333 65.9538C155.473 67.1249 154.501 68.3054 153.417 69.495L154.276 70.278C155.387 69.0588 156.385 67.8468 157.27 66.6418L156.333 65.9538ZM146.743 75.7873C147.976 74.7659 149.131 73.7506 150.208 72.7415L151.003 73.5896C149.909 74.6154 148.735 75.6463 147.484 76.6826L146.743 75.7873ZM143.079 78.6621C141.885 79.556 140.631 80.4544 139.319 81.3573L139.978 82.3148C141.303 81.4034 142.568 80.496 143.776 79.5927L143.079 78.6621ZM133.001 85.4586C133.827 84.9503 134.635 84.4434 135.425 83.9379L136.051 84.9168C135.256 85.426 134.442 85.9366 133.611 86.4484L133.001 85.4586Z" fill="#6E916B"/>
<defs>
<linearGradient id="paint0_linear_13086_158546" x1="82.1813" y1="178.907" x2="90.7095" y2="217.152" gradientUnits="userSpaceOnUse">
<stop stop-color="#C4CDD1"/>
<stop offset="1" stop-color="#C6CFD3" stop-opacity="0.01"/>
</linearGradient>
</defs>
</svg>
