<svg width="620" height="176" viewBox="0 0 620 176" fill="none" xmlns="http://www.w3.org/2000/svg">
<g clip-path="url(#clip0_13635_41577)">
<path opacity="0.5" d="M0 8C0 3.58172 3.58172 0 8 0H612C616.418 0 620 3.58172 620 8V176H0V8Z" fill="#91B18E"/>
<mask id="mask0_13635_41577" style="mask-type:alpha" maskUnits="userSpaceOnUse" x="0" y="0" width="620" height="176">
<path d="M0 8C0 3.58172 3.58172 0 8 0H612C616.418 0 620 3.58172 620 8V176H0V8Z" fill="#D8E6D6"/>
</mask>
<g mask="url(#mask0_13635_41577)">
<path opacity="0.4" d="M58.1376 174.582L-21.8594 -95.9462L586.657 -119.031L667.692 -58.7269C258.693 8.49759 124.614 -0.399773 58.1376 174.582Z" fill="#91B18E"/>
<path opacity="0.4" d="M637.572 253.822L516.284 231.898C532.354 173.009 554.11 114.951 645.52 82.2169L679.302 89.1604C648.221 204.878 637.572 253.822 637.572 253.822Z" fill="#91B18E"/>
<path d="M160.963 34.7175L93.3984 -0.992188H176.86C183.119 16.5407 179.699 24.3767 160.963 34.7175Z" fill="white"/>
<path opacity="0.3" d="M93.3984 -19.8398L176.86 -0.993069C179.854 7.39331 180.633 13.5611 178.581 18.8456L93.3984 -19.8398Z" fill="#CBCCD6"/>
<path d="M-3.24555 -45.6289L93.3971 -2.05099C50.7707 56.5111 42.2793 94.2197 49.7221 168.629L-35.7695 110.525L-3.24555 -45.6289Z" fill="#F5F5F5"/>
<path opacity="0.13" d="M477.92 132.928C498.599 109.988 521.307 101.517 531.574 97.2185L497.792 81.3475L238.465 192.444L271.253 216.251L403.401 180.541C430.228 174.159 452.087 161.585 477.92 132.928Z" fill="#2D2D34"/>
<path d="M465.404 43.7275L519.573 74.2201C522.377 78.2915 523.675 81.7535 523.65 85.3125C523.625 88.8711 522.277 92.6008 519.629 97.2109C499.132 104.503 484.436 114.816 469.35 125.403C468.068 126.304 466.782 127.206 465.49 128.108C449.004 139.622 431.407 151.21 404.734 159.47L345.775 120.843L345.826 80.7464L465.404 43.7275Z" fill="#2D2D34" stroke="#2D2D34"/>
<path d="M520.009 73.6734L404.728 110.913L399.007 159.187L345.265 131.911L343.452 79.2163L465.512 42.9586L520.009 73.6734Z" fill="#7C7C84"/>
<path d="M389.949 141.802C389.96 133.38 390.944 126.541 393.301 121.47C395.555 116.62 399.068 113.38 404.246 111.91L404.185 160.316C400.503 160.848 397.023 158.975 394.4 155.62C391.684 152.144 389.943 147.13 389.949 141.802Z" fill="#2D2D34" stroke="#2D2D34"/>
<path d="M442.181 88.76L407.046 65.7185L381.574 71.4508L417.919 96.8939L442.181 88.76Z" fill="#F2B062"/>
<path d="M442.181 88.6942L407.049 65.6763L388.451 70.3722L433.257 91.2115L442.181 88.6942Z" fill="#D5903E"/>
<path d="M441.264 54.3997L441.266 52.0508L448.541 56.8785L455.821 54.6594L455.819 57.0084L448.54 59.2275L441.264 54.3997Z" fill="#6D6F7E"/>
<path d="M448.544 52.1806L441.264 54.3997L448.54 59.2275L455.819 57.0084L448.544 52.1806Z" fill="#6D6F7E"/>
<path d="M448.552 49.7627L441.272 51.9818L448.547 56.8095L455.827 54.5905L448.552 49.7627Z" fill="#A6A7B4"/>
<path d="M455.764 64.122L455.766 61.7734L463.041 66.601L470.321 64.3828L470.319 66.7314L463.04 68.9496L455.764 64.122Z" fill="#6D6F7E"/>
<path d="M463.044 61.9038L455.764 64.122L463.04 68.9496L470.319 66.7314L463.044 61.9038Z" fill="#6D6F7E"/>
<path d="M463.052 59.4859L455.772 61.7041L463.048 66.5317L470.327 64.3135L463.052 59.4859Z" fill="#A6A7B4"/>
<path d="M470.264 73.8485L470.266 71.4999L477.541 76.3274L484.821 74.1092L484.819 76.4578L477.54 78.676L470.264 73.8485Z" fill="#6D6F7E"/>
<path d="M477.544 71.6302L470.264 73.8485L477.54 78.676L484.819 76.4578L477.544 71.6302Z" fill="#6D6F7E"/>
<path d="M477.552 69.2123L470.272 71.4305L477.548 76.2581L484.827 74.0399L477.552 69.2123Z" fill="#A6A7B4"/>
<path d="M455.815 49.6146L455.816 47.2656L463.092 52.0934L470.372 49.8742L470.37 52.2232L463.09 54.4423L455.815 49.6146Z" fill="#6E916B"/>
<path d="M463.095 47.3955L455.815 49.6146L463.09 54.4423L470.37 52.2232L463.095 47.3955Z" fill="#6E916B"/>
<path d="M463.102 44.9775L455.823 47.1966L463.098 52.0244L470.378 49.8053L463.102 44.9775Z" fill="#91B18E"/>
<path d="M470.315 59.3369L470.316 56.9883L477.592 61.8158L484.871 59.5976L484.87 61.9462L477.59 64.1645L470.315 59.3369Z" fill="#D5903E"/>
<path d="M477.595 57.1186L470.315 59.3369L477.59 64.1645L484.87 61.9462L477.595 57.1186Z" fill="#D5903E"/>
<path d="M477.602 54.7007L470.323 56.9189L477.598 61.7465L484.878 59.5283L477.602 54.7007Z" fill="#F2B062"/>
<path d="M484.815 69.0633L484.816 66.7147L492.092 71.5423L499.372 69.324L499.37 71.6726L492.09 73.8909L484.815 69.0633Z" fill="#D96969"/>
<path d="M492.095 66.8451L484.815 69.0633L492.09 73.8909L499.37 71.6726L492.095 66.8451Z" fill="#D96969"/>
<path d="M492.102 64.4272L484.823 66.6454L492.098 71.473L499.378 69.2548L492.102 64.4272Z" fill="#FF8888"/>
<path d="M426.713 59.1849L426.715 56.8359L433.99 61.6637L441.27 59.4446L441.269 61.7935L433.989 64.0126L426.713 59.1849Z" fill="#6D6F7E"/>
<path d="M433.993 56.9658L426.713 59.1849L433.989 64.0126L441.269 61.7935L433.993 56.9658Z" fill="#6D6F7E"/>
<path d="M434.001 54.5478L426.721 56.7669L433.997 61.5947L441.276 59.3756L434.001 54.5478Z" fill="#A6A7B4"/>
<path d="M441.213 68.9072L441.215 66.5586L448.49 71.3862L455.77 69.1679L455.769 71.5165L448.489 73.7348L441.213 68.9072Z" fill="#6D6F7E"/>
<path d="M448.493 66.689L441.213 68.9072L448.489 73.7348L455.769 71.5165L448.493 66.689Z" fill="#6D6F7E"/>
<path d="M448.501 64.271L441.221 66.4892L448.497 71.3168L455.776 69.0986L448.501 64.271Z" fill="#A6A7B4"/>
<path d="M455.713 78.6336L455.715 76.285L462.99 81.1126L470.27 78.8944L470.269 81.243L462.989 83.4612L455.713 78.6336Z" fill="#6D6F7E"/>
<path d="M462.993 76.4154L455.713 78.6336L462.989 83.4612L470.269 81.243L462.993 76.4154Z" fill="#6D6F7E"/>
<path d="M463.001 73.9975L455.721 76.2157L462.997 81.0433L470.276 78.8251L463.001 73.9975Z" fill="#A6A7B4"/>
<path d="M412.163 63.97L412.164 61.6211L419.439 66.4488L426.719 64.2297L426.718 66.5787L419.438 68.7978L412.163 63.97Z" fill="#6D6F7E"/>
<path d="M419.442 61.7509L412.163 63.97L419.438 68.7978L426.718 66.5787L419.442 61.7509Z" fill="#6D6F7E"/>
<path d="M419.45 59.333L412.17 61.5521L419.446 66.3799L426.726 64.1608L419.45 59.333Z" fill="#A6A7B4"/>
<path d="M426.663 73.6924L426.664 71.3438L433.939 76.1713L441.219 73.9531L441.218 76.3017L433.938 78.5199L426.663 73.6924Z" fill="#6D6F7E"/>
<path d="M433.942 71.4741L426.663 73.6924L433.938 78.5199L441.218 76.3017L433.942 71.4741Z" fill="#6D6F7E"/>
<path d="M433.95 69.0562L426.67 71.2744L433.946 76.102L441.226 73.8838L433.95 69.0562Z" fill="#A6A7B4"/>
<path d="M441.163 83.4188L441.164 81.0702L448.44 85.8978L455.719 83.6795L455.718 86.0281L448.438 88.2464L441.163 83.4188Z" fill="#6D6F7E"/>
<path d="M448.442 81.2006L441.163 83.4188L448.438 88.2464L455.718 86.0281L448.442 81.2006Z" fill="#6D6F7E"/>
<path d="M448.45 78.7826L441.17 81.0008L448.446 85.8284L455.726 83.6102L448.45 78.7826Z" fill="#A6A7B4"/>
<path d="M358.313 176.964L358.272 151.889L333.838 147.769L324.9 159.066L358.313 176.964Z" fill="#CBCCD6"/>
<path d="M305.595 209.446L311.147 154.353L256.504 130.695L262.3 185.793L305.595 209.446Z" fill="#CBCCD6"/>
<path d="M411.001 97.8876L411.135 26.6747L369.884 2.26353L356.405 64.9397L411.001 97.8876Z" fill="#CBCCD6"/>
<path d="M374.691 53.4924C374.75 22.1432 406.293 24.3097 411.141 27.2052L372.358 4.04113C355.426 -1.50036 334.756 -2.23487 334.688 33.9375L334.476 146.072C321.173 123.075 290.06 122.371 284.737 142.128L264.133 129.935C264.133 129.935 233.457 114.058 228.904 152.613C224.351 191.167 230.04 193.616 228.808 203.254C227.577 212.892 224.933 209.006 220.042 206.7C214.428 204.054 216.78 204.124 208.191 198.296C199.602 192.467 189.998 194.559 187.549 206.6C185.099 218.642 191.157 223.505 187.503 230.715C183.85 237.926 172.93 237.854 172.93 237.854C172.93 237.854 202.013 257.337 209.288 259.796C216.564 262.256 225.068 256.283 228.722 249.072C232.375 241.862 226.32 235.793 228.763 227.369C231.205 218.945 243.348 214.201 246.979 219.048C250.609 223.895 244.538 226.267 246.953 232.311C249.369 238.356 263.929 238.452 267.596 224.007C271.263 209.562 260.382 188.992 267.703 167.337C275.024 145.681 289.599 137.337 300.49 153.083C311.38 168.829 300.412 194.078 300.394 203.724C300.376 213.37 321.007 211.094 321.034 196.625C321.061 182.156 317.412 186.955 321.084 170.099C324.756 153.242 352.676 146.191 355.085 155.853C357.493 165.515 352.642 164.277 355.053 172.733C357.463 181.19 374.501 178.676 374.479 165.626L374.691 53.4924Z" fill="#F5F5F5"/>
</g>
</g>
<defs>
<clipPath id="clip0_13635_41577">
<path d="M0 24C0 10.7452 10.7452 0 24 0H596C609.255 0 620 10.7452 620 24V176H0V24Z" fill="white"/>
</clipPath>
</defs>
</svg>
