<svg width="420" height="83" viewBox="0 0 420 83" fill="none" xmlns="http://www.w3.org/2000/svg">
<path opacity="0.5" d="M0 8C0 3.58172 3.58172 0 8 0H412C416.418 0 420 3.58172 420 8V83H0V8Z" fill="#91B18E"/>
<mask id="mask0_2441_50410" style="mask-type:alpha" maskUnits="userSpaceOnUse" x="0" y="0" width="420" height="83">
<path d="M0 8C0 3.58172 3.58172 0 8 0H412C416.418 0 420 3.58172 420 8V83H0V8Z" fill="#D8E6D6"/>
</mask>
<g mask="url(#mask0_2441_50410)">
<path opacity="0.4" d="M39.3829 117.807L-14.8086 -64.7446L397.412 -80.3223L452.307 -39.6291C175.243 5.73377 84.4153 -0.270134 39.3829 117.807Z" fill="#91B18E"/>
<path opacity="0.4" d="M431.902 135.513L349.739 120.719C360.625 80.9809 375.363 41.8035 437.286 19.7148L460.171 24.4003C439.116 102.486 431.902 135.513 431.902 135.513Z" fill="#91B18E"/>
<path d="M109.039 23.4278L63.2695 -0.668945H119.808C124.048 11.1622 121.731 16.4499 109.039 23.4278Z" fill="white"/>
<path opacity="0.3" d="M63.2695 -13.3867L119.808 -0.668977C121.836 4.99012 122.364 9.15213 120.974 12.7181L63.2695 -13.3867Z" fill="#CBCCD6"/>
<path d="M-2.1981 -30.79L63.2695 -1.38381C34.3936 38.1337 28.6413 63.5793 33.6832 113.791L-24.2305 74.5823L-2.1981 -30.79Z" fill="#F5F5F5"/>
<path opacity="0.13" d="M323.751 58.9031C337.759 43.4234 353.142 37.7069 360.097 34.8064L337.212 24.0967L161.539 99.0644L183.751 115.129L273.27 91.0322C291.443 86.7259 306.251 78.2404 323.751 58.9031Z" fill="#2D2D34"/>
<path d="M315.314 -1.60804L351.811 18.8797C353.675 21.6114 354.524 23.9239 354.502 26.2959C354.48 28.6674 353.587 31.171 351.813 34.2887C337.945 39.3472 327.985 46.4357 317.779 53.6989C316.909 54.3178 316.038 54.938 315.162 55.5584C304.012 63.4556 292.125 71.3985 274.137 77.1263L234.456 51.1553L234.553 24.0479L315.314 -1.60804Z" fill="#2D2D34" stroke="#2D2D34"/>
<path d="M352.214 18.3757L274.181 44.2189L270.234 77.1186L233.928 58.7683L232.785 22.8894L315.402 -2.31377L352.214 18.3757Z" fill="#7C7C84"/>
<path d="M264.347 64.9283C264.368 59.2429 265.04 54.6426 266.618 51.236C268.092 48.0533 270.359 45.9056 273.678 44.8786L273.562 77.2446C271.213 77.5413 268.985 76.3371 267.284 74.1527C265.487 71.845 264.334 68.4985 264.347 64.9283Z" fill="#2D2D34" stroke="#2D2D34"/>
<path d="M299.504 29.0309L275.768 13.445L258.524 17.4657L283.076 34.6864L299.504 29.0309Z" fill="#F2B062"/>
<path d="M299.503 29.0316L275.766 13.4456L263.174 16.7333L293.46 30.7897L299.503 29.0316Z" fill="#D5903E"/>
<path d="M298.93 5.95652L298.936 4.32422L303.847 7.60558L308.776 5.99003L308.77 7.62234L303.841 9.23788L298.93 5.95652Z" fill="#6D6F7E"/>
<path d="M303.859 4.34097L298.93 5.95652L303.841 9.23788L308.77 7.62234L303.859 4.34097Z" fill="#6D6F7E"/>
<path d="M303.864 2.70923L298.936 4.32469L303.847 7.60614L308.776 5.99068L303.864 2.70923Z" fill="#A6A7B4"/>
<path d="M308.752 12.518L308.758 10.8857L313.669 14.1671L318.598 12.5516L318.592 14.1839L313.663 15.7994L308.752 12.518Z" fill="#6D6F7E"/>
<path d="M313.681 10.9025L308.752 12.518L313.663 15.7994L318.592 14.1839L313.681 10.9025Z" fill="#6D6F7E"/>
<path d="M313.687 9.27075L308.758 10.8862L313.669 14.1677L318.598 12.5522L313.687 9.27075Z" fill="#A6A7B4"/>
<path d="M318.574 19.0805L318.58 17.4482L323.491 20.7296L328.42 19.1141L328.414 20.7464L323.485 22.3619L318.574 19.0805Z" fill="#6D6F7E"/>
<path d="M323.503 17.465L318.574 19.0805L323.485 22.3619L328.414 20.7464L323.503 17.465Z" fill="#6D6F7E"/>
<path d="M323.509 15.8333L318.58 17.4487L323.491 20.7302L328.42 19.1147L323.509 15.8333Z" fill="#A6A7B4"/>
<path d="M308.785 2.72703L308.791 1.09473L313.702 4.37609L318.631 2.76054L318.625 4.39284L313.696 6.00839L308.785 2.72703Z" fill="#6E916B"/>
<path d="M313.714 1.11148L308.785 2.72703L313.696 6.00839L318.625 4.39284L313.714 1.11148Z" fill="#6E916B"/>
<path d="M313.72 -0.520265L308.791 1.09519L313.702 4.37664L318.631 2.76119L313.72 -0.520265Z" fill="#91B18E"/>
<path d="M318.607 9.28855L318.613 7.65625L323.524 10.9376L328.453 9.32206L328.447 10.9544L323.518 12.5699L318.607 9.28855Z" fill="#D5903E"/>
<path d="M323.536 7.67301L318.607 9.28855L323.518 12.5699L328.447 10.9544L323.536 7.67301Z" fill="#D5903E"/>
<path d="M323.542 6.04126L318.613 7.65672L323.524 10.9382L328.453 9.32271L323.542 6.04126Z" fill="#F2B062"/>
<path d="M328.43 15.8511L328.436 14.2188L333.347 17.5001L338.276 15.8846L338.27 17.5169L333.341 19.1324L328.43 15.8511Z" fill="#D96969"/>
<path d="M333.359 14.2355L328.43 15.8511L333.341 19.1324L338.27 17.5169L333.359 14.2355Z" fill="#D96969"/>
<path d="M333.364 12.6038L328.436 14.2192L333.347 17.5007L338.276 15.8852L333.364 12.6038Z" fill="#FF8888"/>
<path d="M289.072 9.18601L289.078 7.55371L293.989 10.8351L298.918 9.21952L298.912 10.8518L293.983 12.4674L289.072 9.18601Z" fill="#6D6F7E"/>
<path d="M294.001 7.57047L289.072 9.18601L293.983 12.4674L298.912 10.8518L294.001 7.57047Z" fill="#6D6F7E"/>
<path d="M294.007 5.93872L289.078 7.55418L293.989 10.8356L298.918 9.22017L294.007 5.93872Z" fill="#A6A7B4"/>
<path d="M298.894 15.7475L298.9 14.1152L303.812 17.3966L308.74 15.781L308.735 17.4134L303.806 19.0289L298.894 15.7475Z" fill="#6D6F7E"/>
<path d="M303.823 14.132L298.894 15.7475L303.806 19.0289L308.735 17.4134L303.823 14.132Z" fill="#6D6F7E"/>
<path d="M303.829 12.5002L298.9 14.1157L303.812 17.3972L308.74 15.7817L303.829 12.5002Z" fill="#A6A7B4"/>
<path d="M308.717 22.31L308.723 20.6777L313.634 23.9591L318.563 22.3435L318.557 23.9759L313.628 25.5914L308.717 22.31Z" fill="#6D6F7E"/>
<path d="M313.646 20.6945L308.717 22.31L313.628 25.5914L318.557 23.9759L313.646 20.6945Z" fill="#6D6F7E"/>
<path d="M313.651 19.0627L308.723 20.6782L313.634 23.9597L318.563 22.3442L313.651 19.0627Z" fill="#A6A7B4"/>
<path d="M279.215 12.4145L279.221 10.7822L284.132 14.0636L289.061 12.448L289.055 14.0803L284.126 15.6959L279.215 12.4145Z" fill="#6D6F7E"/>
<path d="M284.144 10.799L279.215 12.4145L284.126 15.6959L289.055 14.0803L284.144 10.799Z" fill="#6D6F7E"/>
<path d="M284.15 9.16724L279.221 10.7827L284.132 14.0641L289.061 12.4487L284.15 9.16724Z" fill="#A6A7B4"/>
<path d="M289.037 18.9761L289.043 17.3438L293.954 20.6251L298.883 19.0096L298.877 20.6419L293.948 22.2574L289.037 18.9761Z" fill="#6D6F7E"/>
<path d="M293.966 17.3605L289.037 18.9761L293.948 22.2574L298.877 20.6419L293.966 17.3605Z" fill="#6D6F7E"/>
<path d="M293.972 15.7288L289.043 17.3442L293.954 20.6257L298.883 19.0102L293.972 15.7288Z" fill="#A6A7B4"/>
<path d="M298.859 25.5386L298.865 23.9062L303.776 27.1876L308.705 25.5721L308.699 27.2044L303.77 28.8199L298.859 25.5386Z" fill="#6D6F7E"/>
<path d="M303.788 23.923L298.859 25.5386L303.77 28.8199L308.699 27.2044L303.788 23.923Z" fill="#6D6F7E"/>
<path d="M303.794 22.2913L298.865 23.9067L303.776 27.1882L308.705 25.5727L303.794 22.2913Z" fill="#A6A7B4"/>
<path d="M242.696 88.6179L242.697 71.637L226.174 68.8988L220.115 76.5678L242.696 88.6179Z" fill="#CBCCD6"/>
<path d="M206.935 110.549L210.75 73.2801L173.85 57.3965L177.703 94.644L206.935 110.549Z" fill="#CBCCD6"/>
<path d="M278.312 35.2579L278.484 -12.8819L250.649 -29.2969L241.473 13.1002L278.312 35.2579Z" fill="#CBCCD6"/>
<path d="M253.808 4.97849C253.884 -16.2359 275.21 -14.8362 278.485 -12.887L252.287 -28.4806C240.845 -32.1949 226.869 -32.6484 226.781 -8.17019L226.51 67.7122C217.541 52.1781 196.504 51.7675 192.882 65.148L178.964 56.9404C178.964 56.9404 158.239 46.2614 155.117 72.3609C151.994 98.4605 155.838 100.106 154.994 106.63C154.151 113.155 152.367 110.531 149.063 108.981C145.27 107.202 146.86 107.244 141.059 103.318C135.258 99.3924 128.761 100.828 127.091 108.982C125.422 117.135 129.512 120.413 127.033 125.301C124.554 130.188 117.171 130.162 117.171 130.162C117.171 130.162 136.814 143.285 141.731 144.934C146.647 146.583 152.405 142.523 154.883 137.636C157.362 132.749 153.275 128.655 154.936 122.949C156.597 117.243 164.813 114.008 167.263 117.28C169.712 120.552 165.604 122.17 167.23 126.255C168.857 130.341 178.702 130.375 181.198 120.592C183.694 110.809 176.36 96.9129 181.335 82.243C186.31 67.5731 196.175 61.8956 203.521 72.5283C210.867 83.1611 203.422 100.27 203.399 106.798C203.375 113.325 217.328 111.742 217.363 101.95C217.398 92.1591 214.925 95.4144 217.427 83.9997C219.929 72.5851 238.816 67.7547 240.434 74.2879C242.051 80.8211 238.773 79.9938 240.393 85.7111C242.013 91.4283 253.537 89.6918 253.537 80.8609L253.808 4.97849Z" fill="#F5F5F5"/>
</g>
</svg>
