<svg width="320" height="320" viewBox="0 0 320 320" fill="none" xmlns="http://www.w3.org/2000/svg">
<path d="M120 93.3333H93.3333V120H120V93.3333ZM120 146.667H93.3333V173.333H120V146.667ZM120 40C105.2 40 93.3333 52 93.3333 66.6667H120V40ZM173.333 200H146.667V226.667H173.333V200ZM253.333 40V66.6667H280C280 52 268 40 253.333 40ZM173.333 40H146.667V66.6667H173.333V40ZM120 226.667V200H93.3333C93.3333 214.667 105.2 226.667 120 226.667ZM253.333 173.333H280V146.667H253.333V173.333ZM253.333 120H280V93.3333H253.333V120ZM253.333 226.667C268 226.667 280 214.667 280 200H253.333V226.667ZM53.3333 93.3333C46 93.3333 40 99.3333 40 106.667V253.333C40 268 52 280 66.6667 280H213.333C220.667 280 226.667 274 226.667 266.667C226.667 259.333 220.667 253.333 213.333 253.333H80C72.6667 253.333 66.6667 247.333 66.6667 240V106.667C66.6667 99.3333 60.6667 93.3333 53.3333 93.3333ZM200 66.6667H226.667V40H200V66.6667ZM200 226.667H226.667V200H200V226.667Z" fill="#F5F5F5"/>
<path d="M148.933 127.333H170.8C176.813 127.333 181.733 122.413 181.733 116.4V94.5333C181.733 88.52 176.813 83.6 170.8 83.6H148.933C142.92 83.6 138 88.52 138 94.5333V116.4C138 122.413 142.92 127.333 148.933 127.333ZM148.933 94.5333H170.8V116.4H148.933V94.5333Z" fill="#D8E6D6"/>
<path d="M148.933 182H170.8C176.813 182 181.733 177.08 181.733 171.067V149.2C181.733 143.187 176.813 138.267 170.8 138.267H148.933C142.92 138.267 138 143.187 138 149.2V171.067C138 177.08 142.92 182 148.933 182ZM148.933 149.2H170.8V171.067H148.933V149.2Z" fill="#D8E6D6"/>
<path d="M192.667 94.5333V116.4C192.667 122.413 197.587 127.333 203.6 127.333H225.467C231.48 127.333 236.4 122.413 236.4 116.4V94.5333C236.4 88.52 231.48 83.6 225.467 83.6H203.6C197.587 83.6 192.667 88.52 192.667 94.5333ZM225.467 116.4H203.6V94.5333H225.467V116.4Z" fill="#D8E6D6"/>
<path d="M236.4 179.267V173.8C236.4 172.269 235.197 171.067 233.667 171.067H228.2C226.669 171.067 225.467 172.269 225.467 173.8V179.267C225.467 180.797 226.669 182 228.2 182H233.667C235.197 182 236.4 180.797 236.4 179.267Z" fill="#D8E6D6"/>
<path d="M192.667 141V146.467C192.667 147.997 193.869 149.2 195.4 149.2H200.867C202.397 149.2 203.6 147.997 203.6 146.467V141C203.6 139.469 202.397 138.267 200.867 138.267H195.4C193.869 138.267 192.667 139.469 192.667 141Z" fill="#D8E6D6"/>
<path d="M211.8 149.2H206.333C204.803 149.2 203.6 150.403 203.6 151.933V157.4C203.6 158.931 204.803 160.133 206.333 160.133H211.8C213.331 160.133 214.533 158.931 214.533 157.4V151.933C214.533 150.403 213.331 149.2 211.8 149.2Z" fill="#D8E6D6"/>
<path d="M192.667 162.867V168.333C192.667 169.864 193.869 171.067 195.4 171.067H200.867C202.397 171.067 203.6 169.864 203.6 168.333V162.867C203.6 161.336 202.397 160.133 200.867 160.133H195.4C193.869 160.133 192.667 161.336 192.667 162.867Z" fill="#D8E6D6"/>
<path d="M206.333 182H211.8C213.331 182 214.533 180.797 214.533 179.267V173.8C214.533 172.269 213.331 171.067 211.8 171.067H206.333C204.803 171.067 203.6 172.269 203.6 173.8V179.267C203.6 180.797 204.803 182 206.333 182Z" fill="#D8E6D6"/>
<path d="M217.267 171.067H222.733C224.264 171.067 225.467 169.864 225.467 168.333V162.867C225.467 161.336 224.264 160.133 222.733 160.133H217.267C215.736 160.133 214.533 161.336 214.533 162.867V168.333C214.533 169.864 215.736 171.067 217.267 171.067Z" fill="#D8E6D6"/>
<path d="M222.733 138.267H217.267C215.736 138.267 214.533 139.469 214.533 141V146.467C214.533 147.997 215.736 149.2 217.267 149.2H222.733C224.264 149.2 225.467 147.997 225.467 146.467V141C225.467 139.469 224.264 138.267 222.733 138.267Z" fill="#D8E6D6"/>
<path d="M228.2 160.133H233.667C235.197 160.133 236.4 158.931 236.4 157.4V151.933C236.4 150.403 235.197 149.2 233.667 149.2H228.2C226.669 149.2 225.467 150.403 225.467 151.933V157.4C225.467 158.931 226.669 160.133 228.2 160.133Z" fill="#D8E6D6"/>
<path d="M60.9333 62.1333C62.4797 62.1333 63.7333 60.8797 63.7333 59.3333C63.7333 57.7869 62.4797 56.5333 60.9333 56.5333C59.3869 56.5333 58.1333 57.7869 58.1333 59.3333C58.1333 60.8797 59.3869 62.1333 60.9333 62.1333Z" fill="#D8E6D6"/>
<path d="M47.8667 62.1333C49.4131 62.1333 50.6667 60.8797 50.6667 59.3333C50.6667 57.7869 49.4131 56.5333 47.8667 56.5333C46.3203 56.5333 45.0667 57.7869 45.0667 59.3333C45.0667 60.8797 46.3203 62.1333 47.8667 62.1333Z" fill="#D8E6D6"/>
<path d="M54.3813 45.3333C44.0773 45.3333 35.7333 53.696 35.7333 64C35.7333 74.304 44.0773 82.6667 54.3813 82.6667C64.704 82.6667 73.0667 74.304 73.0667 64C73.0667 53.696 64.704 45.3333 54.3813 45.3333ZM54.4 78.9333C46.1493 78.9333 39.4667 72.2507 39.4667 64C39.4667 55.7493 46.1493 49.0667 54.4 49.0667C62.6507 49.0667 69.3333 55.7493 69.3333 64C69.3333 72.2507 62.6507 78.9333 54.4 78.9333ZM54.4 67.7333C50.8533 67.7333 47.624 69.544 45.72 72.5493C45.3093 73.2027 45.5147 74.0613 46.168 74.472C46.8213 74.8827 47.68 74.6773 48.0907 74.024C49.472 71.8213 51.824 70.5147 54.4 70.5147C56.976 70.5147 59.328 71.8213 60.7093 74.024C60.9707 74.4533 61.4373 74.6773 61.904 74.6773C62.1653 74.6773 62.408 74.6027 62.6507 74.472C63.304 74.0613 63.5093 73.2027 63.0987 72.5493C61.176 69.5253 57.9467 67.7333 54.4 67.7333Z" fill="#D8E6D6"/>
<path d="M259.2 284.267C248.89 284.267 240.533 275.91 240.533 265.6C240.533 255.29 248.89 246.933 259.2 246.933C269.51 246.933 277.867 255.29 277.867 265.6C277.867 275.91 269.51 284.267 259.2 284.267ZM259.2 280.533C263.161 280.533 266.959 278.96 269.759 276.159C272.56 273.359 274.133 269.561 274.133 265.6C274.133 261.639 272.56 257.841 269.759 255.041C266.959 252.24 263.161 250.667 259.2 250.667C255.239 250.667 251.441 252.24 248.641 255.041C245.84 257.841 244.267 261.639 244.267 265.6C244.267 269.561 245.84 273.359 248.641 276.159C251.441 278.96 255.239 280.533 259.2 280.533ZM259.2 262.961L264.479 257.68L267.12 260.321L261.839 265.6L267.12 270.879L264.479 273.52L259.2 268.239L253.921 273.52L251.28 270.879L256.561 265.6L251.28 260.321L253.921 257.68L259.2 262.961Z" fill="#D8E6D6"/>
</svg>
