<svg width="420" height="83" viewBox="0 0 420 83" fill="none" xmlns="http://www.w3.org/2000/svg">
<path d="M0 8C0 3.58172 3.58172 0 8 0H412C416.418 0 420 3.58172 420 8V83H0V8Z" fill="#D8E6D6"/>
<mask id="mask0_13_989" style="mask-type:alpha" maskUnits="userSpaceOnUse" x="0" y="0" width="420" height="83">
<path d="M0 8C0 3.58172 3.58172 0 8 0H412C416.418 0 420 3.58172 420 8V83H0V8Z" fill="#D8E6D6"/>
</mask>
<g mask="url(#mask0_13_989)">
<path opacity="0.4" d="M273 50H-2.11439L-54 146H600L273 50Z" fill="#91B18E"/>
<path d="M9.38847 225.154C3.93712 213.658 -1.34777 198.631 -4.83634 181.658L-61.9935 6.8854C24.8879 -14.8243 172.868 -44.3641 69.7345 11.1548C-8.8012 53.4324 -15.9749 127.465 -4.83634 181.658L9.38847 225.154Z" fill="#F2B062"/>
<path d="M-41.3225 135.539C-43.2855 124.812 -44.3273 111.199 -43.4503 96.3734L-52 -60.9994C24.7448 -59.6995 153.81 -51.3285 56.1101 -28.243C-18.288 -10.6634 -40.65 49.0364 -43.4503 96.3734L-41.3225 135.539Z" fill="#D5903E"/>
<path d="M223.833 32.4361L219.861 32.2041C219.51 32.1836 219.165 32.3033 218.902 32.537C218.639 32.7707 218.48 33.0992 218.46 33.4502L218.228 37.4206C218.102 39.1351 220.799 39.2989 220.874 37.5767L221.029 34.9292L223.678 35.0836C225.394 35.2096 225.552 32.5105 223.833 32.4361ZM251.636 34.0673L247.664 33.8334C245.948 33.7074 245.79 36.4055 247.508 36.4818L250.157 36.6372L250.001 39.2855C249.877 40.9983 252.575 41.1621 252.65 39.4399L252.882 35.4695C252.902 35.1185 252.782 34.7736 252.549 34.5108C252.315 34.248 251.988 34.0879 251.636 34.0673ZM219.787 56.1129L219.943 53.4635C220.069 51.749 217.371 51.5889 217.295 53.3083L217.062 57.2814C217.044 57.632 217.164 57.9756 217.397 58.2379C217.631 58.5003 217.958 58.6601 218.308 58.6828L222.281 58.9148C224.001 59.0428 224.151 56.3425 222.436 56.2673L219.787 56.1129ZM250.471 53.9262C250.12 53.9057 249.775 54.0255 249.512 54.2591C249.25 54.4928 249.09 54.8213 249.07 55.1724L248.914 57.8199L246.267 57.6646C244.535 57.5706 244.381 60.2041 246.112 60.3121L250.083 60.545C250.434 60.5655 250.779 60.4458 251.042 60.2121C251.304 59.9784 251.464 59.6499 251.484 59.2989L251.718 55.3286C251.728 55.1546 251.704 54.9803 251.647 54.8156C251.59 54.651 251.501 54.4992 251.385 54.369C251.269 54.2387 251.129 54.1326 250.972 54.0566C250.815 53.9806 250.645 53.9363 250.471 53.9262Z" fill="#D8E6D6"/>
<path d="M224.846 37.8093L223.916 53.6953C223.841 55.4175 221.144 55.2547 221.268 53.54L222.199 37.6522C222.275 35.9338 224.972 36.0929 224.846 37.8093ZM231.417 55.0754C231.221 55.2496 230.977 55.3619 230.718 55.3978C230.458 55.4338 230.193 55.392 229.957 55.2776C229.721 55.1632 229.524 54.9814 229.392 54.7552C229.259 54.529 229.196 54.2685 229.212 54.0067L230.142 38.1189C230.218 36.3995 232.916 36.5578 232.79 38.2741L231.859 54.162C231.849 54.3359 231.805 54.5061 231.729 54.6628C231.653 54.8196 231.547 54.9598 231.417 55.0754Z" fill="#D8E6D6"/>
<path d="M226.719 51.2035C226.368 51.1829 226.039 51.0236 225.805 50.7608C225.572 50.498 225.452 50.1532 225.472 49.8021L226.171 37.8865C226.279 36.1559 228.913 36.3094 228.819 38.0418L228.12 49.9574C228.099 50.3084 227.94 50.6369 227.677 50.8706C227.414 51.1043 227.07 51.224 226.719 51.2035ZM232.79 38.2746L231.859 54.1625C231.75 55.8921 229.118 55.7396 229.212 54.0072L230.142 38.1194C230.218 36.4 232.916 36.5582 232.79 38.2746ZM233.416 50.2688L234.114 38.3523C234.223 36.6226 236.856 36.7761 236.761 38.5075L236.063 50.4241C235.987 52.1424 233.289 51.9842 233.416 50.2688ZM240.734 38.7405L239.802 54.6282C239.693 56.3578 237.06 56.2053 237.154 54.4729L238.087 38.5852C238.162 36.8659 240.86 37.0241 240.734 38.7405ZM241.358 50.7327L242.058 38.8181C242.167 37.0885 244.8 37.241 244.705 38.9733L244.007 50.8889C243.931 52.6083 241.232 52.4491 241.358 50.7327ZM248.679 39.2063L247.745 55.093C247.637 56.8236 245.004 56.6701 245.098 54.9378L246.029 39.0509C246.106 37.3326 248.804 37.4908 248.679 39.2063Z" fill="#D8E6D6"/>
<path d="M227.878 53.9277C227.769 55.6461 225.155 55.4937 225.249 53.7736C225.357 52.0552 227.971 52.2084 227.878 53.9277Z" fill="#D8E6D6"/>
<path d="M235.388 55.3089C235.935 54.8221 235.984 53.9839 235.498 53.4365C235.011 52.8892 234.173 52.84 233.625 53.3267C233.078 53.8134 233.029 54.6517 233.516 55.1991C234.002 55.7464 234.841 55.7956 235.388 55.3089Z" fill="#D8E6D6"/>
<path d="M243.331 55.7737C243.879 55.287 243.928 54.4487 243.441 53.9014C242.954 53.354 242.116 53.3049 241.569 53.7916C241.021 54.2783 240.972 55.1166 241.459 55.6639C241.946 56.2113 242.784 56.2604 243.331 55.7737Z" fill="#D8E6D6"/>
<path d="M260.955 29.5164L210.349 26.5565C209.85 26.5228 209.349 26.5888 208.876 26.7508C208.402 26.9127 207.966 27.1672 207.592 27.4996L191.979 41.3832C191.227 42.0534 190.772 42.9942 190.713 43.9994C190.654 45.0047 190.996 45.9922 191.664 46.7456L192.823 48.0489C194.944 48.5771 197.447 48.6103 199.298 47.7437C198.106 45.9209 198.027 43.3809 200.186 41.3581C205.256 37.0806 211.636 44.2578 206.796 48.7911C204.97 50.3309 202.985 50.3732 201.406 49.6043C199.752 50.6815 197.648 51.1152 195.506 51.0657L205.55 62.3609C206.221 63.1151 207.179 63.5743 208.16 63.6196L258.78 66.5953C260.817 66.7579 262.719 65.0677 262.795 63.0271L264.526 33.5322C264.687 31.4975 262.995 29.5927 260.955 29.5164Z" fill="#D8E6D6"/>
<path d="M223.678 35.0829L221.029 34.9285L220.874 37.576C220.8 39.2982 218.103 39.1354 218.227 37.4208L218.46 33.4495C218.48 33.0985 218.639 32.77 218.902 32.5363C219.165 32.3026 219.51 32.1829 219.861 32.2034L223.832 32.4344C225.552 32.5099 225.394 35.2089 223.678 35.0829ZM251.636 34.0666L247.664 33.8328C245.948 33.7068 245.79 36.4048 247.508 36.4811L250.158 36.6365L250.001 39.2849C249.877 40.9976 252.575 41.1614 252.65 39.4392L252.882 35.4689C252.902 35.1178 252.782 34.7729 252.549 34.5101C252.315 34.2473 251.988 34.0872 251.636 34.0666ZM219.787 56.1122L219.943 53.4629C220.069 51.7483 217.371 51.5883 217.295 53.3076L217.062 57.2807C217.044 57.6313 217.164 57.975 217.398 58.2373C217.631 58.4996 217.958 58.6594 218.308 58.6821L222.281 58.9141C224.001 59.0422 224.151 56.3418 222.436 56.2666L219.787 56.1122ZM250.471 53.9256C250.12 53.905 249.775 54.0248 249.512 54.2585C249.25 54.4921 249.09 54.8206 249.07 55.1717L248.914 57.8192L246.267 57.664C244.535 57.5699 244.381 60.2034 246.112 60.3114L250.083 60.5443C250.434 60.5648 250.779 60.4451 251.042 60.2114C251.305 59.9777 251.464 59.6492 251.484 59.2982L251.718 55.3279C251.728 55.1539 251.704 54.9796 251.647 54.815C251.59 54.6503 251.501 54.4985 251.385 54.3683C251.269 54.238 251.129 54.1319 250.972 54.0559C250.815 53.98 250.645 53.9357 250.471 53.9256ZM222.199 37.6546L221.267 53.5415C221.142 55.2551 223.84 55.4189 223.915 53.6967L224.847 37.809C224.972 36.0935 222.274 35.9334 222.199 37.6546ZM231.859 54.1625L232.79 38.2747C232.917 36.5593 230.218 36.4001 230.142 38.1195L229.212 54.0073C229.198 54.1829 229.22 54.3594 229.276 54.5265C229.331 54.6936 229.419 54.8479 229.535 54.9806C229.651 55.1132 229.792 55.2214 229.95 55.2989C230.109 55.3764 230.281 55.4216 230.456 55.4319C230.632 55.4422 230.808 55.4174 230.974 55.3589C231.141 55.3004 231.293 55.2095 231.424 55.0913C231.554 54.9731 231.66 54.8302 231.735 54.6707C231.81 54.5112 231.852 54.3385 231.859 54.1625ZM228.12 49.9574L228.819 38.0418C228.912 36.3085 226.279 36.156 226.171 37.8866L225.472 49.8022C225.459 49.9778 225.481 50.1543 225.536 50.3214C225.592 50.4885 225.68 50.6429 225.796 50.7755C225.912 50.9081 226.053 51.0163 226.211 51.0938C226.369 51.1713 226.541 51.2165 226.717 51.2268C226.893 51.2371 227.069 51.2123 227.235 51.1538C227.401 51.0953 227.554 51.0044 227.685 50.8862C227.815 50.768 227.921 50.6251 227.996 50.4656C228.07 50.3061 228.113 50.1334 228.12 49.9574ZM230.142 38.1195L229.212 54.0073C229.118 55.7397 231.749 55.893 231.859 54.1625L232.79 38.2747C232.917 36.5593 230.218 36.4001 230.142 38.1195ZM236.063 50.4242L236.761 38.5076C236.856 36.7762 234.222 36.6227 234.114 38.3523L233.417 50.2699C233.291 51.9844 235.988 52.1435 236.063 50.4242ZM238.087 38.5853L237.153 54.472C237.06 56.2035 239.692 56.3569 239.802 54.6264L240.733 38.7395C240.859 37.0231 238.162 36.8659 238.087 38.5853ZM244.007 50.889L244.705 38.9734C244.799 37.241 242.166 37.0876 242.058 38.8181L241.359 50.7338C241.233 52.4483 243.931 52.6083 244.007 50.889ZM246.03 39.052L245.098 54.9388C245.005 56.6693 247.637 56.8237 247.746 55.0941L248.679 39.2064C248.804 37.4908 246.106 37.3308 246.03 39.052ZM225.249 53.774C225.156 55.4932 227.769 55.6465 227.878 53.9281C227.971 52.2089 225.357 52.0556 225.249 53.774ZM234.584 52.994C234.409 52.9807 234.232 53.0024 234.065 53.058C233.898 53.1136 233.744 53.2019 233.611 53.3177C233.478 53.4336 233.37 53.5747 233.293 53.7329C233.215 53.891 233.17 54.063 233.16 54.2388C233.149 54.4146 233.174 54.5907 233.233 54.7568C233.291 54.9229 233.382 55.0757 233.5 55.2063C233.618 55.3369 233.761 55.4426 233.921 55.5173C234.08 55.5921 234.253 55.6343 234.429 55.6415C234.776 55.6558 235.116 55.5331 235.373 55.2998C235.631 55.0665 235.787 54.7412 235.808 54.3941C235.828 54.0469 235.711 53.7057 235.482 53.4438C235.254 53.1819 234.931 53.0204 234.584 52.994ZM242.528 53.4589C242.354 53.4487 242.18 53.4729 242.015 53.5301C241.851 53.5873 241.699 53.6764 241.569 53.7922C241.439 53.908 241.333 54.0483 241.257 54.205C241.181 54.3618 241.136 54.532 241.126 54.7059C241.116 54.8798 241.14 55.054 241.198 55.2186C241.255 55.3831 241.344 55.5348 241.46 55.6649C241.575 55.795 241.716 55.9011 241.872 55.977C242.029 56.0529 242.199 56.0972 242.373 56.1073C242.725 56.1278 243.07 56.0079 243.332 55.7741C243.595 55.5402 243.754 55.2115 243.775 54.8603C243.795 54.5091 243.675 54.1641 243.442 53.9013C243.208 53.6385 242.879 53.4793 242.528 53.4589ZM272.271 26.6379L270.542 56.1273C270.466 58.1717 268.563 59.8637 266.525 59.6991L263.003 59.4945L262.795 63.0247C262.718 65.0662 260.816 66.7564 258.781 66.5939L208.159 63.6181C207.662 63.5915 207.176 63.4665 206.728 63.2504C206.28 63.0343 205.879 62.7315 205.549 62.3594L195.507 51.0662C188.795 51.2316 180.844 44.9205 182.971 39.2342C185.339 33.5206 193.007 32.9172 198.671 35.4324L215.338 20.6044C216.093 19.9329 217.099 19.5889 218.1 19.6636L268.7 22.6202C269.706 22.6808 270.647 23.1377 271.317 23.8908C271.986 24.6439 272.33 25.6318 272.273 26.638L272.271 26.6379ZM191.981 41.3848L196.438 37.4208C192.293 36.0316 187.346 36.3447 185.49 40.0714C184.38 43.0076 188.41 47.0832 192.825 48.0504L191.666 46.7472C190.998 45.9938 190.656 45.0062 190.715 44.001C190.774 42.9958 191.229 42.0549 191.981 41.3848ZM261.874 33.3752C261.891 33.0726 261.788 32.7756 261.587 32.5488C261.386 32.3219 261.103 32.1838 260.801 32.1644L210.176 29.2034C210.027 29.1925 209.878 29.2115 209.737 29.2594C209.595 29.3073 209.465 29.383 209.354 29.4821L193.741 43.3649C193.515 43.5671 193.377 43.8509 193.36 44.1542C193.342 44.4574 193.445 44.7554 193.647 44.9826L196.678 48.3919C197.617 48.3164 198.515 48.1088 199.298 47.7432C198.106 45.9205 198.027 43.3804 200.186 41.3577C205.256 37.0801 211.636 44.2573 206.796 48.7907C204.971 50.3314 202.985 50.3727 201.406 49.6038C200.593 50.1251 199.699 50.5067 198.76 50.7328L207.53 60.5959C207.729 60.8189 208.008 60.9555 208.297 60.9686L258.935 63.9463C259.548 63.9954 260.124 63.4853 260.147 62.8685L261.874 33.3752ZM204.11 46.2481C203.946 46.6837 203.738 47.0745 203.511 47.4445C204.019 47.4405 204.551 47.2659 205.054 46.8342C207.355 44.7136 204.299 41.2795 201.925 43.3159C201.037 44.1346 200.953 45.148 201.316 45.9697C201.419 45.7934 201.513 45.6101 201.592 45.4119C202.108 43.7728 204.677 44.6214 204.11 46.2481ZM268.544 25.2686L217.924 22.3099C217.776 22.2991 217.626 22.318 217.485 22.3655C217.343 22.413 217.213 22.4881 217.1 22.5866L212.497 26.6801L260.949 29.5127C262.992 29.5893 264.686 31.4923 264.525 33.5307L263.158 56.847L266.68 57.0516C266.983 57.063 267.278 56.957 267.504 56.7559C267.73 56.5547 267.87 56.2739 267.894 55.9721L269.623 26.4827C269.641 26.1787 269.537 25.8802 269.334 25.6527C269.132 25.4252 268.848 25.2871 268.544 25.2686Z" fill="#6E916B"/>
<path d="M322.29 72.6032C322.117 72.6034 321.946 72.5696 321.787 72.5035C321.627 72.4375 321.482 72.3406 321.36 72.2185L298.93 49.7886C298.808 49.6666 298.712 49.5217 298.645 49.3622C298.579 49.2028 298.545 49.0319 298.545 48.8593C298.545 48.6866 298.579 48.5157 298.645 48.3563C298.712 48.1968 298.808 48.0519 298.93 47.9299C299.052 47.8078 299.197 47.711 299.357 47.645C299.516 47.5789 299.687 47.5449 299.86 47.5449C300.032 47.5449 300.203 47.5789 300.363 47.645C300.522 47.711 300.667 47.8078 300.789 47.9299L323.219 70.3597C323.403 70.5435 323.528 70.7777 323.579 71.0326C323.629 71.2876 323.603 71.5518 323.504 71.7919C323.404 72.032 323.236 72.2373 323.02 72.3817C322.804 72.5261 322.549 72.6032 322.29 72.6032Z" fill="#DDD8D5"/>
<path d="M328.768 71.8201L312.647 55.6986C311.004 54.0562 308.342 54.0562 306.699 55.6986C305.057 57.341 305.057 60.0037 306.699 61.6461L322.821 77.7676C323.642 78.5889 324.718 78.9994 325.794 78.9994C326.871 78.9994 327.947 78.5887 328.768 77.7676C330.411 76.1254 330.411 73.4625 328.768 71.8201Z" fill="#FDC572"/>
<path d="M325.624 76.717L309.503 60.5955C307.861 58.9531 307.861 56.2903 309.503 54.6479C309.567 54.5843 309.634 54.5276 309.701 54.4688C308.615 54.4615 307.527 54.8707 306.699 55.6994C305.057 57.3418 305.057 60.0045 306.699 61.6469L322.82 77.7684C323.21 78.1595 323.674 78.4697 324.184 78.6811C324.695 78.8925 325.242 79.0009 325.794 79.0002C326.817 78.9998 327.804 78.6253 328.57 77.9473C327.503 77.9403 326.438 77.5311 325.624 76.717Z" fill="#FCB74F"/>
<path d="M281.635 4C266.949 4 255 15.9486 255 30.6355C255 45.3223 266.949 57.2709 281.635 57.2709C296.322 57.2709 308.271 45.3223 308.271 30.6355C308.271 15.9486 296.322 4 281.635 4Z" fill="#91B18E"/>
<path d="M281.635 8.20508C269.267 8.20508 259.206 18.2669 259.206 30.6349C259.206 43.0029 269.267 53.0647 281.635 53.0647C294.003 53.0647 304.065 43.0029 304.065 30.6349C304.065 18.2669 294.003 8.20508 281.635 8.20508Z" fill="#6E916B"/>
<path d="M281.635 11.0098C270.814 11.0098 262.009 19.814 262.009 30.6359C262.009 41.4578 270.814 50.2621 281.635 50.2621C292.457 50.2621 301.262 41.4578 301.262 30.6359C301.262 19.814 292.457 11.0098 281.635 11.0098Z" fill="#EEEBEA"/>
<path d="M281.635 13.8135C272.359 13.8135 264.813 21.36 264.813 30.6359C264.813 39.9118 272.359 47.4584 281.635 47.4584C290.911 47.4584 298.458 39.9118 298.458 30.6359C298.458 21.36 290.911 13.8135 281.635 13.8135Z" fill="#F6F5F5"/>
<path d="M273.224 41.0624C272.075 41.0624 271.485 39.6287 272.295 38.8188L289.117 21.9963C289.239 21.8742 289.384 21.7774 289.544 21.7114C289.703 21.6453 289.874 21.6113 290.047 21.6113C290.219 21.6113 290.39 21.6453 290.55 21.7114C290.709 21.7774 290.854 21.8742 290.976 21.9963C291.098 22.1183 291.195 22.2632 291.261 22.4227C291.327 22.5822 291.361 22.7531 291.361 22.9257C291.361 23.0983 291.327 23.2692 291.261 23.4286C291.195 23.5881 291.098 23.733 290.976 23.855L274.154 40.6775C274.032 40.7997 273.887 40.8967 273.727 40.9627C273.568 41.0288 273.397 41.0627 273.224 41.0624ZM288.645 41.0624C286.374 41.0624 284.527 39.2151 284.527 36.9444C284.527 34.6738 286.374 32.8264 288.645 32.8264C290.915 32.8264 292.763 34.6738 292.763 36.9444C292.763 39.2151 290.916 41.0624 288.645 41.0624ZM288.645 35.4551C287.823 35.4551 287.155 36.1231 287.155 36.9446C287.155 37.7661 287.823 38.4342 288.645 38.4342C289.466 38.4342 290.134 37.7661 290.134 36.9446C290.134 36.1231 289.466 35.4551 288.645 35.4551ZM274.626 29.8475C272.356 29.8475 270.508 28.0001 270.508 25.7295C270.508 23.4589 272.356 21.6115 274.626 21.6115C276.897 21.6115 278.744 23.4589 278.744 25.7295C278.744 28.0001 276.897 29.8475 274.626 29.8475ZM274.626 24.24C273.805 24.24 273.137 24.9081 273.137 25.7295C273.137 26.551 273.805 27.2191 274.626 27.2191C275.448 27.2191 276.116 26.551 276.116 25.7295C276.116 24.9081 275.447 24.24 274.626 24.24Z" fill="#AED45B"/>
<path fill-rule="evenodd" clip-rule="evenodd" d="M151.264 -18L210.528 16.25V84.7493L151.264 119L92.0006 84.7493L92 16.25L151.264 -18Z" fill="#F2B062"/>
<path fill-rule="evenodd" clip-rule="evenodd" d="M151.264 119L210.528 84.6213V15.8652L151.264 50.2439L92 15.8652V84.6213L151.264 119Z" fill="#E6B17C"/>
<path fill-rule="evenodd" clip-rule="evenodd" d="M150.494 50.2439L210.528 15.8652V84.6213L150.494 119V50.2439Z" fill="#FDD7AD"/>
<path fill-rule="evenodd" clip-rule="evenodd" d="M113.551 58.1232V28.7896L171.914 -5.68457L188.977 4.39461L130.614 38.8694V68.203L122.082 55.8746L113.551 58.1232Z" fill="#91B18E"/>
<path fill-rule="evenodd" clip-rule="evenodd" d="M113.551 57.9665V28.1797L130.483 38.4153V68.2021L122.017 55.6832L113.551 57.9665Z" fill="#D8E6D6"/>
</g>
</svg>
