<svg width="620" height="176" viewBox="0 0 620 176" fill="none" xmlns="http://www.w3.org/2000/svg">
<g clip-path="url(#clip0_13635_41703)">
<path d="M0 14.3768C0 6.4367 6.43672 0 14.3768 0H605.623C613.563 0 620 6.43672 620 14.3768V176.203H0V14.3768Z" fill="#D8E6D6"/>
<mask id="mask0_13635_41703" style="mask-type:alpha" maskUnits="userSpaceOnUse" x="0" y="0" width="620" height="176">
<path d="M0 14.3768C0 6.43672 6.43672 0 14.3768 0H605.623C613.563 0 620 6.43672 620 14.3768V176H0V14.3768Z" fill="#D8E6D6"/>
</mask>
<g mask="url(#mask0_13635_41703)">
<path opacity="0.4" d="M461 111H5.84133L-80 269H1002L461 111Z" fill="#91B18E"/>
<path d="M13.8571 331.499C5.80988 314.573 -1.99162 292.449 -7.14142 267.459L-91.5163 10.1373C36.7373 -21.8264 255.183 -65.3186 102.939 16.4233C-12.9943 78.6696 -23.584 187.669 -7.14142 267.459L13.8571 331.499Z" fill="#F2B062"/>
<path d="M-61.0035 199.555C-63.9013 183.762 -65.4393 163.719 -64.1446 141.89L-76.7656 -89.8136C36.5243 -87.8998 227.048 -75.5748 82.8254 -41.5855C-27.0003 -15.7027 -60.0108 72.1948 -64.1446 141.89L-61.0035 199.555Z" fill="#D5903E"/>
<path d="M332.067 65.6962L326.203 65.2853C325.685 65.249 325.158 65.4194 324.739 65.7591C324.32 66.0988 324.043 66.58 323.969 67.0969L323.132 72.9426C322.733 75.4665 326.715 75.7548 327.039 73.2187L327.598 69.3207L331.508 69.5942C334.038 69.8097 334.607 65.8358 332.067 65.6962ZM373.11 68.5833L367.246 68.1697C364.716 67.9542 364.146 71.9266 366.686 72.0689L370.597 72.3439L370.036 76.2432C369.64 78.7645 373.621 79.0528 373.946 76.5167L374.783 70.671C374.857 70.1541 374.722 69.6439 374.408 69.2527C374.094 68.8614 373.628 68.6199 373.11 68.5833ZM323.126 100.51L323.685 96.6092C324.085 94.0853 320.102 93.8025 319.777 96.3344L318.938 102.184C318.867 102.7 319.003 103.209 319.317 103.599C319.63 103.99 320.096 104.231 320.613 104.271L326.477 104.681C329.012 104.9 329.571 100.924 327.036 100.783L323.126 100.51ZM368.916 97.8221C368.398 97.7858 367.871 97.9562 367.452 98.2959C367.033 98.6356 366.756 99.1168 366.682 99.6337L366.123 103.532L362.215 103.257C359.657 103.088 359.102 106.966 361.656 107.155L367.518 107.567C368.037 107.603 368.563 107.433 368.982 107.093C369.401 106.754 369.678 106.272 369.752 105.755L370.592 99.91C370.629 99.6538 370.614 99.3966 370.55 99.153C370.486 98.9094 370.373 98.6842 370.217 98.4903C370.061 98.2964 369.866 98.1376 369.643 98.0229C369.42 97.9083 369.173 97.84 368.916 97.8221Z" fill="#D8E6D6"/>
<path d="M332.903 73.7739L329.551 97.1633C329.226 99.6994 325.246 99.4126 325.643 96.8885L328.996 73.4964C329.322 70.966 333.303 71.2473 332.903 73.7739ZM340.507 99.3273C340.194 99.5805 339.82 99.7416 339.43 99.7901C339.04 99.8386 338.653 99.7724 338.317 99.5998C337.981 99.4271 337.711 99.1559 337.543 98.8203C337.374 98.4847 337.313 98.0998 337.369 97.7143L340.721 74.3222C341.047 71.7903 345.029 72.0704 344.629 74.597L341.277 97.9891C341.24 98.2452 341.154 98.4952 341.021 98.7248C340.889 98.9545 340.714 99.1592 340.507 99.3273Z" fill="#D8E6D6"/>
<path d="M333.813 93.3441C333.292 93.3076 332.823 93.0675 332.507 92.6764C332.192 92.2854 332.057 91.7756 332.131 91.259L334.666 73.7264C335.044 71.1801 338.949 71.4518 338.592 74.0009L336.057 91.5336C335.983 92.0501 335.704 92.5311 335.283 92.8706C334.862 93.2101 334.333 93.3804 333.813 93.3441ZM344.481 74.4127L341.103 97.7902C340.723 100.335 336.819 100.065 337.177 97.5156L340.555 74.1382C340.883 71.6079 344.883 71.8876 344.481 74.4127ZM343.91 92.0842L346.443 74.55C346.823 72.0052 350.728 72.2769 350.369 74.8245L347.836 92.3587C347.507 94.8875 343.506 94.6078 343.91 92.0842ZM356.261 75.2366L352.88 98.6138C352.501 101.159 348.597 100.888 348.954 98.3393L352.335 74.962C352.663 72.4317 356.664 72.7115 356.261 75.2366ZM355.688 92.905L358.224 75.3738C358.603 72.829 362.507 73.0992 362.15 75.6484L359.615 93.1811C359.287 95.7114 355.285 95.4301 355.688 92.905ZM368.041 76.0604L364.659 99.4362C364.281 101.982 360.376 101.711 360.733 99.1616L364.113 75.7856C364.442 73.2568 368.442 73.5366 368.041 76.0604Z" fill="#D8E6D6"/>
<path d="M336.396 97.5724C336.022 100.102 332.162 99.8323 332.516 97.2996C332.889 94.7697 336.748 95.041 336.396 97.5724Z" fill="#D8E6D6"/>
<path d="M347.362 99.5995C348.235 98.892 348.412 97.6577 347.758 96.8428C347.104 96.0279 345.866 95.9409 344.994 96.6485C344.121 97.3561 343.944 98.5903 344.598 99.4052C345.252 100.22 346.49 100.307 347.362 99.5995Z" fill="#D8E6D6"/>
<path d="M359.089 100.283C359.961 99.5756 360.138 98.3413 359.484 97.5264C358.83 96.7115 357.593 96.6245 356.72 97.3321C355.848 98.0397 355.671 99.2739 356.325 100.089C356.979 100.904 358.216 100.991 359.089 100.283Z" fill="#D8E6D6"/>
<path d="M387.529 62.0507L312.823 56.8094C312.087 56.751 311.336 56.8396 310.613 57.0699C309.891 57.3002 309.212 57.6677 308.616 58.1509L283.731 78.3346C282.533 79.3089 281.741 80.6871 281.529 82.1671C281.317 83.6471 281.701 85.1081 282.599 86.2298L284.156 88.1701C287.236 88.9853 290.946 89.0776 293.799 87.8331C292.258 85.1268 292.455 81.383 295.909 78.4404C303.961 72.2263 312.535 82.9118 304.792 89.5068C301.893 91.7435 298.942 91.7714 296.696 90.6111C294.108 92.1694 290.932 92.7717 287.761 92.6615L301.259 109.478C302.161 110.601 303.525 111.294 304.975 111.378L379.699 116.643C382.7 116.918 385.733 114.461 386.098 111.456L392.328 68.0295C392.818 65.0345 390.545 62.1988 387.529 62.0507Z" fill="#D8E6D6"/>
<path d="M330.979 69.6135L327.084 69.3395L326.526 73.2395C326.203 75.777 322.237 75.4897 322.633 72.9643L323.469 67.1142C323.543 66.5971 323.819 66.1156 324.236 65.7758C324.654 65.4359 325.178 65.2654 325.694 65.3018L331.535 65.7119C334.067 65.8533 333.5 69.8293 330.979 69.6135ZM372.426 68.6053L366.584 68.191C364.063 67.9752 363.495 71.9497 366.025 72.0923L369.922 72.3677L369.363 76.2691C368.967 78.7918 372.934 79.0805 373.258 76.543L374.092 70.6943C374.166 70.1771 374.032 69.6666 373.719 69.2751C373.406 68.8837 372.942 68.6419 372.426 68.6053ZM322.624 100.545L323.182 96.6426C323.58 94.1174 319.613 93.8341 319.288 96.3673L318.452 102.22C318.381 102.737 318.516 103.245 318.829 103.636C319.141 104.027 319.605 104.268 320.12 104.308L325.962 104.719C328.488 104.938 329.045 100.96 326.519 100.819L322.624 100.545ZM368.243 97.8597C367.727 97.8233 367.203 97.9938 366.785 98.3337C366.368 98.6735 366.092 99.155 366.018 99.6721L365.461 103.572L361.567 103.297C359.018 103.128 358.465 107.007 361.01 107.197L366.85 107.61C367.366 107.646 367.891 107.476 368.308 107.136C368.725 106.796 369.001 106.315 369.075 105.797L369.913 99.9488C369.949 99.6926 369.935 99.4352 369.871 99.1914C369.807 98.9477 369.695 98.7224 369.54 98.5284C369.385 98.3343 369.19 98.1754 368.968 98.0607C368.745 97.946 368.499 97.8777 368.243 97.8597ZM328.474 73.3786L325.13 96.7817C324.733 99.3056 328.7 99.5944 329.023 97.0569L332.37 73.6526C332.767 71.1259 328.799 70.8426 328.474 73.3786ZM340.707 97.8829L344.05 74.4783C344.45 71.9518 340.481 71.6698 340.157 74.2031L336.813 97.6076C336.772 97.8662 336.782 98.1268 336.843 98.3741C336.905 98.6214 337.016 98.8505 337.171 99.048C337.326 99.2455 337.521 99.4075 337.745 99.5245C337.969 99.6415 338.218 99.7112 338.476 99.7294C338.735 99.7477 338.998 99.7142 339.251 99.6309C339.504 99.5477 339.741 99.4162 339.948 99.2443C340.156 99.0724 340.33 98.8635 340.46 98.6298C340.59 98.396 340.674 98.1421 340.707 97.8829ZM335.701 91.6184L338.21 74.0655C338.562 71.5119 334.69 71.241 334.316 73.7902L331.808 91.3432C331.766 91.6018 331.776 91.8624 331.838 92.1097C331.899 92.357 332.011 92.5861 332.166 92.7836C332.32 92.9811 332.516 93.1431 332.74 93.2601C332.964 93.3771 333.212 93.4468 333.471 93.465C333.729 93.4833 333.993 93.4498 334.246 93.3665C334.498 93.2832 334.735 93.1518 334.943 92.9799C335.151 92.808 335.325 92.5991 335.455 92.3654C335.585 92.1316 335.669 91.8777 335.701 91.6184ZM340.157 74.2031L336.813 97.6076C336.46 100.16 340.33 100.432 340.707 97.8829L344.05 74.4783C344.45 71.9518 340.481 71.6698 340.157 74.2031ZM347.383 92.4456L349.891 74.8912C350.245 72.3406 346.372 72.0682 345.997 74.616L343.491 92.1719C343.092 94.6971 347.059 94.9789 347.383 92.4456ZM351.84 75.029L348.493 98.4319C348.141 100.983 352.011 101.255 352.388 98.7058L355.733 75.3028C356.132 72.7748 352.165 72.4958 351.84 75.029ZM359.066 93.2701L361.574 75.7171C361.928 73.165 358.055 72.8926 357.681 75.4419L355.172 92.9949C354.774 95.5201 358.741 95.8033 359.066 93.2701ZM363.522 75.8562L360.177 99.2593C359.824 101.809 363.696 102.082 364.071 99.5345L367.417 76.1302C367.815 73.6035 363.847 73.3202 363.522 75.8562ZM330.985 97.1942C330.635 99.727 334.479 99.9988 334.851 97.4675C335.202 94.9348 331.358 94.663 330.985 97.1942ZM344.879 96.2081C344.621 96.1853 344.358 96.2143 344.104 96.2933C343.85 96.3723 343.611 96.4997 343.401 96.6682C343.19 96.8367 343.013 97.0428 342.879 97.2746C342.745 97.5064 342.656 97.7591 342.619 98.0181C342.582 98.277 342.597 98.5371 342.663 98.7829C342.729 99.0288 342.844 99.2557 343.003 99.4502C343.161 99.6448 343.36 99.8032 343.586 99.9161C343.812 100.029 344.063 100.094 344.322 100.108C344.833 100.135 345.35 99.9604 345.76 99.6209C346.17 99.2815 346.441 98.8047 346.514 98.2933C346.587 97.782 346.456 97.2769 346.151 96.8868C345.845 96.4968 345.388 96.253 344.879 96.2081ZM356.561 97.0325C356.306 97.0145 356.045 97.0472 355.795 97.1286C355.545 97.21 355.309 97.3386 355.103 97.507C354.896 97.6755 354.722 97.8804 354.59 98.1102C354.459 98.34 354.372 98.5901 354.336 98.8463C354.299 99.1025 354.313 99.3597 354.378 99.6033C354.442 99.8468 354.554 100.072 354.71 100.266C354.865 100.46 355.059 100.618 355.281 100.733C355.503 100.848 355.749 100.916 356.005 100.934C356.522 100.97 357.046 100.8 357.464 100.46C357.881 100.119 358.157 99.6376 358.231 99.1203C358.305 98.6029 358.17 98.0923 357.857 97.7007C357.544 97.3092 357.078 97.0688 356.561 97.0325ZM403.842 58.016L397.634 101.457C397.269 104.469 394.247 106.93 391.255 106.652L386.075 106.289L385.33 111.489C384.964 114.497 381.943 116.955 378.956 116.68L304.508 111.406C303.778 111.358 303.074 111.166 302.439 110.839C301.803 110.513 301.249 110.059 300.807 109.505L287.364 92.6814C277.423 92.8075 266.454 83.3647 270.303 75.0196C274.51 66.6385 285.918 65.8833 293.976 69.6904L320.446 48.1241C321.646 47.1474 323.174 46.6579 324.646 46.7855L399.062 52.0308C400.542 52.1377 401.876 52.8277 402.772 53.9497C403.669 55.0716 404.055 56.534 403.845 58.0162L403.842 58.016ZM283.352 78.3478L290.431 72.5824C284.476 70.462 277.127 70.8368 273.922 76.2979C271.917 80.6069 277.369 86.6855 283.774 88.1886L282.223 86.2472C281.329 85.1248 280.946 83.663 281.157 82.1822C281.369 80.7014 282.158 79.3225 283.352 78.3478ZM387.642 67.7656C387.705 67.3198 387.589 66.8801 387.32 66.5422C387.051 66.2043 386.65 65.9957 386.206 65.9618L311.752 60.7097C311.534 60.691 311.311 60.7164 311.096 60.7845C310.881 60.8526 310.679 60.962 310.502 61.1061L285.709 81.2976C285.349 81.5916 285.111 82.0076 285.047 82.4544C284.983 82.9011 285.098 83.3422 285.368 83.6807L289.426 88.7595C290.824 88.6647 292.177 88.3745 293.378 87.8493C291.843 85.1414 292.041 81.3956 295.482 78.4517C303.505 72.2348 312.046 82.9268 304.33 89.5247C301.443 91.764 298.502 91.7901 296.264 90.629C294.998 91.3832 293.629 91.93 292.213 92.2468L303.953 106.94C304.219 107.272 304.615 107.479 305.04 107.503L379.511 112.78C380.411 112.863 381.325 112.121 381.435 111.212L387.642 67.7656ZM300.676 85.7296C300.379 86.3689 300.023 86.9413 299.643 87.4828C300.394 87.4857 301.201 87.2377 301.998 86.6101C305.662 83.5244 301.571 78.4085 297.81 81.3688C296.395 82.5601 296.146 84.0525 296.581 85.2702C296.754 85.0121 296.916 84.7436 297.058 84.4527C298.024 82.0456 301.715 83.3415 300.676 85.7296ZM398.503 55.9322L324.058 50.6835C323.839 50.6649 323.616 50.6902 323.401 50.7577C323.186 50.8253 322.984 50.9338 322.806 51.0769L315.495 57.0307L386.753 62.0555C389.763 62.2042 392.031 65.0391 391.541 68.0412L386.632 102.389L391.812 102.752C392.258 102.774 392.707 102.623 393.067 102.33C393.426 102.038 393.667 101.626 393.74 101.182L399.949 57.7408C400.012 57.2929 399.895 56.8512 399.624 56.5122C399.353 56.1733 398.95 55.9647 398.503 55.9322Z" fill="#6E916B"/>
<path d="M475.758 125.05C475.503 125.051 475.251 125.001 475.015 124.903C474.78 124.806 474.566 124.664 474.386 124.484L441.275 91.4597C441.095 91.28 440.952 91.0667 440.855 90.8319C440.757 90.5971 440.707 90.3455 440.707 90.0914C440.707 89.8372 440.757 89.5856 440.855 89.3508C440.952 89.116 441.095 88.9027 441.275 88.723C441.455 88.5433 441.669 88.4008 441.905 88.3036C442.14 88.2063 442.392 88.1562 442.647 88.1562C442.902 88.1563 443.154 88.2063 443.39 88.3036C443.625 88.4008 443.839 88.5433 444.019 88.723L477.13 121.747C477.401 122.018 477.586 122.362 477.661 122.738C477.735 123.113 477.697 123.502 477.55 123.856C477.403 124.209 477.155 124.511 476.836 124.724C476.517 124.937 476.142 125.05 475.758 125.05Z" fill="#DDD8D5"/>
<path d="M485.318 123.897L461.52 100.161C459.095 97.7431 455.165 97.7431 452.74 100.161C450.316 102.579 450.316 106.5 452.74 108.918L476.538 132.654C477.751 133.863 479.339 134.468 480.928 134.468C482.517 134.468 484.106 133.863 485.318 132.654C487.743 130.236 487.743 126.315 485.318 123.897Z" fill="#FDC572"/>
<path d="M480.677 131.108L456.879 107.372C454.455 104.954 454.455 101.034 456.879 98.6154C456.973 98.5217 457.073 98.4382 457.172 98.3517C455.569 98.3409 453.963 98.9434 452.74 100.163C450.316 102.582 450.316 106.502 452.74 108.92L476.538 132.656C477.114 133.232 477.799 133.689 478.552 134C479.305 134.311 480.113 134.471 480.928 134.47C482.438 134.469 483.896 133.918 485.026 132.92C483.451 132.909 481.879 132.307 480.677 131.108Z" fill="#FCB74F"/>
<path d="M415.745 24.043C394.064 24.043 376.426 41.6352 376.426 63.259C376.426 84.8828 394.064 102.475 415.745 102.475C437.425 102.475 455.064 84.8828 455.064 63.259C455.064 41.6352 437.426 24.043 415.745 24.043Z" fill="#91B18E"/>
<path d="M415.744 30.2344C397.486 30.2344 382.633 45.0487 382.633 63.2584C382.633 81.468 397.486 96.2823 415.744 96.2823C434.001 96.2823 448.854 81.468 448.854 63.2584C448.854 45.0487 434.001 30.2344 415.744 30.2344Z" fill="#6E916B"/>
<path d="M415.745 34.3633C399.77 34.3633 386.773 47.3259 386.773 63.2593C386.773 79.1927 399.77 92.1554 415.745 92.1554C431.721 92.1554 444.717 79.1927 444.717 63.2593C444.717 47.3259 431.721 34.3633 415.745 34.3633Z" fill="#EEEBEA"/>
<path d="M415.743 38.4923C402.05 38.4923 390.91 49.6033 390.91 63.2604C390.91 76.9176 402.05 88.0285 415.743 88.0285C429.436 88.0285 440.576 76.9176 440.576 63.2604C440.576 49.6033 429.436 38.4923 415.743 38.4923Z" fill="#F6F5F5"/>
<path d="M403.326 78.6111C401.629 78.6111 400.759 76.5001 401.954 75.3077L426.787 50.5396C426.967 50.3599 427.181 50.2173 427.417 50.1201C427.652 50.0228 427.904 49.9728 428.159 49.9728C428.414 49.9728 428.666 50.0228 428.901 50.1201C429.137 50.2173 429.351 50.3599 429.531 50.5396C429.711 50.7193 429.854 50.9326 429.952 51.1674C430.049 51.4021 430.099 51.6538 430.099 51.9079C430.099 52.162 430.049 52.4137 429.952 52.6484C429.854 52.8832 429.711 53.0965 429.531 53.2762L404.698 78.0444C404.518 78.2243 404.304 78.3671 404.069 78.4643C403.833 78.5616 403.581 78.6115 403.326 78.6111ZM426.089 78.6111C422.738 78.6111 420.011 75.8912 420.011 72.5481C420.011 69.205 422.738 66.4851 426.089 66.4851C429.441 66.4851 432.168 69.205 432.168 72.5481C432.168 75.8912 429.442 78.6111 426.089 78.6111ZM426.089 70.3552C424.877 70.3552 423.891 71.3389 423.891 72.5483C423.891 73.7578 424.877 74.7414 426.089 74.7414C427.302 74.7414 428.288 73.7578 428.288 72.5483C428.288 71.3389 427.302 70.3552 426.089 70.3552ZM405.395 62.0991C402.043 62.0991 399.316 59.3792 399.316 56.0361C399.316 52.693 402.043 49.9731 405.395 49.9731C408.747 49.9731 411.474 52.693 411.474 56.0361C411.474 59.3792 408.747 62.0991 405.395 62.0991ZM405.395 53.843C404.183 53.843 403.196 54.8266 403.196 56.0361C403.196 57.2456 404.183 58.2292 405.395 58.2292C406.608 58.2292 407.594 57.2456 407.594 56.0361C407.594 54.8266 406.608 53.843 405.395 53.843Z" fill="#AED45B"/>
<path fill-rule="evenodd" clip-rule="evenodd" d="M223.297 -8.34766L310.782 42.0794V142.933L223.297 193.361L135.813 142.933L135.812 42.0794L223.297 -8.34766Z" fill="#F2B062"/>
<path fill-rule="evenodd" clip-rule="evenodd" d="M223.297 193.363L310.782 142.747V41.5156L223.297 92.1322L135.812 41.5156V142.747L223.297 193.363Z" fill="#E6B17C"/>
<path fill-rule="evenodd" clip-rule="evenodd" d="M222.164 92.1322L310.785 41.5156V142.747L222.164 193.363V92.1322Z" fill="#FDD7AD"/>
<path fill-rule="evenodd" clip-rule="evenodd" d="M167.625 103.731V60.5423L253.78 9.78516L278.97 24.625L192.815 75.3831V118.572L180.22 100.42L167.625 103.731Z" fill="#91B18E"/>
<path fill-rule="evenodd" clip-rule="evenodd" d="M167.625 103.5V59.6445L192.621 74.7146V118.571L180.123 100.139L167.625 103.5Z" fill="#D8E6D6"/>
</g>
</g>
<defs>
<clipPath id="clip0_13635_41703">
<path d="M0 24C0 10.7452 10.7452 0 24 0H596C609.255 0 620 10.7452 620 24V176H0V24Z" fill="white"/>
</clipPath>
</defs>
</svg>
