<svg width="122" height="121" viewBox="0 0 122 121" fill="none" xmlns="http://www.w3.org/2000/svg">
<path d="M67.1445 77.9883H0.500009V81.5332C0.500009 87.4067 5.26131 92.168 11.1348 92.168H67.1445V77.9883ZM67.1445 99.2578H49.1836V106.82H42.2854C41.5414 106.82 40.8162 107.054 40.2127 107.489C39.6091 107.925 39.1577 108.538 38.9225 109.244L36.5592 116.334C35.794 118.63 37.5026 121 39.9221 121H69.0522C67.8008 118.847 67.1426 116.401 67.1445 113.91V99.2578ZM110.865 8.8945e-06H11.1348C9.54822 -0.00204707 7.98147 0.352348 6.55024 1.03702L26.4961 20.9829V17.7246C26.4961 15.7669 28.0833 14.1797 30.041 14.1797C31.9988 14.1797 33.5859 15.7669 33.5859 17.7246V29.541C33.5859 31.4988 31.9988 33.0859 30.041 33.0859H18.2246C16.2669 33.0859 14.6797 31.4988 14.6797 29.541C14.6797 27.5833 16.2669 25.9961 18.2246 25.9961H21.4829L1.53702 6.05001C0.852374 7.48132 0.497982 9.04815 0.500009 10.6348V70.8984H67.1445V52.4649C67.1445 44.6462 73.5055 38.2852 81.3242 38.2852H114.41C116.901 38.2832 119.347 38.9414 121.5 40.1928V10.6348C121.5 4.76131 116.739 8.8945e-06 110.865 8.8945e-06Z" fill="#CBCCD6"/>
<path d="M114.41 45.375H81.3242C80.6892 45.375 80.0745 45.4596 79.4889 45.6163L96.6855 62.8129V59.5547C96.6855 57.5969 98.2727 56.0098 100.23 56.0098C102.188 56.0098 103.775 57.5969 103.775 59.5547V71.3711C103.775 73.3288 102.188 74.916 100.23 74.916H88.4141C86.4563 74.916 84.8691 73.3288 84.8691 71.3711C84.8691 69.4134 86.4563 67.8262 88.4141 67.8262H91.6723L74.4757 50.6293C74.3154 51.228 74.2342 51.8451 74.2344 52.4648V113.91C74.2344 117.826 77.4085 121 81.3242 121H114.41C118.326 121 121.5 117.826 121.5 113.91V52.4648C121.5 48.5491 118.326 45.375 114.41 45.375Z" fill="#CBCCD6"/>
</svg>
