<svg width="120" height="64" viewBox="0 0 120 64" fill="none" xmlns="http://www.w3.org/2000/svg">
<path d="M17.5742 17.9889C28.9065 6.74857 43.9741 0.658676 60.0007 0.658676V31.7715C52.3797 31.7715 45.2148 34.7153 39.8258 40.0603L28.7 29.0246L17.5742 17.9889Z" fill="#FFD447"/>
<path d="M102.426 17.9889C91.0935 6.74857 76.0259 0.658676 59.9993 0.658676V31.7715C67.6203 31.7715 74.7852 34.7153 80.1742 40.0603L91.3 29.0246L102.426 17.9889Z" fill="#FF911E"/>
<path d="M17.5744 17.9885C6.24186 29.229 0 44.1741 0 60.0706C0 61.9964 1.57407 63.5577 3.51563 63.5577H27.9533C29.8948 63.5577 31.4689 61.9964 31.4689 60.0706C31.4689 52.5113 34.4373 45.4049 39.826 40.0599L28.7002 29.0242L17.5744 17.9885Z" fill="#2C7BB6"/>
<path d="M102.25 17.9885C113.582 29.229 119.824 44.1741 119.824 60.0706C119.824 61.9964 118.25 63.5577 116.309 63.5577H91.8709C89.9294 63.5577 88.3553 61.9964 88.3553 60.0706C88.3553 52.5113 85.387 45.4049 79.9982 40.0599L102.25 17.9885Z" fill="#C04543"/>
</svg>
