<svg width="420" height="84" viewBox="0 0 420 84" fill="none" xmlns="http://www.w3.org/2000/svg">
<path opacity="0.5" d="M0 8C0 3.58172 3.58172 0 8 0H412C416.418 0 420 3.58172 420 8V84H0V8Z" fill="#91B18E"/>
<mask id="mask0_10_6823" style="mask-type:alpha" maskUnits="userSpaceOnUse" x="0" y="0" width="420" height="84">
<path d="M0 8C0 3.58172 3.58172 0 8 0H412C416.418 0 420 3.58172 420 8V84H0V8Z" fill="#D8E6D6"/>
</mask>
<g mask="url(#mask0_10_6823)">
<path opacity="0.3" d="M-18.8462 78.5802V-16.7512L393.375 -32.5166L433.462 30.4834C156.398 76.3928 93.5577 -2.03273 -18.8462 78.5802Z" fill="#91B18E"/>
<rect x="218.805" y="33.7588" width="6.17993" height="66.8629" fill="#6D6F7E"/>
<rect x="388.753" y="33.7588" width="6.17993" height="66.8629" fill="#6D6F7E"/>
<path d="M193.349 -16H422.564L438.192 36.8684H174L193.349 -16Z" fill="#F2B062"/>
<path d="M188.677 46.1979C196.783 46.1979 203.355 42.0208 203.355 36.8682H174C174 42.0208 180.571 46.1979 188.677 46.1979Z" fill="#D5903E"/>
<path d="M218.032 46.1979C226.138 46.1979 232.709 42.0208 232.709 36.8682H203.355C203.355 42.0208 209.926 46.1979 218.032 46.1979Z" fill="#D5903E"/>
<path d="M247.387 46.1979C255.493 46.1979 262.064 42.0208 262.064 36.8682H232.709C232.709 42.0208 239.281 46.1979 247.387 46.1979Z" fill="#D5903E"/>
<path d="M276.741 46.1979C284.848 46.1979 291.419 42.0208 291.419 36.8682H262.064C262.064 42.0208 268.635 46.1979 276.741 46.1979Z" fill="#D5903E"/>
<path d="M306.096 46.1979C314.202 46.1979 320.773 42.0208 320.773 36.8682H291.419C291.419 42.0208 297.99 46.1979 306.096 46.1979Z" fill="#D5903E"/>
<path d="M335.451 46.1979C343.557 46.1979 350.128 42.0208 350.128 36.8682H320.774C320.774 42.0208 327.345 46.1979 335.451 46.1979Z" fill="#D5903E"/>
<path d="M364.806 46.1979C372.912 46.1979 379.483 42.0208 379.483 36.8682H350.128C350.128 42.0208 356.7 46.1979 364.806 46.1979Z" fill="#D5903E"/>
<path d="M394.16 46.1979C402.266 46.1979 408.838 42.0208 408.838 36.8682H379.483C379.483 42.0208 386.054 46.1979 394.16 46.1979Z" fill="#D5903E"/>
<path d="M423.515 46.1979C431.621 46.1979 438.192 42.0208 438.192 36.8682H408.838C408.838 42.0208 415.409 46.1979 423.515 46.1979Z" fill="#D5903E"/>
<path d="M207.99 4.21387H212.625L206.445 36.8679H201.81L207.99 4.21387Z" fill="#F4DFC2"/>
<path d="M234.254 4.21387H238.889L235.799 36.8679H231.164L234.254 4.21387Z" fill="#F4DFC2"/>
<path d="M262.064 4.21387H266.699L265.154 36.8679H260.519L262.064 4.21387Z" fill="#F4DFC2"/>
<rect x="289.874" y="4.21387" width="4.63494" height="32.654" fill="#F4DFC2"/>
<rect x="319.228" y="4.21387" width="4.63498" height="32.654" fill="#F4DFC2"/>
<path d="M347.038 4.21387H351.673L353.218 36.8679H348.583L347.038 4.21387Z" fill="#F4DFC2"/>
<path d="M374.848 4.21387H379.483L382.573 36.8679H377.938L374.848 4.21387Z" fill="#F4DFC2"/>
<path d="M401.113 4.21387H405.748L411.928 36.8679H407.293L401.113 4.21387Z" fill="#F4DFC2"/>
<path opacity="0.4" d="M422.564 -16H193.349L183.675 10.4342L433.366 20.5414L422.564 -16Z" fill="#D5903E"/>
<path d="M61.3121 9.40137H149.879V53.3439H61.3121V9.40137Z" fill="#91B18E"/>
<path fill-rule="evenodd" clip-rule="evenodd" d="M72.8993 14.0029H138.291C138.291 17.0368 140.751 19.4959 143.784 19.4959V40.2638C140.75 40.2638 138.291 42.7232 138.291 45.7568H72.8993C72.8993 42.7232 70.4399 40.2638 67.406 40.2638V19.4959C70.4399 19.4959 72.8993 17.0365 72.8993 14.0029Z" fill="#6E916B"/>
<path fill-rule="evenodd" clip-rule="evenodd" d="M72.8993 15.4951H138.291C138.291 18.529 140.751 20.9881 143.784 20.9881V41.7563C140.75 41.7563 138.291 44.2157 138.291 47.2493H72.8993C72.8993 44.2157 70.4399 41.7563 67.406 41.7563V20.9884C70.4399 20.9884 72.8993 18.529 72.8993 15.4954V15.4951Z" fill="white"/>
<path d="M116.772 42.5671C122.952 36.3875 122.952 26.3684 116.772 20.1887C110.593 14.0091 100.573 14.0091 94.3938 20.1887C88.2142 26.3684 88.2142 36.3875 94.3938 42.5671C100.573 48.7467 110.593 48.7467 116.772 42.5671Z" fill="#6E916B"/>
<path fill-rule="evenodd" clip-rule="evenodd" d="M107.274 15.6367C115.224 16.4751 121.419 23.1998 121.419 31.372C121.419 39.5443 115.224 46.269 107.274 47.1074C99.3234 46.269 93.1282 39.5443 93.1282 31.372C93.1282 23.1998 99.3234 16.4751 107.274 15.6367Z" fill="#CBCCD6"/>
<path d="M61.3121 51.6211H149.879V53.3445H61.3121V51.6211Z" fill="#6E916B"/>
<path fill-rule="evenodd" clip-rule="evenodd" d="M111.991 26.18C112.03 26.3749 112.029 26.5755 111.989 26.7701C111.949 26.9646 111.87 27.1493 111.759 27.3135C111.647 27.4776 111.503 27.6179 111.337 27.7262C111.17 27.8346 110.984 27.9088 110.789 27.9446C110.593 27.9804 110.393 27.9771 110.199 27.9349C110.004 27.8926 109.821 27.8123 109.658 27.6985C109.495 27.5847 109.356 27.4398 109.25 27.272C109.144 27.1043 109.072 26.9171 109.038 26.7213C108.925 26.1092 108.596 25.6269 108.146 25.2759C107.845 25.0407 107.487 24.8575 107.097 24.7277V30.3592C107.176 30.3854 107.254 30.4116 107.331 30.4387C108.882 30.9804 110.284 31.8088 111.153 33.0442C111.951 34.1787 112.283 35.5747 111.876 37.2848C111.506 38.8432 110.409 39.9584 108.987 40.6085C108.402 40.876 107.761 41.0619 107.096 41.164V42.917C107.096 43.3164 106.938 43.6996 106.655 43.982C106.373 44.2645 105.989 44.4232 105.59 44.4232C105.191 44.4232 104.807 44.2645 104.525 43.982C104.242 43.6996 104.084 43.3164 104.084 42.917V41.0583C103.431 40.9116 102.798 40.6826 102.216 40.3696C100.708 39.5578 99.5295 38.2024 99.162 36.2654C99.0963 35.877 99.1859 35.4784 99.4112 35.1553C99.6366 34.8323 99.9798 34.6106 100.367 34.5381C100.754 34.4656 101.154 34.548 101.481 34.7677C101.808 34.9873 102.036 35.3265 102.115 35.7123C102.293 36.6483 102.882 37.3141 103.64 37.722C103.783 37.7988 103.931 37.8672 104.084 37.9271V32.5842C102.993 32.2308 101.917 31.7744 101.054 30.9508C100.009 29.9549 99.4638 28.7114 99.3656 27.4534C99.2629 26.1354 99.6617 24.8045 100.5 23.7315C101.366 22.6226 102.667 21.9258 104.084 21.6393V19.8285C104.084 19.429 104.242 19.0459 104.525 18.7634C104.807 18.481 105.191 18.3223 105.59 18.3223C105.989 18.3223 106.373 18.481 106.655 18.7634C106.938 19.0459 107.096 19.429 107.096 19.8285V21.6291C107.134 21.6363 107.172 21.6441 107.21 21.6519C108.222 21.8634 109.189 22.2825 109.993 22.9106C110.995 23.6935 111.733 24.7825 111.991 26.1797L111.991 26.18ZM104.084 24.7476C103.584 24.9295 103.156 25.207 102.865 25.5787C102.499 26.0474 102.321 26.6363 102.367 27.2295C102.409 27.7766 102.654 28.3249 103.125 28.7737C103.374 29.0111 103.706 29.2072 104.084 29.3777V24.7476ZM107.097 38.1045C107.317 38.0482 107.533 37.9726 107.74 37.8786C108.35 37.6 108.81 37.1634 108.946 36.5905C109.131 35.8148 109.009 35.2222 108.693 34.7737C108.35 34.2853 107.779 33.8913 107.096 33.5765V38.1045H107.097ZM76.9125 32.8791C76.513 32.8791 76.1299 32.7204 75.8474 32.438C75.5649 32.1555 75.4063 31.7724 75.4062 31.3729C75.4063 30.9734 75.5649 30.5903 75.8474 30.3078C76.1299 30.0253 76.513 29.8666 76.9125 29.8666H80.2377C80.6371 29.8666 81.0202 30.0253 81.3027 30.3078C81.5852 30.5903 81.7439 30.9734 81.7439 31.3729C81.7439 31.7724 81.5852 32.1555 81.3027 32.438C81.0202 32.7204 80.6371 32.8791 80.2377 32.8791H76.9125ZM130.943 32.8791C130.543 32.8791 130.16 32.7204 129.878 32.438C129.595 32.1555 129.437 31.7724 129.437 31.3729C129.437 30.9734 129.595 30.5903 129.878 30.3078C130.16 30.0253 130.543 29.8666 130.943 29.8666H134.268C134.668 29.8666 135.051 30.0253 135.333 30.3078C135.616 30.5903 135.774 30.9734 135.774 31.3729C135.774 31.7724 135.616 32.1555 135.333 32.438C135.051 32.7204 134.668 32.8791 134.268 32.8791H130.943Z" fill="white"/>
<path fill-rule="evenodd" clip-rule="evenodd" d="M160.068 70.1055C159.761 69.8619 159.561 69.5075 159.512 69.1184C159.463 68.7293 159.568 68.3364 159.805 68.024C160.042 67.7115 160.392 67.5043 160.78 67.4469C161.168 67.3894 161.563 67.4863 161.88 67.7166L167.931 72.3148C168.117 72.4561 168.268 72.6388 168.371 72.8486C168.474 73.0584 168.526 73.2893 168.524 73.523C168.522 73.7567 168.465 73.9867 168.359 74.1946C168.252 74.4024 168.098 74.5825 167.909 74.7203L161.88 79.3023C161.563 79.5392 161.165 79.6413 160.774 79.5861C160.382 79.5309 160.027 79.3229 159.788 79.0076C159.549 78.6922 159.444 78.2951 159.497 77.9028C159.549 77.5105 159.754 77.1548 160.068 76.9134L162.565 75.0158H140.301C139.902 75.0158 139.519 74.8571 139.236 74.5747C138.954 74.2922 138.795 73.9091 138.795 73.5096C138.795 73.1101 138.954 72.727 139.236 72.4445C139.519 72.162 139.902 72.0034 140.301 72.0034H162.565L160.068 70.1058V70.1055ZM32.6439 25.5797C32.9609 25.3427 33.3588 25.2407 33.7507 25.2959C34.1427 25.3511 34.4969 25.5591 34.7361 25.8744C34.9753 26.1897 35.0801 26.5868 35.0277 26.9792C34.9753 27.3715 34.7698 27.7271 34.4562 27.9686L31.9592 29.8661H54.2231C54.6226 29.8661 55.0057 30.0248 55.2882 30.3073C55.5707 30.5898 55.7294 30.9729 55.7294 31.3724C55.7294 31.7719 55.5707 32.155 55.2882 32.4375C55.0057 32.7199 54.6226 32.8786 54.2231 32.8786H31.9592L34.4562 34.7765C34.7636 35.0201 34.9632 35.3744 35.0124 35.7636C35.0616 36.1527 34.9564 36.5455 34.7194 36.858C34.4823 37.1705 34.1323 37.3776 33.7444 37.4351C33.3564 37.4925 32.9613 37.3957 32.6439 37.1654L26.6151 32.5834C26.4263 32.4456 26.2724 32.2655 26.1657 32.0576C26.0589 31.8498 26.0022 31.6198 26.0001 31.3861C25.998 31.1524 26.0505 30.9215 26.1535 30.7117C26.2565 30.5019 26.4072 30.3191 26.5934 30.1779L32.6439 25.5797Z" fill="#A6A7B4"/>
<path fill-rule="evenodd" clip-rule="evenodd" d="M105.578 42.0391L132.841 57.7792V89.2592L105.578 105L78.3154 89.2592L78.3151 57.7792L105.578 42.0391Z" fill="#F2B062"/>
<path fill-rule="evenodd" clip-rule="evenodd" d="M105.578 105L132.841 89.2596V57.7793L105.578 73.5197L78.3154 57.7793V89.2596L105.578 105Z" fill="#E6B17C"/>
<path fill-rule="evenodd" clip-rule="evenodd" d="M105.578 73.5197L132.841 57.7793V89.2596L105.578 105V73.5197Z" fill="#FDD7AD"/>
<path fill-rule="evenodd" clip-rule="evenodd" d="M87.961 76.7401V63.3473L115.224 47.6074L123.195 52.2093L95.932 67.9494V81.3423L91.9465 75.7135L87.961 76.7401Z" fill="#D8E6D6"/>
<path fill-rule="evenodd" clip-rule="evenodd" d="M87.961 76.7405V63.3477L95.932 67.9498V81.3426L91.9465 75.7138L87.961 76.7405Z" fill="#91B18E"/>
</g>
</svg>
