<svg width="620" height="176" viewBox="0 0 620 176" fill="none" xmlns="http://www.w3.org/2000/svg">
<g clip-path="url(#clip0_13635_41738)">
<path opacity="0.5" d="M0 14.3768C0 6.4367 6.43672 0 14.3768 0H605.623C613.563 0 620 6.43672 620 14.3768V176.203H0V14.3768Z" fill="#91B18E"/>
<mask id="mask0_13635_41738" style="mask-type:alpha" maskUnits="userSpaceOnUse" x="0" y="0" width="620" height="176">
<path d="M0 14.3768C0 6.43672 6.43672 0 14.3768 0H605.623C613.563 0 620 6.43672 620 14.3768V176H0V14.3768Z" fill="#D8E6D6"/>
</mask>
<g mask="url(#mask0_13635_41738)">
<path opacity="0.3" d="M-27.8203 94.6232V-44.0646L580.696 -67L639.872 24.6522C230.873 91.441 138.109 -22.6522 -27.8203 94.6232Z" fill="#91B18E"/>
<rect x="322.996" y="78.4219" width="9.12276" height="97.2719" fill="#6D6F7E"/>
<rect x="573.867" y="78.4219" width="9.12276" height="97.2719" fill="#6D6F7E"/>
<path d="M285.415 6.03137H623.779L646.85 82.9441H256.852L285.415 6.03137Z" fill="#F2B062"/>
<path d="M278.518 96.5142C290.484 96.5142 300.185 90.4375 300.185 82.9414H256.852C256.852 90.4375 266.552 96.5142 278.518 96.5142Z" fill="#D5903E"/>
<path d="M321.854 96.5142C333.82 96.5142 343.521 90.4375 343.521 82.9414H300.188C300.188 90.4375 309.888 96.5142 321.854 96.5142Z" fill="#D5903E"/>
<path d="M365.186 96.5144C377.152 96.5144 386.853 90.4376 386.853 82.9415H343.52C343.52 90.4376 353.22 96.5144 365.186 96.5144Z" fill="#D5903E"/>
<path d="M408.518 96.5144C420.484 96.5144 430.185 90.4376 430.185 82.9415H386.852C386.852 90.4376 396.552 96.5144 408.518 96.5144Z" fill="#D5903E"/>
<path d="M451.85 96.5144C463.816 96.5144 473.517 90.4376 473.517 82.9415H430.184C430.184 90.4376 439.884 96.5144 451.85 96.5144Z" fill="#D5903E"/>
<path d="M495.182 96.5142C507.148 96.5142 516.849 90.4375 516.849 82.9414H473.516C473.516 90.4375 483.216 96.5142 495.182 96.5142Z" fill="#D5903E"/>
<path d="M538.518 96.5144C550.484 96.5144 560.185 90.4376 560.185 82.9415H516.852C516.852 90.4376 526.552 96.5144 538.518 96.5144Z" fill="#D5903E"/>
<path d="M581.85 96.5142C593.816 96.5142 603.517 90.4375 603.517 82.9414H560.184C560.184 90.4375 569.884 96.5142 581.85 96.5142Z" fill="#D5903E"/>
<path d="M625.182 96.5144C637.148 96.5144 646.849 90.4376 646.849 82.9415H603.516C603.516 90.4376 613.216 96.5144 625.182 96.5144Z" fill="#D5903E"/>
<path d="M307.029 35.4375H313.871L304.748 82.9424H297.906L307.029 35.4375Z" fill="#F4DFC2"/>
<path d="M345.804 35.4375H352.646L348.084 82.9424H341.242L345.804 35.4375Z" fill="#F4DFC2"/>
<path d="M386.851 35.4375H393.693L391.412 82.9424H384.57L386.851 35.4375Z" fill="#F4DFC2"/>
<rect x="427.906" y="35.4376" width="6.84206" height="47.5049" fill="#F4DFC2"/>
<rect x="471.238" y="35.4376" width="6.84211" height="47.5049" fill="#F4DFC2"/>
<path d="M512.293 35.4376H519.135L521.416 82.9425H514.574L512.293 35.4376Z" fill="#F4DFC2"/>
<path d="M553.344 35.4375H560.186L564.747 82.9424H557.905L553.344 35.4375Z" fill="#F4DFC2"/>
<path d="M592.113 35.4376H598.955L608.078 82.9425H601.236L592.113 35.4376Z" fill="#F4DFC2"/>
<path opacity="0.4" d="M623.783 6.03125H285.418L271.137 44.4876L639.729 59.1915L623.783 6.03125Z" fill="#D5903E"/>
<path d="M90.5078 36.5822H221.249V100.51H90.5078V36.5822Z" fill="#91B18E"/>
<path fill-rule="evenodd" clip-rule="evenodd" d="M107.609 43.2773H204.14C204.14 47.691 207.771 51.2684 212.249 51.2684V81.4816C207.77 81.4816 204.14 85.0595 204.14 89.4727H107.609C107.609 85.0595 103.979 81.4816 99.5 81.4816V51.2684C103.979 51.2684 107.609 47.6906 107.609 43.2773Z" fill="#6E916B"/>
<path fill-rule="evenodd" clip-rule="evenodd" d="M107.609 45.4492H204.14C204.14 49.8629 207.771 53.4403 212.249 53.4403V83.6539C207.77 83.6539 204.14 87.2318 204.14 91.645H107.609C107.609 87.2318 103.979 83.6539 99.5 83.6539V53.4408C103.979 53.4408 107.609 49.8629 107.609 45.4497V45.4492Z" fill="white"/>
<path d="M172.38 84.8327C181.503 75.8426 181.503 61.2668 172.38 52.2767C163.258 43.2866 148.468 43.2866 139.345 52.2767C130.223 61.2668 130.223 75.8426 139.345 84.8327C148.468 93.8228 163.258 93.8228 172.38 84.8327Z" fill="#6E916B"/>
<path fill-rule="evenodd" clip-rule="evenodd" d="M158.354 45.6562C170.09 46.8759 179.235 56.659 179.235 68.5479C179.235 80.4369 170.09 90.22 158.354 91.4397C146.618 90.22 137.473 80.4369 137.473 68.5479C137.473 56.659 146.618 46.8759 158.354 45.6562Z" fill="#CBCCD6"/>
<path d="M90.5078 98.0039H221.249V100.511H90.5078V98.0039Z" fill="#6E916B"/>
<path fill-rule="evenodd" clip-rule="evenodd" d="M165.319 60.9939C165.375 61.2775 165.374 61.5693 165.315 61.8524C165.256 62.1354 165.141 62.4041 164.975 62.6429C164.81 62.8817 164.599 63.0858 164.353 63.2434C164.107 63.401 163.832 63.509 163.544 63.5611C163.255 63.6132 162.959 63.6083 162.673 63.5469C162.386 63.4854 162.115 63.3685 161.874 63.203C161.634 63.0375 161.429 62.8266 161.272 62.5826C161.115 62.3386 161.009 62.0663 160.959 61.7814C160.792 60.8909 160.306 60.1893 159.643 59.6787C159.198 59.3364 158.669 59.07 158.093 58.8811V67.0738C158.211 67.1119 158.326 67.15 158.44 67.1895C160.729 67.9774 162.798 69.1826 164.081 70.9799C165.259 72.6304 165.749 74.6612 165.149 77.1492C164.602 79.4163 162.983 81.0387 160.884 81.9845C160.021 82.3736 159.074 82.644 158.093 82.7926V85.3428C158.093 85.9239 157.859 86.4813 157.442 86.8922C157.025 87.3032 156.459 87.534 155.869 87.534C155.28 87.534 154.714 87.3032 154.297 86.8922C153.88 86.4813 153.646 85.9239 153.646 85.3428V82.6388C152.682 82.4253 151.748 82.0923 150.889 81.6369C148.662 80.4558 146.923 78.4841 146.38 75.6662C146.284 75.1011 146.416 74.5212 146.748 74.0512C147.081 73.5812 147.588 73.2588 148.159 73.1533C148.731 73.0478 149.322 73.1677 149.804 73.4872C150.287 73.8067 150.623 74.3002 150.74 74.8615C151.002 76.2232 151.872 77.1917 152.991 77.7851C153.202 77.8969 153.42 77.9963 153.646 78.0836V70.3107C152.035 69.7966 150.448 69.1327 149.173 67.9345C147.631 66.4856 146.826 64.6765 146.681 62.8464C146.529 60.929 147.118 58.9928 148.355 57.4318C149.634 55.8186 151.555 54.8049 153.646 54.3881V51.7538C153.646 51.1726 153.88 50.6152 154.297 50.2043C154.714 49.7934 155.28 49.5625 155.869 49.5625C156.459 49.5625 157.025 49.7934 157.442 50.2043C157.859 50.6152 158.093 51.1726 158.093 51.7538V54.3732C158.149 54.3837 158.205 54.3951 158.261 54.4065C159.755 54.7142 161.183 55.3238 162.37 56.2375C163.849 57.3765 164.937 58.9608 165.319 60.9934L165.319 60.9939ZM153.646 58.91C152.908 59.1747 152.276 59.5783 151.847 60.1191C151.306 60.801 151.044 61.6577 151.111 62.5208C151.174 63.3166 151.535 64.1142 152.23 64.7672C152.598 65.1126 153.088 65.3979 153.646 65.6459V58.91ZM158.093 78.3417C158.419 78.2597 158.737 78.1497 159.043 78.013C159.943 77.6076 160.623 76.9726 160.824 76.139C161.096 75.0105 160.916 74.1485 160.45 73.4959C159.943 72.7855 159.102 72.2123 158.093 71.7543V78.3417H158.093ZM113.536 70.7398C112.946 70.7398 112.381 70.5089 111.964 70.0979C111.547 69.687 111.313 69.1297 111.312 68.5485C111.313 67.9673 111.547 67.41 111.964 66.999C112.381 66.5881 112.946 66.3572 113.536 66.3572H118.445C119.034 66.3572 119.6 66.5881 120.017 66.999C120.434 67.41 120.668 67.9673 120.668 68.5485C120.668 69.1297 120.434 69.687 120.017 70.0979C119.6 70.5089 119.034 70.7398 118.445 70.7398H113.536ZM193.295 70.7398C192.705 70.7398 192.14 70.5089 191.723 70.0979C191.306 69.687 191.072 69.1297 191.072 68.5485C191.072 67.9673 191.306 67.41 191.723 66.999C192.14 66.5881 192.705 66.3572 193.295 66.3572H198.204C198.793 66.3572 199.359 66.5881 199.776 66.999C200.193 67.41 200.427 67.9673 200.427 68.5485C200.427 69.1297 200.193 69.687 199.776 70.0979C199.359 70.5089 198.793 70.7398 198.204 70.7398H193.295Z" fill="white"/>
<path fill-rule="evenodd" clip-rule="evenodd" d="M236.289 124.898C235.835 124.543 235.54 124.028 235.468 123.462C235.395 122.896 235.55 122.324 235.9 121.869C236.25 121.415 236.767 121.113 237.34 121.03C237.912 120.946 238.496 121.087 238.964 121.422L247.896 128.112C248.171 128.317 248.393 128.583 248.545 128.888C248.697 129.193 248.775 129.529 248.772 129.869C248.769 130.209 248.685 130.544 248.527 130.846C248.37 131.149 248.143 131.411 247.864 131.611L238.964 138.277C238.496 138.622 237.909 138.77 237.33 138.69C236.752 138.61 236.229 138.307 235.876 137.848C235.523 137.39 235.368 136.812 235.445 136.241C235.523 135.67 235.826 135.153 236.289 134.802L239.975 132.041H207.11C206.52 132.041 205.954 131.81 205.537 131.399C205.12 130.988 204.886 130.431 204.886 129.85C204.886 129.269 205.12 128.711 205.537 128.3C205.954 127.89 206.52 127.659 207.11 127.659H239.975L236.289 124.898V124.898ZM48.1866 60.1217C48.6546 59.7769 49.2419 59.6285 49.8205 59.7088C50.399 59.7891 50.9219 60.0917 51.275 60.5504C51.6282 61.0091 51.7829 61.5869 51.7055 62.1576C51.6281 62.7284 51.3249 63.2458 50.8619 63.597L47.1758 66.3576H80.0416C80.6313 66.3576 81.1969 66.5885 81.6139 66.9994C82.0309 67.4103 82.2651 67.9677 82.2651 68.5489C82.2651 69.13 82.0309 69.6874 81.6139 70.0983C81.1969 70.5093 80.6313 70.7401 80.0416 70.7401H47.1758L50.8619 73.5011C51.3156 73.8555 51.6104 74.371 51.683 74.9371C51.7556 75.5032 51.6003 76.0748 51.2504 76.5293C50.9005 76.9839 50.3838 77.2853 49.811 77.3688C49.2383 77.4524 48.6552 77.3116 48.1866 76.9765L39.2869 70.3106C39.0083 70.1101 38.7811 69.8482 38.6234 69.5458C38.4658 69.2434 38.3821 68.9088 38.379 68.5688C38.3759 68.2289 38.4535 67.8929 38.6055 67.5877C38.7576 67.2825 38.98 67.0166 39.2548 66.8112L48.1866 60.1217Z" fill="#A6A7B4"/>
<path fill-rule="evenodd" clip-rule="evenodd" d="M155.847 84.0664L196.092 106.965V152.762L155.847 175.661L115.602 152.762L115.602 106.965L155.847 84.0664Z" fill="#F2B062"/>
<path fill-rule="evenodd" clip-rule="evenodd" d="M155.846 175.661L196.091 152.762V106.965L155.846 129.864L115.602 106.965V152.762L155.846 175.661Z" fill="#E6B17C"/>
<path fill-rule="evenodd" clip-rule="evenodd" d="M155.848 129.864L196.093 106.965V152.762L155.848 175.661V129.864Z" fill="#FDD7AD"/>
<path fill-rule="evenodd" clip-rule="evenodd" d="M129.844 134.55V115.066L170.089 92.168L181.856 98.8627L141.61 121.761V141.245L135.727 133.057L129.844 134.55Z" fill="#D8E6D6"/>
<path fill-rule="evenodd" clip-rule="evenodd" d="M129.844 134.55V115.066L141.61 121.762V141.245L135.727 133.057L129.844 134.55Z" fill="#91B18E"/>
</g>
</g>
<defs>
<clipPath id="clip0_13635_41738">
<path d="M0 24C0 10.7452 10.7452 0 24 0H596C609.255 0 620 10.7452 620 24V176H0V24Z" fill="white"/>
</clipPath>
</defs>
</svg>
