<svg width="190" height="162" viewBox="0 0 190 162" fill="none" xmlns="http://www.w3.org/2000/svg">
<g filter="url(#filter0_dd_12057_181439)">
<path d="M164.655 4.94126L33.5459 4.195C27.5117 4.16066 22.5924 9.01095 22.5581 15.0284L21.8139 145.776C21.7796 151.793 26.6435 156.699 32.6776 156.734L163.787 157.48C169.821 157.514 174.74 152.664 174.774 146.646L175.519 15.8991C175.553 9.88159 170.689 4.97561 164.655 4.94126Z" fill="#FCFCFC"/>
</g>
<g filter="url(#filter1_d_12057_181439)">
<path d="M114.868 14.4718L11.1114 13.8812C8.98906 13.8692 7.25467 16.2984 7.23755 19.3072L7.0825 46.5462C7.06538 49.555 8.772 52.0038 10.8943 52.0159L114.651 52.6065C116.774 52.6186 118.508 50.1893 118.525 47.1806L118.68 19.9415C118.697 16.9328 116.991 14.4839 114.868 14.4718Z" fill="white"/>
</g>
<path d="M82.6066 23.0007L54.1996 22.839C52.3894 22.8287 50.9135 24.2838 50.9033 26.089C50.893 27.8942 52.3522 29.366 54.1624 29.3763L82.5694 29.538C84.3796 29.5483 85.8554 28.0932 85.8657 26.288C85.876 24.4828 84.4168 23.011 82.6066 23.0007Z" fill="#D8E6D6"/>
<path d="M102.192 37.2767L54.1185 37.003C52.3083 36.9927 50.8325 38.4478 50.8222 40.2531C50.8119 42.0583 52.2711 43.5301 54.0813 43.5404L102.155 43.814C103.965 43.8243 105.441 42.3692 105.451 40.564C105.461 38.7588 104.002 37.287 102.192 37.2767Z" fill="#F5F5F5"/>
<g filter="url(#filter2_d_12057_181439)">
<path d="M180.175 58.421L76.418 57.8305C74.2957 57.8184 72.5613 60.2477 72.5442 63.2564L72.3891 90.4954C72.372 93.5042 74.0786 95.953 76.201 95.9651L179.958 96.5557C182.08 96.5678 183.815 94.1385 183.832 91.1298L183.987 63.8907C184.004 60.882 182.297 58.4331 180.175 58.421Z" fill="white"/>
</g>
<path d="M147.913 66.9538L119.506 66.7921C117.696 66.7818 116.22 68.2369 116.21 70.0421C116.2 71.8474 117.659 73.3192 119.469 73.3295L147.876 73.4912C149.686 73.5015 151.162 72.0464 151.172 70.2411C151.183 68.4359 149.723 66.9641 147.913 66.9538Z" fill="#D8E6D6"/>
<path d="M167.499 81.2298L119.425 80.9562C117.615 80.9459 116.139 82.4009 116.129 84.2062C116.119 86.0114 117.578 87.4832 119.388 87.4935L167.461 87.7672C169.272 87.7775 170.747 86.3224 170.758 84.5171C170.768 82.7119 169.309 81.2401 167.499 81.2298Z" fill="#F5F5F5"/>
<path d="M36.7492 17.2899L15.9902 17.1717C12.9732 17.1545 10.5135 19.5797 10.4963 22.5884L10.3785 43.2901C10.3614 46.2988 12.7933 48.7518 15.8104 48.769L36.5693 48.8872C39.5864 48.9043 42.0461 46.4792 42.0632 43.4705L42.181 22.7688C42.1982 19.76 39.7662 17.3071 36.7492 17.2899Z" fill="#6E916B"/>
<path d="M23.7701 36.593L25.9552 36.6055L25.984 35.7666C25.9903 34.664 26.689 34.3803 27.6763 34.0743C28.6664 33.7995 29.54 33.2107 30.1648 32.3969C30.7895 31.583 31.1316 30.5884 31.1393 29.5635C31.1645 28.9378 31.0592 28.3138 30.83 27.7308C30.6009 27.1478 30.2529 26.6186 29.808 26.1767C29.3631 25.7348 28.8311 25.3898 28.2456 25.1635C27.6602 24.9372 27.0339 24.8346 26.4067 24.8622C25.744 24.844 25.0845 24.9603 24.4683 25.2039C23.852 25.4475 23.2918 25.8134 22.8217 26.2794C22.3515 26.7454 21.9811 27.3018 21.733 27.9148C21.485 28.5279 21.3643 29.1848 21.3785 29.8457L23.6379 29.8586C23.6314 29.4937 23.698 29.1311 23.8339 28.7922C23.9697 28.4533 24.1719 28.1448 24.4288 27.8849C24.6857 27.6249 24.9921 27.4187 25.3299 27.2784C25.6678 27.138 26.0303 27.0663 26.3963 27.0675C26.7264 27.0503 27.0564 27.1042 27.3639 27.2254C27.6713 27.3467 27.9489 27.5326 28.1779 27.7704C28.4068 28.0083 28.5818 28.2924 28.6908 28.6037C28.7999 28.9149 28.8405 29.2459 28.8098 29.5742C28.7922 30.1057 28.6039 30.6175 28.2727 31.0343C27.9414 31.451 27.4847 31.7506 26.9698 31.8889L26.1748 32.1982C25.3971 32.3804 24.7164 32.8472 24.2675 33.5061C23.8186 34.165 23.6342 34.968 23.7508 35.7561L23.7701 36.593ZM24.8222 41.779C25.0362 41.7878 25.2497 41.7537 25.4502 41.6788C25.6507 41.6039 25.8341 41.4896 25.9895 41.3428C26.145 41.196 26.2694 41.0196 26.3553 40.824C26.4412 40.6285 26.4869 40.4177 26.4898 40.2042C26.4891 39.9908 26.4455 39.7798 26.3617 39.5835C26.2779 39.3872 26.1555 39.2097 26.0018 39.0613C25.848 38.913 25.666 38.7969 25.4665 38.7198C25.267 38.6428 25.0541 38.6063 24.8403 38.6127C24.6265 38.6039 24.4132 38.6379 24.2128 38.7127C24.0124 38.7875 23.8291 38.9015 23.6737 39.0481C23.5183 39.1947 23.3939 39.3708 23.3078 39.5661C23.2218 39.7615 23.1758 39.972 23.1727 40.1853C23.1731 40.3988 23.2164 40.6101 23.3001 40.8066C23.3838 41.0032 23.5062 41.181 23.66 41.3296C23.8137 41.4781 23.9958 41.5945 24.1955 41.6716C24.3951 41.7488 24.6082 41.7853 24.8222 41.779Z" fill="white"/>
<path d="M102.056 61.2391L81.2969 61.1209C78.2798 61.1038 75.8201 63.5289 75.803 66.5377L75.6851 87.2393C75.668 90.2481 78.0999 92.7011 81.117 92.7182L101.876 92.8364C104.893 92.8536 107.353 90.4284 107.37 87.4197L107.488 66.718C107.505 63.7093 105.073 61.2563 102.056 61.2391Z" fill="#6E916B"/>
<path d="M89.0767 80.5423L91.2619 80.5547L91.2907 79.7159C91.2969 78.6132 91.9956 78.3296 92.9829 78.0235C93.9731 77.7487 94.8466 77.1599 95.4714 76.3461C96.0962 75.5322 96.4383 74.5377 96.446 73.5127C96.4712 72.8871 96.3658 72.263 96.1367 71.68C95.9075 71.097 95.5595 70.5678 95.1146 70.1259C94.6698 69.684 94.1378 69.339 93.5523 69.1127C92.9668 68.8864 92.3406 68.7838 91.7133 68.8114C91.0506 68.7932 90.3912 68.9095 89.7749 69.1531C89.1587 69.3967 88.5985 69.7626 88.1283 70.2286C87.6581 70.6946 87.2878 71.251 87.0397 71.8641C86.7916 72.4771 86.671 73.134 86.6851 73.7949L88.9446 73.8078C88.9381 73.4429 89.0047 73.0803 89.1405 72.7414C89.2763 72.4025 89.4786 72.094 89.7355 71.8341C89.9924 71.5741 90.2987 71.3679 90.6366 71.2276C90.9744 71.0872 91.3369 71.0155 91.7029 71.0167C92.0331 70.9995 92.3631 71.0534 92.6705 71.1747C92.9779 71.296 93.2555 71.4818 93.4845 71.7197C93.7135 71.9575 93.8884 72.2417 93.9975 72.5529C94.1065 72.8642 94.1471 73.1952 94.1164 73.5234C94.0989 74.0549 93.9106 74.5668 93.5793 74.9835C93.248 75.4002 92.7913 75.6998 92.2764 75.8382L91.4814 76.1474C90.7038 76.3296 90.0231 76.7964 89.5742 77.4553C89.1252 78.1142 88.9408 78.9172 89.0574 79.7053L89.0767 80.5423ZM90.1289 85.7282C90.3428 85.737 90.5563 85.7029 90.7568 85.628C90.9573 85.5531 91.1407 85.4389 91.2962 85.292C91.4517 85.1452 91.576 84.9688 91.6619 84.7732C91.7479 84.5777 91.7936 84.3669 91.7964 84.1534C91.7957 83.9401 91.7522 83.729 91.6684 83.5327C91.5845 83.3365 91.4621 83.1589 91.3084 83.0106C91.1546 82.8622 90.9727 82.7461 90.7732 82.669C90.5737 82.592 90.3607 82.5556 90.1469 82.5619C89.9331 82.5531 89.7198 82.5871 89.5194 82.6619C89.3191 82.7367 89.1358 82.8507 88.9804 82.9973C88.8249 83.1439 88.7005 83.32 88.6145 83.5154C88.5284 83.7107 88.4825 83.9212 88.4794 84.1345C88.4798 84.348 88.5231 84.5593 88.6068 84.7559C88.6905 84.9524 88.8128 85.1302 88.9666 85.2788C89.1204 85.4274 89.3025 85.5437 89.5021 85.6209C89.7017 85.6981 89.9149 85.7346 90.1289 85.7282Z" fill="white"/>
<g filter="url(#filter3_d_12057_181439)">
<path d="M12.2168 104.316L159.715 105.156C161.163 105.164 162.55 105.746 163.568 106.773C164.587 107.801 165.155 109.19 165.146 110.635L164.991 137.874C164.983 139.319 164.4 140.701 163.369 141.717C162.339 142.733 160.946 143.299 159.497 143.29L11.9997 142.451C10.5509 142.443 9.16464 141.861 8.14597 140.833C7.1273 139.806 6.55963 138.417 6.56786 136.972L6.7229 109.733C6.73112 108.288 7.31456 106.906 8.34486 105.89C9.37517 104.874 10.7679 104.308 12.2168 104.316V104.316Z" fill="white"/>
</g>
<path d="M82.0919 113.43L53.685 113.269C51.8747 113.258 50.3989 114.713 50.3886 116.519C50.3783 118.324 51.8375 119.796 53.6477 119.806L82.0547 119.968C83.8649 119.978 85.3408 118.523 85.351 116.718C85.3613 114.912 83.9022 113.441 82.0919 113.43Z" fill="#D8E6D6"/>
<path d="M101.677 127.706L53.6039 127.433C51.7937 127.422 50.3178 128.878 50.3076 130.683C50.2973 132.488 51.7565 133.96 53.5667 133.97L101.64 134.244C103.45 134.254 104.926 132.799 104.936 130.994C104.947 129.188 103.487 127.717 101.677 127.706Z" fill="#F5F5F5"/>
<path d="M36.2345 107.727L15.4756 107.609C12.4585 107.592 9.99881 110.017 9.98169 113.026L9.86385 133.728C9.84673 136.736 12.2787 139.189 15.2957 139.207L36.0547 139.325C39.0717 139.342 41.5314 136.917 41.5486 133.908L41.6664 113.206C41.6835 110.198 39.2516 107.745 36.2345 107.727Z" fill="#6E916B"/>
<path d="M23.2554 127.031L25.4406 127.043L25.4694 126.204C25.4757 125.102 26.1744 124.818 27.1616 124.512C28.1518 124.237 29.0253 123.648 29.6501 122.834C30.2749 122.021 30.617 121.026 30.6247 120.001C30.6499 119.375 30.5446 118.751 30.3154 118.168C30.0862 117.585 29.7382 117.056 29.2933 116.614C28.8485 116.172 28.3165 115.827 27.731 115.601C27.1455 115.375 26.5193 115.272 25.892 115.3C25.2293 115.282 24.5699 115.398 23.9536 115.641C23.3374 115.885 22.7772 116.251 22.307 116.717C21.8368 117.183 21.4665 117.739 21.2184 118.352C20.9703 118.965 20.8497 119.622 20.8639 120.283L23.1233 120.296C23.1168 119.931 23.1834 119.569 23.3192 119.23C23.455 118.891 23.6573 118.582 23.9142 118.322C24.1711 118.062 24.4774 117.856 24.8153 117.716C25.1531 117.576 25.5157 117.504 25.8816 117.505C26.2118 117.488 26.5418 117.542 26.8492 117.663C27.1566 117.784 27.4342 117.97 27.6632 118.208C27.8922 118.446 28.0672 118.73 28.1762 119.041C28.2852 119.352 28.3258 119.683 28.2952 120.012C28.2776 120.543 28.0893 121.055 27.758 121.472C27.4268 121.888 26.97 122.188 26.4551 122.326L25.6601 122.636C24.8825 122.818 24.2018 123.285 23.7529 123.944C23.304 124.603 23.1195 125.406 23.2361 126.194L23.2554 127.031ZM24.3076 132.216C24.5215 132.225 24.735 132.191 24.9355 132.116C25.136 132.041 25.3194 131.927 25.4749 131.78C25.6304 131.634 25.7547 131.457 25.8406 131.262C25.9266 131.066 25.9723 130.855 25.9751 130.642C25.9744 130.428 25.9309 130.217 25.8471 130.021C25.7633 129.825 25.6409 129.647 25.4871 129.499C25.3334 129.351 25.1514 129.234 24.9519 129.157C24.7524 129.08 24.5394 129.044 24.3256 129.05C24.1119 129.041 23.8985 129.075 23.6982 129.15C23.4978 129.225 23.3145 129.339 23.1591 129.486C23.0036 129.632 22.8792 129.808 22.7932 130.004C22.7071 130.199 22.6612 130.409 22.6581 130.623C22.6585 130.836 22.7018 131.048 22.7855 131.244C22.8692 131.441 22.9915 131.618 23.1453 131.767C23.2991 131.916 23.4812 132.032 23.6808 132.109C23.8804 132.186 24.0936 132.223 24.3076 132.216Z" fill="white"/>
<path fill-rule="evenodd" clip-rule="evenodd" d="M112.942 29.8203C111.333 29.8112 110.021 31.1082 110.012 32.7173C110.003 34.3264 111.3 35.6382 112.909 35.6474C114.518 35.6566 115.83 34.3596 115.839 32.7504C115.848 31.1413 114.551 29.8295 112.942 29.8203ZM107.681 32.704C107.698 29.8076 110.059 27.473 112.956 27.4895C115.852 27.506 118.187 29.8673 118.17 32.7637C118.154 35.6601 115.792 37.9947 112.896 37.9782C110 37.9617 107.665 35.6004 107.681 32.704Z" fill="#91B18E"/>
<path fill-rule="evenodd" clip-rule="evenodd" d="M134.945 12.2224C135.402 11.7699 136.14 11.7741 136.593 12.2318L142.387 18.092C142.839 18.5497 142.835 19.2876 142.377 19.7402L136.517 25.5341C136.059 25.9866 135.322 25.9824 134.869 25.5247C134.416 25.067 134.421 24.3291 134.878 23.8766L139.91 18.902L134.935 13.8706C134.483 13.4128 134.487 12.6749 134.945 12.2224Z" fill="#91B18E"/>
<path fill-rule="evenodd" clip-rule="evenodd" d="M132.228 20.0238C130.683 20.015 129.197 20.6205 128.098 21.707C126.999 22.7936 126.377 24.2722 126.368 25.8177C126.355 27.9813 125.484 30.0514 123.946 31.5726C122.407 33.0938 120.327 33.9414 118.163 33.9291L116.998 33.9225C116.354 33.9188 115.836 33.3941 115.839 32.7504C115.843 32.1068 116.368 31.588 117.011 31.5917L118.177 31.5983C119.722 31.6071 121.208 31.0016 122.307 29.915C123.406 28.8285 124.028 27.3498 124.037 25.8044C124.049 23.6408 124.921 21.5707 126.459 20.0495C127.998 18.5283 130.078 17.6806 132.241 17.6929L141.565 17.746C142.208 17.7497 142.727 18.2744 142.723 18.9181C142.72 19.5617 142.195 20.0805 141.551 20.0768L132.228 20.0238Z" fill="#91B18E"/>
<defs>
<filter id="filter0_dd_12057_181439" x="17.8135" y="0.195312" width="161.705" height="161.285" filterUnits="userSpaceOnUse" color-interpolation-filters="sRGB">
<feFlood flood-opacity="0" result="BackgroundImageFix"/>
<feColorMatrix in="SourceAlpha" type="matrix" values="0 0 0 0 0 0 0 0 0 0 0 0 0 0 0 0 0 0 127 0" result="hardAlpha"/>
<feOffset dy="0.5"/>
<feGaussianBlur stdDeviation="1"/>
<feColorMatrix type="matrix" values="0 0 0 0 0.376471 0 0 0 0 0.380392 0 0 0 0 0.439216 0 0 0 0.16 0"/>
<feBlend mode="normal" in2="BackgroundImageFix" result="effect1_dropShadow_12057_181439"/>
<feColorMatrix in="SourceAlpha" type="matrix" values="0 0 0 0 0 0 0 0 0 0 0 0 0 0 0 0 0 0 127 0" result="hardAlpha"/>
<feOffset/>
<feGaussianBlur stdDeviation="2"/>
<feColorMatrix type="matrix" values="0 0 0 0 0.156863 0 0 0 0 0.160784 0 0 0 0 0.239216 0 0 0 0.1 0"/>
<feBlend mode="normal" in2="effect1_dropShadow_12057_181439" result="effect2_dropShadow_12057_181439"/>
<feBlend mode="normal" in="SourceGraphic" in2="effect2_dropShadow_12057_181439" result="shape"/>
</filter>
<filter id="filter1_d_12057_181439" x="1.08203" y="10.8828" width="123.599" height="50.7227" filterUnits="userSpaceOnUse" color-interpolation-filters="sRGB">
<feFlood flood-opacity="0" result="BackgroundImageFix"/>
<feColorMatrix in="SourceAlpha" type="matrix" values="0 0 0 0 0 0 0 0 0 0 0 0 0 0 0 0 0 0 127 0" result="hardAlpha"/>
<feOffset dy="3"/>
<feGaussianBlur stdDeviation="3"/>
<feColorMatrix type="matrix" values="0 0 0 0 0 0 0 0 0 0 0 0 0 0 0 0 0 0 0.161 0"/>
<feBlend mode="normal" in2="BackgroundImageFix" result="effect1_dropShadow_12057_181439"/>
<feBlend mode="normal" in="SourceGraphic" in2="effect1_dropShadow_12057_181439" result="shape"/>
</filter>
<filter id="filter2_d_12057_181439" x="66.3887" y="54.832" width="123.599" height="50.7227" filterUnits="userSpaceOnUse" color-interpolation-filters="sRGB">
<feFlood flood-opacity="0" result="BackgroundImageFix"/>
<feColorMatrix in="SourceAlpha" type="matrix" values="0 0 0 0 0 0 0 0 0 0 0 0 0 0 0 0 0 0 127 0" result="hardAlpha"/>
<feOffset dy="3"/>
<feGaussianBlur stdDeviation="3"/>
<feColorMatrix type="matrix" values="0 0 0 0 0 0 0 0 0 0 0 0 0 0 0 0 0 0 0.161 0"/>
<feBlend mode="normal" in2="BackgroundImageFix" result="effect1_dropShadow_12057_181439"/>
<feBlend mode="normal" in="SourceGraphic" in2="effect1_dropShadow_12057_181439" result="shape"/>
</filter>
<filter id="filter3_d_12057_181439" x="0.567383" y="101.316" width="170.579" height="50.9727" filterUnits="userSpaceOnUse" color-interpolation-filters="sRGB">
<feFlood flood-opacity="0" result="BackgroundImageFix"/>
<feColorMatrix in="SourceAlpha" type="matrix" values="0 0 0 0 0 0 0 0 0 0 0 0 0 0 0 0 0 0 127 0" result="hardAlpha"/>
<feOffset dy="3"/>
<feGaussianBlur stdDeviation="3"/>
<feColorMatrix type="matrix" values="0 0 0 0 0 0 0 0 0 0 0 0 0 0 0 0 0 0 0.161 0"/>
<feBlend mode="normal" in2="BackgroundImageFix" result="effect1_dropShadow_12057_181439"/>
<feBlend mode="normal" in="SourceGraphic" in2="effect1_dropShadow_12057_181439" result="shape"/>
</filter>
</defs>
</svg>
