<svg width="51" height="46" viewBox="0 0 51 46" fill="none" xmlns="http://www.w3.org/2000/svg">
<path fill-rule="evenodd" clip-rule="evenodd" d="M19.5919 3.12388L30.1672 21.4408C31.0367 22.9467 31.0367 24.7642 30.1672 26.2701C29.2978 27.7761 27.7239 28.6848 25.9849 28.6848H4.83432C3.09542 28.6848 1.52153 27.7761 0.652086 26.2701C-0.217362 24.7642 -0.217362 22.9468 0.652086 21.4408L11.2273 3.12388C12.0968 1.61788 13.6706 0.709229 15.4095 0.709229C17.1484 0.709229 18.7224 1.61799 19.5919 3.12388Z" fill="#F2B062"/>
<path fill-rule="evenodd" clip-rule="evenodd" d="M19.5925 3.12388L30.1678 21.4408C31.0373 22.9467 31.0373 24.7642 30.1678 26.2701C29.2984 27.7761 27.7245 28.6848 25.9855 28.6848H23.8604C25.5993 28.6848 27.1733 27.7761 28.0427 26.2701C28.9122 24.7642 28.9122 22.9468 28.0427 21.4408L17.4674 3.12388C16.7794 1.93228 15.6504 1.11479 14.3477 0.825361C14.6965 0.747979 15.0528 0.709037 15.4102 0.709229C17.1492 0.709229 18.7231 1.61799 19.5925 3.12388Z" fill="#FF8502"/>
<path fill-rule="evenodd" clip-rule="evenodd" d="M15.4087 21.9428C16.3033 21.9428 17.0284 22.6679 17.0284 23.5625C17.0284 24.457 16.3033 25.182 15.4087 25.182C14.5142 25.182 13.7891 24.457 13.7891 23.5625C13.7891 22.6679 14.5142 21.9428 15.4087 21.9428ZM15.4087 19.0516C14.7284 19.0516 14.1698 18.5129 14.1452 17.833L13.8256 8.9832C13.8128 8.62726 13.9319 8.31626 14.1791 8.05988C14.4264 7.8035 14.7329 7.67334 15.089 7.67334H15.7282C16.0844 7.67334 16.3909 7.8036 16.6382 8.05988C16.8854 8.31626 17.0045 8.62726 16.9917 8.9832L16.6722 17.833C16.6476 18.5128 16.0891 19.0516 15.4087 19.0516Z" fill="#FE646F"/>
<path fill-rule="evenodd" clip-rule="evenodd" d="M15.4087 21.9428C15.5407 21.9428 15.6691 21.9587 15.7919 21.9885C15.0823 22.1606 14.5553 22.7999 14.5553 23.5624C14.5553 24.3249 15.0823 24.9641 15.7919 25.1363C15.6691 25.1661 15.5407 25.1819 15.4087 25.1819C14.5142 25.1819 13.7891 24.4569 13.7891 23.5624C13.7891 22.6679 14.5142 21.9428 15.4087 21.9428ZM15.4087 19.0516C14.7284 19.0516 14.1698 18.5129 14.1452 17.833L13.8256 8.9832C13.8128 8.62726 13.9319 8.31626 14.1791 8.05988C14.4264 7.8035 14.7329 7.67334 15.089 7.67334H15.7282C15.7496 7.67334 15.7707 7.67387 15.7918 7.67472C15.4626 7.68938 15.1778 7.8188 14.9454 8.05988C14.6981 8.31626 14.579 8.62726 14.5919 8.9832L14.9115 17.833C14.9311 18.3796 15.296 18.8347 15.7918 18.9923C15.6679 19.0317 15.5387 19.0517 15.4087 19.0516Z" fill="#DF2935"/>
<path fill-rule="evenodd" clip-rule="evenodd" d="M38.9899 31.5991C38.4604 32.3543 37.8377 33.0398 37.1367 33.6393L42.1758 38.5788L44.0941 36.6018L38.9899 31.5991Z" fill="#A79BA7"/>
<path fill-rule="evenodd" clip-rule="evenodd" d="M39.0251 31.5645C38.926 31.8895 38.7413 32.1365 38.4766 32.3L43.4822 37.2729L44.0953 36.6012L39.0251 31.5645Z" fill="#837683"/>
<path fill-rule="evenodd" clip-rule="evenodd" d="M48.556 44.9908L50.7211 42.7595C51.1013 42.3677 51.0917 41.7361 50.6999 41.3558L44.7034 35.5369C44.3116 35.1566 43.6797 35.1662 43.2996 35.558L41.1345 37.7892C40.7544 38.181 40.7638 38.8128 41.1557 39.193L47.1522 45.0118C47.5441 45.392 48.1757 45.3826 48.556 44.9908Z" fill="#F1BA84"/>
<path fill-rule="evenodd" clip-rule="evenodd" d="M43.816 35.5369L49.8126 41.3558C50.2043 41.7361 50.214 42.3676 49.8337 42.7595L47.6687 44.9907C47.5909 45.071 47.5 45.1375 47.3999 45.1872C47.7764 45.3743 48.2484 45.3076 48.556 44.9907L50.7209 42.7595C51.1012 42.3676 51.0915 41.7361 50.6998 41.3558L44.7032 35.5369C44.3939 35.2366 43.935 35.1795 43.5684 35.3615C43.6595 35.4068 43.743 35.466 43.816 35.5369Z" fill="#E3A76F"/>
<path d="M41.4356 28.6293C42.823 22.7602 39.1899 16.8778 33.3209 15.4904C27.4518 14.103 21.5694 17.7361 20.182 23.6051C18.7946 29.4741 22.4277 35.3566 28.2967 36.744C34.1658 38.1314 40.0482 34.4983 41.4356 28.6293Z" fill="#386641"/>
<path fill-rule="evenodd" clip-rule="evenodd" d="M30.8074 15.1833C36.8382 15.1833 41.7271 20.0723 41.7271 26.103C41.7271 32.1338 36.8382 37.0227 30.8074 37.0227C30.6297 37.0227 30.453 37.0182 30.2773 37.0098C36.0618 36.7332 40.6669 31.9561 40.6669 26.103C40.6669 20.25 36.0618 15.4729 30.2773 15.1964C30.4531 15.1879 30.6297 15.1833 30.8074 15.1833Z" fill="#386641"/>
<path d="M36.3441 31.6474C39.4062 28.5853 39.4062 23.6207 36.3441 20.5586C33.2821 17.4965 28.3174 17.4965 25.2553 20.5586C22.1933 23.6207 22.1933 28.5853 25.2553 31.6474C28.3174 34.7095 33.2821 34.7095 36.3441 31.6474Z" fill="#ECEFF1"/>
<path fill-rule="evenodd" clip-rule="evenodd" d="M30.8078 18.2615C30.9859 18.2615 31.1626 18.268 31.3378 18.2797C27.2546 18.5524 24.0269 21.9503 24.0269 26.1024C24.0269 30.2547 27.2546 33.6525 31.3378 33.9251C31.1626 33.9368 30.9859 33.9434 30.8078 33.9434C26.4773 33.9434 22.9668 30.4329 22.9668 26.1024C22.9668 21.772 26.4773 18.2615 30.8078 18.2615Z" fill="#D1D1D6"/>
</svg>
