<svg width="420" height="83" viewBox="0 0 420 83" fill="none" xmlns="http://www.w3.org/2000/svg">
<path d="M0 8C0 3.58172 3.58172 0 8 0H412C416.418 0 420 3.58172 420 8V83H0V8Z" fill="#D8E6D6"/>
<mask id="mask0_26_2892" style="mask-type:alpha" maskUnits="userSpaceOnUse" x="0" y="0" width="420" height="83">
<path d="M0 8C0 3.58172 3.58172 0 8 0H412C416.418 0 420 3.58172 420 8V83H0V8Z" fill="#D8E6D6"/>
</mask>
<g mask="url(#mask0_26_2892)">
<path opacity="0.3" d="M463.687 30.0672L414.376 -147.489L-121.069 13.7955L-160.166 101.065C215.062 37.4044 284.526 -22.6472 463.687 30.0672Z" fill="#91B18E"/>
<path d="M113.975 41.5C113.975 40.268 113.886 39.0375 113.71 37.8182C113.635 37.1898 113.753 36.5535 114.049 35.9942C114.345 35.4349 114.805 34.979 115.367 34.6875L117.316 33.6125C117.693 33.4125 118.025 33.1378 118.293 32.8051C118.56 32.4724 118.757 32.0887 118.871 31.6774C118.985 31.2661 119.014 30.8359 118.956 30.413C118.898 29.9902 118.754 29.5836 118.534 29.218L113.153 20.2829C112.682 19.5358 111.943 18.9976 111.087 18.7789C110.232 18.5602 109.325 18.6778 108.554 19.1074L106.583 20.1824C105.981 20.502 105.301 20.6431 104.621 20.5891C103.942 20.5352 103.292 20.2884 102.749 19.8779C100.807 18.4556 98.6955 17.2821 96.4624 16.3849C95.8362 16.162 95.2918 15.7552 94.9005 15.2178C94.5093 14.6804 94.2894 14.0374 94.2696 13.373V11.2169C94.2593 10.7841 94.1639 10.3576 93.9887 9.96178C93.8135 9.56592 93.562 9.20846 93.2487 8.90981C92.9353 8.61116 92.5661 8.37718 92.1623 8.22124C91.7584 8.0653 91.3278 7.99045 90.895 8.00097H80.1013C79.2288 7.98218 78.3845 8.31021 77.7536 8.9131C77.1226 9.51599 76.7566 10.3445 76.7359 11.2169V13.373C76.7161 14.0374 76.4962 14.6804 76.105 15.2178C75.7137 15.7552 75.1693 16.162 74.543 16.3849C72.3068 17.2814 70.1918 18.4549 68.2477 19.8779C67.7039 20.2884 67.0541 20.5352 66.3749 20.5891C65.6956 20.6431 65.0151 20.502 64.4132 20.1824L62.4427 19.0952C61.6713 18.6656 60.7645 18.548 59.909 18.7667C59.0535 18.9854 58.3144 19.5237 57.8438 20.2708L52.447 29.218C52.2272 29.5845 52.0846 29.992 52.0278 30.4155C51.9711 30.839 52.0013 31.2696 52.1168 31.681C52.2323 32.0924 52.4305 32.4759 52.6994 32.808C52.9682 33.1401 53.3021 33.4139 53.6804 33.6125L55.6296 34.6875C56.1914 34.979 56.6508 35.4349 56.9469 35.9942C57.2429 36.5535 57.3613 37.1898 57.2865 37.8182C56.9332 40.26 56.9332 42.74 57.2865 45.1818C57.3613 45.8102 57.2429 46.4465 56.9469 47.0058C56.6508 47.5651 56.1914 48.021 55.6296 48.3125L53.6804 49.3875C53.3021 49.5861 52.9682 49.8599 52.6994 50.192C52.4305 50.5241 52.2323 50.9076 52.1168 51.319C52.0013 51.7304 51.9711 52.161 52.0278 52.5845C52.0846 53.008 52.2272 53.4155 52.447 53.782L57.8438 62.7171C58.3144 63.4642 59.0535 64.0024 59.909 64.2211C60.7645 64.4398 61.6713 64.3222 62.4427 63.8926L64.4132 62.8176C65.0151 62.498 65.6956 62.357 66.3749 62.4109C67.0541 62.4648 67.7039 62.7116 68.2477 63.1221C70.189 64.5444 72.3008 65.7179 74.5339 66.6151C75.1602 66.838 75.7046 67.2448 76.0958 67.7822C76.4871 68.3196 76.707 68.9626 76.7267 69.627V71.7831C76.737 72.2159 76.8325 72.6424 77.0076 73.0382C77.1828 73.4341 77.4343 73.7915 77.7477 74.0902C78.061 74.3888 78.4302 74.6228 78.8341 74.7788C79.2379 74.9347 79.6685 75.0096 80.1013 74.999H90.895C91.7675 75.0178 92.6118 74.6898 93.2428 74.0869C93.8737 73.484 94.2397 72.6555 94.2604 71.7831V69.627C94.2802 68.9626 94.5001 68.3196 94.8914 67.7822C95.2826 67.2448 95.827 66.838 96.4533 66.6151C98.6896 65.7186 100.805 64.5451 102.749 63.1221C103.292 62.7116 103.942 62.4648 104.621 62.4109C105.301 62.357 105.981 62.498 106.583 62.8176L108.554 63.9048C109.325 64.3344 110.232 64.452 111.087 64.2333C111.943 64.0146 112.682 63.4763 113.153 62.7293L118.549 53.7941C118.77 53.4286 118.913 53.022 118.971 52.5991C119.029 52.1763 119 51.7461 118.886 51.3348C118.772 50.9235 118.575 50.5398 118.308 50.2071C118.041 49.8744 117.708 49.5996 117.331 49.3997L115.382 48.3247C114.82 48.0331 114.361 47.5773 114.065 47.018C113.769 46.4587 113.65 45.8224 113.725 45.194C113.897 43.9703 113.98 42.7357 113.975 41.5Z" fill="#7083A6"/>
<path d="M85.5 55C92.9558 55 99 48.9558 99 41.5C99 34.0442 92.9558 28 85.5 28C78.0442 28 72 34.0442 72 41.5C72 48.9558 78.0442 55 85.5 55Z" fill="#D8E1E6"/>
<path fill-rule="evenodd" clip-rule="evenodd" d="M212 6L243 23.9156V59.7464L212 77.6623L181 59.7464L181 23.9156L212 6Z" fill="#F2B062"/>
<path fill-rule="evenodd" clip-rule="evenodd" d="M212 77.6619L243 59.679V23.7139L212 41.6968L181 23.7139V59.679L212 77.6619Z" fill="#E6B17C"/>
<path fill-rule="evenodd" clip-rule="evenodd" d="M211.597 41.6968L243 23.7139V59.679L211.597 77.6619V41.6968Z" fill="#FDD7AD"/>
<path fill-rule="evenodd" clip-rule="evenodd" d="M192.273 45.8182V30.4743L222.801 12.4414L231.727 17.7137L201.199 35.7468V51.0908L196.736 44.642L192.273 45.8182Z" fill="#91B18E"/>
<path fill-rule="evenodd" clip-rule="evenodd" d="M192.273 45.7373V30.1562L201.13 35.5103V51.0913L196.701 44.5429L192.273 45.7373Z" fill="#D8E6D6"/>
<path d="M355.009 70.2C354.853 70.2002 354.698 70.1695 354.553 70.1096C354.409 70.0498 354.277 69.9619 354.167 69.8511L333.83 49.5148C333.72 49.4041 333.632 49.2727 333.572 49.1282C333.512 48.9836 333.481 48.8286 333.481 48.6721C333.481 48.5156 333.512 48.3607 333.572 48.2161C333.632 48.0715 333.72 47.9402 333.83 47.8295C333.941 47.7188 334.072 47.6311 334.217 47.5712C334.361 47.5113 334.516 47.4805 334.673 47.4805C334.829 47.4805 334.984 47.5113 335.129 47.5712C335.273 47.6311 335.405 47.7188 335.515 47.8295L355.852 68.1659C356.018 68.3325 356.132 68.5449 356.178 68.776C356.224 69.0071 356.2 69.2467 356.11 69.4644C356.02 69.6821 355.867 69.8682 355.671 69.9991C355.475 70.1301 355.245 70.2 355.009 70.2Z" fill="#DDD8D5"/>
<path d="M360.883 69.4905L346.266 54.8737C344.777 53.3846 342.363 53.3846 340.874 54.8737C339.385 56.3628 339.385 58.777 340.874 60.2661L355.491 74.8829C356.235 75.6276 357.211 75.9997 358.187 75.9997C359.163 75.9997 360.139 75.6274 360.883 74.8829C362.372 73.394 362.372 70.9796 360.883 69.4905Z" fill="#FDC572"/>
<path d="M358.033 73.9295L343.416 59.3127C341.927 57.8236 341.927 55.4094 343.416 53.9203C343.474 53.8626 343.535 53.8112 343.596 53.7579C342.611 53.7512 341.625 54.1223 340.874 54.8736C339.385 56.3627 339.385 58.7769 340.874 60.266L355.491 74.8828C355.844 75.2375 356.264 75.5187 356.727 75.7103C357.19 75.902 357.686 76.0003 358.187 75.9996C359.114 75.9993 360.009 75.6598 360.703 75.0451C359.736 75.0387 358.771 74.6677 358.033 73.9295Z" fill="#FCB74F"/>
<path d="M318.149 8C304.833 8 294 18.8334 294 32.1495C294 45.4656 304.833 56.299 318.149 56.299C331.466 56.299 342.299 45.4656 342.299 32.1495C342.299 18.8334 331.466 8 318.149 8Z" fill="#91B18E"/>
<path d="M318.149 11.8135C306.936 11.8135 297.813 20.9362 297.813 32.1499C297.813 43.3635 306.936 52.4862 318.149 52.4862C329.363 52.4862 338.486 43.3635 338.486 32.1499C338.486 20.9362 329.363 11.8135 318.149 11.8135Z" fill="#6E916B"/>
<path d="M318.15 14.3555C308.338 14.3555 300.355 22.338 300.355 32.1498C300.355 41.9617 308.338 49.9442 318.15 49.9442C327.961 49.9442 335.944 41.9617 335.944 32.1498C335.944 22.338 327.961 14.3555 318.15 14.3555Z" fill="#EEEBEA"/>
<path d="M319.75 38.5166C323.135 38.9129 325.652 40.4335 325.652 42.2477C325.652 44.3684 322.215 46.0801 317.986 46.0801C313.757 46.0801 310.32 44.3684 310.32 42.2477C310.32 40.4335 312.837 38.9129 316.222 38.5166H319.75Z" fill="#91B18E"/>
<path d="M317.986 17.9736C319.213 17.9738 320.42 18.2843 321.495 18.8763C322.57 19.4682 323.478 20.3223 324.134 21.3593C324.79 22.3962 325.173 23.5822 325.248 24.807C325.323 26.0318 325.087 27.2556 324.562 28.3646L317.986 42.2479L311.411 28.3646C310.885 27.2556 310.649 26.0318 310.724 24.807C310.799 23.5822 311.182 22.3962 311.838 21.3593C312.494 20.3223 313.402 19.4682 314.477 18.8763C315.552 18.2843 316.759 17.9738 317.986 17.9736Z" fill="#FF8888"/>
<path d="M317.986 28.5139C319.926 28.5139 321.499 26.941 321.499 25.0006C321.499 23.0603 319.926 21.4873 317.986 21.4873C316.046 21.4873 314.473 23.0603 314.473 25.0006C314.473 26.941 316.046 28.5139 317.986 28.5139Z" fill="#D9E1E6"/>
<path fill-rule="evenodd" clip-rule="evenodd" d="M273.068 64.8242C272.761 64.5806 272.561 64.2263 272.512 63.8372C272.463 63.4481 272.568 63.0552 272.805 62.7427C273.042 62.4303 273.392 62.2231 273.78 62.1656C274.168 62.1082 274.563 62.205 274.88 62.4354L280.931 67.0336C281.117 67.1748 281.268 67.3576 281.371 67.5674C281.474 67.7771 281.526 68.0081 281.524 68.2418C281.522 68.4755 281.465 68.7054 281.359 68.9133C281.252 69.1212 281.098 69.3012 280.909 69.439L274.88 74.021C274.563 74.258 274.165 74.36 273.774 74.3048C273.382 74.2496 273.027 74.0417 272.788 73.7263C272.549 73.411 272.444 73.0139 272.497 72.6216C272.549 72.2292 272.754 71.8736 273.068 71.6321L275.565 69.7346H253.301C252.902 69.7346 252.519 69.5759 252.236 69.2934C251.954 69.0109 251.795 68.6278 251.795 68.2283C251.795 67.8289 251.954 67.4457 252.236 67.1633C252.519 66.8808 252.902 66.7221 253.301 66.7221H275.565L273.068 64.8246V64.8242ZM145.644 20.2985C145.961 20.0615 146.359 19.9595 146.751 20.0147C147.143 20.0699 147.497 20.2778 147.736 20.5931C147.975 20.9085 148.08 21.3056 148.028 21.6979C147.975 22.0902 147.77 22.4459 147.456 22.6873L144.959 24.5849H167.223C167.623 24.5849 168.006 24.7436 168.288 25.0261C168.571 25.3085 168.729 25.6917 168.729 26.0911C168.729 26.4906 168.571 26.8737 168.288 27.1562C168.006 27.4387 167.623 27.5974 167.223 27.5974H144.959L147.456 29.4952C147.764 29.7389 147.963 30.0932 148.012 30.4823C148.062 30.8714 147.956 31.2643 147.719 31.5768C147.482 31.8892 147.132 32.0964 146.744 32.1538C146.356 32.2113 145.961 32.1145 145.644 31.8841L139.615 27.3021C139.426 27.1643 139.272 26.9843 139.166 26.7764C139.059 26.5685 139.002 26.3386 139 26.1049C138.998 25.8712 139.051 25.6402 139.154 25.4305C139.257 25.2207 139.407 25.0379 139.593 24.8967L145.644 20.2985Z" fill="#A6A7B4"/>
</g>
</svg>
