<svg width="420" height="83" viewBox="0 0 420 83" fill="none" xmlns="http://www.w3.org/2000/svg">
<path d="M0 8C0 3.58172 3.58172 0 8 0H412C416.418 0 420 3.58172 420 8V83H0V8Z" fill="#D8E6D6"/>
<mask id="mask0_2441_50428" style="mask-type:alpha" maskUnits="userSpaceOnUse" x="0" y="0" width="420" height="83">
<path d="M0 8C0 3.58172 3.58172 0 8 0H412C416.418 0 420 3.58172 420 8V83H0V8Z" fill="#D8E6D6"/>
</mask>
<g mask="url(#mask0_2441_50428)">
<path opacity="0.3" d="M433.462 92.3709L441.539 -43.3256L29.3181 -58.9033L-18.8456 -7.363C258.218 37.9999 321.058 12.7177 433.462 92.3709Z" fill="#91B18E"/>
<rect x="104.037" y="10.4316" width="36.0298" height="79.2615" fill="#96A495"/>
<path d="M140.068 10.4316H257.269C266.106 10.4316 273.269 17.5951 273.269 26.4316V89.6931H140.068V10.4316Z" fill="#91B18E"/>
<path opacity="0.9" d="M145.527 10.4316L182.404 10.4316L249.249 89.6931H210.49L145.527 10.4316Z" fill="#F5F5F5"/>
<rect x="104.037" y="51.6914" width="29.4789" height="38.0021" fill="#6E916B"/>
<path d="M109.498 51.6911L111.682 49.5195L133.518 51.6911H122.054H109.498Z" fill="#D8E6D6"/>
<path d="M122.263 84.4316V25.6328H87.5586L62.2132 39.4138L52.8543 57.9005L39.1172 64.354V84.4316H122.263Z" fill="#CBCCD6"/>
<path d="M39.1172 84.4312H70.9897V65.5972L39.1172 64.3535V84.4312Z" fill="#A6A7B4"/>
<path d="M44.1992 78.9189V76.6221L63.5999 77.5408V80.297L44.1992 78.9189Z" fill="#6D6F7E"/>
<path d="M44.1992 83.9726V81.6758L63.5999 82.5945V85.3507L44.1992 83.9726Z" fill="#6D6F7E"/>
<path d="M44.1992 73.8662V71.5693L63.5999 72.4881V75.2443L44.1992 73.8662Z" fill="#6D6F7E"/>
<path d="M89.4663 57.7887L99.1666 39.8734L62.213 39.4141L52.9746 57.7887H89.4663Z" fill="#6D6F7E"/>
<path opacity="0.5" d="M67.7559 39.5283L76.9943 39.6432L87.041 57.7881H83.4611L67.7559 39.5283Z" fill="#D5903E"/>
<path opacity="0.6" d="M122.263 84.4316V25.6328L99.0072 39.974L89.467 57.7884L70.9902 65.1383V84.4316H122.263Z" fill="#A6A7B4"/>
<ellipse cx="40.503" cy="66.5161" rx="4.15728" ry="4.13429" fill="#F5F5F5"/>
<ellipse cx="69.1417" cy="67.4351" rx="4.15728" ry="4.13429" fill="#F5F5F5"/>
<path opacity="0.7" d="M277.774 20.1332C251.945 26.0954 131.924 58.3353 131.924 58.3353L135.962 58.3353C135.962 58.3353 234.379 32.8831 283.366 34.7616C332.353 36.6402 353.78 49.2122 387.693 47.5237C421.606 45.8352 438.174 23.4269 438.174 23.4269L434.247 8.50319C434.247 8.50319 404.474 34.8415 379.129 34.7616C353.783 34.6818 303.604 14.1709 277.774 20.1332Z" fill="#F2B062"/>
</g>
</svg>
