<svg width="420" height="83" viewBox="0 0 420 83" fill="none" xmlns="http://www.w3.org/2000/svg">
<path d="M0 8C0 3.58172 3.58172 0 8 0H412C416.418 0 420 3.58172 420 8V83H0V8Z" fill="#D8E6D6"/>
<mask id="mask0_2441_50415" style="mask-type:alpha" maskUnits="userSpaceOnUse" x="0" y="0" width="420" height="83">
<path d="M0 8C0 3.58172 3.58172 0 8 0H412C416.418 0 420 3.58172 420 8V83H0V8Z" fill="#D8E6D6"/>
</mask>
<g mask="url(#mask0_2441_50415)">
<path opacity="0.4" d="M152.789 44.1777H-0.672926L-29.6152 97.7261H335.192L152.789 44.1777Z" fill="#91B18E"/>
<path d="M238.27 -9.40351C248.996 -11.3665 262.609 -12.4083 277.435 -11.5313L434.808 -20.0811C433.508 56.6638 425.137 185.729 402.052 88.029C384.472 13.631 324.772 -8.73102 277.435 -11.5313L238.27 -9.40351Z" fill="#F2B062"/>
<path d="M263.846 -38.8547C274.572 -40.8177 288.185 -41.8595 303.011 -40.9825L460.384 -49.5322C459.084 27.2126 450.713 156.277 427.628 58.5779C410.048 -15.8202 350.348 -38.1822 303.011 -40.9825L263.846 -38.8547Z" fill="#D5903E"/>
<path d="M282.348 18.7509L222.081 62.5051L214.621 76.0929L229.796 70.1829L288.724 27.4009L282.348 18.7509Z" fill="#F5F5F5"/>
<path d="M218.35 69.3193L214.62 76.1132L222.208 73.1582L218.414 72.9819L218.35 69.3193Z" fill="#91B18E"/>
<path d="M218.353 69.3194L214.622 76.1145L218.385 71.151L218.353 69.3194Z" fill="#6E916B"/>
<path d="M282.348 18.7489L222.082 62.5025L229.796 70.1802L288.723 27.3989L282.348 18.7489Z" fill="#6D6F7E"/>
<path d="M282.35 18.749L222.084 62.5028L224.136 64.5452L283.838 20.7677L282.35 18.749Z" fill="#2D2D34"/>
<path d="M102.333 28.6154C102.333 16.6621 107.742 16.0645 107.742 16.0645H171.446V66.866H96.9375C96.9238 66.8771 96.9238 66.866 96.9238 66.866H96.9375C97.0244 66.7956 97.6614 65.8337 102.333 55.5104C107.742 43.5571 102.333 40.5687 102.333 28.6154Z" fill="#91B18E"/>
<path d="M113.31 23.3189C113.31 16.0645 107.83 16.0645 107.83 16.0645H184.163C184.163 16.0645 190.034 16.0645 190.034 23.3189V138.936C190.034 149.818 196.689 161.153 196.689 161.153H120.748C120.748 161.153 113.31 152.085 113.31 138.936V23.3189Z" fill="#F5F5F5"/>
<ellipse cx="142.277" cy="36.0138" rx="1.56579" ry="1.8136" fill="#91B18E"/>
<ellipse cx="148.54" cy="36.0138" rx="1.56579" ry="1.8136" fill="#91B18E"/>
<ellipse cx="154.802" cy="36.0138" rx="1.5658" ry="1.8136" fill="#91B18E"/>
<ellipse cx="161.066" cy="36.0138" rx="1.56579" ry="1.8136" fill="#91B18E"/>
<ellipse cx="167.329" cy="36.0138" rx="1.5658" ry="1.8136" fill="#91B18E"/>
<rect x="126.271" y="46.4473" width="6.21187" height="7.36732" stroke="#F2B062"/>
<rect x="126.271" y="61.9873" width="6.21187" height="7.36731" stroke="#F2B062"/>
<rect x="126.271" y="77.5264" width="6.21187" height="7.36732" stroke="#F2B062"/>
<rect x="137.58" y="47.8027" width="43.8423" height="0.906803" rx="0.453402" fill="#91B18E"/>
<rect x="137.58" y="63.2178" width="38.362" height="0.906807" rx="0.453403" fill="#91B18E"/>
<rect x="137.58" y="78.6338" width="21.1382" height="0.906799" rx="0.4534" fill="#91B18E"/>
<rect x="137.58" y="51.4297" width="32.0988" height="0.906803" rx="0.453402" fill="#91B18E"/>
<rect x="137.58" y="66.8457" width="32.0988" height="0.906799" rx="0.4534" fill="#91B18E"/>
<rect x="137.58" y="82.2607" width="32.0988" height="0.906799" rx="0.4534" fill="#91B18E"/>
</g>
</svg>
