<svg width="620" height="176" viewBox="0 0 620 176" fill="none" xmlns="http://www.w3.org/2000/svg">
<g clip-path="url(#clip0_13635_41660)">
<path d="M0 15.8974C0 7.1175 7.11753 0 15.8974 0H604.103C612.883 0 620 7.11753 620 15.8974V176.203H0V15.8974Z" fill="#D8E6D6"/>
<mask id="mask0_13635_41660" style="mask-type:alpha" maskUnits="userSpaceOnUse" x="0" y="0" width="620" height="176">
<path d="M0 15.8974C0 7.11752 7.11753 0 15.8974 0H604.103C612.882 0 620 7.11752 620 15.8974V176H0V15.8974Z" fill="#D8E6D6"/>
</mask>
<g mask="url(#mask0_13635_41660)">
<path opacity="0.4" d="M225.544 119.043H-0.994389L-43.7188 197.884H494.807L225.544 119.043Z" fill="#91B18E"/>
<path d="M351.73 -13.8456C367.565 -16.7358 387.661 -18.2697 409.546 -16.9784L641.859 -29.5664C639.94 83.4268 627.583 273.452 593.504 129.607C567.553 20.0686 479.425 -12.8555 409.546 -16.9784L351.73 -13.8456Z" fill="#F2B062"/>
<path d="M389.484 -57.2089C405.319 -60.0991 425.415 -61.633 447.3 -60.3417L679.613 -72.9297C677.694 40.0636 665.336 230.089 631.258 86.2434C605.307 -23.2947 517.179 -56.2188 447.3 -60.3417L389.484 -57.2089Z" fill="#D5903E"/>
<path d="M404.026 24.9067L315.083 94.1768L303.92 115.093L326.22 105.364L413.186 37.6331L404.026 24.9067Z" fill="#F5F5F5"/>
<path d="M309.5 101.935L303.92 112.39L315.069 107.527L309.525 107.462L309.5 101.935Z" fill="#91B18E"/>
<path d="M309.431 101.909L303.919 112.23L309.467 104.63L309.431 101.909Z" fill="#6E916B"/>
<path d="M404.022 25.1684L315.041 94.5098L326.178 105.711L413.182 37.9109L404.022 25.1684Z" fill="#6D6F7E"/>
<path d="M403.929 25.1605L314.963 94.4728L317.926 97.4511L406.067 28.1328L403.929 25.1605Z" fill="#2D2D34"/>
<path d="M143.364 33.0065C143.364 14.7674 151.728 13.8555 151.728 13.8555H250.238V91.3717H135.021C135 91.3887 135 91.3717 135 91.3717H135.021C135.156 91.2643 136.141 89.7965 143.364 74.0446C151.728 55.8055 143.364 51.2457 143.364 33.0065Z" fill="#91B18E"/>
<path d="M161.583 25.0126C161.583 13.8555 151.762 13.8555 151.762 13.8555H288.552C288.552 13.8555 299.075 13.8555 299.075 25.0126V202.83C299.075 219.565 311 236.998 311 236.998H174.911C174.911 236.998 161.583 223.052 161.583 202.83V25.0126Z" fill="#F5F5F5"/>
<ellipse cx="214.648" cy="44.2622" rx="2.42147" ry="2.79737" fill="#91B18E"/>
<ellipse cx="224.336" cy="44.2622" rx="2.42147" ry="2.79737" fill="#91B18E"/>
<ellipse cx="234.015" cy="44.2622" rx="2.42148" ry="2.79737" fill="#91B18E"/>
<ellipse cx="243.711" cy="44.2622" rx="2.42147" ry="2.79737" fill="#91B18E"/>
<ellipse cx="253.39" cy="44.2622" rx="2.42148" ry="2.79737" fill="#91B18E"/>
<rect x="190.517" y="60.6229" width="9.07123" height="10.8242" stroke="#F2B062" stroke-width="2.08181"/>
<rect x="190.517" y="84.5917" width="9.07123" height="10.8242" stroke="#F2B062" stroke-width="2.08181"/>
<rect x="190.517" y="108.56" width="9.07123" height="10.8242" stroke="#F2B062" stroke-width="2.08181"/>
<rect x="190.517" y="130.56" width="9.07123" height="10.8242" stroke="#F2B062" stroke-width="2.08181"/>
<rect x="190.517" y="154.654" width="9.07123" height="10.8242" stroke="#F2B062" stroke-width="2.08181"/>
<rect x="207.383" y="62.4414" width="67.8014" height="1.39869" rx="0.699345" fill="#91B18E"/>
<rect x="207.383" y="86.2227" width="59.3262" height="1.39868" rx="0.699341" fill="#91B18E"/>
<rect x="207.383" y="110" width="32.69" height="1.39868" rx="0.699341" fill="#91B18E"/>
<rect x="207.383" y="133.777" width="67.8014" height="1.39868" rx="0.699341" fill="#91B18E"/>
<rect x="207.383" y="157.555" width="67.8014" height="1.39868" rx="0.699341" fill="#91B18E"/>
<rect x="207.383" y="68.0391" width="49.6403" height="1.39868" rx="0.699341" fill="#91B18E"/>
<rect x="207.383" y="91.8164" width="49.6403" height="1.39868" rx="0.699341" fill="#91B18E"/>
<rect x="207.383" y="115.594" width="49.6403" height="1.39868" rx="0.699341" fill="#91B18E"/>
<rect x="207.383" y="139.371" width="66.5906" height="1.39868" rx="0.699341" fill="#91B18E"/>
<rect x="207.383" y="163.148" width="49.6403" height="1.39868" rx="0.699341" fill="#91B18E"/>
</g>
</g>
<defs>
<clipPath id="clip0_13635_41660">
<path d="M0 24C0 10.7452 10.7452 0 24 0H596C609.255 0 620 10.7452 620 24V176H0V24Z" fill="white"/>
</clipPath>
</defs>
</svg>
