<svg width="344" height="186" viewBox="0 0 344 186" fill="none" xmlns="http://www.w3.org/2000/svg">
<g opacity="0.5">
<path opacity="0.5" d="M62.2067 47.2074C62.3304 47.1346 62.2695 47.1734 62.3899 47.0952C66.2236 44.6065 218.745 -53.4808 299.264 40.9725C380.811 136.632 328.498 155.145 315.419 162.089C302.341 169.032 101.551 212.233 26.1588 162.089C-47.8587 112.859 58.3099 49.5018 62.2067 47.2074Z" fill="#CBCCD6"/>
<mask id="mask0_5630_53893" style="mask-type:alpha" maskUnits="userSpaceOnUse" x="0" y="0" width="344" height="186">
<path d="M62.2067 47.2074C62.3304 47.1346 62.2695 47.1734 62.3899 47.0952C66.2236 44.6065 218.745 -53.4809 299.264 40.9725C380.811 136.632 328.498 155.145 315.419 162.089C302.341 169.032 101.551 212.233 26.1588 162.089C-47.8587 112.859 58.3099 49.5018 62.2067 47.2074Z" fill="#91B18E"/>
</mask>
<g mask="url(#mask0_5630_53893)">
<path d="M153.215 50H114.112C111.671 49.3355 107.362 46.8102 109.648 42.0254C111.933 37.2405 117.385 38.8133 119.825 40.1978C120.004 39.7548 120.682 38.7358 121.968 38.2041C123.254 37.6725 124.646 37.318 125.182 37.2073C125.301 34.4383 126.967 28.568 132.681 27.2389C138.395 25.9097 141.728 30.4507 142.68 32.8873C143.513 32.7212 145.537 32.6215 146.966 33.5519C148.394 34.4823 148.87 36.1549 148.93 36.8749C150.001 36.4872 152.572 35.7451 154.286 35.878C156.429 36.0442 160 37.3733 160 43.1882C160 47.8402 155.477 49.6677 153.215 50Z" fill="#F5F5F5"/>
<path d="M273.94 79H256.305C255.205 78.7111 253.261 77.6131 254.292 75.5328C255.323 73.4524 257.781 74.1362 258.882 74.7382C258.963 74.5456 259.269 74.1025 259.848 73.8714C260.428 73.6402 261.056 73.4861 261.298 73.4379C261.351 72.234 262.103 69.6817 264.68 69.1039C267.257 68.526 268.76 70.5003 269.189 71.5597C269.565 71.4875 270.478 71.4441 271.122 71.8487C271.766 72.2532 271.981 72.9804 272.007 73.2934C272.491 73.1249 273.65 72.8022 274.423 72.86C275.39 72.9322 277 73.5101 277 76.0384C277 78.0609 274.96 78.8555 273.94 79Z" fill="#F5F5F5"/>
<path d="M8.59209 105H29.2939C30.5858 104.653 32.8671 103.336 31.6571 100.839C30.4471 98.3429 27.5609 99.1635 26.269 99.8858C26.1744 99.6547 25.8152 99.123 25.1346 98.8456C24.454 98.5682 23.7167 98.3833 23.4331 98.3255C23.3701 96.8808 22.4878 93.8181 19.4629 93.1246C16.438 92.4312 14.6734 94.8004 14.1693 96.0717C13.7282 95.985 12.6568 95.933 11.9006 96.4184C11.1444 96.9038 10.8923 97.7765 10.8608 98.1521C10.2936 97.9498 8.93239 97.5627 8.02492 97.632C6.89057 97.7187 5 98.4122 5 101.446C5 103.873 7.39473 104.827 8.59209 105Z" fill="#F5F5F5"/>
<path d="M344.918 189.005C344.918 202.151 214.85 198.92 186.24 198.92C157.629 198.92 20.8174 201.626 20.8174 188.479C20.8174 154.473 114.18 146.284 177.5 146.501C240.187 146.716 376.838 174.09 344.918 189.005Z" fill="#91B18E"/>
<path d="M186.547 125.244L183.241 126.195L182.534 129.991L186.547 125.244Z" fill="#D5903E"/>
<path d="M159.576 131.784L166.115 136.03L170.05 134.969L165.839 131.431L159.576 131.784Z" fill="#D5903E"/>
<path d="M175.368 132.189C178.226 137.622 176.419 147.372 174.912 153.498" stroke="#D5903E" stroke-width="3" stroke-linecap="round"/>
<g filter="url(#filter0_d_5630_53893)">
<ellipse rx="12.5097" ry="12.6406" transform="matrix(0.965627 0.259932 -0.25771 0.966222 172.13 123.731)" fill="white"/>
</g>
<path d="M160.05 120.479C158.251 127.225 162.201 134.149 168.872 135.945C171.122 136.55 173.395 136.495 175.488 135.898C165.798 129.966 163.588 124.981 165.205 113.227C162.761 114.875 160.874 117.39 160.05 120.479Z" fill="#F5F5F5"/>
<path d="M88.7441 115.426C92.6178 117.411 95.3818 122.322 96.4393 124.06" stroke="#D5903E" stroke-linecap="round"/>
<ellipse rx="2.68438" ry="2.70791" transform="matrix(0.865027 -0.501726 0.498276 0.867018 87.6713 114.86)" fill="white"/>
<path d="M85.3495 116.204C86.0947 117.501 87.7384 117.949 89.0209 117.205C89.4534 116.954 89.7896 116.6 90.0167 116.191C87.6526 116.767 86.5652 116.348 85.0365 114.32C84.9146 114.942 85.0083 115.611 85.3495 116.204Z" fill="#F5F5F5"/>
<path d="M292.181 133.251C289.827 132.946 287.668 134.7 286.062 136.115" stroke="#D5903E" stroke-linecap="round"/>
<ellipse rx="2.83151" ry="2.84871" transform="matrix(-0.676154 -0.73676 -0.733653 0.679524 293.436 133.02)" fill="white"/>
<path d="M295.351 135.107C294.197 136.177 292.404 136.109 291.347 134.957C290.99 134.568 290.763 134.106 290.662 133.623C292.859 134.948 294.084 134.869 296.254 133.311C296.183 133.975 295.88 134.618 295.351 135.107Z" fill="#F5F5F5"/>
<path d="M208.898 77.7103C204.603 73.4118 202.499 72.8882 199.278 75.1207" stroke="#D5903E"/>
<ellipse rx="4.09381" ry="4.10384" transform="matrix(-0.25771 0.966222 -0.965627 -0.259932 210.021 78.9081)" fill="white"/>
<path d="M211.076 74.9561C208.887 74.367 206.641 75.6604 206.058 77.8449C205.862 78.5818 205.88 79.3259 206.073 80.0112C207.998 76.8383 209.615 76.1144 213.429 76.644C212.894 75.8437 212.078 75.2259 211.076 74.9561Z" fill="#F5F5F5"/>
<ellipse cx="40.6861" cy="83.6939" rx="1.68613" ry="1.69391" fill="white"/>
<ellipse cx="308.438" cy="110.649" rx="1.68613" ry="1.69391" fill="white"/>
<ellipse cx="225.686" cy="23.6939" rx="1.68613" ry="1.69391" fill="white"/>
<path d="M180.35 129.887L177.477 135.335L182.502 132.265L181.294 124.803L180.35 129.887Z" fill="#D5903E"/>
</g>
</g>
<defs>
<filter id="filter0_d_5630_53893" x="143.615" y="99.0884" width="57.0283" height="57.2844" filterUnits="userSpaceOnUse" color-interpolation-filters="sRGB">
<feFlood flood-opacity="0" result="BackgroundImageFix"/>
<feColorMatrix in="SourceAlpha" type="matrix" values="0 0 0 0 0 0 0 0 0 0 0 0 0 0 0 0 0 0 127 0" result="hardAlpha"/>
<feMorphology radius="4" operator="dilate" in="SourceAlpha" result="effect1_dropShadow_5630_53893"/>
<feOffset dy="4"/>
<feGaussianBlur stdDeviation="6"/>
<feComposite in2="hardAlpha" operator="out"/>
<feColorMatrix type="matrix" values="0 0 0 0 1 0 0 0 0 1 0 0 0 0 1 0 0 0 0.1 0"/>
<feBlend mode="normal" in2="BackgroundImageFix" result="effect1_dropShadow_5630_53893"/>
<feBlend mode="normal" in="SourceGraphic" in2="effect1_dropShadow_5630_53893" result="shape"/>
</filter>
</defs>
</svg>
