<svg width="620" height="177" viewBox="0 0 620 177" fill="none" xmlns="http://www.w3.org/2000/svg">
<path d="M0 15.8974C0 7.1175 7.11753 0 15.8974 0H604.103C612.883 0 620 7.11753 620 15.8974V176.203H0V15.8974Z" fill="#D8E6D6"/>
<mask id="mask0_13635_41786" style="mask-type:alpha" maskUnits="userSpaceOnUse" x="0" y="0" width="620" height="176">
<path d="M0 15.8974C0 7.11752 7.11753 0 15.8974 0H604.103C612.883 0 620 7.11753 620 15.8974V176H0V15.8974Z" fill="#D8E6D6"/>
</mask>
<g mask="url(#mask0_13635_41786)">
<path opacity="0.3" d="M639.874 136.002L651.797 -63.7872L43.2802 -86.7227L-27.8185 -10.8386C381.18 55.9503 473.944 18.7266 639.874 136.002Z" fill="#91B18E"/>
<rect x="142.809" y="52" width="60.8295" height="133.467" fill="#96A495"/>
<path d="M203.641 52H392.162C412.245 52 428.526 68.2805 428.526 88.3636V185.467H203.641V52Z" fill="#91B18E"/>
<path opacity="0.9" d="M212.855 52L275.115 52L387.971 185.467H322.533L212.855 52Z" fill="#F5F5F5"/>
<rect x="142.809" y="121.477" width="49.7696" height="63.9912" fill="#6E916B"/>
<path d="M152.031 121.477L155.718 117.82L192.584 121.477H173.229H152.031Z" fill="#D8E6D6"/>
<path d="M173.575 176.608V77.5977H114.983L72.1925 100.803L56.3918 131.933L33.1992 142.8V176.608H173.575Z" fill="#CBCCD6"/>
<path d="M33.2031 176.609H87.0139V144.895L33.2031 142.801V176.609Z" fill="#A6A7B4"/>
<path d="M41.7812 167.325V163.457L74.5356 165.004V169.645L41.7812 167.325Z" fill="#6D6F7E"/>
<path d="M41.7812 175.836V171.969L74.5356 173.516V178.157L41.7812 175.836Z" fill="#6D6F7E"/>
<path d="M41.7812 158.817V154.949L74.5356 156.496V161.137L41.7812 158.817Z" fill="#6D6F7E"/>
<path d="M118.211 131.745L134.588 101.578L72.1989 100.805L56.6016 131.745H118.211Z" fill="#6D6F7E"/>
<path opacity="0.5" d="M81.5547 100.996L97.152 101.189L114.114 131.744H108.07L81.5547 100.996Z" fill="#D5903E"/>
<path opacity="0.6" d="M173.581 176.608V77.5977L134.317 101.747L118.21 131.744L87.0156 144.12V176.608H173.581Z" fill="#A6A7B4"/>
<ellipse cx="35.5422" cy="146.442" rx="7.01879" ry="6.96168" fill="#F5F5F5"/>
<ellipse cx="83.8938" cy="147.989" rx="7.01879" ry="6.96168" fill="#F5F5F5"/>
<path opacity="0.7" d="M410.047 83.6421C371.917 92.4205 194.743 139.888 194.743 139.888L200.705 139.888C200.705 139.888 345.986 102.414 418.301 105.18C490.616 107.946 522.245 126.456 572.307 123.97C622.369 121.484 646.826 88.4916 646.826 88.4916L641.03 66.519C641.03 66.519 597.079 105.298 559.665 105.18C522.25 105.062 448.176 74.8637 410.047 83.6421Z" fill="#F2B062"/>
</g>
</svg>
