<svg width="104" height="105" viewBox="0 0 104 105" fill="none" xmlns="http://www.w3.org/2000/svg">
<mask id="mask0_4144_18844" style="mask-type:alpha" maskUnits="userSpaceOnUse" x="0" y="0" width="104" height="105">
<rect x="0.0385742" y="0.615356" width="103.923" height="103.923" fill="white"/>
</mask>
<g mask="url(#mask0_4144_18844)">
<path opacity="0.5" d="M75.8161 39.0046C63.9501 33.9076 54.1359 38.6774 52.3997 49.6628C52.0984 51.5728 54.0641 54.0844 56.446 55.108L95.1719 71.7391C97.5538 72.7627 99.5195 71.9396 99.2325 69.7763C97.4964 57.2924 87.6821 44.091 75.8161 39.0046Z" fill="url(#paint0_linear_4144_18844)"/>
<path opacity="0.5" d="M89.0451 24.7267C89.0451 32.3141 83.0763 35.9021 75.7156 32.7363C68.3693 29.581 62.4004 20.875 62.4004 13.2876C62.4004 5.7002 68.3693 2.11227 75.7299 5.27809C83.0906 8.43335 89.0451 17.1499 89.0451 24.7267Z" fill="url(#paint1_linear_4144_18844)"/>
<path opacity="0.07" d="M81.5554 35.8388C69.6894 30.7418 59.8751 35.5117 58.139 46.497C57.8377 48.4071 59.8034 50.9186 62.1852 51.9422L100.911 68.5733C103.293 69.5969 105.259 68.7738 104.972 66.6105C103.236 54.1266 93.4214 40.9252 81.5554 35.8388Z" fill="url(#paint2_linear_4144_18844)"/>
<path opacity="0.5" d="M94.7844 21.561C94.7844 29.1484 88.8155 32.7363 81.4548 29.5705C74.1085 26.4152 68.1396 17.7092 68.1396 10.1218C68.1396 2.53443 74.1085 -1.0535 81.4692 2.11232C88.8299 5.26758 94.7844 13.9841 94.7844 21.561Z" fill="#6E916B"/>
<path opacity="0.2" d="M26.716 42.8775L-0.000488281 31.5333V41.7695L26.7304 53.1136L26.716 42.8775Z" fill="white"/>
<path d="M5.42318 37.2739C5.42318 38.1181 4.74881 38.5086 3.90226 38.1603C3.07006 37.8015 2.38135 36.8307 2.38135 35.9865C2.38135 35.1423 3.05572 34.7518 3.90226 35.1C4.74881 35.4588 5.42318 36.4297 5.42318 37.2739Z" fill="#F2B062"/>
<path opacity="0.15" d="M6.80078 36.9574L15.5389 40.6614V42.0966L6.80078 38.3926V36.9574Z" fill="#6E916B"/>
<path opacity="0.15" d="M6.84375 39.8489L23.9612 47.1197V48.5549L6.84375 41.284V39.8489Z" fill="#6E916B"/>
<path opacity="0.05" d="M68.8999 53.198L95.7455 64.5949V107.112L68.8999 95.7254V53.198Z" fill="#D8E6D6"/>
<path opacity="0.3" d="M91.2691 67.4442L64.4092 56.0472V98.5641L91.2548 109.961L91.2691 67.4442ZM73.1616 62.4844L82.1293 66.2834V67.9718L73.1616 64.2256V62.4844Z" fill="#CBCCD6"/>
<path opacity="0.15" d="M67.0059 82.9883L88.5713 92.1375V93.5727L67.0059 84.4235V82.9883Z" fill="#6E916B"/>
<path opacity="0.15" d="M68.5269 86.4285L87.0792 94.3008V95.736L68.5269 87.8636V86.4285Z" fill="#6E916B"/>
<path d="M83.8366 79.4109C83.8366 76.0446 81.1535 72.1717 77.8534 70.7682C74.5532 69.3647 71.8701 70.9582 71.8701 74.3245C71.8701 77.6908 74.5532 81.5637 77.8534 82.9672C81.1535 84.3707 83.8366 82.7772 83.8366 79.4109Z" fill="#F2B062"/>
<path opacity="0.05" d="M35.4683 18.9756L62.3139 30.3725V72.8894L35.4683 61.4925V18.9756Z" fill="#CBCCD6"/>
<path opacity="0.3" d="M57.8375 33.2534L30.9775 21.8564V64.3733L57.8232 75.7703L57.8375 33.2534ZM39.73 28.2936L48.6977 32.0926V33.781L39.73 30.0348V28.2936Z" fill="#91B18E"/>
<path opacity="0.15" d="M33.5747 48.7554L55.1401 57.9046V59.3398L33.5747 50.1905V48.7554Z" fill="#6E916B"/>
<path opacity="0.15" d="M35.0812 52.2061L53.6192 60.0784V61.5135L35.0669 53.6412L35.0812 52.2061Z" fill="#6E916B"/>
<path d="M50.4049 45.1885C50.4049 41.8222 47.7218 37.9493 44.4217 36.5458C41.1216 35.1423 38.4385 36.7358 38.4385 40.1021C38.4385 43.4684 41.1216 47.3412 44.4217 48.7447C47.7218 50.1483 50.4049 48.5548 50.4049 45.1885Z" fill="#F2C94C"/>
<path opacity="0.9" d="M50.4051 68.9004L7.70459 50.7709L7.71894 67.1381L46.6458 83.6637L50.4194 87.7687L50.4051 68.9004Z" fill="#F5F5F5"/>
<path d="M3.15625 57.1553V52.7126L19.2694 59.5508V63.9935L3.15625 57.1553Z" fill="#F2B062"/>
<path opacity="0.15" d="M39.4288 68.225L30.0737 64.2572V65.6924L39.4288 69.6602V68.225Z" fill="#6E916B"/>
<path opacity="0.15" d="M39.4289 71.1059L21.3931 63.4552V64.8904L39.4289 72.5411V71.1059Z" fill="#6E916B"/>
<path opacity="0.15" d="M39.4289 73.9763L17.5908 64.7004V66.1356L39.4432 75.4114L39.4289 73.9763Z" fill="#6E916B"/>
<path d="M41.7389 70.705C41.7389 72.0558 42.8294 73.607 44.1638 74.1768C45.4982 74.7467 46.5886 74.1135 46.5886 72.7628C46.5886 71.412 45.4982 69.8608 44.1638 69.2909C42.815 68.7211 41.7246 69.3543 41.7389 70.705Z" fill="#F2B062"/>
<path opacity="0.2" d="M16.9307 19.7881C17.7916 20.1469 18.4803 21.0333 18.4803 21.7615V24.98L21.3787 26.2042C22.2395 26.563 22.9283 27.4494 22.9283 28.1775C22.9283 28.9057 22.2395 29.2011 21.3787 28.8423L18.4803 27.6182V30.8368C18.4803 31.5649 17.7916 31.8604 16.9307 31.5016C16.0698 31.1428 15.3811 30.2564 15.3811 29.5283V26.3097L12.4827 25.0856C11.6218 24.7268 10.9331 23.8403 10.9331 23.1122C10.9331 22.3841 11.6218 22.0886 12.4827 22.4474L15.3811 23.6715V20.4529C15.3811 19.7248 16.0698 19.4293 16.9307 19.7881Z" fill="#6E916B"/>
</g>
<defs>
<linearGradient id="paint0_linear_4144_18844" x1="124.778" y1="30.6909" x2="87.5515" y2="67.6133" gradientUnits="userSpaceOnUse">
<stop stop-color="white"/>
<stop offset="1" stop-color="white" stop-opacity="0"/>
</linearGradient>
<linearGradient id="paint1_linear_4144_18844" x1="100.214" y1="5.86891" x2="62.9885" y2="42.7913" gradientUnits="userSpaceOnUse">
<stop stop-color="white"/>
<stop offset="1" stop-color="white" stop-opacity="0"/>
</linearGradient>
<linearGradient id="paint2_linear_4144_18844" x1="130.517" y1="27.5251" x2="93.2909" y2="64.4475" gradientUnits="userSpaceOnUse">
<stop stop-color="white"/>
<stop offset="1" stop-color="white" stop-opacity="0"/>
</linearGradient>
</defs>
</svg>
