<svg width="104" height="105" viewBox="0 0 104 105" fill="none" xmlns="http://www.w3.org/2000/svg">
<mask id="mask0_4144_18872" style="mask-type:alpha" maskUnits="userSpaceOnUse" x="0" y="0" width="104" height="105">
<g style="mix-blend-mode:multiply">
<rect x="0.0385742" y="0.538452" width="103.923" height="103.923" fill="black"/>
</g>
</mask>
<g mask="url(#mask0_4144_18872)">
<g opacity="0.9">
<path opacity="0.07" d="M76.3921 49.6387C76.3921 49.6387 85.5724 33.1331 85.5724 21.7782C85.5724 13.7576 81.4631 4.56753 76.3921 1.24152C71.3212 -2.08449 67.2119 1.72259 67.2119 9.74317C67.2119 20.9985 76.3921 49.6387 76.3921 49.6387ZM76.3921 9.30357C78.6289 10.7717 80.4431 14.811 80.4431 18.3361C80.4431 21.8611 78.6289 23.52 76.3921 22.0519C74.1554 20.5838 72.3412 16.5445 72.3412 13.0194C72.3412 9.50263 74.1554 7.83548 76.3921 9.30357Z" fill="#D8E6D6"/>
<path opacity="0.9" d="M72.8004 52.1268C72.8004 52.1268 81.9806 35.6211 81.9806 24.2662C81.9806 16.2456 77.8713 7.05557 72.8004 3.72956C67.7294 0.403545 63.6201 4.21062 63.6201 12.2312C63.6201 23.4866 72.8004 52.1268 72.8004 52.1268ZM72.8004 11.7916C75.0371 13.2597 76.8513 17.299 76.8513 20.8241C76.8513 24.3492 75.0371 26.008 72.8004 24.5399C70.5636 23.0718 68.7494 19.0325 68.7494 15.5075C68.7494 11.9824 70.5636 10.3235 72.8004 11.7916Z" fill="#CBCCD6"/>
</g>
<path opacity="0.2" d="M68.0418 79.19L64.8253 82.1503C64.481 82.47 63.8558 82.1399 63.4481 81.4076C63.0313 80.6753 62.977 79.8295 63.3213 79.5098L64.6713 78.272L59.5249 74.8889C58.9813 74.5279 58.5464 73.6718 58.5464 72.9601C58.5464 72.2484 58.9813 71.9596 59.5249 72.3103L64.6713 75.6934L63.3122 72.6713C62.9679 71.8977 63.0223 71.1241 63.439 70.9384C63.8558 70.7528 64.4719 71.2376 64.8162 72.0111L68.0418 79.19Z" fill="#6D6F7E"/>
<path opacity="0.3" d="M86.8328 64.4624L59.8779 46.7628L59.887 62.3686L84.468 78.5107L86.8509 82.4612L86.8328 64.4624Z" fill="#CBCCD6"/>
<path d="M57.0059 52.8071V48.5679L67.1808 55.2516V59.4909L57.0059 52.8071Z" fill="#F2994A"/>
<path opacity="0.15" d="M79.9021 63.7094L73.9946 59.8312V61.203L79.9021 65.0812V63.7094Z" fill="white"/>
<path opacity="0.15" d="M79.9105 66.4531L68.5215 58.9751V60.3469L79.9105 67.8249V66.4531Z" fill="white"/>
<path opacity="0.15" d="M79.9109 69.1968L66.1118 60.1407V61.5126L79.9109 70.5687V69.1968Z" fill="white"/>
<path d="M81.3604 66.0922C81.3604 67.3815 82.0489 68.8668 82.8916 69.4238C83.7342 69.9808 84.4228 69.3825 84.4228 68.1035C84.4228 66.8142 83.7342 65.3289 82.8916 64.772C82.0399 64.215 81.3604 64.8132 81.3604 66.0922Z" fill="#F2994A"/>
<path opacity="0.3" d="M-11.9032 65.1991C-21.2953 56.8714 -22.3273 65.2578 -22.9316 65.409C-22.9316 65.409 -33.0282 103.547 -32.5373 110.864L104 112.808C104 112.808 95.7496 84.5866 83.1939 83.6031C76.21 83.0561 77.0679 88.5665 64.968 85.9651C52.8681 83.3638 50.5891 56.6801 44.1965 63.4201C33.1177 75.0788 26.2115 80.4746 12.1744 65.6273C3.85479 56.8279 -0.624996 75.1963 -11.9032 65.1991Z" fill="#F2B062"/>
<path opacity="0.2" d="M-8.21507 86.7893C-17.813 82.0181 -17.7476 89.0644 -18.2893 89.3279C-18.2893 89.3279 -19.6206 98.3405 -18.2892 104.197L102.959 107.293L81.5047 92.1586C81.5047 92.1586 75.6564 89.5572 71.6231 93.8928C67.5897 98.2284 42.0089 78.9078 35.0142 83.668C28.162 88.3277 24.4665 83.5713 13.7482 78.2956C4.93528 73.9553 3.30989 92.5162 -8.21507 86.7893Z" fill="#91B18E"/>
<path d="M43.4593 61.1723C43.4593 60.3471 43.0334 59.4085 42.517 59.0681C41.9915 58.7277 41.5747 59.1094 41.5747 59.9345C41.5747 60.7597 42.0005 61.6983 42.517 62.0387C43.0334 62.3894 43.4593 61.9974 43.4593 61.1723Z" fill="#F2994A"/>
<path d="M18.4615 66.7214C18.4615 65.9272 18.0266 64.9989 17.4829 64.6482C16.9393 64.2975 16.5044 64.6482 16.5044 65.4424C16.5044 66.2366 16.9393 67.1649 17.4829 67.5156C18.0175 67.8663 18.4615 67.5156 18.4615 66.7214Z" fill="#91B18E"/>
<path opacity="0.07" d="M37.4248 8.39294L54.1504 19.3779V56.7987L37.4248 45.8138V8.39294Z" fill="white"/>
<path opacity="0.2" d="M50.8895 22.596L34.1638 11.6111L34.1548 49.032L41.385 53.7766L42.5267 56.3346L43.6592 55.2825L50.8895 60.0169V22.596Z" fill="#6E916B"/>
<path opacity="0.1" d="M48.6966 34.2619C48.6966 35.4583 48.5426 36.5517 48.2526 37.4697C47.9627 38.3876 47.5369 39.1096 47.0023 39.6047C46.4677 40.0998 45.8244 40.3474 45.1268 40.3474C44.4291 40.3474 43.668 40.0895 42.916 39.5841V30.4558L48.6966 34.2619Z" fill="white"/>
<path opacity="0.3" d="M42.9156 39.5946C41.9008 38.9242 40.9042 37.8515 40.0253 36.4693C39.1465 35.0872 38.4126 33.4575 37.9052 31.735C37.3978 30.0125 37.126 28.259 37.126 26.6603C37.126 25.0615 37.3978 23.6588 37.9052 22.6067L42.9156 30.4663V39.5946Z" fill="white"/>
<path d="M48.6966 34.2619C48.6966 32.2506 48.2798 30.0226 47.5006 27.9185C46.7214 25.8143 45.6341 23.9577 44.411 22.6272C43.1787 21.2966 41.874 20.5746 40.6962 20.5746C39.5183 20.5746 38.5398 21.2863 37.8965 22.6065L42.9069 30.4662L48.6966 34.2619Z" fill="#F2994A"/>
<path opacity="0.15" d="M36.3472 39.9863L46.5402 46.6804V48.0832L36.3472 41.3891V39.9863Z" fill="white"/>
<path opacity="0.15" d="M36.3472 42.7301L48.7056 50.8476V52.2504L36.3472 44.1329V42.7301Z" fill="white"/>
<path opacity="0.15" d="M36.3472 45.4735L44.3566 50.7339V52.1367L36.3472 46.8763V45.4735Z" fill="white"/>
<path opacity="0.07" d="M12.3369 13.9838L29.0625 24.9687V62.3896L12.3369 51.4046V13.9838Z" fill="white"/>
<path opacity="0.2" d="M25.846 28.2071L9.12039 17.2222L9.11133 54.6534L16.3506 59.398L17.4832 61.9457L18.6158 60.8936L25.846 65.628V28.2071Z" fill="#91B18E"/>
<path opacity="0.1" d="M23.6534 39.8833C23.6534 41.4821 23.3816 42.8848 22.8742 43.9369C22.3668 44.989 21.6329 45.6594 20.7541 45.8863L17.8638 36.0773L23.6534 39.8833Z" fill="white"/>
<path opacity="0.3" d="M20.7625 45.886C19.6571 46.1645 18.3796 45.721 17.1111 44.638C15.8517 43.5446 14.6738 41.8634 13.7769 39.8521L17.8722 36.0873L20.7625 45.886Z" fill="white"/>
<path d="M23.653 39.8833C23.653 38.3774 23.4174 36.7477 22.9734 35.1283C22.5204 33.5089 21.8771 31.9515 21.0888 30.6003C20.3006 29.2491 19.3855 28.1351 18.4432 27.3615C17.4918 26.5879 16.5405 26.1857 15.6616 26.1857C14.7828 26.1857 14.0036 26.5776 13.4056 27.3409C12.7985 28.1042 12.3908 29.2078 12.2005 30.559C12.0193 31.9102 12.0646 33.4574 12.3364 35.0767C12.6082 36.6961 13.1066 38.3258 13.7861 39.8317L17.8814 36.0669L23.653 39.8833Z" fill="#91B18E"/>
<path opacity="0.15" d="M11.3037 45.6078L22.8739 53.2096V54.6123L11.3037 47.0106V45.6078Z" fill="white"/>
<path opacity="0.15" d="M11.3037 48.3409L23.3179 56.2418V57.6446L11.3037 49.7437V48.3409Z" fill="white"/>
<path opacity="0.15" d="M11.3037 51.0846L19.3132 56.345V57.7477L11.3037 52.4874V51.0846Z" fill="white"/>
</g>
</svg>
