<svg width="104" height="105" viewBox="0 0 104 105" fill="none" xmlns="http://www.w3.org/2000/svg">
<mask id="mask0_4144_18911" style="mask-type:alpha" maskUnits="userSpaceOnUse" x="0" y="0" width="104" height="105">
<rect x="0.0385742" y="0.461548" width="103.923" height="103.923" fill="white"/>
</mask>
<g mask="url(#mask0_4144_18911)">
<path d="M62.6292 33.7647C61.2062 33.251 60.185 33.2405 59.5655 33.7227C58.9294 34.205 58.628 35.0227 58.628 36.1654V42.3507C58.628 43.5249 58.4606 44.4998 58.1091 45.2756C57.7575 46.0828 57.1715 46.649 56.368 46.9844C55.5811 47.3304 54.5097 47.4142 53.1537 47.257C51.8311 47.1102 50.1737 46.6699 48.1983 45.957L47.2607 45.6111V40.7362L48.4494 41.1661C49.8724 41.6797 50.8099 41.7426 51.2786 41.3757C51.7809 41.0088 52.032 40.254 52.032 39.1113V33.6598C52.032 32.2341 52.2496 31.1123 52.7016 30.2946C53.1369 29.4664 54.0242 28.9422 55.3468 28.7116C54.0242 27.5269 53.1369 26.3528 52.7016 25.2101C52.2664 24.0674 52.0487 22.7884 52.0487 21.3626V15.9112C52.0487 14.7685 51.7976 13.8249 51.2954 13.1016C50.8266 12.3887 49.8724 11.7702 48.4661 11.2565L47.2775 10.8266V5.95178L48.215 6.29774C50.1905 7.01062 51.8478 7.77592 53.1704 8.58316C54.5264 9.40087 55.5979 10.2605 56.3847 11.1831C57.205 12.1056 57.791 13.0911 58.1258 14.1499C58.4774 15.1773 58.6448 16.2781 58.6448 17.4522V23.6375C58.6448 24.7803 58.9629 25.8286 59.5823 26.7616C60.2185 27.6947 61.2397 28.4285 62.6459 28.9317L62.6292 33.7647Z" fill="#91B18E"/>
<path d="M26.7681 15.848C28.1911 16.3617 29.2123 16.3721 29.8317 15.8899C30.4679 15.4077 30.7692 14.5899 30.7692 13.4472V7.26193C30.7692 6.08778 30.9366 5.1128 31.2882 4.33702C31.6398 3.52979 32.209 2.96367 32.9958 2.61772C33.8161 2.28224 34.8876 2.19838 36.2101 2.34514C37.5662 2.5024 39.2403 2.94271 41.2157 3.66607L42.1533 4.01203V8.88689L40.9646 8.45706C39.5416 7.94337 38.5874 7.86998 38.0851 8.2369C37.6164 8.61431 37.382 9.36913 37.382 10.5223V15.9738C37.382 17.3891 37.1644 18.5213 36.7124 19.339C36.2771 20.1672 35.3898 20.6914 34.0672 20.922C35.3898 22.1067 36.2771 23.2808 36.7124 24.4235C37.1476 25.5662 37.3653 26.8452 37.3653 28.271V33.7224C37.3653 34.8651 37.5996 35.7982 38.0684 36.5215C38.5706 37.2449 39.5249 37.8739 40.9479 38.3771L42.1365 38.807V43.6818L41.199 43.3359C39.2235 42.623 37.5494 41.8472 36.1934 41.04C34.8708 40.2327 33.7994 39.3731 32.9791 38.44C32.1922 37.528 31.623 36.5425 31.2882 35.4942C30.9366 34.4668 30.7692 33.366 30.7692 32.1918V26.0065C30.7692 24.8638 30.4511 23.8155 29.8317 22.8824C29.1955 21.9494 28.1743 21.2155 26.7681 20.7123V15.848Z" fill="#91B18E"/>
<path opacity="0.15" d="M64.8986 -1.61389L100.239 11.1656L100.223 64.2228L64.8818 51.4539L64.8986 -1.61389Z" fill="#D8E6D6"/>
<path d="M58.2524 5.33667L86.3777 15.4952V20.3701L58.2524 10.2115V5.33667Z" fill="#F2C94C"/>
<path opacity="0.2" d="M69.5024 27.9078L96.1545 37.5422V52.2926L69.5024 42.6582V27.9078Z" fill="#D8E6D6"/>
<path opacity="0.15" d="M69.2344 16.5961L96.2882 26.3772V28.0441L69.2344 18.263V16.5961Z" fill="#6E916B"/>
<path opacity="0.15" d="M69.2344 19.9508L92.6219 28.4005V30.0674L69.2344 21.6177V19.9508Z" fill="#6E916B"/>
<path opacity="0.15" d="M69.2344 23.2635L89.0895 30.4343V32.1012L69.2344 24.9304V23.2635Z" fill="#6E916B"/>
<path opacity="0.2" d="M64.8986 -1.61389L100.239 11.1656V18.2734L64.8818 5.50445L64.8986 -1.61389Z" fill="url(#paint0_linear_4144_18911)"/>
<path opacity="0.2" d="M73.721 5.1795C73.721 6.25931 72.7165 6.76252 71.4777 6.31172C70.2388 5.86093 69.2344 4.63436 69.2344 3.55455C69.2344 2.47474 70.2388 1.97153 71.4777 2.42232C72.7165 2.87312 73.721 4.11018 73.721 5.1795Z" fill="#6E916B"/>
<path opacity="0.1" d="M1.21498 14.6356L110 53.949L109.983 107.038L1.19824 67.7244L1.21498 14.6356Z" fill="#CBCCD6"/>
<path d="M-6.00049 27.7191L22.108 37.8777V42.7525L-6.00049 32.6045V27.7191Z" fill="#F4DFC2"/>
<path opacity="0.7" d="M8.54736 41.1171L70.9587 63.6777V65.3445L8.54736 42.7839V41.1171Z" fill="#6E916B"/>
<path opacity="0.7" d="M8.54736 44.4718L62.3872 63.9293V65.5962L8.54736 46.1387V44.4718Z" fill="#6E916B"/>
<path opacity="0.7" d="M8.54736 47.7952L54.3681 64.3592V66.0261L8.54736 49.4621V47.7952Z" fill="#6E916B"/>
<path opacity="0.2" d="M50.6685 68.9299L105.546 88.7648V103.515L50.6685 83.6803V68.9299Z" fill="#91B18E"/>
<path opacity="0.15" d="M54.8037 73.3435L63.0739 76.3313V81.2062L54.8037 78.2184V73.3435Z" fill="#F2B062"/>
<path opacity="0.15" d="M64.9321 77.2434L73.2023 80.2312V85.1061L64.9321 82.1183V77.2434Z" fill="#F2B062"/>
<path opacity="0.15" d="M75.1108 80.8604L83.381 83.8482V88.723L75.1108 85.7352V80.8604Z" fill="#F2B062"/>
<path opacity="0.15" d="M85.2896 84.7078L93.5597 87.6956V92.5704L85.2896 89.5826V84.7078Z" fill="#F2B062"/>
<path opacity="0.2" d="M-1.66455 49.4515L44.0223 65.9631V80.7135L-1.66455 64.1914V49.4515Z" fill="#D8E6D6"/>
<path opacity="0.3" d="M2.93945 54.8926L39.2344 68.0075V69.6744L2.93945 56.5595V54.8926Z" fill="#A6A7B4"/>
<path opacity="0.3" d="M2.93945 58.2473L32.0022 68.7518V70.4187L2.93945 59.9037V58.2473Z" fill="#A6A7B4"/>
<path opacity="0.1" d="M1.21484 14.6356L109.849 53.907V61.0987L1.21484 21.8378V14.6356Z" fill="#F5F5F5"/>
<path opacity="0.2" d="M13.0511 22.5088C13.0511 23.5887 12.0466 24.0919 10.8078 23.6411C9.56893 23.1903 8.56445 21.9637 8.56445 20.8839C8.56445 19.8041 9.56893 19.3009 10.8078 19.7517C12.0466 20.2025 13.0511 21.4395 13.0511 22.5088Z" fill="#6E916B"/>
</g>
<defs>
<linearGradient id="paint0_linear_4144_18911" x1="77.0156" y1="-1.50366" x2="81.5467" y2="18.9812" gradientUnits="userSpaceOnUse">
<stop stop-color="white"/>
<stop offset="1" stop-color="white" stop-opacity="0"/>
</linearGradient>
</defs>
</svg>
